<svg width="763" height="486" viewBox="0 0 763 486" fill="none" xmlns="http://www.w3.org/2000/svg">
<g clip-path="url(#clip0_82_5219)">
<path d="M758.062 484.744H333.21C331.901 484.742 330.646 484.118 329.721 483.009C328.795 481.899 328.274 480.395 328.272 478.826V5.91871C328.274 4.3496 328.795 2.84534 329.721 1.73581C330.646 0.626286 331.901 0.00205362 333.21 0H758.062C759.371 0.00205362 760.626 0.626286 761.552 1.73581C762.477 2.84534 762.998 4.3496 763 5.91871V478.824C762.998 480.394 762.478 481.898 761.552 483.008C760.626 484.117 759.371 484.743 758.062 484.744ZM333.21 2.36282C332.426 2.36487 331.674 2.73935 331.119 3.40431C330.564 4.06927 330.252 4.97055 330.25 5.91094V478.824C330.252 479.765 330.564 480.666 331.119 481.331C331.674 481.996 332.426 482.371 333.21 482.373H758.062C758.847 482.371 759.599 481.996 760.153 481.331C760.708 480.666 761.021 479.765 761.022 478.824V5.91871C761.02 4.97832 760.708 4.07703 760.153 3.41207C759.598 2.74712 758.846 2.37264 758.062 2.37059L333.21 2.36282Z" fill="#E6E6E6"/>
<path d="M533.961 122.887C533.071 122.887 532.219 123.31 531.59 124.064C530.961 124.817 530.608 125.839 530.608 126.905C530.608 127.971 530.961 128.993 531.59 129.746C532.219 130.5 533.071 130.923 533.961 130.923H717.915C718.804 130.923 719.657 130.5 720.286 129.746C720.914 128.993 721.268 127.971 721.268 126.905C721.268 125.839 720.914 124.817 720.286 124.064C719.657 123.31 718.804 122.887 717.915 122.887H533.961Z" fill="#E6E6E6"/>
<path d="M533.961 146.998C533.071 146.998 532.219 147.421 531.59 148.175C530.961 148.929 530.608 149.951 530.608 151.016C530.608 152.082 530.961 153.104 531.59 153.858C532.219 154.611 533.071 155.035 533.961 155.035H627.873C628.762 155.035 629.615 154.611 630.244 153.858C630.872 153.104 631.226 152.082 631.226 151.016C631.226 149.951 630.872 148.929 630.244 148.175C629.615 147.421 628.762 146.998 627.873 146.998H533.961Z" fill="#E6E6E6"/>
<path d="M373.178 263.702C372.289 263.702 371.437 264.126 370.808 264.879C370.179 265.633 369.826 266.655 369.826 267.72C369.826 268.786 370.179 269.808 370.808 270.562C371.437 271.315 372.289 271.739 373.178 271.739H718.094C718.983 271.739 719.836 271.315 720.465 270.562C721.093 269.808 721.447 268.786 721.447 267.72C721.447 266.655 721.093 265.633 720.465 264.879C719.836 264.126 718.983 263.702 718.094 263.702H373.178Z" fill="#E6E6E6"/>
<path d="M373.178 287.814C372.289 287.814 371.437 288.238 370.808 288.991C370.179 289.745 369.826 290.767 369.826 291.833C369.826 292.898 370.179 293.92 370.808 294.674C371.437 295.428 372.289 295.851 373.178 295.851H628.052C628.941 295.851 629.794 295.428 630.423 294.674C631.051 293.92 631.404 292.898 631.404 291.833C631.404 290.767 631.051 289.745 630.423 288.991C629.794 288.238 628.941 287.814 628.052 287.814H373.178Z" fill="#E6E6E6"/>
<path d="M373.178 311.38C372.289 311.38 371.437 311.803 370.808 312.557C370.179 313.31 369.826 314.332 369.826 315.398C369.826 316.464 370.179 317.486 370.808 318.239C371.437 318.993 372.289 319.416 373.178 319.416H718.094C718.983 319.416 719.836 318.993 720.465 318.239C721.093 317.486 721.447 316.464 721.447 315.398C721.447 314.332 721.093 313.31 720.465 312.557C719.836 311.803 718.983 311.38 718.094 311.38H373.178Z" fill="#E6E6E6"/>
<path d="M373.178 335.492C372.289 335.492 371.437 335.916 370.808 336.669C370.179 337.423 369.826 338.445 369.826 339.51C369.826 340.576 370.179 341.598 370.808 342.352C371.437 343.105 372.289 343.529 373.178 343.529H628.052C628.941 343.529 629.794 343.105 630.423 342.352C631.051 341.598 631.404 340.576 631.404 339.51C631.404 338.445 631.051 337.423 630.423 336.669C629.794 335.916 628.941 335.492 628.052 335.492H373.178Z" fill="#E6E6E6"/>
<path d="M487.471 207.547H220.804C219.495 207.545 218.24 206.921 217.314 205.812C216.388 204.702 215.868 203.198 215.866 201.629V61.3591C215.868 59.7899 216.388 58.2855 217.314 57.1759C218.24 56.0663 219.495 55.4422 220.804 55.4404H487.471C488.78 55.4422 490.035 56.0663 490.961 57.1759C491.886 58.2855 492.407 59.7899 492.409 61.3591V201.629C492.407 203.198 491.886 204.702 490.961 205.812C490.035 206.921 488.78 207.545 487.471 207.547Z" fill="#E17A01"/>
<path d="M715.961 429.305H614.881C613.572 429.303 612.317 428.679 611.391 427.569C610.466 426.46 609.945 424.955 609.943 423.386V403.974C609.945 402.405 610.466 400.901 611.391 399.791C612.317 398.682 613.572 398.057 614.881 398.056H715.961C717.27 398.057 718.526 398.682 719.451 399.791C720.377 400.901 720.898 402.405 720.899 403.974V423.386C720.898 424.955 720.377 426.46 719.451 427.569C718.526 428.679 717.27 429.303 715.961 429.305Z" fill="#E17A01" fill-opacity="0.2"/>
<path d="M116.961 237.402C112.605 233.504 111.326 226.221 114.106 221.134C114.382 220.635 114.694 220.168 115.039 219.735L115.317 116.108L128.168 118.984L128.733 220.904C131.661 224.975 132.252 230.907 129.881 235.248C127.102 240.335 121.317 241.3 116.961 237.402Z" fill="#FFB8B8"/>
<path d="M183.795 469.351L197.043 469.35L203.347 408.099L183.793 408.1L183.795 469.351Z" fill="#FFB8B8"/>
<path d="M180.415 464.166L206.507 464.165H206.508C210.918 464.165 215.147 466.265 218.265 470.003C221.383 473.74 223.135 478.809 223.136 484.095V484.743L180.416 484.744L180.415 464.166Z" fill="#2F2E41"/>
<path d="M60.5973 469.351L73.847 469.35L80.1495 408.099L60.5955 408.1L60.5973 469.351Z" fill="#FFB8B8"/>
<path d="M57.218 464.166L83.3099 464.165H83.3109C87.7208 464.165 91.9499 466.265 95.0682 470.003C98.1865 473.74 99.9384 478.809 99.9387 484.095V484.743L57.2188 484.744L57.218 464.166Z" fill="#2F2E41"/>
<path d="M183.021 452.243L181.911 444.257C180.77 443.779 179.801 442.846 179.165 441.615C177.972 439.357 177.782 436.179 178.6 432.168L169.66 341.682L122.99 283.644L93.0502 370.201L81.1981 438.696V448.592L57.5344 452.234L58.6112 442.906C57.706 442.441 56.9517 441.636 56.4625 440.611C55.103 437.899 55.1216 433.695 56.5177 428.117L56.5782 427.875L56.5009 427.043C56.4467 426.459 56.8025 370.511 70.6785 342.791L84.5755 258.632C84.2146 257.446 82.4329 250.546 85.7004 238.885C88.9253 227.378 97.9443 208.839 122.598 185.872L122.683 185.794L122.788 185.767C123.061 185.7 150.252 179.22 164.315 201.262L164.41 201.411V201.599C164.41 202.962 164.386 234.674 162.294 241.711L195.663 315.254C196.313 316.08 202.147 324.155 200.075 345.385L205.465 417.753C206.082 419.165 211.662 432.457 205.512 437.719L206.615 446.856L183.021 452.243Z" fill="#2F2E41"/>
<path d="M127.197 148.134C120.932 148.134 112.605 145.479 107.508 133.244L107.408 133.004L119.965 101.1C121.592 96.9662 124.503 93.76 128.077 92.1672C131.651 90.5743 135.603 90.7211 139.088 92.5763C142.573 94.4315 145.313 97.8477 146.723 102.094C148.133 106.34 148.101 111.079 146.633 115.297L135.777 146.491L135.588 146.575C132.876 147.619 130.045 148.145 127.197 148.134Z" fill="#4A62B6"/>
<path d="M161.98 211.388L122.395 188.982L127.836 109.414L137.756 94.8817L139.678 94.3885C148.509 92.1221 157.686 92.7313 166.255 96.1529L166.444 96.2282L182.738 137.893C182.84 138.101 194.591 162.968 178.347 176.078L161.98 211.388Z" fill="#4A62B6"/>
<path d="M216.401 186.031C215.928 186.267 215.472 186.547 215.036 186.869L173.323 163.998L172.253 150.703L155.302 150.017L155.288 173.774C155.287 175.693 155.805 177.561 156.765 179.097C157.725 180.633 159.075 181.754 160.612 182.293L210.702 199.839C211.217 202.121 212.299 204.16 213.804 205.687C215.309 207.213 217.166 208.154 219.128 208.384C221.091 208.615 223.065 208.124 224.789 206.977C226.512 205.829 227.904 204.08 228.778 201.962C229.652 199.844 229.967 197.457 229.682 195.118C229.397 192.78 228.524 190.601 227.18 188.872C225.837 187.142 224.086 185.944 222.16 185.437C220.234 184.929 218.226 185.136 216.401 186.031Z" fill="#FFB8B8"/>
<path d="M165.378 156.377C160.625 156.377 155.261 154.407 150.112 148.235L149.953 148.045L153.432 113.017C153.883 108.478 155.798 104.332 158.767 101.464C161.736 98.5963 165.523 97.2352 169.319 97.6719C173.114 98.1086 176.616 100.308 179.076 103.801C181.536 107.293 182.757 111.801 182.479 116.359L180.426 150.067L180.268 150.219C180.168 150.315 173.714 156.377 165.378 156.377Z" fill="#4A62B6"/>
<path d="M178.098 67.164C185.13 51.7468 180.403 32.4166 167.54 23.9888C154.677 15.561 138.55 21.227 131.519 36.6442C124.487 52.0614 129.215 71.3917 142.077 79.8195C154.94 88.2473 171.067 82.5813 178.098 67.164Z" fill="#FFB8B8"/>
<path d="M181.822 35.0478C180.505 25.866 174.356 18.2545 167.03 15.1401C159.704 12.0258 151.443 13.0386 144.269 16.625C143.075 17.225 141.907 17.8981 140.77 18.6419C138.147 12.6513 131.719 9.17684 125.839 9.55184C118.736 10.0049 112.321 14.5098 106.152 18.7555C99.9827 23.0012 93.3627 27.2255 86.2508 27.0278C73.3989 26.6707 63.8375 12.3891 51.4792 8.14475C45.9778 6.25541 40.1239 6.44653 34.7165 8.69204C29.309 10.9376 24.6112 15.1281 21.2641 20.6919C17.9169 26.2557 16.0834 32.9218 16.0138 39.7807C15.9441 46.6396 17.6417 53.3572 20.8748 59.017C26.1479 47.6906 38.531 43.8651 49.2758 45.407C60.0202 46.9489 70.0342 52.5941 80.5604 55.601C91.0871 58.608 103.278 58.479 111.432 49.9515C116.057 45.1145 118.773 38.2011 122.799 32.6481C125.523 28.8921 129.4 25.7206 133.362 24.9741C129.46 29.1862 126.48 34.4829 124.686 40.3985C121.509 51.2168 123.208 64.2062 129.798 72.5214C136.863 81.4361 147.951 83.812 158.209 83.6678L158.423 83.4064C155.283 77.7718 152.804 69.9588 156.262 64.5977C159.676 59.3057 166.408 60.0854 171.635 57.7437C178.916 54.4822 183.139 44.2297 181.822 35.0478Z" fill="#2F2E41"/>
<path d="M253.468 486H0.925064C0.679722 486 0.444427 485.883 0.270944 485.675C0.0974611 485.467 0 485.185 0 484.891C0 484.597 0.0974611 484.315 0.270944 484.107C0.444427 483.899 0.679722 483.782 0.925064 483.782H253.468C253.713 483.782 253.948 483.899 254.122 484.107C254.295 484.315 254.393 484.597 254.393 484.891C254.393 485.185 254.295 485.467 254.122 485.675C253.948 485.883 253.713 486 253.468 486Z" fill="#CCCCCC"/>
<path d="M342.172 104.637C341.014 104.641 340.077 106.444 340.079 108.663C340.081 110.876 341.017 112.669 342.172 112.673H441.033C442.191 112.669 443.128 110.866 443.126 108.647C443.123 106.434 442.188 104.641 441.033 104.637H342.172Z" fill="white"/>
<path d="M342.172 127.921C341.014 127.925 340.077 129.728 340.079 131.947C340.081 134.16 341.017 135.953 342.172 135.957H441.033C442.191 135.953 443.128 134.15 443.126 131.931C443.123 129.718 442.188 127.925 441.033 127.921H342.172Z" fill="white"/>
<path d="M342.172 150.924C341.014 150.928 340.077 152.731 340.079 154.95C340.081 157.163 341.017 158.956 342.172 158.96H384.712C385.87 158.956 386.807 157.153 386.805 154.934C386.802 152.721 385.867 150.928 384.712 150.924H342.172Z" fill="white"/>
<path d="M291.976 163.649C306.792 163.649 318.803 149.252 318.803 131.494C318.803 113.735 306.792 99.3389 291.976 99.3389C277.16 99.3389 265.149 113.735 265.149 131.494C265.149 149.252 277.16 163.649 291.976 163.649Z" fill="white"/>
</g>
<defs>
<clipPath id="clip0_82_5219">
<rect width="763" height="486" fill="white"/>
</clipPath>
</defs>
</svg>
