<?xml version="1.0" ?>
<svg viewBox="0 0 36 36" xmlns="http://www.w3.org/2000/svg">
    <defs>
        <style>.cls-1{fill:#031054;}.cls-2{fill:#031054;}.cls-3{fill:#E17A01;}</style>
    </defs>
    <title/>
    <g id="crying">
        <path class="cls-1"
              d="M6,18A15,15,0,0,1,19.5,3.08,14.76,14.76,0,0,0,18,3a15,15,0,0,0,0,30,14.76,14.76,0,0,0,1.5-.08A15,15,0,0,1,6,18Z"/>
        <path class="cls-2" d="M18,34A16,16,0,1,1,34,18,16,16,0,0,1,18,34ZM18,4A14,14,0,1,0,32,18,14,14,0,0,0,18,4Z"/>
        <path class="cls-2"
              d="M20.72,21.57A6.73,6.73,0,0,0,18,21a6.62,6.62,0,0,0-5.87,3.46,1,1,0,1,0,1.74,1A4.68,4.68,0,0,1,18,23a4.74,4.74,0,0,1,2.05.47A6.28,6.28,0,0,1,20.72,21.57Z"/>
        <path class="cls-3" d="M23,16a2,2,0,1,1,2-2A2,2,0,0,1,23,16Zm0-2Z"/>
        <path class="cls-3" d="M13,16a2,2,0,1,1,2-2A2,2,0,0,1,13,16Zm0-2Z"/>
        <path class="cls-3"
              d="M25,27.7A3.7,3.7,0,0,1,21.3,24c0-1.42,1.71-3.83,3.18-5.47a.72.72,0,0,1,1,0c1.47,1.64,3.18,4,3.18,5.47A3.7,3.7,0,0,1,25,27.7Z"/>
    </g>
</svg>
