<svg width="21" height="22" viewBox="0 0 21 22" fill="none" xmlns="http://www.w3.org/2000/svg">
<path d="M1.41484 10.4944L3.04825 4.496C3.28909 3.61531 4.06675 3 4.94021 3H13.7819C14.1448 3 14.4375 3.308 14.4375 3.6875V13.3125C14.4375 13.4603 14.3928 13.6047 14.3082 13.7229L10.7697 18.7004C10.3772 19.2154 9.81156 19.5 9.20518 19.5C8.1099 19.5 8.5 18.1474 8.5 17L8 14H3.93681C3.10665 14 2.34409 13.6019 1.84468 12.9076C1.34331 12.2118 1.18712 11.3325 1.41484 10.4944Z" fill="#031054"/>
<path d="M16.407 13.75H19.032C19.3949 13.75 19.6876 13.442 19.6876 13.0625V3.4375C19.6876 3.058 19.3949 2.75 19.032 2.75H16.407C16.0441 2.75 15.7507 3.058 15.7507 3.4375V13.0625C15.7507 13.442 16.0441 13.75 16.407 13.75ZM17.7195 4.46875C18.2629 4.46875 18.7039 4.93075 18.7039 5.5C18.7039 6.06925 18.2629 6.53125 17.7195 6.53125C17.1761 6.53125 16.7351 6.06925 16.7351 5.5C16.7351 4.93075 17.1761 4.46875 17.7195 4.46875Z" fill="#031054"/>
</svg>
