<svg width="20" height="21" viewBox="0 0 20 21" fill="none" xmlns="http://www.w3.org/2000/svg">
<path d="M10.2403 20.7836C7.68084 20.7836 5.22621 19.725 3.4164 17.8406C1.60659 15.9562 0.589844 13.4004 0.589844 10.7354C0.589844 8.0705 1.60659 5.51471 3.4164 3.6303C5.22621 1.7459 7.68084 0.687256 10.2403 0.687256C12.7998 0.687256 15.2544 1.7459 17.0642 3.6303C18.874 5.51471 19.8908 8.0705 19.8908 10.7354C19.8908 13.4004 18.874 15.9562 17.0642 17.8406C15.2544 19.725 12.7998 20.7836 10.2403 20.7836ZM11.2053 15.7595H12.1704C12.9382 15.7595 13.6746 15.442 14.2176 14.8766C14.7605 14.3113 15.0655 13.5446 15.0655 12.7451C15.0655 11.9456 14.7605 11.1789 14.2176 10.6135C13.6746 10.0482 12.9382 9.73063 12.1704 9.73063H8.30056C8.04461 9.73063 7.79915 9.62476 7.61817 9.43632C7.43719 9.24788 7.33551 8.9923 7.33551 8.72581C7.33551 8.45932 7.43719 8.20374 7.61817 8.0153C7.79915 7.82686 8.04461 7.72099 8.30056 7.72099H14.1005V5.71135H11.2053V3.70171H9.27525V5.71135H8.31021C7.54237 5.71135 6.80598 6.02895 6.26304 6.59427C5.72009 7.15959 5.41507 7.92633 5.41507 8.72581C5.41507 9.52529 5.72009 10.292 6.26304 10.8574C6.80598 11.4227 7.54237 11.7403 8.31021 11.7403H12.1704C12.4263 11.7403 12.6718 11.8461 12.8528 12.0346C13.0338 12.223 13.1354 12.4786 13.1354 12.7451C13.1354 13.0116 13.0338 13.2672 12.8528 13.4556C12.6718 13.644 12.4263 13.7499 12.1704 13.7499H6.38012V15.7595H9.27525V17.7692H11.2053V15.7595Z" fill="#E17A01"/>
</svg>
