<svg width="22" height="20" viewBox="0 0 22 20" fill="none" xmlns="http://www.w3.org/2000/svg">
<g id="172529_price_usd_tag_icon 1" clip-path="url(#clip0_369_9094)">
<path id="Vector" d="M20.6804 2.2002C20.6804 1.6478 20.1881 1.2002 19.5804 1.2002C19.5118 1.2002 13.035 1.201 13.035 1.201C12.4498 1.201 11.8897 1.173 11.5649 1.4682L1.56418 10.5594C1.23902 10.8546 1.23902 11.3338 1.56418 11.629L9.20874 18.5786C9.53346 18.8738 10.0606 18.8738 10.3853 18.5786L20.3856 9.487C20.7103 9.1922 20.6795 8.695 20.6795 8.151C20.6795 8.151 20.6804 2.2626 20.6804 2.2002Z" stroke="#031054" stroke-width="2" stroke-miterlimit="10" stroke-linecap="round"/>
<g id="Group">
<path id="Vector_2" d="M8.55328 11.3314C8.55592 11.6754 8.6778 12.0014 8.91848 12.3078L10.8356 10.565C10.6428 10.2758 10.491 10.013 10.3802 9.77616C10.2684 9.53856 10.2042 9.31776 10.1844 9.11136C10.1654 8.90536 10.2015 8.70816 10.2935 8.51976C10.385 8.33096 10.5368 8.14016 10.7489 7.94696C10.9658 7.74976 11.2034 7.60416 11.4612 7.50976C11.7191 7.41536 11.9809 7.36816 12.2462 7.36816C12.5115 7.36816 12.7729 7.41496 13.0312 7.50976C13.289 7.60376 13.5288 7.73896 13.751 7.91416L14.2284 7.48016L14.6262 7.84216L14.1413 8.28296C14.4836 8.68176 14.6499 9.09576 14.6407 9.52536C14.631 9.95496 14.462 10.407 14.1342 10.8802L13.5196 10.3214C13.9002 9.79936 13.9103 9.29976 13.5486 8.82216L11.7688 10.4402L12.0869 10.9394C12.1595 11.0494 12.2304 11.191 12.3008 11.3642C12.3703 11.537 12.4125 11.7266 12.427 11.933C12.4416 12.1386 12.4116 12.3526 12.3368 12.5742C12.262 12.7958 12.1133 13.007 11.8916 13.2086C11.6553 13.4234 11.4058 13.5782 11.1427 13.6722C10.88 13.7666 10.612 13.8106 10.3401 13.8038C10.0673 13.797 9.79628 13.7414 9.52568 13.6362C9.25596 13.5306 8.99548 13.3818 8.74468 13.1894L8.15156 13.7286L7.75336 13.367L8.34648 12.8274C7.91264 12.345 7.6966 11.8442 7.69924 11.3246C7.70144 10.805 7.93684 10.2974 8.40456 9.80176L9.01924 10.3606C8.70684 10.6638 8.55108 10.9874 8.55328 11.3314ZM9.76152 12.943C9.91376 13.011 10.0682 13.0494 10.2284 13.0578C10.3872 13.0666 10.5465 13.0402 10.7058 12.979C10.8646 12.9178 11.0217 12.817 11.1761 12.6766C11.3152 12.5494 11.4084 12.421 11.4546 12.2914C11.5004 12.1622 11.5158 12.0298 11.5013 11.8938C11.4868 11.7578 11.4441 11.6166 11.3746 11.4694C11.305 11.3222 11.2236 11.1726 11.1321 11.0194L9.31668 12.6698C9.461 12.7834 9.60972 12.875 9.76152 12.943ZM12.3333 8.13176C12.0297 8.11416 11.7398 8.23016 11.4652 8.48016C11.3398 8.59416 11.2531 8.71056 11.2047 8.82896C11.1563 8.94696 11.1396 9.06776 11.1537 9.19016C11.1682 9.31336 11.2043 9.44016 11.2624 9.57176C11.3204 9.70336 11.3926 9.83936 11.4793 9.97936L13.1724 8.44056C12.9163 8.25216 12.6374 8.14896 12.3333 8.13176Z" fill="#031054"/>
</g>
</g>
<defs>
<clipPath id="clip0_369_9094">
<rect width="22" height="20" fill="white"/>
</clipPath>
</defs>
</svg>
