<svg width="24" height="24" viewBox="0 0 24 24" fill="none" xmlns="http://www.w3.org/2000/svg">
<path d="M20.0001 4H4.00006C3.20441 4 2.44135 4.31607 1.87874 4.87868C1.31613 5.44129 1.00006 6.20435 1.00006 7V17C1.00006 17.7956 1.31613 18.5587 1.87874 19.1213C2.44135 19.6839 3.20441 20 4.00006 20H20.0001C20.7957 20 21.5588 19.6839 22.1214 19.1213C22.684 18.5587 23.0001 17.7956 23.0001 17V7C23.0001 6.20435 22.684 5.44129 22.1214 4.87868C21.5588 4.31607 20.7957 4 20.0001 4ZM21.0001 16.75L16.1001 12.35L21.0001 8.92V16.75ZM3.00006 8.92L7.90006 12.35L3.00006 16.75V8.92ZM9.58006 13.53L11.4301 14.82C11.5975 14.9361 11.7963 14.9984 12.0001 14.9984C12.2038 14.9984 12.4027 14.9361 12.5701 14.82L14.4201 13.53L19.4201 18H4.60006L9.58006 13.53ZM4.00006 6H20.0001C20.1858 6.00149 20.3674 6.05467 20.5246 6.15358C20.6818 6.25249 20.8083 6.39322 20.8901 6.56L12.0001 12.78L3.11006 6.56C3.19177 6.39322 3.31832 6.25249 3.47551 6.15358C3.63271 6.05467 3.81434 6.00149 4.00006 6Z" fill="#4A62B6"/>
</svg>
