<svg width="23" height="22" viewBox="0 0 23 22" fill="none" xmlns="http://www.w3.org/2000/svg">
<g clip-path="url(#clip0_114_4410)">
<path d="M7.39617 6.875C8.06855 3.03789 9.65444 0.34375 11.5 0.34375C13.3456 0.34375 14.9315 3.03789 15.6038 6.875H7.39617ZM15.9516 11C15.9516 11.9539 15.896 12.8691 15.7986 13.75H7.20605C7.10867 12.8691 7.05302 11.9539 7.05302 11C7.05302 10.0461 7.10867 9.13086 7.20605 8.25H15.7986C15.896 9.13086 15.9516 10.0461 15.9516 11ZM0.894959 6.875C2.22117 3.95742 4.90605 1.70156 8.22157 0.790625C7.09012 2.24297 6.31109 4.43008 5.90302 6.875H0.894959ZM14.7831 0.790625C18.094 1.70156 20.7835 3.95742 22.105 6.875H17.097C16.6935 4.43008 15.9145 2.24297 14.7831 0.790625ZM0.39879 8.25H5.71754C5.62016 9.15234 5.56452 10.0762 5.56452 11C5.56452 11.9238 5.62016 12.8477 5.71754 13.75H0.403428C0.148387 12.8691 0.00463714 11.9539 0.00463714 11C0.00463714 10.0461 0.148387 9.13086 0.39879 8.25ZM17.4355 11C17.4355 10.0762 17.3798 9.15234 17.2825 8.25H22.6012C22.8516 9.13086 23 10.0461 23 11C23 11.9539 22.8516 12.8691 22.6012 13.75H17.2871C17.3798 12.8477 17.4355 11.9238 17.4355 11ZM15.6038 15.125C14.9315 18.9621 13.3456 21.6562 11.5 21.6562C9.65444 21.6562 8.06855 18.9621 7.39617 15.125H15.6038ZM8.21694 21.2094C4.90605 20.2984 2.21653 18.0426 0.890323 15.125H5.89839C6.30645 17.5699 7.08548 19.757 8.21694 21.2094ZM22.105 15.125C20.7788 18.0426 18.094 20.2984 14.7784 21.2094C15.9099 19.757 16.6889 17.5699 17.097 15.125H22.105Z" fill="#031054"/>
</g>
<defs>
<clipPath id="clip0_114_4410">
<rect width="23" height="22" fill="white" transform="matrix(-1 0 0 1 23 0)"/>
</clipPath>
</defs>
</svg>
