<svg width="222" height="317" viewBox="0 0 222 317" fill="none" xmlns="http://www.w3.org/2000/svg">
<circle cx="98" cy="81" r="20" fill="#E17A01"/>
<path d="M16.377 244.869L21.582 244.59L33.1348 276.887L37.4512 277.877V281H22.3691V277.877L27.1934 276.887L25.2129 271.123H11.7051L9.67383 276.887L14.5488 277.877V281H0.253906V277.877L4.51953 276.887L16.377 244.869ZM18.5605 251.318L13.1016 266.959H23.8164L18.5605 251.318ZM46.2109 257.234C47.1927 256.168 48.3522 255.186 49.6895 254.289C51.0436 253.375 52.5078 252.918 54.082 252.918C54.8438 252.918 55.5632 252.977 56.2402 253.096C56.9342 253.214 57.5013 253.341 57.9414 253.477C58.3815 253.595 58.6523 253.671 58.7539 253.705L58.5 261.246H55.0977L54.3359 257.336C52.6094 257.336 51.1198 257.751 49.8672 258.58C48.6146 259.41 47.5905 260.349 46.7949 261.398V276.836L52 278.131V281H37.1719V278.131L41.5898 276.836V257.59L37.1719 256.549V253.705L45.7539 253.451L46.2109 257.234ZM70.3828 257.133C71.3646 256.202 72.7188 255.271 74.4453 254.34C76.1719 253.392 77.9577 252.918 79.8027 252.918C83.3066 252.918 85.7188 254.408 87.0391 257.387C87.9023 256.523 89.2142 255.567 90.9746 254.518C92.752 253.451 94.6647 252.918 96.7129 252.918C99.4889 252.918 101.52 253.739 102.807 255.381C104.11 257.006 104.762 259.308 104.762 262.287V276.836L108.672 278.131V281H96.1797V278.131L99.5566 276.836V262.795C99.5566 260.882 99.2266 259.494 98.5664 258.631C97.9062 257.768 96.7637 257.336 95.1387 257.336C93.8184 257.336 92.6165 257.649 91.5332 258.275C90.4668 258.902 89.5866 259.579 88.8926 260.307C88.1986 261.035 87.8516 261.432 87.8516 261.5V276.836L91.2539 278.131V281H79.2695V278.131L82.6719 276.836V262.795C82.6719 260.882 82.3418 259.494 81.6816 258.631C81.0215 257.768 79.8789 257.336 78.2539 257.336C76.9336 257.336 75.7318 257.649 74.6484 258.275C73.582 258.902 72.7018 259.579 72.0078 260.307C71.3138 261.035 70.9668 261.432 70.9668 261.5V276.836L74.3438 278.131V281H61.3438V278.131L65.7617 276.836V257.59L61.3438 256.549V253.705L69.9258 253.451L70.3828 257.133ZM119.082 275.795C119.217 275.863 119.531 276.007 120.021 276.227C120.512 276.43 121.181 276.624 122.027 276.811C122.874 276.997 123.796 277.09 124.795 277.09C126.877 277.09 128.722 276.599 130.33 275.617C131.955 274.635 132.768 273.273 132.768 271.529C132.768 270.412 132.421 269.481 131.727 268.736C131.033 267.975 130.169 267.357 129.137 266.883C128.121 266.409 126.716 265.842 124.922 265.182C122.569 264.352 120.665 263.574 119.209 262.846C117.77 262.118 116.535 261.068 115.502 259.697C114.486 258.326 113.979 256.566 113.979 254.416C113.979 250.98 115.146 248.398 117.482 246.672C119.835 244.945 122.781 244.082 126.318 244.082C127.774 244.082 129.314 244.243 130.939 244.564C132.564 244.869 133.952 245.191 135.104 245.529C136.255 245.851 136.982 246.062 137.287 246.164L137.033 255H133.656L131.879 249.439C131.743 249.406 131.413 249.312 130.889 249.16C130.364 248.991 129.687 248.839 128.857 248.703C128.028 248.568 127.199 248.5 126.369 248.5C124.152 248.5 122.442 248.999 121.24 249.998C120.038 250.98 119.438 252.165 119.438 253.553C119.438 254.67 119.785 255.609 120.479 256.371C121.173 257.116 122.036 257.734 123.068 258.225C124.118 258.715 125.582 259.291 127.461 259.951C129.712 260.747 131.557 261.5 132.996 262.211C134.435 262.922 135.654 263.929 136.652 265.232C137.668 266.519 138.176 268.152 138.176 270.133C138.176 272.621 137.566 274.729 136.348 276.455C135.129 278.165 133.487 279.434 131.422 280.264C129.374 281.093 127.097 281.508 124.592 281.508C122.967 281.508 121.367 281.355 119.793 281.051C118.219 280.746 116.907 280.433 115.857 280.111C114.825 279.773 114.165 279.553 113.877 279.451V270.336H118.041L119.082 275.795ZM160.52 257.285L158.184 256.549V253.705L169.609 253.451V256.549L165.928 257.184H165.877L160.52 265.131L167.223 276.836H167.273L171.184 278.131V281H164.15L156.711 267.746H152.191V276.836L155.568 278.131V281H142.568V278.131L146.986 276.836V245.123L142.568 244.082V241.213L152.191 240.959V263.836H156.609L160.52 257.285ZM176.896 244.869C176.896 243.718 177.227 242.821 177.887 242.178C178.547 241.535 179.342 241.213 180.273 241.213C182.525 241.213 183.65 242.432 183.65 244.869C183.65 245.986 183.303 246.875 182.609 247.535C181.915 248.178 181.137 248.5 180.273 248.5C179.241 248.5 178.42 248.178 177.811 247.535C177.201 246.892 176.896 246.003 176.896 244.869ZM187.027 281H173.52V278.131L177.938 276.836V257.59L173.52 256.549V253.705L183.143 253.451V276.836L187.027 278.131V281ZM204.547 281H190.15V278.131L194.568 276.836V245.123L190.15 244.082V241.213L199.875 240.959V276.836L204.547 278.131V281ZM220.492 281H206.096V278.131L210.514 276.836V245.123L206.096 244.082V241.213L215.82 240.959V276.836L220.492 278.131V281Z" fill="black"/>
<path fill-rule="evenodd" clip-rule="evenodd" d="M183.651 80.6081C183.568 99.7008 176.548 117.243 164.883 131.053C163.135 133.122 163.057 136.171 164.838 138.211C166.654 140.29 169.797 140.443 172.515 139.965C175.771 139.393 179.249 140.367 181.695 142.857L218.428 180.261C222.29 184.194 222.119 190.419 218.045 194.164L212.588 199.183C208.514 202.928 202.081 202.777 198.219 198.844L161.486 161.44C158.903 158.81 158.124 155.155 159.11 151.902C159.863 149.417 160.103 146.484 158.395 144.528C158.191 144.294 157.971 144.084 157.736 143.898L157.748 143.888L141.121 123.441C153.12 112.732 160.654 97.5037 160.727 80.6081C160.868 48.1917 133.491 21.9131 99.58 21.9131C65.6689 21.9131 38.0647 48.1917 37.9242 80.6081C37.7838 113.024 65.1603 139.303 99.0714 139.303C111.904 139.303 123.833 135.54 133.713 129.105L147.834 146.471L99.4476 186.39C98.317 187.323 96.678 187.302 95.5714 186.341L47.0736 144.225C46.9013 144.075 46.752 143.915 46.6244 143.747C27.2526 128.98 14.8899 106.185 15.0007 80.6081C15.1936 36.0895 53.1035 0 99.6749 0C146.246 0 183.844 36.0895 183.651 80.6081Z" fill="#031054"/>
<path d="M140.358 116.962C149.31 110.26 155.308 100.223 157.273 88.6537C159.239 77.0845 157.044 64.7416 151.083 53.8421C145.122 42.9426 135.784 34.2008 124.749 29.1871C113.713 24.1733 101.702 23.2161 90.8734 26.4875C100.836 23.4778 113.335 28.2446 123.488 32.8573C133.641 37.47 142.231 45.5124 147.716 55.5399C153.2 65.5675 154.907 76.5 153.411 87.5666C152 98 148.594 110.796 140.358 116.962Z" fill="#B9B8B8"/>
</svg>
