<svg width="86" height="81" viewBox="0 0 86 81" fill="none" xmlns="http://www.w3.org/2000/svg">
<path d="M41.5846 0.790952C40.4376 1.24241 39.5347 1.71536 39.5591 1.84435C39.6323 2.14532 43.3173 6.87487 43.4149 6.78888C43.5858 6.6384 46.7339 0.532977 46.6607 0.511479C45.2208 -0.240949 44.0738 -0.176455 41.5846 0.790952Z" fill="#031054"/>
<path d="M47.0023 2.03798C46.7338 2.61843 45.9285 4.12328 45.2452 5.41316C44.147 7.47696 43.9762 7.71344 43.6833 7.36947C43.3905 7.02551 43.3661 7.02551 43.2197 7.34797C43.122 7.54146 43.122 7.84243 43.1953 8.01441C43.3661 8.37988 43.781 8.44437 43.781 8.1219C43.781 7.49846 44.5619 8.37988 48.2713 13.1739C50.5165 16.0761 52.4444 18.4409 52.5176 18.4409C52.6152 18.4409 53.933 16.4416 55.4217 13.9693C56.9348 11.5186 58.7162 8.63785 59.3752 7.58445L60.571 5.64964L54.2991 3.32786C50.8581 2.05948 47.9296 1.02758 47.7832 1.02758C47.6124 1.02758 47.2707 1.47903 47.0023 2.03798Z" fill="#031054"/>
<path d="M29.9195 5.06915L22.0369 8.01437L19.987 12.4214C18.84 14.8507 17.8882 16.936 17.8638 17.065C17.7662 17.3875 30.4319 30.9527 30.6272 30.7377C30.8712 30.5227 42.8048 8.01437 42.8048 7.79939C42.8048 7.34793 38.5341 2.10243 38.1924 2.12393C37.9728 2.14543 34.2634 3.4568 29.9195 5.06915Z" fill="#E17A01"/>
<path d="M57.3496 12.6367C55.1044 16.3128 53.1521 19.301 53.0545 19.301C52.9325 19.301 52.7861 19.172 52.7128 19.0216C52.5908 18.8066 52.542 18.8066 52.42 19.0216C52.3468 19.172 52.2004 19.301 52.0783 19.301C51.9807 19.301 50.2236 17.1512 48.1981 14.507C44.025 9.111 43.6101 8.61654 43.4637 8.76703C43.0732 9.13249 31.3105 31.6408 31.4081 31.8343C31.5545 32.1568 38.9001 40.0251 39.0954 40.0895C39.193 40.1325 42.1215 35.532 45.5868 29.878C49.0766 24.2456 51.9563 19.5805 52.0051 19.516C52.0783 19.4515 52.2248 19.5805 52.3712 19.7955C52.5908 20.1609 52.6396 20.1609 52.9081 19.8385C53.1521 19.559 53.4938 19.8815 55.2509 22.1388C56.3734 23.6006 59.5216 27.5992 62.206 31.0604L67.1356 37.3163L70.9671 31.0819L74.8229 24.869L70.9183 16.4418L66.9892 8.0146L64.256 7.0042C62.7185 6.42375 61.4739 5.9723 61.4739 5.9723C61.4739 5.9723 59.6192 8.98201 57.3496 12.6367Z" fill="#031054"/>
<path d="M15.0087 23.0844C13.7641 25.7931 12.8123 28.1149 12.91 28.3084C13.5933 29.9637 21.6954 47.248 21.8175 47.248C21.8907 47.248 23.7454 43.8299 25.9417 39.6593C28.1625 35.5102 29.9928 32.049 30.0416 32.006C30.066 31.963 30.2613 32.049 30.4809 32.1995C30.7738 32.4145 30.8714 32.393 30.9934 32.092C31.213 31.5975 30.6517 31.1246 30.3589 31.5545C30.1392 31.834 30.0416 31.8125 29.6756 31.4041C27.5036 28.9533 17.5223 18.2473 17.4247 18.2473C17.3271 18.2258 16.2533 20.4186 15.0087 23.0844Z" fill="#031054"/>
<path d="M71.7481 31.5119C67.5506 38.3267 67.7214 38.0688 67.3065 37.7678C67.0381 37.5743 66.9405 37.5958 66.8184 37.8538C66.5988 38.3697 66.9405 38.7137 67.3553 38.4127C67.5506 38.2837 67.7458 38.1978 67.7946 38.2407C67.8434 38.2837 68.3803 38.9932 68.9904 39.8101L70.113 41.2935L70.5035 40.455C70.7231 39.9821 72.1141 37.0154 73.5784 33.8337L76.2628 28.0722L75.8479 27.0188C75.6039 26.4384 75.3599 25.9654 75.2867 25.9654C75.189 25.9654 73.6028 28.4592 71.7481 31.5119Z" fill="#031054"/>
<path d="M26.6004 40.3688C24.3308 44.6254 22.5249 48.1511 22.5737 48.1941C22.6225 48.2371 24.7945 49.0325 27.3569 49.9784L32.0669 51.7197L33.6288 49.226C34.4829 47.8286 35.9716 45.4423 36.9233 43.873L38.6804 41.0352L34.8246 36.8431C32.7014 34.5429 30.9199 32.651 30.8467 32.651C30.7735 32.6295 28.87 36.1122 26.6004 40.3688Z" fill="#031054"/>
<path d="M63.5969 44.6902C61.669 47.7859 60.156 50.3656 60.2048 50.4086C60.278 50.4516 61.8154 49.9357 63.6701 49.2477L67.0135 48.0009L68.3557 45.0771L69.7224 42.1534L68.5266 40.6271C67.8676 39.7886 67.2575 39.1007 67.1843 39.0792C67.1111 39.0792 65.5004 41.616 63.5969 44.6902Z" fill="#031054"/>
<path d="M39.0223 40.627C38.7782 41.1859 39.0711 41.8094 39.4371 41.4869C39.6324 41.3149 39.6324 41.0999 39.4615 40.756C39.2175 40.3045 39.1687 40.3045 39.0223 40.627Z" fill="#031054"/>
<path d="M36.1424 46.9474C34.4097 49.7421 33.043 52.0424 33.0918 52.0854C33.5555 52.4078 44.0005 56.0625 44.4885 56.0625C45.1475 56.0625 50.614 54.1707 50.614 53.9342C50.5896 53.7622 39.6321 42.0028 39.4369 41.9383C39.3393 41.8954 37.8506 44.1741 36.1424 46.9474Z" fill="#031054"/>
<path d="M2.58683 68.8964C0.854143 69.6273 0 71.3686 0 74.0129C0 76.9581 1.34222 78.8069 3.70942 79.1939C5.53973 79.4949 7.54086 78.3985 8.17537 76.7646C8.395 76.1412 8.395 75.9692 8.12656 75.8187C7.58967 75.5178 6.93076 75.6037 6.93076 75.9692C6.93076 76.1627 6.5647 76.6356 6.10102 77.0441C4.66118 78.3125 2.68445 77.861 2.02554 76.0982C1.63507 75.0663 1.63507 72.7445 2.02554 71.7126C2.87968 69.4553 6.17423 69.4983 6.5891 71.7771C6.73553 72.551 6.80874 72.6155 7.56527 72.6155H8.395V70.6807V68.7459H7.54086C6.85755 68.7459 6.68672 68.8319 6.68672 69.1759C6.68672 69.5628 6.63791 69.5628 5.80817 69.0684C4.7832 68.4449 3.73382 68.4019 2.58683 68.8964Z" fill="#02092C"/>
<path d="M33.7751 73.9059V79.0654H34.6293H35.4834V77.0446C35.4834 74.1209 36.1179 73.046 37.7774 73.046C39.144 73.046 39.3881 73.562 39.3881 76.5287V79.0654H40.2422H41.0964V76.3137C41.0964 74.1424 40.9988 73.433 40.6571 72.831C39.7786 71.2832 37.6554 71.1327 36.2888 72.5301L35.4834 73.3255V71.0467V68.7464H34.6293H33.7751V73.9059Z" fill="#02092C"/>
<path d="M42.8657 68.7932V71.42H44.2977H45.7296V69.8748C45.7296 68.3605 45.7705 68.3296 46.957 68.3296H48.1844V73.5832V78.8368H46.7524C45.4023 78.8368 45.3205 78.8986 45.3205 79.9184V81H49.8209H54.3213V79.9184C54.3213 78.8986 54.2395 78.8368 52.8893 78.8368H51.4574V73.5832V68.3296H52.6848C53.8712 68.3296 53.9122 68.3605 53.9122 69.8748V71.42H55.3441H56.776V68.7932V66.1664H49.8209H42.8657V68.7932Z" fill="#E17A01"/>
<path d="M59.1558 69.7137V70.6812H60.2539H61.3521V69.7137V68.7463H60.2539H59.1558V69.7137Z" fill="#02092C"/>
<path d="M14.0079 71.6697C11.5919 72.3792 11.5431 72.4007 11.9336 73.0456C12.2753 73.6261 12.2997 73.6475 13.2026 73.3466C14.496 72.9596 16.3263 72.9596 16.79 73.3896C17.5221 74.0345 17.2781 74.3355 16.0091 74.3355C14.374 74.3355 12.4949 74.8729 11.7872 75.5394C11.0306 76.2488 10.9818 77.7107 11.6652 78.3986C12.7389 79.4305 15.1061 79.495 16.4484 78.4846L17.1805 77.9471V78.5061C17.1805 79.0005 17.2781 79.065 18.0346 79.065H18.8888V76.1843C18.8888 73.3896 18.8644 73.2606 18.2543 72.6371C17.4245 71.7557 15.3746 71.2828 14.0079 71.6697ZM17.1805 76.0338C17.1805 76.2703 16.9364 76.7218 16.6192 77.0442C15.5698 78.1191 12.7877 77.9471 12.7877 76.8077C12.7877 76.1413 14.0324 75.6254 15.6186 75.6254C17.0096 75.6254 17.1805 75.6684 17.1805 76.0338Z" fill="#02092C"/>
<path d="M24.3797 71.8422C23.1106 72.2721 22.5494 72.8956 22.5494 73.8845C22.5494 75.1744 23.6231 75.7978 26.454 76.1633C28.3819 76.4213 28.992 77.0447 27.8694 77.5821C27.1861 77.9046 24.5749 77.7111 23.5743 77.2597C22.8178 76.9157 22.8178 76.9157 22.4273 77.5606L22.0369 78.2271L23.1106 78.6355C25.4046 79.5385 28.3087 79.388 29.5289 78.3131C29.9438 77.9261 30.1146 77.5606 30.1146 76.9157C30.1146 75.5183 29.4313 75.1314 25.8927 74.5294C24.3553 74.2715 23.8672 73.82 24.6237 73.347C25.185 72.9816 27.0641 72.9601 28.1623 73.304C28.87 73.4975 29.0164 73.4975 29.3093 73.1536C29.773 72.5731 29.7242 72.4441 28.8456 72.0572C27.7718 71.5627 25.5755 71.4552 24.3797 71.8422Z" fill="#02092C"/>
<path d="M68.7952 72.1001C68.2095 72.659 68.1851 72.659 68.1851 72.2076C68.1851 71.8421 68.0387 71.7561 67.3309 71.7561H66.4768V75.4108V79.0654H67.3065H68.1363L68.2339 76.2707C68.3071 73.4545 68.5023 72.8525 69.2589 73.1105C69.5761 73.218 69.6493 73.7124 69.6493 76.1632V79.0654H70.5035H71.3576L71.382 76.9586C71.382 74.2069 71.6017 73.175 72.1874 73.089C72.9195 72.96 73.0659 73.433 73.0659 76.3137V79.0654H73.9201H74.7742V76.1847C74.7742 74.6154 74.6522 73.0245 74.5057 72.6375C74.0177 71.4337 72.8707 71.2187 71.7969 72.1216C71.4308 72.4441 71.1136 72.5945 71.1136 72.4656C71.1136 72.0786 70.3815 71.5411 69.869 71.5411C69.6005 71.5411 69.1124 71.7991 68.7952 72.1001Z" fill="#02092C"/>
<path d="M79.7526 71.9492C78.2639 72.5511 77.605 73.497 77.5074 75.1954C77.4586 76.3347 77.5318 76.7432 77.9955 77.4311C79.2401 79.3015 82.8519 79.8389 84.8042 78.4415C85.3411 78.0546 85.3411 78.0331 84.9506 77.4741L84.5358 76.9152L83.7304 77.3451C82.559 77.9901 80.8751 77.9256 79.9234 77.2162C78.5079 76.1843 78.8008 76.0553 82.5834 76.0553H86V75.3458C86 74.5289 85.2679 73.0886 84.6334 72.5726C83.9257 72.0352 82.4614 71.5407 81.5585 71.5407C81.1192 71.5407 80.3138 71.7342 79.7526 71.9492ZM83.0471 73.368C83.6328 73.626 84.0477 74.0775 84.0477 74.4644C84.0477 74.5074 82.9495 74.5504 81.6073 74.5504C80.265 74.5504 79.1669 74.4644 79.1669 74.3569C79.1669 74.2494 79.5085 73.9055 79.9234 73.6045C80.7775 72.9596 81.9733 72.8736 83.0471 73.368Z" fill="#02092C"/>
<path d="M57.8745 72.5623C57.8745 73.2932 57.8989 73.3147 58.8507 73.3147H59.8268V75.4645V77.6143H58.8507C57.8989 77.6143 57.8745 77.6358 57.8745 78.3667V79.1191H60.681H63.4875V78.3667C63.4875 77.6358 63.463 77.6143 62.5113 77.6143H61.5351V74.7121V71.8098H59.7048H57.8745V72.5623Z" fill="#02092C"/>
</svg>
