<svg width="14" height="28" viewBox="0 0 14 28" fill="none" xmlns="http://www.w3.org/2000/svg">
<path d="M0.895788 3.45336C1.26779 3.10536 1.67579 2.77536 2.11979 2.46336C2.57579 2.15136 3.06779 1.87536 3.59579 1.63536C4.13579 1.39536 4.71179 1.20936 5.32379 1.07736C5.94779 0.933358 6.61979 0.861357 7.33979 0.861357C8.28779 0.861357 9.16379 0.999357 9.96779 1.27536C10.7838 1.55136 11.4858 1.94136 12.0738 2.44536C12.6618 2.94936 13.1238 3.56136 13.4598 4.28136C13.7958 5.00136 13.9638 5.81136 13.9638 6.71136C13.9638 7.62336 13.8258 8.40936 13.5498 9.06936C13.2858 9.72936 12.9438 10.3114 12.5238 10.8154C12.1158 11.3074 11.6658 11.7394 11.1738 12.1114C10.6938 12.4714 10.2378 12.8134 9.80579 13.1374C9.37379 13.4614 9.00179 13.7854 8.68979 14.1094C8.38979 14.4334 8.21579 14.7934 8.16779 15.1894L7.84379 17.9434H5.64779L5.43179 14.9554C5.38379 14.4154 5.48579 13.9474 5.73779 13.5514C5.98979 13.1434 6.31979 12.7654 6.72779 12.4174C7.13579 12.0574 7.58579 11.7094 8.07779 11.3734C8.56979 11.0254 9.02579 10.6414 9.44579 10.2214C9.87779 9.80136 10.2378 9.32736 10.5258 8.79936C10.8138 8.25936 10.9578 7.61736 10.9578 6.87336C10.9578 6.35736 10.8558 5.88936 10.6518 5.46936C10.4478 5.04936 10.1718 4.69536 9.82379 4.40736C9.47579 4.10736 9.06179 3.87936 8.58179 3.72336C8.11379 3.56736 7.60979 3.48936 7.06979 3.48936C6.33779 3.48936 5.70779 3.57936 5.17979 3.75936C4.66379 3.93936 4.22579 4.13736 3.86579 4.35336C3.50579 4.56936 3.21179 4.76736 2.98379 4.94736C2.76779 5.12736 2.58779 5.21736 2.44379 5.21736C2.14379 5.21736 1.90979 5.07936 1.74179 4.80336L0.895788 3.45336ZM4.40579 24.9634C4.40579 24.6514 4.45979 24.3574 4.56779 24.0814C4.68779 23.8054 4.84379 23.5654 5.03579 23.3614C5.23979 23.1574 5.47979 22.9954 5.75579 22.8754C6.03179 22.7554 6.32579 22.6954 6.63779 22.6954C6.94979 22.6954 7.24379 22.7554 7.51979 22.8754C7.79579 22.9954 8.03579 23.1574 8.23979 23.3614C8.44379 23.5654 8.60579 23.8054 8.72579 24.0814C8.84579 24.3574 8.90579 24.6514 8.90579 24.9634C8.90579 25.2874 8.84579 25.5874 8.72579 25.8634C8.60579 26.1274 8.44379 26.3614 8.23979 26.5654C8.03579 26.7694 7.79579 26.9254 7.51979 27.0334C7.24379 27.1534 6.94979 27.2134 6.63779 27.2134C6.32579 27.2134 6.03179 27.1534 5.75579 27.0334C5.47979 26.9254 5.23979 26.7694 5.03579 26.5654C4.84379 26.3614 4.68779 26.1274 4.56779 25.8634C4.45979 25.5874 4.40579 25.2874 4.40579 24.9634Z" fill="#031054"/>
</svg>
