<svg width="16" height="15" viewBox="0 0 16 15" fill="none" xmlns="http://www.w3.org/2000/svg">
<g id="Page-1">
<g id="Core" opacity="0.9">
<g id="history">
<path id="Shape" fill-rule="evenodd" clip-rule="evenodd" d="M8.4 0C5.6 0 3.12 1.5 1.84 3.78947L0 1.97368V7.10526H5.2L2.96 4.89474C4 2.92105 6 1.57895 8.4 1.57895C11.68 1.57895 14.4 4.26316 14.4 7.5C14.4 10.7368 11.68 13.4211 8.4 13.4211C5.76 13.4211 3.6 11.7632 2.72 9.47368H1.04C1.92 12.6316 4.88 15 8.4 15C12.64 15 16 11.6053 16 7.5C16 3.39474 12.56 0 8.4 0ZM7.2 3.94737V7.97368L10.96 10.1842L11.6 9.1579L8.4 7.26316V3.94737H7.2Z" fill="#031054"/>
</g>
</g>
</g>
</svg>
