<svg width="1593" height="656" viewBox="0 0 1593 656" fill="none" xmlns="http://www.w3.org/2000/svg">
<g clip-path="url(#clip0_82_5448)">
<path d="M527.054 656C478.761 656 430.541 655.256 382.393 653.768C313.595 651.642 242.454 649.444 176.332 617.888C130.077 595.815 89.1104 560.4 57.8631 515.471C36.9779 485.018 21.664 451.981 12.4592 417.519C-4.71123 354.777 -4.12638 289.405 14.1646 226.897C20.5744 205.466 29.4108 184.628 40.547 164.68C88.7673 78.7576 176.718 21.0801 281.848 6.43791C282.716 6.34095 283.594 6.32482 284.466 6.38979C284.939 6.41159 285.41 6.4349 285.89 6.41761L286.509 6.24842C288.095 5.77421 289.723 5.41453 291.378 5.17312C453.516 -15.5968 624.92 26.428 787.045 126.701C912.401 204.242 1078.53 245.997 1294.93 254.351L1298.01 254.49C1358.25 257.467 1416.52 278.838 1466.53 316.295C1515.89 353.264 1552.95 402.588 1573.7 458.937C1576.25 465.807 1578.59 472.958 1580.65 480.19C1582.57 486.912 1582.44 493.946 1580.26 500.609C1578.08 507.273 1573.94 513.337 1568.23 518.214V518.227L1567.69 518.704C1566.4 519.814 1565.03 520.879 1563.64 521.87L1561.99 523.034C1548.16 532.836 1537.24 540.58 1524.17 546.594C1515.45 550.578 1506.18 553.591 1496.57 555.559C1443.84 566.622 1390.29 576.879 1337.4 586.047C1234.7 603.865 1129.29 618.564 1024.11 629.734C859.202 647.23 693.206 656.002 527.054 656ZM283.236 9.43296C282.913 9.43036 282.591 9.44922 282.271 9.48936C178.124 23.9947 91.0063 81.1059 43.2641 166.178C32.2378 185.928 23.4888 206.56 17.1427 227.779C-0.981564 289.732 -1.55913 354.523 15.4586 416.708C24.5732 450.84 39.7387 483.562 60.4223 513.723C91.3637 558.212 131.911 593.272 177.682 615.111C243.21 646.385 314.015 648.574 382.49 650.688C596.653 657.273 811.085 649.242 1023.77 626.672C1128.89 615.509 1234.23 600.82 1336.87 583.012C1389.72 573.851 1443.23 563.602 1495.93 552.545C1505.3 550.627 1514.35 547.688 1522.86 543.8C1535.67 537.908 1546.49 530.238 1560.18 520.529L1561.83 519.366C1563.03 518.513 1564.2 517.602 1565.33 516.654L1565.65 516.363C1576.91 506.601 1581.29 493.721 1577.66 481.028V481.026C1575.62 473.871 1573.31 466.796 1570.78 459.997C1528.39 344.887 1418.7 263.539 1297.86 257.567L1294.8 257.428C1195.95 253.611 1109.45 243.039 1030.37 225.103C935.961 203.693 853.542 171.464 785.399 129.313C623.891 29.4245 453.204 -12.4438 291.774 8.22755C290.267 8.45138 288.783 8.78238 287.338 9.21713L286.224 9.48558C285.59 9.50997 284.956 9.50343 284.323 9.46603C283.951 9.44952 283.589 9.43296 283.236 9.43296Z" fill="#4444DC"/>
<path d="M1530 525.161C1568.66 525.161 1600 498.902 1600 466.509C1600 434.117 1568.66 407.857 1530 407.857C1491.34 407.857 1460 434.117 1460 466.509C1460 498.902 1491.34 525.161 1530 525.161Z" fill="white"/>
<path d="M1425.44 60.6762L1401.13 36.5573C1398.74 34.1726 1395.5 32.8382 1392.13 32.8467H1392.06C1390.37 32.8535 1388.71 33.1953 1387.15 33.8524C1385.6 34.5096 1384.2 35.4689 1383.01 36.6752C1378.52 41.2595 1375.61 47.169 1374.7 53.5378C1373.79 59.9065 1374.94 66.3995 1377.98 72.0653L1377.99 72.076C1379.24 74.3935 1380.79 76.5323 1382.61 78.4356C1382.81 78.6715 1383.05 78.9074 1383.28 79.1434C1388.86 84.7097 1396.42 87.8257 1404.28 87.8086H1404.47C1408.4 87.7921 1412.29 86.9942 1415.91 85.4609C1419.52 83.9276 1422.8 81.6893 1425.56 78.8753C1426.74 77.6726 1427.67 76.2478 1428.31 74.6823C1428.94 73.1168 1429.26 71.4412 1429.25 69.7512C1429.24 68.0613 1428.9 66.39 1428.24 64.8329C1427.59 63.2758 1426.64 61.8634 1425.44 60.6762ZM1424.03 77.3739C1421.48 79.9852 1418.43 82.0622 1415.07 83.4851C1411.71 84.9079 1408.11 85.6484 1404.46 85.6638H1404.28C1398.81 85.6617 1393.46 84.0336 1388.9 80.9843C1384.34 77.935 1380.79 73.6007 1378.68 68.5265C1376.57 63.4522 1376 57.8646 1377.04 52.4663C1378.09 47.068 1380.69 42.1001 1384.54 38.1874C1386.53 36.1661 1389.24 35.0206 1392.07 35.0025C1394.9 34.9844 1397.62 36.0951 1399.64 38.0909L1423.95 62.1991C1425.96 64.2019 1427.1 66.9241 1427.11 69.7688C1427.13 72.6134 1426.02 75.3484 1424.03 77.3739Z" fill="#3F3D56" fill-opacity="0.2"/>
<path d="M1505.2 139.799L1480.89 115.691C1479.71 114.508 1478.3 113.572 1476.76 112.935C1475.21 112.298 1473.56 111.974 1471.89 111.981H1471.81C1470.12 111.985 1468.46 112.325 1466.91 112.981C1465.36 113.636 1463.95 114.594 1462.77 115.798C1457.34 121.324 1454.25 128.751 1454.15 136.519C1454.05 144.287 1456.96 151.79 1462.25 157.451C1462.51 157.73 1462.77 157.998 1463.04 158.267C1464.52 159.743 1466.15 161.055 1467.91 162.181C1472.71 165.3 1478.32 166.95 1484.04 166.932H1484.22C1488.15 166.918 1492.03 166.123 1495.65 164.591C1499.27 163.06 1502.55 160.823 1505.31 158.009C1507.69 155.578 1509.02 152.296 1509 148.882C1508.98 145.468 1507.61 142.202 1505.2 139.799ZM1503.79 156.497C1499.28 161.064 1493.33 163.929 1486.96 164.609C1480.59 165.289 1474.18 163.742 1468.82 160.229C1467.28 159.208 1465.85 158.041 1464.54 156.744C1459.3 151.547 1456.33 144.473 1456.28 137.078C1456.24 129.683 1459.12 122.573 1464.29 117.311C1465.27 116.304 1466.45 115.504 1467.74 114.957C1469.03 114.41 1470.42 114.128 1471.83 114.125H1471.89C1473.28 114.121 1474.66 114.391 1475.94 114.921C1477.23 115.451 1478.4 116.23 1479.39 117.214L1503.69 141.333C1505.71 143.332 1506.85 146.052 1506.86 148.895C1506.88 151.738 1505.78 154.472 1503.79 156.497Z" fill="#3F3D56" fill-opacity="0.2"/>
<path d="M1506.75 147.379L1479.95 120.79C1478.2 119.05 1475.82 118.081 1473.36 118.097C1470.89 118.112 1468.53 119.11 1466.79 120.872C1464.62 123.075 1462.9 125.687 1461.74 128.558C1460.57 131.429 1459.98 134.502 1460 137.603C1460.02 140.703 1460.64 143.77 1461.84 146.627C1463.04 149.485 1464.78 152.077 1466.98 154.256C1469.18 156.434 1471.78 158.157 1474.64 159.325C1477.5 160.493 1480.56 161.083 1483.64 161.062C1486.73 161.041 1489.78 160.409 1492.63 159.203C1495.47 157.996 1498.05 156.238 1500.21 154.03L1506.75 147.379Z" fill="#E17A01" fill-opacity="0.2"/>
<path d="M1427 68.2509L1400.2 41.6616C1398.44 39.9219 1396.07 38.9536 1393.6 38.9689C1391.13 38.9843 1388.77 39.9822 1387.04 41.7436C1384.87 43.9472 1383.15 46.5591 1381.98 49.4299C1380.82 52.3008 1380.23 55.3743 1380.24 58.4748C1380.26 61.5753 1380.89 64.6419 1382.09 67.4993C1383.28 70.3568 1385.03 72.949 1387.23 75.1278C1389.42 77.3065 1392.02 79.0291 1394.88 80.197C1397.74 81.365 1400.8 81.9553 1403.89 81.9344C1406.98 81.9134 1410.03 81.2815 1412.87 80.0749C1415.71 78.8682 1418.29 77.1104 1420.46 74.902L1427 68.2509Z" fill="#E17A01" fill-opacity="0.2"/>
<path d="M1477.3 163.94L1476.66 165.634C1473.65 164.487 1470.73 163.336 1467.91 162.181C1417.86 141.666 1393.97 117.654 1377.99 72.0759L1377.98 72.0652C1377.22 69.9203 1376.48 67.7255 1375.77 65.4805L1377.45 64.9336C1378.02 67.0926 1378.84 69.1742 1379.91 71.1322C1380.78 73.631 1381.68 76.0654 1382.61 78.4355C1397.63 116.903 1419.78 138.888 1462.25 157.452C1464.39 158.385 1466.57 159.311 1468.82 160.23C1471.42 161.933 1474.29 163.187 1477.3 163.94Z" fill="#3F3D56" fill-opacity="0.2"/>
<path d="M1400.69 85.8564L1399.19 87.3828L1454.63 142.396L1456.13 140.87L1400.69 85.8564Z" fill="#3F3D56" fill-opacity="0.2"/>
<path d="M194.243 448.462V545.794C194.244 547.816 192.985 549.756 190.74 551.193C188.495 552.63 185.446 553.448 182.254 553.47C182.21 553.472 182.166 553.474 182.122 553.473H164.238C149.93 553.473 136.207 549.872 126.089 543.463C115.971 537.054 110.287 528.361 110.287 519.297V448.462C110.287 446.425 111.564 444.472 113.837 443.032C116.111 441.592 119.194 440.783 122.409 440.783H129.655C126.298 446.987 171.86 449.598 174.361 440.783H182.122C185.336 440.783 188.42 441.592 190.693 443.032C192.966 444.472 194.243 446.425 194.243 448.462Z" fill="#6C63FF" fill-opacity="0.2"/>
<path d="M141.174 433.505C141.174 433.239 141.342 432.983 141.639 432.794C141.937 432.605 142.341 432.499 142.762 432.499H153.565C153.985 432.5 154.388 432.606 154.685 432.795C154.982 432.983 155.148 433.239 155.148 433.505C155.148 433.772 154.982 434.027 154.685 434.216C154.388 434.405 153.985 434.511 153.565 434.512H142.762C142.341 434.511 141.937 434.405 141.639 434.217C141.342 434.028 141.174 433.772 141.174 433.505Z" fill="#3F3D56" fill-opacity="0.2"/>
<path d="M185.833 565.767H117.52C112.22 565.763 107.138 564.428 103.39 562.054C99.6427 559.68 97.5346 556.461 97.5285 553.103V485.064C97.1534 484.893 96.8479 484.669 96.6373 484.408C96.4268 484.148 96.3173 483.859 96.3179 483.567V476.724C96.3173 476.432 96.4268 476.143 96.6373 475.883C96.8479 475.623 97.1534 475.398 97.5285 475.227V473.391C97.1534 473.22 96.8479 472.995 96.6373 472.735C96.4268 472.475 96.3173 472.187 96.3179 471.894V465.051C96.3173 464.758 96.4268 464.47 96.6373 464.21C96.8479 463.949 97.1534 463.725 97.5285 463.554V460.235C97.0653 460.077 96.6784 459.843 96.4092 459.557C96.14 459.271 95.9986 458.944 96 458.611V451.768C95.9986 451.435 96.1399 451.108 96.4091 450.822C96.6783 450.535 97.0653 450.301 97.5285 450.143V441.048C97.5346 437.691 99.6428 434.472 103.391 432.098C107.138 429.724 112.22 428.389 117.52 428.385H185.833C191.133 428.389 196.214 429.724 199.961 432.098C203.709 434.472 205.817 437.691 205.823 441.048V460.874C206.183 461.016 206.48 461.215 206.686 461.45C206.892 461.685 207 461.95 207 462.219V475.267C207 475.536 206.892 475.8 206.686 476.036C206.48 476.271 206.183 476.47 205.823 476.612V553.103C205.817 556.461 203.709 559.679 199.961 562.053C196.214 564.427 191.133 565.763 185.833 565.767ZM117.52 430.068C112.924 430.071 108.518 431.229 105.269 433.288C102.019 435.346 100.191 438.137 100.186 441.048V451.575L98.9076 451.606C98.8412 451.608 98.7782 451.625 98.7316 451.655C98.6851 451.686 98.6584 451.726 98.6572 451.768V458.611C98.6586 458.653 98.6853 458.693 98.7319 458.723C98.7784 458.753 98.8412 458.771 98.9076 458.772L100.186 458.803V464.736L99.1749 464.894C99.1189 464.902 99.069 464.922 99.0329 464.951C98.9968 464.979 98.9764 465.014 98.9751 465.051V471.894C98.9764 471.931 98.9968 471.966 99.0329 471.994C99.069 472.022 99.1189 472.042 99.1749 472.051L100.186 472.209V476.409L99.1749 476.567C99.1189 476.576 99.069 476.596 99.0329 476.624C98.9968 476.652 98.9764 476.688 98.9751 476.724V483.567C98.9763 483.603 98.9966 483.639 99.0327 483.667C99.0689 483.696 99.1188 483.716 99.1749 483.724L100.186 483.882V553.103C100.191 556.015 102.019 558.805 105.269 560.864C108.518 562.922 112.924 564.08 117.52 564.083H185.833C190.428 564.08 194.834 562.922 198.083 560.864C201.333 558.805 203.161 556.014 203.166 553.103V475.171H204.343V462.315H203.166V441.048C203.161 438.137 201.333 435.346 198.083 433.288C194.834 431.229 190.428 430.071 185.833 430.068L117.52 430.068Z" fill="#3F3D56" fill-opacity="0.2"/>
<path d="M159.601 434.512C160.478 434.512 161.19 434.061 161.19 433.505C161.19 432.95 160.478 432.499 159.601 432.499C158.724 432.499 158.012 432.95 158.012 433.505C158.012 434.061 158.724 434.512 159.601 434.512Z" fill="#3F3D56" fill-opacity="0.2"/>
<path d="M152.702 542.257C158.957 542.257 164.027 539.045 164.027 535.082C164.027 531.12 158.957 527.908 152.702 527.908C146.447 527.908 141.377 531.12 141.377 535.082C141.377 539.045 146.447 542.257 152.702 542.257Z" fill="white" fill-opacity="0.2"/>
</g>
<defs>
<clipPath id="clip0_82_5448">
<rect width="1600" height="656" fill="white"/>
</clipPath>
</defs>
</svg>
