<svg width="759" height="556" viewBox="0 0 759 556" fill="none" xmlns="http://www.w3.org/2000/svg">
<g clip-path="url(#clip0_82_5248)">
<path d="M579.969 507.407C602.289 507.407 620.383 472.463 620.383 429.358C620.383 386.252 602.289 351.308 579.969 351.308C557.648 351.308 539.554 386.252 539.554 429.358C539.554 472.463 557.648 507.407 579.969 507.407Z" fill="#3F3D56"/>
<path d="M577.297 555.814C593.483 463.895 577.459 372.308 577.296 371.395L574.147 371.899C574.31 372.809 590.242 463.914 574.146 555.318L577.297 555.814Z" fill="#CACACA"/>
<path d="M545.448 411.277L543.941 413.942L580.486 432.444L581.993 429.778L545.448 411.277Z" fill="#CACACA"/>
<path d="M619.057 420.544L582.516 439.057L584.023 441.722L620.564 423.21L619.057 420.544Z" fill="#CACACA"/>
<path d="M663.3 407.49C703.289 407.49 735.707 339.144 735.707 254.835C735.707 170.525 703.289 102.179 663.3 102.179C623.31 102.179 590.893 170.525 590.893 254.835C590.893 339.144 623.31 407.49 663.3 407.49Z" fill="#E6E6E6"/>
<path d="M655.235 504.471C684.196 324.925 655.527 146.033 655.234 144.247L652.35 144.751C652.642 146.533 681.227 324.944 652.349 503.975L655.235 504.471Z" fill="#CACACA"/>
<path d="M598.892 223.282L597.512 225.948L662.989 262.136L664.369 259.47L598.892 223.282Z" fill="#CACACA"/>
<path d="M732.091 241.41L666.624 277.617L668.004 280.282L733.472 244.076L732.091 241.41Z" fill="#CACACA"/>
<path d="M494.549 554.651H74.1024C72.5561 554.649 71.0735 554.067 69.9801 553.032C68.8867 551.997 68.2716 550.594 68.2698 549.13V297.671C68.2715 296.207 68.8866 294.804 69.98 293.769C71.0735 292.734 72.556 292.152 74.1024 292.15H494.549C496.096 292.152 497.578 292.734 498.672 293.769C499.765 294.804 500.38 296.207 500.382 297.671V549.13C500.38 550.594 499.765 551.997 498.672 553.032C497.578 554.067 496.096 554.649 494.549 554.651Z" fill="#E4E4E4"/>
<path d="M112.768 322.622C112.105 322.622 111.47 322.872 111.001 323.315C110.533 323.759 110.269 324.36 110.268 324.988V521.814C110.269 522.441 110.533 523.042 111.001 523.486C111.47 523.929 112.105 524.179 112.768 524.18H455.884C456.546 524.179 457.182 523.929 457.65 523.486C458.119 523.042 458.383 522.441 458.383 521.814V324.988C458.383 324.36 458.119 323.759 457.65 323.315C457.182 322.872 456.546 322.622 455.884 322.622H112.768Z" fill="white" fill-opacity="0.7"/>
<path d="M459.216 373.317V360.844H410.694V321.833H397.516V360.844H311.131V321.833H297.953V360.844H164.714V321.833H151.537V360.844H105.464V373.317H151.537V421.821H105.464V434.293H151.537V486.262H105.464V498.734H222.549V524.968H235.726V498.734H297.953V524.968H311.13V498.734H459.216V486.262H311.131V434.293H459.216V421.821H410.694V373.317H459.216ZM297.953 373.317V388.561H164.714V373.317H297.953ZM164.714 401.033H297.953V421.821H164.714V401.033ZM164.714 486.262V434.293H222.549V486.262H164.714ZM297.953 486.262H235.726V434.293H297.953V486.262ZM397.516 421.821H311.131V373.317H397.516V421.821Z" fill="#E6E6E6"/>
<path d="M304.542 445.571C313.841 445.571 321.38 438.436 321.38 429.634C321.38 420.833 313.841 413.697 304.542 413.697C295.243 413.697 287.704 420.833 287.704 429.634C287.704 438.436 295.243 445.571 304.542 445.571Z" fill="#E17A01"/>
<path d="M306.56 334.96C363.925 334.96 410.427 290.945 410.427 236.65C410.427 182.354 363.925 138.339 306.56 138.339C249.196 138.339 202.693 182.354 202.693 236.65C202.693 290.945 249.196 334.96 306.56 334.96Z" fill="#E17A01"/>
<path d="M307.576 396.463L274.761 343.407L241.947 290.351L306.899 289.981L371.852 289.611L339.714 343.037L307.576 396.463Z" fill="#E17A01"/>
<path d="M307.394 271.304C327.976 271.304 344.66 255.512 344.66 236.032C344.66 216.551 327.976 200.759 307.394 200.759C286.813 200.759 270.128 216.551 270.128 236.032C270.128 255.512 286.813 271.304 307.394 271.304Z" fill="white"/>
<path d="M304.158 0.505153C304.158 0.505153 281.932 -5.42059 275.359 23.3192C268.785 52.059 272.96 48.4379 272.96 48.4379L322.576 42.9566C322.576 42.9566 337.496 9.24559 304.158 0.505153Z" fill="#2F2E41"/>
<path d="M271.836 126.587C271.836 126.587 238.305 128.056 244.112 140.514C244.522 141.395 244.904 142.22 245.258 142.989C249.409 152.012 254.186 160.765 259.56 169.191L280.168 201.51L287.667 197.567L266.564 145.644L285.532 144.178L271.836 126.587Z" fill="#FFB6B6"/>
<path d="M360.245 139.781L371.084 162.132C371.084 162.132 379.213 169.826 388.116 200.604C397.02 231.381 398.955 230.282 398.955 230.282L390.155 233.056L354.051 170.925L336.244 149.674L341.663 138.316L360.245 139.781Z" fill="#FFB6B6"/>
<path d="M347.083 114.134L362.658 141.572C362.658 141.572 397.971 207.249 394.321 207.031C390.218 206.785 378.695 211.312 375.157 215.706C373.449 217.827 348.493 166.02 339.728 154.438L320.759 140.514C320.759 140.514 266.902 149.094 266.836 146.304C266.804 144.937 284.667 177.726 281.001 176.273C276.825 174.618 267.001 182.672 262.67 181.005C260.883 180.317 248.257 151.342 243.146 139.469C242.505 137.987 242.471 136.332 243.052 134.828C243.634 133.324 244.787 132.079 246.287 131.338C250.128 129.447 303.498 117.912 303.498 117.912L302.565 113.401L306.436 106.073L347.083 114.134Z" fill="#2F2E41"/>
<path d="M315.144 33.2481C316.48 25.4581 310.891 18.1182 302.66 16.8541C294.43 15.59 286.675 20.8803 285.34 28.6703C284.004 36.4603 289.593 43.8002 297.824 45.0643C306.054 46.3284 313.809 41.0381 315.144 33.2481Z" fill="#FFB6B6"/>
<path d="M348.493 116.335C349.327 118.702 343.928 120.062 336.402 118.732C329.891 117.581 322.764 116.215 317.144 115.108C311.124 113.921 306.823 113.034 306.823 113.034C306.823 113.034 305.275 122.194 300.242 121.095C295.907 120.15 282.95 77.3142 279.447 65.4758C279.191 64.6114 279.24 63.6915 279.588 62.8561C279.935 62.0207 280.561 61.3156 281.371 60.8481L299.166 50.5633C299.166 50.5633 311.43 46.5768 315.901 46.4633C320.372 46.3497 328.114 45.2505 328.114 45.2505C328.114 45.2505 337.018 45.9833 338.566 52.2121C340.115 58.4408 346.576 95.3719 346.696 104.241C346.827 113.969 345.993 109.237 348.493 116.335Z" fill="#CACACA"/>
<path d="M305.887 12.605C305.887 12.605 299.626 28.3082 284.287 34.8265L281.783 20.901L305.887 12.605Z" fill="#2F2E41"/>
<path d="M314.953 29.3121C316.128 29.3121 317.082 27.5896 317.082 25.4649C317.082 23.3401 316.128 21.6177 314.953 21.6177C313.777 21.6177 312.823 23.3401 312.823 25.4649C312.823 27.5896 313.777 29.3121 314.953 29.3121Z" fill="#FFB6B6"/>
<path d="M293.907 205.174L263.98 218.196L263.806 217.838C262.386 214.914 262.251 211.576 263.431 208.558C264.611 205.54 267.009 203.089 270.098 201.744L270.099 201.744L288.378 193.79L293.907 205.174Z" fill="#2F2E41"/>
<path d="M385.693 231.191L404.051 223.402C407.154 222.086 410.682 221.99 413.86 223.135C417.037 224.281 419.604 226.575 420.995 229.511L421.165 229.871L391.108 242.624L385.693 231.191Z" fill="#2F2E41"/>
<path opacity="0.2" d="M335.994 82.4224L332.49 118.906L338.72 119.185L335.994 82.4224Z" fill="black"/>
<path d="M311.565 150.58C312.307 149.795 312.859 148.866 313.181 147.858C313.503 146.85 313.588 145.787 313.429 144.744C313.27 143.702 312.872 142.705 312.262 141.824C311.652 140.943 310.846 140.199 309.899 139.645L296.435 75.27L280.973 80.8689L299.07 142.387C298.192 143.953 297.952 145.77 298.394 147.494C298.837 149.217 299.932 150.726 301.473 151.736C303.013 152.746 304.891 153.186 306.751 152.973C308.611 152.76 310.324 151.909 311.565 150.58Z" fill="#FFB6B6"/>
<path d="M299.841 86.1193L282.864 88.9496C282.381 89.0301 281.885 89.0111 281.411 88.894C280.936 88.7768 280.494 88.5642 280.114 88.2706C279.734 87.9771 279.425 87.6095 279.209 87.1928C278.992 86.7761 278.873 86.3203 278.86 85.8562L278.391 69.5951C277.97 67.2534 278.546 64.849 279.995 62.9092C281.444 60.9693 283.646 59.6524 286.119 59.2473C288.592 58.8421 291.134 59.3816 293.187 60.7477C295.24 62.1137 296.637 64.1947 297.072 66.5343L302.488 81.9172C302.643 82.3577 302.696 82.8246 302.643 83.2861C302.59 83.7477 302.432 84.193 302.181 84.5918C301.93 84.9906 301.591 85.3334 301.187 85.597C300.784 85.8606 300.324 86.0387 299.841 86.1193Z" fill="#CACACA"/>
<path d="M324.582 149.447C325.551 148.929 326.388 148.217 327.035 147.359C327.682 146.502 328.122 145.521 328.325 144.485C328.527 143.45 328.488 142.385 328.209 141.365C327.929 140.345 327.417 139.396 326.709 138.584L335.765 73.522L319.223 74.1325L315.522 137.894C314.16 139.112 313.317 140.76 313.152 142.526C312.988 144.293 313.514 146.055 314.631 147.479C315.747 148.903 317.377 149.89 319.211 150.253C321.045 150.616 322.956 150.329 324.582 149.447Z" fill="#FFB6B6"/>
<path d="M335.316 84.8327L318.276 82.3608C317.791 82.2904 317.328 82.122 316.918 81.867C316.508 81.612 316.161 81.2764 315.901 80.883C315.64 80.4896 315.472 80.0477 315.409 79.5874C315.345 79.1271 315.387 78.6591 315.531 78.2155L320.596 62.6709C320.99 60.3249 322.351 58.2226 324.381 56.8249C326.41 55.4272 328.942 54.8483 331.422 55.215C333.901 55.5818 336.126 56.8643 337.608 58.7813C339.09 60.6984 339.708 63.0934 339.328 65.4413L339.246 81.6557C339.243 82.12 339.135 82.5783 338.929 82.9994C338.722 83.4205 338.422 83.7945 338.049 84.096C337.676 84.3975 337.239 84.6194 336.767 84.7465C336.296 84.8736 335.8 84.903 335.316 84.8327Z" fill="#CACACA"/>
<path d="M86.42 250.944C129.897 254.675 170.211 204.863 176.463 139.687C182.715 74.5104 152.539 18.65 109.062 14.9193C65.5851 11.1885 25.2715 61 19.0191 126.176C12.7666 191.353 42.943 247.213 86.42 250.944Z" fill="#E6E6E6" fill-opacity="0.5"/>
<path d="M70.4594 325.164C115.262 189.065 97.359 48.0961 97.173 46.6881L93.9999 46.8093C94.1854 48.2138 112.032 188.803 67.359 324.511L70.4594 325.164Z" fill="#CACACA" fill-opacity="0.5"/>
<path d="M30.0556 102.531L28.3577 104.463L96.8616 138.547L98.5595 136.615L30.0556 102.531Z" fill="#CACACA" fill-opacity="0.5"/>
<path d="M173.528 128.972L99.6653 150.854L100.969 153.043L174.831 131.161L173.528 128.972Z" fill="#CACACA" fill-opacity="0.5"/>
</g>
<defs>
<clipPath id="clip0_82_5248">
<rect width="759" height="556" fill="white"/>
</clipPath>
</defs>
</svg>
