<svg width="245" height="221" viewBox="0 0 245 221" fill="none" xmlns="http://www.w3.org/2000/svg">
<g clip-path="url(#clip0_90_4509)">
<path d="M156.966 176.491L159.32 181.692C157.406 181.392 155.627 183.003 155.587 185.07C155.547 187.138 157.254 189.29 159.167 189.584C158.802 191.189 157.223 191.897 155.853 192.546C154.483 193.195 153.007 194.271 153.109 195.982C153.19 197.356 154.343 198.568 155.568 199.056C156.792 199.544 158.077 199.469 159.317 199.387C157.438 201.323 157.254 204.963 158.905 207.575C160.555 210.186 163.85 211.472 166.318 210.467C164.574 212.604 164.953 216.517 167.117 218.722C169.298 220.945 172.459 221.16 175.223 220.926C182.26 220.34 188.966 217.722 194.501 213.399C196.613 211.745 198.587 209.8 199.792 207.262C200.997 204.725 201.352 201.513 200.23 198.625C200.532 202.242 204.207 205.099 207.513 205.259C210.818 205.419 213.704 203.584 216.157 201.492C219.419 198.71 222.439 194.811 221.991 189.999C221.769 187.617 220.713 185.326 219.678 183.107L217.67 178.806C216.859 177.069 216.03 175.303 214.81 173.845C213.59 172.388 211.897 171.26 210.202 171.27C210.59 169.526 210.979 167.717 210.654 165.864C210.33 164.011 209.086 162.092 207.395 161.658C205.243 161.106 203.419 163.063 201.255 162.878C199.173 162.701 197.452 160.642 195.429 159.826C194.597 159.471 193.677 159.363 192.783 159.515C191.889 159.668 191.06 160.074 190.397 160.683C189.115 161.916 188.58 164 189.04 165.971C189.443 167.698 190.516 169.221 191.167 170.886C191.818 172.551 191.919 174.693 190.668 175.602C189.16 176.7 186.864 175.206 185.685 173.399C184.506 171.593 183.83 169.405 182.339 167.885C180.58 166.092 177.827 165.672 176.015 166.92C174.204 168.169 173.512 170.964 174.425 173.341C175.171 175.284 176.882 177.25 176.288 179.08C175.661 181.014 172.918 180.769 171.264 179.402C169.609 178.035 168.511 175.976 166.876 174.579C165.216 173.16 163.049 172.538 161.146 172.935C160.18 173.156 159.287 173.612 158.548 174.263C157.809 174.913 157.248 175.737 156.918 176.657" fill="#E6E6E6"/>
<path d="M195.083 161.875L190.198 164.111C189.464 164.469 188.631 164.579 187.827 164.426C187.117 164.261 186.638 163.834 186.512 163.254L185.376 158.023C185.161 157.037 185.991 155.869 187.348 155.248L190.045 154.013C191.403 153.392 192.843 153.52 193.47 154.318L196.794 158.547C197.163 159.016 197.185 159.653 196.856 160.293C196.456 160.997 195.833 161.553 195.083 161.875Z" fill="#3F3D56"/>
<path d="M43.6125 65.2034C48.2049 52.8195 55.3716 41.517 64.6537 32.0197C72.5287 23.9652 84.7849 24.2999 84.7849 24.2999L84.8549 24.2143C87.8047 20.6304 91.763 17.9846 96.2332 16.6087C100.703 15.2329 105.486 15.1883 109.982 16.4806C111.151 16.8109 112.05 16.9574 112.477 16.8102C120.271 14.1228 119.905 8.05691 126.629 3.1703C138.403 -5.38588 177.455 4.41505 182.962 20.1594C187.425 32.9199 207.348 39.1048 214.791 48.8655C215.955 50.3917 217.097 51.9356 218.217 53.4972C218.742 54.2227 219.261 54.9536 219.774 55.69C225.048 63.2141 229.778 71.0936 233.932 79.2705C236.655 84.6128 239.022 90.1244 241.018 95.7703C248.78 118.127 246.126 134.785 224.723 130.669C222.189 130.181 219.716 129.744 217.305 129.358C213.812 128.797 210.441 128.335 207.192 127.974C202.817 127.484 198.655 127.163 194.705 127.01C193.377 126.958 192.074 126.923 190.795 126.905C171.88 126.646 157.849 130.154 147.161 135.598C145.349 136.519 143.632 137.493 142.009 138.52C139.532 140.081 137.166 141.807 134.929 143.688C131.833 146.305 128.978 149.187 126.398 152.3L126.256 152.471C113.754 167.538 109.64 184.217 100.944 187.154C63.7692 199.71 40.2579 154.194 37.8468 109.67C37.725 107.426 37.6578 105.189 37.645 102.958C37.6375 101.961 37.6424 100.967 37.6599 99.9747C37.6981 97.3871 37.8139 94.8163 38.0078 92.2765C38.0802 91.3054 38.1641 90.3395 38.2597 89.3787C38.365 88.3426 38.4796 87.3127 38.612 86.2893C39.5577 78.7872 41.2121 71.6496 43.6125 65.2034Z" fill="#4A62B6"/>
<path d="M158.835 89.6998C155.866 91.0617 155.817 97.1614 156.748 99.1378L158.435 102.715L169.189 97.7927L167.502 94.2153C166.569 92.2396 161.806 88.3426 158.835 89.6998Z" fill="#3F3D56"/>
<path d="M129.937 141.062C129.748 141.062 129.561 141.017 129.393 140.931C129.226 140.845 129.081 140.72 128.973 140.567C128.864 140.415 128.795 140.238 128.77 140.053C128.746 139.869 128.767 139.681 128.832 139.505C128.885 139.362 128.965 139.231 129.07 139.119C129.175 139.007 129.301 138.916 129.441 138.853L184.976 113.431C185.116 113.367 185.267 113.331 185.421 113.324C185.576 113.318 185.73 113.341 185.875 113.394C186.02 113.446 186.153 113.526 186.267 113.629C186.38 113.731 186.472 113.855 186.537 113.993C186.668 114.272 186.682 114.59 186.575 114.879C186.468 115.167 186.249 115.402 185.967 115.532L130.432 140.953C130.277 141.025 130.108 141.062 129.937 141.062Z" fill="#3F3D56"/>
<path d="M173.378 100.074L157.503 107.341L182.405 160.146L198.279 152.88L173.378 100.074Z" fill="#E6E6E6"/>
<path d="M113.786 33.6012C110.818 34.963 110.769 41.0628 111.7 43.0392L113.387 46.6166L124.14 41.6941L122.453 38.1166C121.52 36.141 116.757 32.244 113.786 33.6012Z" fill="#3F3D56"/>
<path d="M180.306 167.946L175.421 170.182C174.687 170.539 173.854 170.65 173.05 170.497C172.341 170.332 171.862 169.904 171.736 169.324L170.599 164.094C170.384 163.107 171.214 161.94 172.571 161.318L175.269 160.083C176.626 159.462 178.067 159.591 178.694 160.388L182.018 164.618C182.386 165.087 182.409 165.723 182.08 166.363C181.68 167.068 181.057 167.623 180.306 167.946Z" fill="#3F3D56"/>
<path d="M165.287 175.288L160.402 177.524C159.668 177.881 158.835 177.992 158.031 177.839C157.322 177.673 156.843 177.246 156.717 176.666L155.58 171.436C155.366 170.449 156.195 169.281 157.552 168.66L160.25 167.425C161.607 166.804 163.048 166.932 163.675 167.73L166.999 171.959C167.368 172.428 167.39 173.065 167.061 173.705C166.661 174.409 166.038 174.965 165.287 175.288Z" fill="#3F3D56"/>
<path d="M132.565 52.9579L116.69 60.2246L167.026 166.965L182.9 159.698L132.565 52.9579Z" fill="#E6E6E6"/>
<path d="M149.036 107.982L147.255 104.12L148.28 103.654L150.056 107.504L175.771 163.678L174.746 164.147" fill="#3F3D56"/>
<path d="M169.127 104.772L167.345 100.91L168.371 100.444L170.147 104.294L195.861 160.468L194.837 160.937" fill="#3F3D56"/>
<path d="M140.058 61.4998L118.549 71.3458C117.179 69.2467 113.051 58.4903 113.978 55.2989L113.282 52.2555L128.134 45.457L130.122 47.8664C133.073 48.7584 138.817 58.8617 140.058 61.4998Z" fill="#E6E6E6"/>
<path d="M128.754 45.5871L113.428 52.6028C112.863 52.8617 112.26 52.7665 112.083 52.3901C112.057 52.3358 112.041 52.2777 112.036 52.2181L111.243 43.8811C111.209 43.5241 111.519 43.1196 111.992 42.9028L122.156 38.2502C122.63 38.0334 123.144 38.0609 123.399 38.3167L129.354 44.2907C129.659 44.5962 129.493 45.1193 128.985 45.4589C128.911 45.5076 128.834 45.5505 128.754 45.5871Z" fill="#E6E6E6"/>
<path d="M140.775 110.905C140.609 110.905 140.444 110.886 140.282 110.847C140.055 110.801 139.842 110.704 139.658 110.564C139.475 110.423 139.327 110.244 139.225 110.038L129.855 90.1685C129.467 89.3459 129.987 88.294 131.015 87.8235L144.735 81.5429C145.763 81.0722 146.915 81.359 147.303 82.1815L156.673 102.051C156.766 102.261 156.81 102.488 156.801 102.717C156.791 102.945 156.729 103.169 156.618 103.37C156.378 103.825 155.988 104.187 155.512 104.396L141.792 110.677C141.474 110.825 141.127 110.902 140.775 110.905Z" fill="#3F3D56"/>
<path d="M142.651 113.913L126.777 121.18L151.678 173.985L167.553 166.719L142.651 113.913Z" fill="#E6E6E6"/>
<path d="M123.094 46.4586L118.439 48.5896C117.541 49.0008 116.329 48.3156 115.738 47.0623C115.147 45.8091 115.397 44.4546 116.295 44.0434L120.951 41.9124C121.849 41.5012 123.061 42.1864 123.652 43.4397C124.243 44.6929 123.993 46.0474 123.094 46.4586Z" fill="#3F3D56"/>
<path d="M128.418 103.396C125.45 104.758 125.401 110.858 126.332 112.834L128.019 116.412L138.772 111.489L137.085 107.912C136.153 105.936 131.389 102.039 128.418 103.396Z" fill="#3F3D56"/>
<path d="M79.1024 91.2205C78.0539 91.9088 76.9808 90.2706 78.0494 89.6128C79.0979 88.9246 80.171 90.5628 79.1024 91.2205Z" fill="#E6E6E6"/>
<path d="M188.242 67.6814C187.194 68.3697 186.121 66.7315 187.189 66.0738C188.238 65.3855 189.311 67.0237 188.242 67.6814Z" fill="#E6E6E6"/>
<path d="M113.853 86.406C112.805 87.0943 111.732 85.4561 112.8 84.7984C113.849 84.1101 114.922 85.7483 113.853 86.406Z" fill="#E6E6E6"/>
<path d="M79.1024 150.603C78.0539 151.292 76.9808 149.653 78.0494 148.996C79.0979 148.307 80.171 149.946 79.1024 150.603Z" fill="#E6E6E6"/>
<path d="M132.587 16.5916C131.538 17.2799 130.465 15.6417 131.534 14.9839C132.582 14.2957 133.655 15.9339 132.587 16.5916Z" fill="#E6E6E6"/>
<path d="M81.0028 48.1551C79.9543 48.8434 78.8811 47.2051 79.9498 46.5474C80.9982 45.8592 82.0714 47.4974 81.0028 48.1551Z" fill="#E6E6E6"/>
<path d="M155.196 39.1067L154.529 38.9625L154.675 38.305L154.23 38.209L154.084 38.8665L153.417 38.7226L153.319 39.1607L153.986 39.3049L153.84 39.9621L154.285 40.0581L154.431 39.4006L155.098 39.5448L155.196 39.1067Z" fill="#E6E6E6"/>
<path d="M46.5724 93.8818L45.9053 93.7376L46.0514 93.0804L45.6067 92.9844L45.4604 93.6416L44.793 93.4977L44.6956 93.9358L45.3629 94.08L45.2168 94.7375L45.6615 94.8333L45.8079 94.176L46.4749 94.3199L46.5724 93.8818Z" fill="#E6E6E6"/>
<path d="M183.374 121.824C182.819 122.077 182.185 122.103 181.61 121.896C181.035 121.689 180.567 121.266 180.309 120.72L177.563 114.898C177.307 114.351 177.28 113.726 177.491 113.161C177.701 112.595 178.131 112.135 178.685 111.881C179.24 111.627 179.874 111.6 180.448 111.807C181.023 112.013 181.491 112.436 181.749 112.982L184.495 118.804C184.752 119.351 184.778 119.976 184.568 120.542C184.358 121.108 183.929 121.569 183.374 121.824Z" fill="#3F3D56"/>
<path d="M136.677 143.222C136.122 143.476 135.488 143.502 134.913 143.295C134.338 143.088 133.871 142.665 133.612 142.118L130.867 136.296C130.61 135.75 130.584 135.125 130.794 134.559C131.004 133.993 131.434 133.533 131.988 133.279C132.543 133.025 133.177 132.999 133.752 133.205C134.326 133.412 134.794 133.834 135.052 134.38L137.798 140.202C138.055 140.749 138.081 141.375 137.871 141.941C137.661 142.507 137.232 142.968 136.677 143.222Z" fill="#3F3D56"/>
<path d="M179.145 109.103L160.736 117.53C159.564 115.734 156.031 106.528 156.824 103.796L157.214 100.741L168.205 95.4277L170.641 97.4352C174.073 96.2922 179.117 104.67 179.145 109.103Z" fill="#E6E6E6"/>
<path d="M170.598 108.519L165.943 110.65C165.045 111.061 163.678 110.048 162.896 108.391C162.115 106.734 162.21 105.051 163.108 104.639L167.764 102.508C168.662 102.097 170.029 103.111 170.81 104.768C171.592 106.425 171.496 108.108 170.598 108.519Z" fill="#3F3D56"/>
<path d="M131.118 119.484L129.336 115.622L130.362 115.156L132.138 119.006L157.852 175.18L156.828 175.649" fill="#3F3D56"/>
<path d="M148.728 122.8L130.319 131.227C127.604 129.845 123.453 120.805 126.408 117.493L126.797 114.437L137.789 109.124L140.224 111.132C142.75 111.895 147.667 120.542 148.728 122.8Z" fill="#E6E6E6"/>
<path d="M139.803 121.412L135.148 123.543C134.249 123.954 132.967 123.121 132.29 121.685C131.613 120.25 131.794 118.747 132.692 118.336L137.347 116.205C138.245 115.793 139.527 116.627 140.204 118.062C140.881 119.498 140.701 121.001 139.803 121.412Z" fill="#3F3D56"/>
<path d="M46.5043 82.3446C61.9482 82.3446 74.468 70.0095 74.468 54.7934C74.468 39.5773 61.9482 27.2422 46.5043 27.2422C31.0603 27.2422 18.5405 39.5773 18.5405 54.7934C18.5405 70.0095 31.0603 82.3446 46.5043 82.3446Z" fill="#E17A01"/>
<path opacity="0.3" d="M161.16 83.489L178.153 34.5898L159.493 82.9036C159.401 83.0183 159.338 83.153 159.309 83.2966C159.28 83.4401 159.286 83.5884 159.327 83.7291C159.368 83.8698 159.442 83.9988 159.544 84.1055C159.646 84.2123 159.772 84.2936 159.912 84.3427C160.052 84.3919 160.201 84.4074 160.349 84.3881C160.496 84.3688 160.636 84.3152 160.758 84.2318C160.88 84.1483 160.98 84.0374 161.05 83.9082C161.12 83.779 161.158 83.6353 161.16 83.489Z" fill="#F0F0F0"/>
<path d="M204.477 54.3425C201.151 55.4318 197.463 56.5018 193.414 57.5526C172.469 62.9855 144.396 67.2234 114.364 69.486C84.3329 71.7484 55.9316 71.7648 34.3924 69.5326C23.9 68.445 15.601 66.8809 9.72627 64.8834C3.50653 62.7688 0.238356 60.2205 0.0123981 57.3098C-0.427621 51.6392 10.9298 46.6482 20.5351 43.4598L20.7952 44.2202C7.60466 48.5987 0.512352 53.2256 0.824622 57.2487C1.22217 62.3726 13.4882 66.5589 34.4776 68.7345C55.9694 70.9618 84.3183 70.9448 114.302 68.686C144.286 66.4269 172.308 62.1974 193.206 56.7765C213.615 51.4828 225.093 45.5075 224.695 40.3834C224.365 36.1291 215.854 32.4898 200.729 30.1353L200.856 29.3428C211.846 31.0536 225.044 34.347 225.508 40.3223C225.734 43.233 222.897 46.2411 217.075 49.2628C213.757 50.9852 209.541 52.6845 204.477 54.3425Z" fill="#3F3D56"/>
<path d="M212.694 103.207C214.299 103.207 215.6 101.925 215.6 100.344C215.6 98.7631 214.299 97.4814 212.694 97.4814C211.089 97.4814 209.789 98.7631 209.789 100.344C209.789 101.925 211.089 103.207 212.694 103.207Z" fill="#E17A01"/>
<path d="M231.156 180.778C232.76 180.778 234.061 179.497 234.061 177.915C234.061 176.334 232.76 175.053 231.156 175.053C229.551 175.053 228.25 176.334 228.25 177.915C228.25 179.497 229.551 180.778 231.156 180.778Z" fill="#F2F2F2"/>
<path d="M132.061 198.209C135.19 198.209 137.726 195.71 137.726 192.627C137.726 189.545 135.19 187.046 132.061 187.046C128.932 187.046 126.396 189.545 126.396 192.627C126.396 195.71 128.932 198.209 132.061 198.209Z" fill="#F2F2F2"/>
<path d="M88.8936 124.339C90.4984 124.339 91.7992 123.057 91.7992 121.476C91.7992 119.895 90.4984 118.613 88.8936 118.613C87.2889 118.613 85.988 119.895 85.988 121.476C85.988 123.057 87.2889 124.339 88.8936 124.339Z" fill="#3F3D56"/>
<path d="M186.577 128.064L199.113 131.262L206.802 146.142L193.803 146.644L186.577 128.064Z" fill="#E6E6E6"/>
<path d="M157.641 106.613L164.541 113.415L182.065 150.744L178.838 153.49L157.641 106.613Z" fill="#CCCCCC"/>
<path d="M142.638 112.779L143.18 122.381L159.72 160.143L163.949 159.607L142.638 112.779Z" fill="#CCCCCC"/>
<path d="M142.187 151.568L135.435 162.456L140.413 178.416L150.108 169.871L142.187 151.568Z" fill="#E6E6E6"/>
<path d="M201.829 158.258C198.323 158.258 194.481 158.127 190.302 157.866C168.688 156.514 140.69 151.812 111.467 144.628C82.2445 137.443 55.2873 128.634 35.5619 119.822C25.9531 115.53 18.5784 111.467 13.6429 107.746C8.41744 103.807 6.13177 100.373 6.84907 97.5406C8.2467 92.0226 20.6222 90.8154 30.7578 90.7744L30.7612 91.5769C16.8423 91.6332 8.63088 93.8202 7.63943 97.735C6.37648 102.721 16.6765 110.505 35.8983 119.092C55.5803 127.883 82.4879 136.676 111.665 143.849C140.841 151.022 168.787 155.716 190.354 157.065C211.416 158.383 224.221 156.28 225.484 151.293C226.532 147.154 219.62 141.055 206.021 134.121L206.395 133.409C216.276 138.447 227.747 145.673 226.274 151.488C225.557 154.32 221.902 156.293 215.41 157.352C211.71 157.955 207.165 158.258 201.829 158.258Z" fill="#3F3D56"/>
</g>
<defs>
<clipPath id="clip0_90_4509">
<rect width="245" height="221" fill="white"/>
</clipPath>
</defs>
</svg>
