<svg width="17" height="16" viewBox="0 0 17 16" fill="none" xmlns="http://www.w3.org/2000/svg">
<g id="icons">
<g id="user">
<path id="Vector" d="M8.21421 9.87461C10.4791 9.87461 12.3151 7.83101 12.3151 5.31011C12.3151 2.7892 10.4791 0.745605 8.21421 0.745605C5.94933 0.745605 4.11328 2.7892 4.11328 5.31011C4.11328 7.83101 5.94933 9.87461 8.21421 9.87461Z" fill="#031054"/>
<path id="Vector_2" d="M16.2527 13.7546C15.5145 12.3852 14.1202 11.2441 12.3158 10.5594C11.8237 10.4073 11.2495 10.4073 10.8394 10.6355C10.0193 11.0919 9.19907 11.3202 8.21484 11.3202C7.23062 11.3202 6.41044 11.0919 5.59025 10.6355C5.18016 10.4833 4.60603 10.4073 4.11392 10.6355C2.30951 11.3202 0.915197 12.4613 0.17703 13.8306C-0.397099 14.8196 0.505104 15.9607 1.73538 15.9607H14.6943C15.9246 15.9607 16.8268 14.8196 16.2527 13.7546Z" fill="#031054"/>
</g>
</g>
</svg>
