<svg width="59" height="54" viewBox="0 0 59 54" fill="none" xmlns="http://www.w3.org/2000/svg">
<ellipse cx="29.5" cy="27" rx="29.5" ry="27" fill="#ADC4DE"/>
<path d="M29.8942 18.7822C24.956 18.7822 20.8643 22.8034 20.8643 27.8122C20.8643 32.821 24.8854 36.8422 29.8942 36.8422C34.9031 36.8422 38.9242 32.7505 38.9242 27.8122C38.9242 22.8739 34.8325 18.7822 29.8942 18.7822ZM29.8942 33.597C26.7196 33.597 24.1094 30.9868 24.1094 27.8122C24.1094 24.6376 26.7196 22.0274 29.8942 22.0274C33.0688 22.0274 35.6791 24.6376 35.6791 27.8122C35.6791 30.9868 33.0688 33.597 29.8942 33.597Z" fill="black"/>
<path d="M39.2771 20.6161C40.407 20.6161 41.3229 19.7002 41.3229 18.5703C41.3229 17.4404 40.407 16.5244 39.2771 16.5244C38.1472 16.5244 37.2312 17.4404 37.2312 18.5703C37.2312 19.7002 38.1472 20.6161 39.2771 20.6161Z" fill="black"/>
<path d="M44.568 13.2791C42.7338 11.3744 40.1235 10.3867 37.1606 10.3867H22.628C16.4904 10.3867 12.3987 14.4784 12.3987 20.616V35.0781C12.3987 38.1116 13.3863 40.7218 15.3616 42.6266C17.2664 44.4608 19.8061 45.3779 22.6985 45.3779H37.09C40.1235 45.3779 42.6632 44.3902 44.4974 42.6266C46.4022 40.7924 47.3899 38.1821 47.3899 35.1486V20.616C47.3899 17.653 46.4022 15.1133 44.568 13.2791ZM44.2858 35.1486C44.2858 37.3356 43.5098 39.0992 42.24 40.2985C40.9701 41.4978 39.2064 42.1328 37.09 42.1328H22.6985C20.5821 42.1328 18.8184 41.4978 17.5486 40.2985C16.2788 39.0287 15.6438 37.265 15.6438 35.0781V20.616C15.6438 18.4996 16.2788 16.7359 17.5486 15.4661C18.7479 14.2668 20.5821 13.6319 22.6985 13.6319H37.2311C39.3475 13.6319 41.1112 14.2668 42.381 15.5366C43.5803 16.8065 44.2858 18.5701 44.2858 20.616V35.1486Z" fill="black"/>
</svg>
