<svg width="60" height="59" viewBox="0 0 60 59" fill="none" xmlns="http://www.w3.org/2000/svg">
<path d="M44.4138 49.4878H3.78173C3.29189 49.4878 2.82212 49.2972 2.47576 48.9579C2.1294 48.6186 1.93481 48.1584 1.93481 47.6786V4.25751C1.93481 3.77768 2.1294 3.3175 2.47576 2.97821C2.82212 2.63892 3.29189 2.4483 3.78173 2.4483H44.4138C44.9036 2.4483 45.3734 2.63892 45.7197 2.97821C46.0661 3.3175 46.2607 3.77768 46.2607 4.25751V47.6786C46.2607 48.1584 46.0661 48.6186 45.7197 48.9579C45.3734 49.2972 44.9036 49.4878 44.4138 49.4878ZM5.62864 45.8694H42.5669V6.06672H5.62864V45.8694Z" fill="white"/>
<path d="M55.4953 56.7246H14.8633C14.3734 56.7246 13.9037 56.534 13.5573 56.1947C13.2109 55.8554 13.0164 55.3952 13.0164 54.9154C13.0164 54.4356 13.2109 53.9754 13.5573 53.6361C13.9037 53.2968 14.3734 53.1062 14.8633 53.1062H53.6484V13.3035H51.8015C51.3117 13.3035 50.8419 13.1129 50.4955 12.7736C50.1492 12.4343 49.9546 11.9742 49.9546 11.4943C49.9546 11.0145 50.1492 10.5543 50.4955 10.215C50.8419 9.87573 51.3117 9.68512 51.8015 9.68512H55.4953C55.9851 9.68512 56.4549 9.87573 56.8013 10.215C57.1476 10.5543 57.3422 11.0145 57.3422 11.4943V54.9154C57.3422 55.3952 57.1476 55.8554 56.8013 56.1947C56.4549 56.534 55.9851 56.7246 55.4953 56.7246Z" fill="white"/>
<path d="M3.78181 40.1884C3.29729 40.1864 2.83298 39.998 2.48897 39.6637C2.14498 39.3248 1.9519 38.8662 1.9519 38.3882C1.9519 37.9103 2.14498 37.4517 2.48897 37.1127L9.96896 29.5864C10.7975 28.7576 11.9028 28.2485 13.0829 28.1521C14.263 28.0558 15.4391 28.3787 16.3962 29.0618L23.0266 33.7657C23.2707 33.9352 23.5686 34.0137 23.8665 33.9872C24.1645 33.9607 24.443 33.8308 24.6519 33.621L31.4855 26.8907C32.4323 25.9953 33.697 25.4949 35.0131 25.4949C36.3291 25.4949 37.5938 25.9953 38.5407 26.8907L45.7067 34.0009C46.0069 34.3491 46.1619 34.7954 46.1408 35.2507C46.1196 35.7061 45.9238 36.1367 45.5924 36.4567C45.2611 36.7767 44.8187 36.9624 44.3537 36.9767C43.8886 36.991 43.4352 36.8328 43.0841 36.5338L35.9181 29.4236C35.799 29.301 35.6558 29.2034 35.497 29.1366C35.3383 29.0699 35.1673 29.0355 34.9946 29.0355C34.8219 29.0355 34.6509 29.0699 34.4922 29.1366C34.3334 29.2034 34.1902 29.301 34.0711 29.4236L27.2191 36.2081C26.391 37.0364 25.2873 37.5465 24.1081 37.6461C22.929 37.7457 21.7525 37.4281 20.7919 36.7509L14.1614 32.047C13.9209 31.8716 13.6235 31.7877 13.3245 31.811C13.0256 31.8343 12.7454 31.9632 12.5362 32.1736L5.09312 39.6456C4.92207 39.8166 4.71808 39.9526 4.49299 40.0458C4.2679 40.1389 4.02617 40.1874 3.78181 40.1884Z" fill="white"/>
<path d="M25.6677 23.9055C24.2065 23.9055 22.7782 23.4811 21.5633 22.6859C20.3484 21.8907 19.4015 20.7604 18.8424 19.4381C18.2832 18.1157 18.1369 16.6606 18.422 15.2568C18.707 13.853 19.4106 12.5635 20.4438 11.5514C21.477 10.5394 22.7934 9.85012 24.2264 9.57088C25.6595 9.29165 27.1449 9.43496 28.4948 9.9827C29.8447 10.5304 30.9985 11.458 31.8103 12.6481C32.622 13.8382 33.0553 15.2374 33.0553 16.6687C33.0553 17.619 32.8642 18.5601 32.493 19.4381C32.1217 20.3161 31.5775 21.1139 30.8915 21.7859C30.2055 22.4579 29.3911 22.991 28.4948 23.3546C27.5985 23.7183 26.6378 23.9055 25.6677 23.9055ZM25.6677 13.0502C24.9371 13.0502 24.2229 13.2625 23.6155 13.6601C23.0081 14.0577 22.5346 14.6228 22.255 15.284C21.9755 15.9451 21.9023 16.6727 22.0448 17.3746C22.1874 18.0765 22.5392 18.7212 23.0557 19.2273C23.5723 19.7333 24.2305 20.0779 24.947 20.2176C25.6636 20.3572 26.4063 20.2855 27.0812 20.0117C27.7562 19.7378 28.3331 19.274 28.739 18.679C29.1449 18.0839 29.3615 17.3843 29.3615 16.6687C29.3615 15.709 28.9723 14.7886 28.2796 14.1101C27.5869 13.4315 26.6473 13.0502 25.6677 13.0502Z" fill="white"/>
</svg>
