<svg width="60" height="59" viewBox="0 0 60 59" fill="none" xmlns="http://www.w3.org/2000/svg">
<g id="3643766_album_image_landscape_photo_photos_icon 1">
<g id="Layer 37">
<path id="Vector" d="M44.4125 49.4877H3.7805C3.29067 49.4877 2.8209 49.2971 2.47454 48.9578C2.12818 48.6185 1.93359 48.1583 1.93359 47.6785V4.25745C1.93359 3.77762 2.12818 3.31744 2.47454 2.97815C2.8209 2.63885 3.29067 2.44824 3.7805 2.44824H44.4125C44.9024 2.44824 45.3721 2.63885 45.7185 2.97815C46.0649 3.31744 46.2595 3.77762 46.2595 4.25745V47.6785C46.2595 48.1583 46.0649 48.6185 45.7185 48.9578C45.3721 49.2971 44.9024 49.4877 44.4125 49.4877ZM5.62742 45.8693H42.5656V6.06666H5.62742V45.8693Z" fill="white"/>
<path id="Vector_2" d="M55.4946 56.725H14.8625C14.3727 56.725 13.9029 56.5344 13.5566 56.1951C13.2102 55.8558 13.0156 55.3956 13.0156 54.9158C13.0156 54.436 13.2102 53.9758 13.5566 53.6365C13.9029 53.2972 14.3727 53.1066 14.8625 53.1066H53.6477V13.304H51.8008C51.3109 13.304 50.8412 13.1134 50.4948 12.7741C50.1484 12.4348 49.9538 11.9746 49.9538 11.4948C49.9538 11.0149 50.1484 10.5547 50.4948 10.2155C50.8412 9.87616 51.3109 9.68555 51.8008 9.68555H55.4946C55.9844 9.68555 56.4542 9.87616 56.8005 10.2155C57.1469 10.5547 57.3415 11.0149 57.3415 11.4948V54.9158C57.3415 55.3956 57.1469 55.8558 56.8005 56.1951C56.4542 56.5344 55.9844 56.725 55.4946 56.725Z" fill="white"/>
<path id="Vector_3" d="M3.77912 40.1887C3.29461 40.1867 2.83029 39.9982 2.48629 39.664C2.1423 39.325 1.94922 38.8665 1.94922 38.3885C1.94922 37.9105 2.1423 37.452 2.48629 37.113L9.96627 29.5867C10.7948 28.7578 11.9001 28.2487 13.0802 28.1524C14.2603 28.056 15.4364 28.3789 16.3935 29.062L23.0239 33.766C23.268 33.9354 23.5659 34.014 23.8638 33.9874C24.1618 33.9609 24.4403 33.831 24.6492 33.6212L31.4828 26.891C32.4296 25.9955 33.6943 25.4951 35.0104 25.4951C36.3265 25.4951 37.5911 25.9955 38.538 26.891L45.704 34.0012C46.0042 34.3493 46.1593 34.7957 46.1381 35.251C46.1169 35.7063 45.9211 36.137 45.5898 36.457C45.2584 36.777 44.816 36.9627 44.351 36.977C43.8859 36.9912 43.4325 36.8331 43.0814 36.534L35.9154 29.4238C35.7963 29.3012 35.6531 29.2036 35.4943 29.1369C35.3356 29.0702 35.1647 29.0358 34.9919 29.0358C34.8192 29.0358 34.6482 29.0702 34.4895 29.1369C34.3307 29.2036 34.1875 29.3012 34.0685 29.4238L27.2164 36.2084C26.3883 37.0366 25.2846 37.5468 24.1055 37.6464C22.9263 37.7459 21.7498 37.4283 20.7892 36.7511L14.1588 32.0472C13.9182 31.8718 13.6208 31.788 13.3218 31.8112C13.0229 31.8345 12.7427 31.9634 12.5335 32.1738L5.09043 39.6459C4.91938 39.8168 4.7154 39.9528 4.49031 40.046C4.26521 40.1392 4.02348 40.1877 3.77912 40.1887Z" fill="white"/>
<path id="Vector_4" d="M25.665 23.9053C24.2039 23.9053 22.7755 23.4809 21.5606 22.6857C20.3457 21.8905 19.3989 20.7603 18.8397 19.4379C18.2805 18.1155 18.1342 16.6605 18.4193 15.2566C18.7044 13.8528 19.408 12.5634 20.4411 11.5513C21.4743 10.5392 22.7907 9.84993 24.2237 9.5707C25.6568 9.29146 27.1422 9.43478 28.4921 9.98252C29.842 10.5303 30.9958 11.4578 31.8076 12.6479C32.6194 13.838 33.0526 15.2372 33.0526 16.6685C33.0526 17.6188 32.8615 18.5599 32.4903 19.4379C32.119 20.3159 31.5748 21.1137 30.8888 21.7857C30.2028 22.4577 29.3884 22.9908 28.4921 23.3545C27.5958 23.7181 26.6351 23.9053 25.665 23.9053ZM25.665 13.0501C24.9344 13.0501 24.2203 13.2623 23.6128 13.6599C23.0054 14.0575 22.5319 14.6226 22.2523 15.2838C21.9728 15.945 21.8996 16.6725 22.0421 17.3744C22.1847 18.0763 22.5365 18.7211 23.0531 19.2271C23.5697 19.7331 24.2278 20.0778 24.9444 20.2174C25.6609 20.357 26.4036 20.2853 27.0786 20.0115C27.7535 19.7376 28.3304 19.2738 28.7363 18.6788C29.1422 18.0837 29.3588 17.3841 29.3588 16.6685C29.3588 15.7088 28.9696 14.7885 28.2769 14.1099C27.5842 13.4313 26.6447 13.0501 25.665 13.0501Z" fill="white"/>
</g>
</g>
</svg>
