<svg width="616" height="545" viewBox="0 0 616 545" fill="none" xmlns="http://www.w3.org/2000/svg">
<g clip-path="url(#clip0_82_5345)">
<path d="M41.9698 511.162C39.0084 511.162 36.041 511.296 33.143 511.565L32.7213 511.603C13.4991 513.459 -0.561046 524.222 0.0172055 536.64L0.12899 538.886C0.202719 540.305 0.281261 541.831 0.345907 543.524C0.38092 544.359 1.42448 545 2.72299 545H475.542C508.878 544.779 542.094 544.501 574.26 544.173C580.297 544.187 586.328 543.846 592.321 543.152C601.26 541.997 607.464 539.707 611.29 536.152H611.292C616.049 531.743 616.199 526.192 615.912 519.92C615.325 507.255 614.744 493.95 614.164 480.686C613.652 468.996 613.142 457.337 612.632 446.175C612.316 439.55 611.615 433.703 606.212 429.235C600.356 424.402 589.675 421.952 574.467 421.952C574.283 421.952 574.1 421.952 573.914 421.953C526.252 422.138 479.025 440.031 456.399 466.478C453.793 469.523 451.365 472.783 449.017 475.937C445.585 480.778 441.796 485.383 437.68 489.719C435.394 492.055 432.888 494.189 430.191 496.092C430.008 496.231 429.797 496.379 429.575 496.52C429.066 496.882 428.535 497.231 428.016 497.542C425.018 499.438 421.816 501.027 418.465 502.283L418.131 502.405C417.879 502.504 417.605 502.602 417.332 502.692C415.401 503.368 413.432 503.942 411.434 504.413C402.809 506.489 393.001 506.986 382.285 505.89C372.388 504.845 362.658 502.68 353.303 499.442C343.379 496.018 334.091 491.749 325.108 487.621C321.162 485.807 317.081 483.932 313.005 482.155C312.239 481.82 311.486 481.494 310.721 481.167C305.743 479.049 301.23 477.299 296.924 475.819C286.347 472.155 275.279 469.917 264.046 469.17C252.192 468.462 241.746 469.798 233.005 473.133C230.577 474.058 228.229 475.162 225.984 476.436C215.63 482.306 209.248 490.969 203.076 499.347C195.399 509.768 187.46 520.545 171.783 526.131C153.694 532.583 127.29 529.903 108.609 525.241C102.736 523.775 96.8696 522.089 91.1963 520.458C88.9051 519.799 86.6122 519.144 84.3176 518.494C79.8088 517.223 76.1187 516.25 72.7047 515.427L71.6249 515.165C71.0243 515.023 70.4231 514.88 69.811 514.745C65.7559 513.815 61.98 513.084 58.2615 512.509L57.3817 512.368C55.6179 512.115 53.969 511.904 52.3508 511.726L51.7049 511.656C48.4717 511.324 45.2219 511.16 41.9698 511.162Z" fill="white"/>
<path d="M299.457 268.581C298.034 268.776 296.582 268.672 295.205 268.278C293.828 267.883 292.559 267.207 291.487 266.298C290.415 265.388 289.567 264.266 289.001 263.012C288.436 261.758 288.167 260.401 288.214 259.038L255.572 247.141L270.351 237.115L299.082 249.949C301.493 250.176 303.732 251.233 305.375 252.921C307.018 254.609 307.952 256.811 307.998 259.107C308.044 261.404 307.2 263.638 305.625 265.384C304.051 267.13 301.856 268.267 299.456 268.581L299.457 268.581Z" fill="#FFB7B7"/>
<path d="M280.805 260.047L285.901 242.997L285.65 242.835L237.91 212.079L196.642 172.809L172.603 181.917L174.181 189.133L174.284 189.222L229.153 235.83L229.203 235.854L280.805 260.047Z" fill="#3F3D56"/>
<path d="M231.899 298.991L158.015 289.169L164.517 246.173H218.911L231.899 298.991Z" fill="#FFB6B6"/>
<path d="M106.358 509.526L121.514 512.866L142.312 459.015L119.943 454.085L106.358 509.526Z" fill="#FFB6B6"/>
<path d="M92.2568 532.667L103.126 535.063L107.45 525.758L110.034 536.585L138.861 542.938C140.243 543.243 141.691 543.121 142.994 542.589C144.298 542.058 145.388 541.146 146.106 539.985C146.823 538.825 147.131 537.477 146.984 536.139C146.837 534.801 146.243 533.542 145.288 532.547L125.963 512.396L128.373 502.558L103.824 498.592L92.2568 532.667Z" fill="#2F2E41"/>
<path d="M199.874 517.535H215.434L222.838 460.618H199.874V517.535Z" fill="#FFB6B6"/>
<path d="M191.662 543.103H202.82L204.812 533.112L209.913 543.103H239.508C240.927 543.103 242.308 542.673 243.451 541.876C244.594 541.079 245.438 539.956 245.86 538.672C246.282 537.387 246.26 536.009 245.797 534.737C245.335 533.465 244.456 532.367 243.288 531.602L219.655 516.123V506.022L194.797 507.429L191.662 543.103Z" fill="#2F2E41"/>
<path d="M157.08 281.873L229.335 276.422C250.657 323.658 237.1 399.065 220.714 483.951L197.474 486.801L195.671 350.398L137.411 477.293L113.19 476.119L157.08 281.873Z" fill="#2F2E41"/>
<path d="M199.139 157.488V134.305C199.139 126.066 195.688 118.164 189.545 112.338C183.402 106.513 175.071 103.24 166.383 103.24C157.696 103.24 149.365 106.513 143.222 112.338C137.079 118.164 133.628 126.066 133.628 134.305C127.855 145.714 131.466 151.138 133.628 157.488C133.63 158.593 134.094 159.653 134.918 160.435C135.742 161.217 136.86 161.657 138.026 161.659H194.739C195.905 161.657 197.023 161.218 197.848 160.436C198.673 159.654 199.137 158.594 199.139 157.488Z" fill="#2F2E41"/>
<path d="M174.467 161.309C187.73 161.309 198.482 151.112 198.482 138.533C198.482 125.954 187.73 115.757 174.467 115.757C161.203 115.757 150.451 125.954 150.451 138.533C150.451 151.112 161.203 161.309 174.467 161.309Z" fill="#FFB7B7"/>
<path d="M206.888 136.159C206.88 129.644 204.148 123.398 199.29 118.791C194.433 114.184 187.847 111.593 180.977 111.585H176.088C169.218 111.593 162.632 114.184 157.775 118.791C152.917 123.398 150.185 129.644 150.177 136.159V136.623C153.839 138.997 157.315 139.344 160.509 136.623L164.033 127.265L164.738 136.623H170.078L171.858 131.901L172.214 136.623C179.428 142.449 193.068 139.657 206.888 136.623V136.159Z" fill="#2F2E41"/>
<path d="M160.463 258.74L221.609 256.533L225.027 218.596C227.662 211.653 227.705 205.686 225.153 200.875C222.958 196.921 219.271 193.898 214.827 192.411L201.448 177.086C199.727 175.116 197.566 173.533 195.121 172.452C192.676 171.371 190.008 170.819 187.311 170.835L152.545 171.06C151.708 170.583 146.625 168.133 136.6 172.252C125.728 176.721 128.252 192.247 128.28 192.403L128.305 192.549L128.424 192.648L151.548 211.12L160.463 258.74Z" fill="#3F3D56"/>
<path d="M412.021 174.523C382.864 208.207 295.14 214.631 238.038 276.461C218.895 216.697 246.014 113.533 273.041 74.1916C286.02 55.299 305.789 42.4656 327.998 38.5145C350.207 34.5633 373.038 39.8182 391.468 53.123C429.846 80.8288 443.175 138.531 412.021 174.523Z" fill="#E17A01"/>
<path d="M343.505 151.583C364.222 151.583 381.016 135.655 381.016 116.008C381.016 96.3604 364.222 80.4331 343.505 80.4331C322.788 80.4331 305.994 96.3604 305.994 116.008C305.994 135.655 322.788 151.583 343.505 151.583Z" fill="white"/>
<path d="M171.953 358.406C185.522 358.406 196.522 347.973 196.522 335.105C196.522 322.236 185.522 311.804 171.953 311.804C158.384 311.804 147.384 322.236 147.384 335.105C147.384 347.973 158.384 358.406 171.953 358.406Z" fill="#031054"/>
<path d="M143.846 333.419C142.776 332.508 141.929 331.385 141.366 330.13C140.803 328.875 140.537 327.518 140.586 326.154C140.636 324.791 141 323.455 141.652 322.239C142.305 321.023 143.231 319.958 144.364 319.119L133.073 287.731L150.665 292.065L158.682 321.205C160.044 323.105 160.624 325.413 160.311 327.692C159.998 329.97 158.815 332.061 156.985 333.567C155.155 335.073 152.807 335.89 150.384 335.863C147.961 335.836 145.633 334.967 143.842 333.42L143.846 333.419Z" fill="#FFB7B7"/>
<path d="M138.802 314.372L155.87 307.158L150.136 252.405L155.476 197.194L132.687 185.53L127.859 191.304V191.435L125.301 261.251L125.314 261.303L138.802 314.372Z" fill="#3F3D56"/>
<path d="M545.78 418.224C544.588 422.469 541.453 426.003 537.669 428.578C537.052 428.999 536.418 429.389 535.777 429.756C535.579 429.865 535.382 429.982 535.176 430.083C534.954 430.208 534.732 430.325 534.51 430.435H516.715C516.394 429.818 516.082 429.194 515.769 428.578C508.143 413.379 502.787 396.979 503.7 380.275C504.063 373.795 505.498 367.411 507.954 361.355C512.84 349.285 521.758 338.838 534.024 333.579C534.329 333.446 534.65 333.314 534.962 333.189C534.863 333.524 534.765 333.852 534.666 334.188C533.35 338.684 532.42 343.273 531.885 347.912C531.836 348.27 531.795 348.629 531.762 348.996C530.593 360.182 531.631 371.477 534.822 382.303C534.831 382.327 534.839 382.358 534.847 382.381C535.546 384.777 536.358 387.135 537.282 389.458C538.006 391.291 538.788 393.101 539.643 394.88C543.214 402.347 548.002 410.305 545.78 418.224Z" fill="#E6E6E6"/>
<path d="M535.184 333.54C535.012 333.759 534.839 333.969 534.666 334.188C531.053 338.729 527.984 343.638 525.518 348.825C525.386 349.082 525.263 349.34 525.156 349.605C521.776 356.847 519.606 364.543 518.723 372.418C518.713 372.472 518.708 372.527 518.706 372.582C518.5 374.423 518.377 376.28 518.328 378.137C518.145 381.618 518.542 385.104 519.504 388.467C520.382 391.214 521.919 393.73 523.996 395.817C524.202 396.027 524.407 396.238 524.629 396.441C524.794 396.605 524.975 396.769 525.148 396.925C526.81 398.43 528.628 399.827 530.191 401.442C530.907 402.166 531.554 402.95 532.124 403.783C533.033 405.179 533.621 406.742 533.848 408.369C534.075 409.996 533.936 411.651 533.44 413.223C532.321 417.171 529.763 420.503 527.147 423.678C525.839 425.27 524.49 426.877 523.321 428.578C522.894 429.186 522.499 429.803 522.137 430.435H521.1C521.446 429.803 521.824 429.186 522.235 428.578C525.238 424.092 529.508 420.237 531.721 415.299C533.218 411.967 533.671 408.191 531.779 404.922C531.224 403.971 530.553 403.086 529.779 402.285C528.274 400.67 526.472 399.289 524.835 397.83C524.424 397.463 524.021 397.089 523.634 396.698C521.584 394.723 520.002 392.356 518.994 389.754C517.853 386.451 517.313 382.986 517.398 379.51C517.398 377.295 517.522 375.063 517.752 372.847C517.777 372.566 517.809 372.278 517.842 371.989C519.525 358.046 525.112 344.783 534.024 333.579C534.189 333.361 534.362 333.15 534.535 332.939C534.888 332.503 535.538 333.111 535.184 333.54Z" fill="white"/>
<path d="M518.174 372.921C515.325 372.467 512.738 371.067 510.877 368.972C509.015 366.876 507.999 364.221 508.011 361.481C508.012 361.369 508.06 361.262 508.143 361.183C508.226 361.103 508.338 361.058 508.456 361.055C508.573 361.053 508.688 361.094 508.774 361.17C508.861 361.246 508.913 361.35 508.92 361.462C508.904 364.014 509.85 366.487 511.588 368.435C513.326 370.383 515.741 371.678 518.397 372.085C518.974 372.175 518.748 373.01 518.174 372.921Z" fill="white"/>
<path d="M523.768 395.973C528.609 392.764 531.997 387.942 533.256 382.469C533.38 381.927 534.261 382.139 534.137 382.68C532.816 388.373 529.279 393.384 524.234 396.713C523.752 397.03 523.289 396.289 523.768 395.973Z" fill="white"/>
<path d="M525.246 348.733C526.31 349.127 527.46 349.263 528.593 349.131C529.727 348.999 530.808 348.602 531.739 347.975C532.216 347.652 532.679 348.394 532.205 348.715C531.173 349.403 529.978 349.84 528.726 349.989C527.474 350.138 526.203 349.993 525.023 349.569C524.909 349.538 524.811 349.466 524.75 349.369C524.688 349.272 524.668 349.156 524.694 349.046C524.724 348.935 524.799 348.84 524.902 348.782C525.005 348.723 525.129 348.706 525.246 348.733Z" fill="white"/>
<path d="M596.902 363.711C596.614 363.922 596.317 364.132 596.03 364.351C592.124 367.186 588.467 370.317 585.096 373.713C584.833 373.971 584.57 374.236 584.315 374.501L584.306 374.509C576.313 382.738 569.993 392.298 565.665 402.706L565.64 402.776C565.632 402.8 565.623 402.815 565.615 402.839C563.899 407.005 562.516 411.287 561.477 415.65C560.473 419.91 559.651 424.474 558.079 428.578C557.841 429.21 557.578 429.834 557.298 430.435H520.722C520.845 429.818 520.977 429.194 521.108 428.578C522.969 419.537 525.877 410.72 529.779 402.285C529.911 402.004 530.043 401.723 530.191 401.442C532.205 397.274 534.574 393.269 537.274 389.466L537.275 389.463L537.276 389.46L537.279 389.459L537.282 389.458C538.765 387.383 540.357 385.38 542.054 383.458C546.454 378.494 551.651 374.218 557.454 370.788C557.487 370.764 557.528 370.749 557.561 370.725C569.112 363.93 582.801 360.692 595.89 363.493H595.898C596.235 363.563 596.564 363.633 596.902 363.711Z" fill="#E6E6E6"/>
<path d="M596.86 364.124C596.581 364.195 596.301 364.273 596.03 364.351C590.264 365.913 584.699 368.077 579.436 370.803C579.173 370.936 578.91 371.076 578.646 371.216C571.374 375.066 564.772 379.958 559.075 385.721C559.07 385.725 559.067 385.73 559.067 385.736C559.001 385.799 558.927 385.869 558.869 385.931C557.553 387.273 556.286 388.67 555.085 390.105C552.735 392.782 550.842 395.791 549.474 399.023C548.429 401.717 548.06 404.605 548.396 407.457C548.421 407.746 548.462 408.027 548.503 408.316C548.536 408.542 548.569 408.768 548.61 409.002C549.153 412.131 550.091 415.267 549.828 418.458C549.668 420.093 549.144 421.678 548.292 423.107C547.44 424.537 546.278 425.779 544.884 426.752C543.936 427.447 542.922 428.058 541.856 428.578C540.332 429.323 538.744 429.944 537.109 430.434H533.876C534.312 430.317 534.74 430.2 535.176 430.083C536.723 429.669 538.243 429.167 539.725 428.578C540.573 428.242 541.397 427.856 542.194 427.423C545.501 425.621 548.257 422.859 548.832 419.168C549.334 415.938 548.364 412.708 547.788 409.548C547.689 409.002 547.598 408.464 547.549 407.925C547.156 405.189 547.395 402.405 548.248 399.764C549.432 396.471 551.202 393.394 553.481 390.667C554.89 388.892 556.395 387.186 557.989 385.557C558.186 385.346 558.392 385.135 558.606 384.925C564.423 379.121 571.139 374.194 578.523 370.311H578.531C584.021 367.413 589.846 365.125 595.89 363.492H595.898C596.169 363.414 596.449 363.336 596.721 363.266C597.288 363.126 597.42 363.976 596.86 364.124Z" fill="white"/>
<path d="M558.28 385.853C556.293 383.863 555.117 381.269 554.961 378.532C554.805 375.796 555.679 373.096 557.428 370.915C557.784 370.475 558.521 370.978 558.166 371.419C556.533 373.447 555.719 375.962 555.869 378.51C556.02 381.058 557.127 383.47 558.988 385.312C559.393 385.713 558.682 386.251 558.28 385.853Z" fill="white"/>
<path d="M548.111 407.453C554.014 407.655 559.78 405.739 564.26 402.088C564.704 401.726 565.273 402.398 564.83 402.76C560.16 406.551 554.156 408.533 548.014 408.31C547.428 408.288 547.529 407.431 548.111 407.453Z" fill="white"/>
<path d="M579.282 370.578C579.882 371.5 580.713 372.266 581.702 372.807C582.691 373.349 583.807 373.649 584.948 373.68C585.534 373.695 585.432 374.552 584.85 374.537C583.589 374.497 582.358 374.164 581.264 373.568C580.17 372.972 579.246 372.131 578.574 371.118C578.502 371.028 578.469 370.915 578.482 370.802C578.495 370.69 578.553 370.586 578.643 370.512C578.737 370.441 578.857 370.408 578.977 370.42C579.096 370.433 579.206 370.489 579.282 370.578Z" fill="white"/>
<path d="M323.938 532.531C322.754 536.865 319.643 540.475 315.887 543.104C315.275 543.534 314.646 543.932 314.009 544.307C313.813 544.418 313.617 544.538 313.413 544.641C313.192 544.769 312.972 544.888 312.751 545H295.09C294.771 544.371 294.461 543.733 294.151 543.104C286.581 527.583 281.266 510.836 282.172 493.778C282.532 487.162 283.956 480.642 286.394 474.458C291.244 462.132 300.095 451.464 312.27 446.094C312.572 445.959 312.89 445.823 313.201 445.696C313.103 446.038 313.005 446.373 312.907 446.716C311.6 451.307 310.677 455.994 310.147 460.73C310.098 461.097 310.057 461.463 310.024 461.838C308.864 473.261 309.894 484.795 313.062 495.85C313.07 495.874 313.078 495.906 313.086 495.93C313.78 498.375 314.586 500.784 315.503 503.156C316.222 505.028 316.997 506.877 317.847 508.693C321.39 516.318 326.143 524.444 323.938 532.531Z" fill="#E6E6E6"/>
<path d="M313.522 445.691C313.349 445.909 313.176 446.12 313.004 446.338C309.39 450.88 306.322 455.789 303.856 460.975C303.724 461.232 303.6 461.49 303.494 461.755C300.114 468.997 297.944 476.694 297.06 484.569C297.051 484.623 297.045 484.678 297.044 484.732C296.838 486.574 296.715 488.431 296.665 490.288C296.482 493.768 296.879 497.254 297.842 500.618C298.719 503.364 300.257 505.88 302.334 507.967C302.539 508.178 302.745 508.388 302.967 508.591C303.132 508.755 303.313 508.919 303.485 509.075C305.147 510.581 306.965 511.977 308.528 513.592C309.245 514.317 309.892 515.1 310.462 515.933C311.371 517.329 311.959 518.893 312.185 520.52C312.412 522.147 312.273 523.801 311.778 525.374C310.659 529.322 308.101 532.653 305.484 535.829C304.176 537.42 302.827 539.027 301.659 540.728C301.231 541.337 300.836 541.953 300.474 542.585H299.438C299.783 541.953 300.162 541.337 300.573 540.728C303.576 536.242 307.846 532.388 310.059 527.449C311.556 524.118 312.008 520.341 310.116 517.072C309.562 516.122 308.891 515.236 308.117 514.435C306.612 512.82 304.81 511.439 303.173 509.98C302.761 509.613 302.358 509.239 301.972 508.849C299.922 506.874 298.34 504.506 297.332 501.905C296.19 498.601 295.65 495.137 295.736 491.661C295.736 489.445 295.859 487.213 296.09 484.998C296.114 484.717 296.147 484.428 296.18 484.139C297.862 470.196 303.45 456.934 312.362 445.73C312.527 445.511 312.699 445.301 312.872 445.09C313.226 444.653 313.876 445.261 313.522 445.691Z" fill="white"/>
<path d="M296.512 485.072C293.663 484.618 291.076 483.218 289.214 481.122C287.352 479.027 286.337 476.372 286.348 473.632C286.35 473.52 286.397 473.413 286.48 473.334C286.563 473.254 286.675 473.209 286.793 473.206C286.911 473.204 287.025 473.245 287.112 473.321C287.198 473.396 287.25 473.501 287.257 473.613C287.241 476.164 288.188 478.637 289.926 480.586C291.663 482.534 294.078 483.828 296.734 484.236C297.311 484.325 297.086 485.16 296.512 485.072Z" fill="white"/>
<path d="M302.105 508.124C306.946 504.915 310.334 500.093 311.593 494.62C311.718 494.078 312.598 494.289 312.474 494.831C311.153 500.524 307.617 505.535 302.571 508.864C302.09 509.181 301.627 508.439 302.105 508.124Z" fill="white"/>
<path d="M303.583 460.884C304.647 461.277 305.798 461.414 306.931 461.281C308.064 461.149 309.146 460.752 310.077 460.125C310.554 459.803 311.016 460.545 310.543 460.865C309.51 461.553 308.316 461.99 307.064 462.139C305.812 462.288 304.541 462.144 303.361 461.719C303.246 461.688 303.148 461.617 303.087 461.519C303.026 461.422 303.006 461.307 303.032 461.196C303.062 461.085 303.136 460.991 303.24 460.932C303.343 460.874 303.466 460.856 303.583 460.884Z" fill="white"/>
<path d="M375.537 478.199C375.249 478.409 374.953 478.62 374.665 478.839C370.759 481.673 367.103 484.805 363.732 488.201C363.468 488.459 363.205 488.724 362.95 488.989L362.942 488.997C354.949 497.226 348.629 506.786 344.3 517.194L344.275 517.264C344.267 517.287 344.259 517.303 344.251 517.326C342.535 521.493 341.152 525.775 340.113 530.138C339.109 534.397 338.286 538.962 336.715 543.066C336.476 543.698 336.213 544.322 335.933 544.923H299.357C299.481 544.306 299.612 543.682 299.744 543.066C301.604 534.025 304.512 525.207 308.415 516.772C308.546 516.492 308.678 516.211 308.826 515.93C310.841 511.762 313.21 507.757 315.909 503.954L315.91 503.951L315.912 503.948L315.914 503.946L315.918 503.946C317.4 501.871 318.993 499.868 320.689 497.946C325.089 492.981 330.286 488.705 336.09 485.275C336.123 485.252 336.164 485.236 336.197 485.213C347.747 478.417 361.436 475.179 374.525 477.98H374.533C374.871 478.051 375.2 478.121 375.537 478.199Z" fill="#E6E6E6"/>
<path d="M375.198 476.275C374.918 476.345 374.639 476.423 374.367 476.501C368.601 478.063 363.036 480.227 357.774 482.953C357.51 483.086 357.247 483.226 356.984 483.367C349.711 487.216 343.109 492.109 337.412 497.871C337.408 497.875 337.405 497.881 337.404 497.887C337.338 497.949 337.264 498.019 337.207 498.082C335.891 499.424 334.624 500.82 333.423 502.256C331.073 504.932 329.18 507.942 327.812 511.174C326.766 513.867 326.397 516.755 326.734 519.608C326.759 519.896 326.8 520.177 326.841 520.466C326.874 520.692 326.907 520.918 326.948 521.152C327.491 524.281 328.429 527.418 328.166 530.609C328.005 532.244 327.482 533.828 326.63 535.258C325.778 536.687 324.616 537.929 323.221 538.902C322.273 539.597 321.26 540.209 320.194 540.728C318.67 541.473 317.082 542.094 315.447 542.585H312.214C312.65 542.468 313.078 542.351 313.514 542.234C315.061 541.82 316.58 541.317 318.063 540.728C318.91 540.392 319.734 540.006 320.531 539.573C323.838 537.771 326.594 535.009 327.17 531.319C327.672 528.089 326.701 524.859 326.125 521.699C326.027 521.153 325.936 520.614 325.887 520.076C325.494 517.34 325.733 514.555 326.586 511.915C327.77 508.621 329.539 505.544 331.818 502.818C333.228 501.042 334.733 499.336 336.327 497.707C336.524 497.497 336.73 497.286 336.944 497.075C342.76 491.272 349.477 486.344 356.861 482.462H356.869C362.359 479.563 368.184 477.275 374.227 475.643H374.236C374.507 475.565 374.787 475.487 375.058 475.416C375.626 475.276 375.757 476.126 375.198 476.275Z" fill="white"/>
<path d="M336.618 498.003C334.631 496.014 333.454 493.419 333.298 490.683C333.142 487.947 334.017 485.247 335.766 483.066C336.121 482.625 336.859 483.129 336.503 483.569C334.871 485.598 334.056 488.113 334.207 490.66C334.358 493.208 335.464 495.621 337.326 497.463C337.73 497.864 337.02 498.402 336.618 498.003Z" fill="white"/>
<path d="M326.449 519.603C332.352 519.805 338.118 517.89 342.598 514.239C343.041 513.877 343.611 514.548 343.168 514.91C338.498 518.701 332.494 520.683 326.352 520.46C325.766 520.438 325.867 519.582 326.449 519.603Z" fill="white"/>
<path d="M357.62 482.728C358.219 483.65 359.051 484.416 360.04 484.957C361.029 485.499 362.144 485.799 363.286 485.831C363.871 485.845 363.77 486.702 363.188 486.688C361.927 486.647 360.696 486.314 359.602 485.718C358.507 485.122 357.584 484.281 356.912 483.268C356.84 483.178 356.807 483.065 356.82 482.953C356.833 482.84 356.89 482.736 356.981 482.663C357.075 482.592 357.195 482.559 357.314 482.571C357.434 482.583 357.544 482.64 357.62 482.728Z" fill="white"/>
<path d="M363.678 317.936C369.13 317.936 373.55 313.744 373.55 308.573C373.55 303.403 369.13 299.211 363.678 299.211C358.225 299.211 353.805 303.403 353.805 308.573C353.805 313.744 358.225 317.936 363.678 317.936Z" fill="#F2F2F2"/>
<path d="M486.315 205.787C491.767 205.787 496.187 201.595 496.187 196.425C496.187 191.254 491.767 187.062 486.315 187.062C480.863 187.062 476.443 191.254 476.443 196.425C476.443 201.595 480.863 205.787 486.315 205.787Z" fill="#F2F2F2"/>
<path d="M147.377 18.7251C152.829 18.7251 157.249 14.5333 157.249 9.36254C157.249 4.19175 152.829 0 147.377 0C141.925 0 137.505 4.19175 137.505 9.36254C137.505 14.5333 141.925 18.7251 147.377 18.7251Z" fill="#F2F2F2"/>
<path opacity="0.2" d="M375.959 98.9761C380.457 106.267 382.071 114.838 380.513 123.155C378.956 131.472 374.328 138.992 367.458 144.369C360.589 149.745 351.926 152.628 343.02 152.501C334.115 152.373 325.547 149.244 318.852 143.674C321.593 148.126 325.322 151.96 329.78 154.91C334.238 157.86 339.319 159.856 344.671 160.76C350.023 161.663 355.518 161.453 360.775 160.143C366.033 158.833 370.928 156.455 375.121 153.173C379.313 149.892 382.704 145.785 385.057 141.138C387.411 136.491 388.671 131.414 388.751 126.259C388.831 121.104 387.728 115.994 385.519 111.283C383.311 106.572 380.049 102.373 375.959 98.9761Z" fill="#231F20"/>
<path opacity="0.2" d="M408.244 50.6978C430.384 83.8016 434.203 131.378 409.671 163.349C382.261 199.071 301.656 206.868 246.124 268.564C247.048 274.998 248.383 281.344 250.117 287.551C305.677 219.685 391.034 212.633 419.403 175.662C447.183 139.459 438.609 83.2475 408.244 50.6978Z" fill="#031054"/>
</g>
<defs>
<clipPath id="clip0_82_5345">
<rect width="616" height="545" fill="white"/>
</clipPath>
</defs>
</svg>
