<svg width="19" height="22" viewBox="0 0 19 22" fill="none" xmlns="http://www.w3.org/2000/svg">
<g clip-path="url(#clip0_366_7178)">
<path d="M19 10.114C19 9.81309 18.9488 9.51509 18.8493 9.23705C18.7499 8.95901 18.6041 8.70638 18.4203 8.49358C18.2365 8.28078 18.0184 8.11198 17.7782 7.99681C17.5381 7.88164 17.2807 7.82237 17.0208 7.82237H12.0246C11.9934 7.82229 11.9626 7.81365 11.9348 7.79715C11.907 7.78064 11.8829 7.75675 11.8646 7.72742C11.8463 7.69809 11.8343 7.66416 11.8295 7.6284C11.8247 7.59264 11.8272 7.55608 11.837 7.5217C12.2741 6.23912 12.4159 4.84709 12.2487 3.48195C11.7832 1.56153 10.7968 1.00695 10.0249 1.1307C9.64577 1.20539 9.3031 1.43728 9.06083 1.78307C8.81857 2.12887 8.69327 2.56494 8.70833 3.00987C8.70833 5.52703 7.02288 8.27704 5.51475 9.48245C5.46195 9.52464 5.4188 9.58107 5.38901 9.64686C5.35922 9.71265 5.34369 9.78583 5.34375 9.86012V19.1331C5.34373 19.2396 5.37572 19.3427 5.43423 19.4249C5.49273 19.507 5.5741 19.563 5.66438 19.5832C5.947 19.6465 6.2035 19.7069 6.44575 19.7665C7.51101 20.0604 8.60286 20.2054 9.69792 20.1983H14.8438C16.393 20.1983 16.625 19.19 16.625 18.5941C16.6252 18.2781 16.5623 17.9663 16.4413 17.683C16.8595 17.4377 17.1771 17.0113 17.3254 16.4964C17.4736 15.9815 17.4404 15.4197 17.233 14.933C17.5264 14.7604 17.7728 14.4972 17.9449 14.1725C18.117 13.8477 18.2082 13.4742 18.2083 13.0932C18.2089 12.7498 18.1345 12.4118 17.9922 12.1105C18.298 11.9111 18.5525 11.6211 18.7295 11.2703C18.9066 10.9194 19 10.5204 19 10.114Z" fill="#031054"/>
<path d="M4.15625 9.88542C4.15625 9.6423 4.07284 9.40914 3.92438 9.23723C3.77591 9.06533 3.57455 8.96875 3.36458 8.96875H0.791667C0.581704 8.96875 0.38034 9.06533 0.231874 9.23723C0.0834075 9.40914 0 9.6423 0 9.88542L0 19.9688C0 20.2119 0.0834075 20.445 0.231874 20.6169C0.38034 20.7888 0.581704 20.8854 0.791667 20.8854H3.36458C3.57455 20.8854 3.77591 20.7888 3.92438 20.6169C4.07284 20.445 4.15625 20.2119 4.15625 19.9688V9.88542ZM2.96875 18.3646C2.96875 18.5006 2.93393 18.6335 2.86869 18.7465C2.80344 18.8596 2.71071 18.9477 2.60222 18.9998C2.49372 19.0518 2.37434 19.0654 2.25917 19.0389C2.14399 19.0123 2.03819 18.9469 1.95516 18.8507C1.87212 18.7546 1.81557 18.6321 1.79266 18.4987C1.76975 18.3653 1.78151 18.2271 1.82645 18.1015C1.87139 17.9759 1.94749 17.8685 2.04513 17.7929C2.14277 17.7174 2.25757 17.6771 2.375 17.6771C2.53247 17.6771 2.6835 17.7495 2.79484 17.8784C2.90619 18.0074 2.96875 18.1822 2.96875 18.3646Z" fill="#031054"/>
</g>
<defs>
<clipPath id="clip0_366_7178">
<rect width="19" height="22" fill="white"/>
</clipPath>
</defs>
</svg>
