<svg width="59" height="54" viewBox="0 0 59 54" fill="none" xmlns="http://www.w3.org/2000/svg">
<g id="Group 806">
<g id="Group 808">
<ellipse id="Ellipse 8" cx="29.5" cy="27" rx="29.5" ry="27" fill="#ADC4DE"/>
<path id="Vector" d="M12.4108 19.6086H20.1461V42.3576H12.4108V19.6086ZM16.3303 8.64258C13.6828 8.64258 11.9531 10.3412 11.9531 12.5706C11.9531 14.7542 13.6322 16.5022 16.229 16.5022H16.2784C18.9765 16.5022 20.6567 14.7541 20.6567 12.5706C20.6061 10.3412 18.9765 8.64258 16.3303 8.64258ZM39.1385 19.0742C35.0325 19.0742 33.193 21.2813 32.1668 22.8291V19.6086H24.4292C24.5316 21.7427 24.4292 42.3576 24.4292 42.3576H32.1668V29.6529C32.1668 28.9725 32.2174 28.2946 32.421 27.8071C32.9813 26.4488 34.2543 25.0421 36.3898 25.0421C39.1915 25.0421 40.3104 27.1292 40.3104 30.186V42.3575H48.0469V29.3128C48.0469 22.3254 44.2311 19.0742 39.1385 19.0742Z" fill="black"/>
</g>
</g>
</svg>
