<svg width="370" height="367" viewBox="0 0 370 367" fill="none" xmlns="http://www.w3.org/2000/svg">
<g clip-path="url(#clip0_304_4012)">
<path d="M358.041 135.266H11.6418C8.55526 135.263 5.59618 134.219 3.4137 132.363C1.23121 130.507 0.0035334 127.991 -3.05176e-05 125.366V9.90017C0.0035334 7.27541 1.23121 4.75902 3.4137 2.90304C5.59618 1.04705 8.55526 0.00303076 11.6418 0H358.041C361.128 0.00303076 364.087 1.04705 366.269 2.90304C368.452 4.75902 369.679 7.27541 369.683 9.90017V125.366C369.679 127.991 368.452 130.507 366.269 132.363C364.087 134.219 361.128 135.263 358.041 135.266Z" fill="#F2F2F2"/>
<path d="M277.253 128.952H66.6274C50.9318 128.937 35.8842 123.628 24.7858 114.19C13.6873 104.752 7.44447 91.9556 7.42676 78.6081V56.6639C7.44445 43.3164 13.6873 30.5198 24.7857 21.0817C35.8841 11.6435 50.9318 6.33448 66.6274 6.31934H303.058C318.753 6.33448 333.801 11.6435 344.899 21.0817C355.998 30.5198 362.241 43.3164 362.258 56.6639C362.233 75.8294 353.269 94.2036 337.333 107.756C321.397 121.308 299.79 128.931 277.253 128.952Z" fill="white"/>
<path d="M222.92 39.3736H83.694C82.8977 39.3736 82.1341 39.1046 81.571 38.6258C81.0079 38.1469 80.6916 37.4975 80.6916 36.8204C80.6916 36.1432 81.0079 35.4938 81.571 35.0149C82.1341 34.5361 82.8977 34.2671 83.694 34.2671H222.92C223.717 34.2671 224.48 34.5361 225.043 35.0149C225.606 35.4938 225.923 36.1432 225.923 36.8204C225.923 37.4975 225.606 38.1469 225.043 38.6258C224.48 39.1046 223.717 39.3736 222.92 39.3736Z" fill="#E17A01"/>
<path d="M293.399 66.6148H83.694C82.8977 66.6148 82.1341 66.3458 81.571 65.867C81.0079 65.3882 80.6916 64.7387 80.6916 64.0616C80.6916 63.3844 81.0079 62.735 81.571 62.2561C82.1341 61.7773 82.8977 61.5083 83.694 61.5083H293.399C294.195 61.5083 294.959 61.7773 295.522 62.2561C296.085 62.735 296.401 63.3844 296.401 64.0616C296.401 64.7387 296.085 65.3882 295.522 65.867C294.959 66.3458 294.195 66.6148 293.399 66.6148Z" fill="#E17A01"/>
<path d="M293.399 93.8565H83.694C82.8977 93.8565 82.1341 93.5875 81.571 93.1087C81.0079 92.6298 80.6916 91.9804 80.6916 91.3033C80.6916 90.6261 81.0079 89.9767 81.571 89.4978C82.1341 89.019 82.8977 88.75 83.694 88.75H293.399C294.195 88.75 294.959 89.019 295.522 89.4978C296.085 89.9767 296.401 90.6261 296.401 91.3033C296.401 91.9804 296.085 92.6298 295.522 93.1087C294.959 93.5875 294.195 93.8565 293.399 93.8565Z" fill="#E6E6E6"/>
<path d="M293.399 93.8565H83.694C82.8977 93.8565 82.1341 93.5875 81.571 93.1087C81.0079 92.6298 80.6916 91.9804 80.6916 91.3033C80.6916 90.6261 81.0079 89.9767 81.571 89.4978C82.1341 89.019 82.8977 88.75 83.694 88.75H293.399C294.195 88.75 294.959 89.019 295.522 89.4978C296.085 89.9767 296.401 90.6261 296.401 91.3033C296.401 91.9804 296.085 92.6298 295.522 93.1087C294.959 93.5875 294.195 93.8565 293.399 93.8565Z" fill="#E17A01"/>
<path d="M208.228 69.7415C208.262 70.5106 208.493 71.2641 208.906 71.949C209.319 72.6338 209.903 73.2334 210.618 73.7054C211.333 74.1774 212.161 74.5104 213.043 74.6809C213.926 74.8514 214.841 74.8553 215.726 74.6922L227.176 90.6661L232.049 81.8721L220.429 68.0513C220.008 66.8059 219.065 65.735 217.778 65.0414C216.491 64.3478 214.95 64.0798 213.446 64.2881C211.942 64.4965 210.58 65.1667 209.619 66.1718C208.657 67.1769 208.162 68.447 208.228 69.7415Z" fill="#FFB6B6"/>
<path d="M294.154 115.522L254.694 97.3202L242.248 87.39C242.248 87.39 236.838 86.158 238.829 84.6619C240.82 83.1658 235.145 81.7229 235.145 81.7229L228.464 76.3921L218.97 82.1049L221.717 85.727C221.717 85.727 221.528 91.7233 225.391 90.5697C229.254 89.4161 228.288 94.3892 228.288 94.3892L251.344 124.782L294.154 115.522Z" fill="#3F3D56"/>
<path d="M294.276 354.257H286.262L282.448 327.97H294.276V354.257Z" fill="#FFB6B6"/>
<path d="M298.506 366.065H292.759L291.733 361.451L289.105 366.065H273.863C273.132 366.065 272.421 365.866 271.832 365.498C271.244 365.13 270.809 364.611 270.591 364.018C270.374 363.425 270.385 362.788 270.623 362.201C270.862 361.614 271.315 361.106 271.916 360.753L284.088 353.604V348.939L296.891 349.589L298.506 366.065Z" fill="#2F2E41"/>
<path d="M230.181 354.257H222.166L218.353 327.97H230.181V354.257Z" fill="#FFB6B6"/>
<path d="M234.41 366.065H228.663L227.637 361.451L225.01 366.065H209.767C209.037 366.065 208.325 365.866 207.737 365.498C207.148 365.13 206.714 364.611 206.496 364.018C206.279 363.425 206.29 362.788 206.528 362.201C206.766 361.614 207.219 361.106 207.821 360.753L219.993 353.604V348.939L232.796 349.589L234.41 366.065Z" fill="#2F2E41"/>
<path d="M285.772 155.454H245.324V194.614H285.772V155.454Z" fill="#FFB6B6"/>
<path d="M246.257 174.77L239.412 181.649L227.589 202.817L197.797 263.097L191.496 275.845L196.585 298.381C196.585 298.381 197.408 314.258 197.408 316.857C197.408 322.149 202.613 325.081 202.613 325.081L206.431 341.994L243.457 340.671C243.457 340.671 242.165 322.029 234.41 317.326C226.655 312.624 223.091 288.116 223.091 288.116L218.877 277.243L259.948 235.841L260.213 250.313L260.341 257.318C260.341 257.318 254.327 302.878 261.338 311.72C268.348 320.562 261.48 319.521 261.48 319.521L261.814 337.76L305.686 338.025L296.007 285.515C296.007 285.515 291.092 282.215 293.722 278.897C296.351 275.58 291.173 271.518 291.173 271.518L293.496 230.524C293.496 230.524 290.924 223.444 293.949 222.523C296.974 221.603 294.346 215.514 294.346 215.514L294.796 207.579L285.772 182.972L246.257 174.77Z" fill="#E17A01"/>
<path d="M286.395 155.454L290.751 144.341L293.862 140.636L295.107 130.053C295.107 101.476 287.611 106.235 287.611 106.235L283.283 96.1845L263.37 95.6553L250.613 105.974L240.035 109.15L235.892 127.455L243.457 146.987L245.324 157.571C241.763 163.161 242.064 160.517 245.013 164.715L280.172 172.917C292.618 176.621 292.618 167.096 290.122 164.715C287.626 162.333 286.395 155.454 286.395 155.454Z" fill="#3F3D56"/>
<path d="M270.754 92.1031C280.95 92.1031 289.214 85.0746 289.214 76.4046C289.214 67.7345 280.95 60.7061 270.754 60.7061C260.559 60.7061 252.294 67.7345 252.294 76.4046C252.294 85.0746 260.559 92.1031 270.754 92.1031Z" fill="#FFB6B6"/>
<path d="M295.399 97.3595C295.573 97.6091 295.678 97.8888 295.708 98.1779C295.737 98.4669 295.689 98.7578 295.567 99.0289C295.446 99.3 295.254 99.5443 295.006 99.7436C294.759 99.943 294.461 100.092 294.136 100.18C291.659 100.879 290.135 102.916 288.355 104.546C286.581 106.171 283.725 107.52 281.46 106.414C279.201 105.313 279.046 102.503 277.154 100.979C275.312 99.4975 272.25 99.6774 270.085 100.805L270.02 100.838C269.646 101.046 269.209 101.155 268.763 101.153C268.317 101.152 267.881 101.039 267.509 100.829C267.138 100.619 266.847 100.32 266.672 99.9712C266.498 99.6219 266.447 99.2368 266.528 98.8635C267.286 95.4319 268.045 92.0006 268.803 88.5697C266.811 92.6499 263.919 96.3683 260.284 99.5239C259.282 100.507 258.013 101.266 256.587 101.736C255.293 102.085 254.036 100.947 252.779 101.154C255.903 98.8307 266.407 83.9392 264.528 73.9851C262.318 74.1968 260.109 74.4085 257.9 74.6202C257.661 73.7311 257.15 72.9115 256.419 72.2441C256.509 73.1094 256.379 73.9809 256.04 74.8001C255.119 74.8901 254.191 74.9748 253.271 75.0647C251.989 75.1864 250.595 75.2922 249.493 74.7207C247.657 73.7682 247.601 71.5138 248.124 69.7357C249.655 64.5655 254.297 60.2421 259.979 57.9771C265.66 55.7175 267.34 60.7501 273.327 59.1414C285.15 55.9662 294.211 61.3957 297.403 71.4715C300.085 79.9227 298.137 88.8925 295.399 97.3595Z" fill="#2F2E41"/>
<path d="M346.505 366.406H323.901L323.804 366.256C323.515 365.811 323.236 365.338 322.975 364.853C320.647 360.614 319.663 355.766 318.794 351.488L318.141 348.264C318.061 347.874 318.121 347.472 318.312 347.11C318.503 346.749 318.816 346.444 319.212 346.235C319.608 346.026 320.068 345.922 320.533 345.936C320.999 345.951 321.449 346.083 321.826 346.317C325.261 348.442 328.697 350.566 332.135 352.688C333.437 353.493 334.924 354.425 336.347 355.433C336.485 354.865 336.628 354.296 336.772 353.735C336.871 353.348 337.104 352.994 337.441 352.72C337.777 352.446 338.203 352.263 338.662 352.195C339.121 352.128 339.594 352.178 340.02 352.341C340.445 352.503 340.804 352.769 341.05 353.106L343.695 356.719C345.624 359.358 347.326 361.959 346.979 364.763C346.981 364.797 346.978 364.831 346.97 364.865C346.901 365.326 346.772 365.778 346.587 366.215L346.505 366.406Z" fill="#F0F0F0"/>
<path d="M369.193 366.822L154.395 367C154.181 366.999 153.976 366.926 153.825 366.797C153.673 366.667 153.589 366.492 153.589 366.31C153.589 366.128 153.673 365.953 153.825 365.824C153.976 365.694 154.181 365.621 154.395 365.62L369.193 365.442C369.408 365.443 369.613 365.516 369.764 365.646C369.915 365.775 370 365.95 370 366.132C370 366.314 369.915 366.489 369.764 366.619C369.613 366.748 369.408 366.821 369.193 366.822Z" fill="#E17A01"/>
<path d="M174.171 109.711L150.544 92.7434C149.737 92.1621 149.233 91.3321 149.144 90.4355C149.055 89.539 149.388 88.649 150.07 87.961L154.419 83.582C155.102 82.8952 156.078 82.467 157.133 82.3914C158.187 82.3158 159.233 82.599 160.042 83.1787L183.669 100.147C184.477 100.728 184.98 101.558 185.069 102.454C185.158 103.351 184.825 104.241 184.143 104.929L179.795 109.308C179.111 109.995 178.135 110.423 177.081 110.499C176.027 110.574 174.98 110.291 174.171 109.711Z" fill="#3F3D56"/>
<path d="M151.784 88.3141C151.417 88.6849 151.237 89.1644 151.285 89.6476C151.333 90.1307 151.604 90.578 152.04 90.8912L175.666 107.859C176.102 108.171 176.666 108.324 177.234 108.283C177.803 108.243 178.329 108.012 178.697 107.642L183.045 103.263C183.413 102.892 183.592 102.412 183.544 101.929C183.496 101.446 183.225 100.999 182.79 100.686L159.163 83.7178C158.727 83.4054 158.163 83.2529 157.595 83.2936C157.027 83.3343 156.501 83.565 156.133 83.9351L151.784 88.3141Z" fill="white"/>
<path d="M165.654 94.9101C165.572 95.0077 165.465 95.0877 165.34 95.1437C165.216 95.1998 165.077 95.2304 164.936 95.2332L161.224 95.3056C161.105 95.308 160.986 95.2903 160.875 95.2536C160.764 95.217 160.662 95.162 160.576 95.092C160.489 95.0219 160.42 94.9381 160.372 94.8453C160.324 94.7525 160.298 94.6525 160.295 94.5511C160.292 94.4497 160.313 94.3488 160.356 94.2542C160.399 94.1596 160.464 94.0732 160.546 93.9998C160.629 93.9264 160.727 93.8676 160.836 93.8266C160.946 93.7857 161.063 93.7634 161.182 93.7611L163.611 93.7136L161.219 88.3468C161.134 88.1553 161.143 87.9431 161.242 87.7567C161.341 87.5703 161.523 87.4249 161.747 87.3524C161.972 87.2799 162.222 87.2862 162.441 87.37C162.661 87.4538 162.832 87.6081 162.918 87.7992L165.765 94.1871C165.816 94.3026 165.835 94.427 165.818 94.5497C165.801 94.6725 165.75 94.79 165.669 94.8925L165.654 94.9101Z" fill="#4A62B6"/>
<path d="M166.131 96.259C167.026 96.3709 167.882 96.6483 168.637 97.0718C169.393 97.4952 170.03 98.0545 170.504 98.7101C170.978 99.3657 171.278 100.102 171.381 100.866C171.484 101.631 171.389 102.405 171.103 103.135L188.53 114.552L177.721 117.715L162.828 106.389C161.418 105.898 160.269 104.984 159.598 103.821C158.927 102.657 158.782 101.325 159.189 100.077C159.596 98.828 160.527 97.7497 161.807 97.0461C163.086 96.3425 164.625 96.0624 166.131 96.259Z" fill="#FFB6B6"/>
<path d="M256.862 101.904L212.242 125.234C212.242 125.234 194.252 119.573 197.768 116.953C201.284 114.332 190.091 112.561 190.091 112.561L177.726 105.487L170.551 112.578C170.551 112.578 171.859 124.096 174.083 122.101C176.308 120.107 179.633 125.555 179.633 125.555C179.633 125.555 180.615 131.638 186.947 130.107C193.279 128.577 210.27 144.623 210.27 144.623L265.184 127.206L256.862 101.904Z" fill="#3F3D56"/>
</g>
<defs>
<clipPath id="clip0_304_4012">
<rect width="370" height="367" fill="white"/>
</clipPath>
</defs>
</svg>
