<svg width="29" height="28" viewBox="0 0 29 28" fill="none" xmlns="http://www.w3.org/2000/svg">
<g id="465052_compose_content_script_write_document_icon 1">
<g clip-path="url(#clip0_82_4431)">
<g id="Group">
<g id="Group_2">
<path id="Vector" d="M20.5799 9.29723H12.9384C12.62 9.29723 12.3574 9.04662 12.3574 8.7427V8.70004C12.3574 8.39611 12.62 8.14551 12.9384 8.14551H20.5799C20.8983 8.14551 21.1609 8.39611 21.1609 8.70004V8.7427C21.1664 9.04662 20.9039 9.29723 20.5799 9.29723Z" fill="white"/>
<path id="Vector_2" d="M20.5799 12.5497H8.78797C8.46957 12.5497 8.20703 12.2991 8.20703 11.9951V11.9525C8.20703 11.6486 8.46957 11.3979 8.78797 11.3979H20.5799C20.8983 11.3979 21.1608 11.6486 21.1608 11.9525V11.9951C21.1664 12.2991 20.9039 12.5497 20.5799 12.5497Z" fill="white"/>
<path id="Vector_3" d="M20.5799 15.8021H8.78797C8.46957 15.8021 8.20703 15.5515 8.20703 15.2476V15.2049C8.20703 14.901 8.46957 14.6504 8.78797 14.6504H20.5799C20.8983 14.6504 21.1608 14.901 21.1608 15.2049V15.2476C21.1664 15.5515 20.9039 15.8021 20.5799 15.8021Z" fill="white"/>
<path id="Vector_4" d="M20.5799 19.0604H8.78797C8.46957 19.0604 8.20703 18.8098 8.20703 18.5059V18.4632C8.20703 18.1593 8.46957 17.9087 8.78797 17.9087H20.5799C20.8983 17.9087 21.1608 18.1593 21.1608 18.4632V18.5059C21.1664 18.8098 20.9039 19.0604 20.5799 19.0604Z" fill="white"/>
<path id="Vector_5" d="M20.5799 22.3129H8.78797C8.46957 22.3129 8.20703 22.0622 8.20703 21.7583V21.7157C8.20703 21.4117 8.46957 21.1611 8.78797 21.1611H20.5799C20.8983 21.1611 21.1608 21.4117 21.1608 21.7157V21.7583C21.1664 22.0622 20.9039 22.3129 20.5799 22.3129Z" fill="white"/>
</g>
<path id="Vector_6" d="M22.0879 2.66943H10.201L12.3572 5.4101H20.44C21.9594 5.4101 23.2051 6.59914 23.2051 8.04945V22.4086C23.2051 23.8589 21.9594 25.048 20.44 25.048H8.8157C7.29633 25.048 6.05066 23.8589 6.05066 22.4086V8.39603L3.83863 5.59672C3.82188 5.74068 3.79395 5.87932 3.79395 6.02328V24.2748C3.79395 26.1197 5.37477 27.634 7.31309 27.634H22.0879C24.0206 27.634 25.607 26.125 25.607 24.2748V6.02328C25.6014 4.1784 24.0206 2.66943 22.0879 2.66943Z" fill="white"/>
<g id="Group_3">
<path id="Vector_7" d="M7.20154 8.33734L11.0167 9.67035C11.2178 9.73967 11.3798 9.63303 11.3687 9.42508L11.1899 5.54869C11.1843 5.46871 11.162 5.39406 11.1173 5.31941L11.1229 5.31408C11.1173 5.30342 11.1061 5.29275 11.1005 5.28209L8.37459 1.73096L7.48084 2.3548L9.94424 5.56469C10.0448 5.69266 10.0113 5.87395 9.87721 5.96992L9.66494 6.11922C9.53088 6.2152 9.34096 6.1832 9.24041 6.05523L6.7826 2.85068L5.90002 3.4692L8.38018 6.70574C8.46955 6.82305 8.44162 6.98301 8.31873 7.06832L8.05619 7.25494C7.9333 7.34025 7.76572 7.31359 7.67635 7.19629L5.19619 3.95441L4.24658 4.61559L6.88315 8.04941C6.95018 8.17738 7.06189 8.28936 7.20154 8.33734ZM7.89979 7.91611L10.5587 6.05523C10.7207 5.94326 10.9832 6.12455 10.9944 6.36449L11.0558 8.48131C11.0167 8.49197 10.9776 8.4973 10.9441 8.51863L10.1509 9.07316C10.1453 9.0785 10.1342 9.07316 10.1342 9.0785L8.07854 8.40666C7.84393 8.32668 7.73779 8.02809 7.89979 7.91611Z" fill="white"/>
<path id="Vector_8" d="M4.03969 4.36522L3.72129 3.95465C3.13476 3.19217 3.31351 2.1151 4.1123 1.55524L5.34121 0.696779C6.14 0.136916 7.26836 0.307541 7.85488 1.07002L8.17328 1.48059L4.03969 4.36522Z" fill="white"/>
</g>
</g>
</g>
</g>
<defs>
<clipPath id="clip0_82_4431">
<rect x="0.190918" y="0.350098" width="28.6" height="27.3" rx="13.65" fill="white"/>
</clipPath>
</defs>
</svg>
