<svg width="23" height="21" viewBox="0 0 23 21" fill="none" xmlns="http://www.w3.org/2000/svg">
<rect width="23" height="21" fill="#1E1E1E"/>
<g id="profile">
<rect width="1600" height="1154" transform="translate(-1112 -551)" fill="white"/>
<g id="1564504_email_letter_mail_message_icon 3" clip-path="url(#clip0_2124_11476)">
<g id="icons">
<path id="email" d="M19.1573 2.625H4.16954C2.10873 2.625 0.422607 4.2 0.422607 6.125V14.875C0.422607 16.8 2.10873 18.375 4.16954 18.375H19.1573C21.2181 18.375 22.9042 16.8 22.9042 14.875V6.125C22.9042 4.2 21.2181 2.625 19.1573 2.625ZM20.656 7.7L13.2558 12.3375C12.7875 12.6 12.2254 12.775 11.6634 12.775C11.1014 12.775 10.5393 12.6 10.0709 12.3375L2.67076 7.7C2.29607 7.4375 2.2024 6.9125 2.48342 6.475C2.76444 6.125 3.32648 6.0375 3.79484 6.3L11.195 10.9375C11.476 11.1125 11.9444 11.1125 12.2254 10.9375L19.6256 6.3C20.094 6.0375 20.656 6.125 20.937 6.5625C21.1244 6.9125 21.0307 7.4375 20.656 7.7Z" fill="#E17A01"/>
</g>
</g>
<g id="Group 1000004348">
<rect id="Rectangle 34" x="-911.5" y="-444.5" width="1199" height="962" rx="18.5" stroke="#031054" stroke-opacity="0.5"/>
</g>
</g>
<defs>
<clipPath id="clip0_2124_11476">
<rect width="22.4816" height="21" fill="white" transform="translate(0.422607)"/>
</clipPath>
</defs>
</svg>
