<svg width="26" height="28" viewBox="0 0 26 28" fill="none" xmlns="http://www.w3.org/2000/svg">
<g id="1564504_email_letter_mail_message_icon 2" clip-path="url(#clip0_90_4445)">
<g id="icons">
<path id="email" d="M21.6312 3.5H4.32624C1.94681 3.5 0 5.6 0 8.16667V19.8333C0 22.4 1.94681 24.5 4.32624 24.5H21.6312C24.0106 24.5 25.9574 22.4 25.9574 19.8333V8.16667C25.9574 5.6 24.0106 3.5 21.6312 3.5ZM23.3617 10.2667L14.8174 16.45C14.2766 16.8 13.6277 17.0333 12.9787 17.0333C12.3298 17.0333 11.6809 16.8 11.1401 16.45L2.59574 10.2667C2.16312 9.91667 2.05496 9.21667 2.37943 8.63333C2.7039 8.16667 3.35284 8.05 3.89362 8.4L12.4379 14.5833C12.7624 14.8167 13.3032 14.8167 13.6277 14.5833L22.172 8.4C22.7128 8.05 23.3617 8.16667 23.6862 8.75C23.9025 9.21667 23.7943 9.91667 23.3617 10.2667Z" fill="#E17A01"/>
</g>
</g>
<defs>
<clipPath id="clip0_90_4445">
<rect width="25.9574" height="28" fill="white"/>
</clipPath>
</defs>
</svg>
