<svg width="18" height="16" viewBox="0 0 18 16" fill="none" xmlns="http://www.w3.org/2000/svg">
<path d="M15 0.666748H3C1.35 0.666748 0 1.86675 0 3.33341V10.0001C0 11.4667 1.35 12.6667 3 12.6667V14.6667C3 15.2667 3.825 15.5334 4.275 15.1334L7.05 12.6667H15C16.65 12.6667 18 11.4667 18 10.0001V3.33341C18 1.86675 16.65 0.666748 15 0.666748ZM10.5 8.66675H6C5.55 8.66675 5.25 8.40008 5.25 8.00008C5.25 7.60008 5.55 7.33342 6 7.33342H10.5C10.95 7.33342 11.25 7.60008 11.25 8.00008C11.25 8.40008 10.95 8.66675 10.5 8.66675ZM12 6.00008H6C5.55 6.00008 5.25 5.73341 5.25 5.33342C5.25 4.93341 5.55 4.66675 6 4.66675H12C12.45 4.66675 12.75 4.93341 12.75 5.33342C12.75 5.73341 12.45 6.00008 12 6.00008Z" fill="#031054"/>
</svg>
