<svg width="30" height="30" viewBox="0 0 30 30" fill="none" xmlns="http://www.w3.org/2000/svg">
<circle cx="15" cy="15" r="15" fill="#D9D9D9"/>
<path d="M14.9996 7.9286C14.4973 7.9286 14.0063 7.78408 13.5886 7.51329C13.171 7.24251 12.8455 6.85764 12.6533 6.40735C12.4611 5.95706 12.4108 5.46157 12.5088 4.98354C12.6068 4.50551 12.8486 4.06642 13.2038 3.72178C13.559 3.37714 14.0115 3.14244 14.5041 3.04735C14.9968 2.95227 15.5074 3.00107 15.9715 3.18758C16.4355 3.3741 16.8321 3.68996 17.1112 4.09521C17.3903 4.50046 17.5392 4.97691 17.5392 5.4643C17.5392 6.11788 17.2716 6.74468 16.7954 7.20683C16.3191 7.66897 15.6731 7.9286 14.9996 7.9286ZM14.9996 4.64287C14.8322 4.64287 14.6685 4.69105 14.5293 4.78131C14.3901 4.87157 14.2816 4.99986 14.2175 5.14995C14.1534 5.30005 14.1366 5.46521 14.1693 5.62456C14.202 5.7839 14.2826 5.93026 14.401 6.04514C14.5194 6.16002 14.6702 6.23826 14.8344 6.26995C14.9986 6.30165 15.1689 6.28538 15.3235 6.22321C15.4782 6.16104 15.6104 6.05575 15.7035 5.92067C15.7965 5.78558 15.8461 5.62677 15.8461 5.4643C15.8461 5.24644 15.7569 5.03751 15.5982 4.88346C15.4394 4.72941 15.2241 4.64287 14.9996 4.64287Z" fill="#031054"/>
<path d="M17.5391 21.0713H12.4598C12.2353 21.0713 12.02 21.1578 11.8612 21.3119C11.7025 21.4659 11.6133 21.6749 11.6133 21.8927V22.7142C11.6133 23.5856 11.97 24.4213 12.6051 25.0375C13.2401 25.6537 14.1014 25.9999 14.9994 25.9999C15.8975 25.9999 16.7588 25.6537 17.3938 25.0375C18.0288 24.4213 18.3856 23.5856 18.3856 22.7142V21.8927C18.3856 21.6749 18.2964 21.4659 18.1377 21.3119C17.9789 21.1578 17.7636 21.0713 17.5391 21.0713Z" fill="#031054"/>
<path d="M25.5394 21.1621C24.6602 20.7388 23.9206 20.0851 23.4045 19.275C22.8883 18.465 22.6162 17.5308 22.6189 16.5785V13.6788C22.6189 11.7181 21.8162 9.83766 20.3873 8.45122C18.9585 7.06478 17.0206 6.28589 15 6.28589C12.9794 6.28589 11.0415 7.06478 9.61265 8.45122C8.18384 9.83766 7.38114 11.7181 7.38114 13.6788V16.5785C7.38383 17.5308 7.1117 18.465 6.59554 19.275C6.07938 20.0851 5.33982 20.7388 4.46058 21.1621C4.29187 21.2459 4.15704 21.3823 4.07771 21.5494C3.99837 21.7164 3.97911 21.9045 4.02302 22.0834C4.06693 22.2623 4.17146 22.4218 4.31986 22.5362C4.46827 22.6507 4.65197 22.7135 4.84152 22.7146H25.1585C25.348 22.7135 25.5317 22.6507 25.6801 22.5362C25.8285 22.4218 25.9331 22.2623 25.977 22.0834C26.0209 21.9045 26.0016 21.7164 25.9223 21.5494C25.843 21.3823 25.7081 21.2459 25.5394 21.1621Z" fill="#031054"/>
</svg>
