<svg width="29" height="25" viewBox="0 0 29 25" fill="none" xmlns="http://www.w3.org/2000/svg">
    <path d="M26.9247 22.102L21.0341 17.0238H20.9707C22.7863 15.1783 23.7038 12.7991 23.5313 10.3838C23.3588 7.96847 22.1096 5.70423 20.045 4.0647C17.9804 2.42516 15.2604 1.53733 12.454 1.58693C9.6475 1.63654 6.97199 2.61973 4.9871 4.33084C3.00221 6.04195 1.86171 8.34843 1.80417 10.7678C1.74663 13.1872 2.77651 15.532 4.67837 17.3118C6.58024 19.0916 9.20676 20.1685 12.0085 20.3172C14.8103 20.466 17.5702 19.675 19.711 18.1098C19.711 18.1098 19.711 18.1488 19.711 18.1645L25.6016 23.2426C25.6859 23.3158 25.7861 23.3739 25.8965 23.4136C26.007 23.4533 26.1254 23.4737 26.2451 23.4737C26.3647 23.4737 26.4831 23.4533 26.5936 23.4136C26.704 23.3739 26.8042 23.3158 26.8885 23.2426C26.9814 23.1717 27.0564 23.0851 27.1089 22.9881C27.1614 22.8912 27.1902 22.786 27.1936 22.6791C27.197 22.5721 27.1749 22.4657 27.1287 22.3665C27.0824 22.2672 27.013 22.1772 26.9247 22.102ZM12.6876 18.7504C10.8952 18.7504 9.14302 18.2922 7.65269 17.4338C6.16237 16.5753 5.00081 15.3552 4.31489 13.9276C3.62897 12.5001 3.4495 10.9292 3.79918 9.41377C4.14886 7.89829 5.01198 6.50624 6.27939 5.41364C7.54681 4.32104 9.16159 3.57697 10.9195 3.27552C12.6775 2.97408 14.4997 3.12879 16.1556 3.7201C17.8116 4.31141 19.2269 5.31276 20.2227 6.59752C21.2185 7.88228 21.7501 9.39274 21.7501 10.9379C21.7501 11.9639 21.5156 12.9798 21.0602 13.9276C20.6048 14.8755 19.9372 15.7367 19.0957 16.4622C18.2542 17.1876 17.2551 17.7631 16.1556 18.1557C15.0561 18.5483 13.8777 18.7504 12.6876 18.7504Z"
          fill="#031054"/>
</svg>
