<svg width="13" height="13" viewBox="0 0 13 13" fill="none" xmlns="http://www.w3.org/2000/svg">
<g id="4092559_search_magnifier_mobile ui_zoom_icon 1">
<g id="search">
<path id="Vector" d="M12.0706 10.914L9.42994 8.55131H9.4015C10.2154 7.69266 10.6267 6.58568 10.5494 5.46193C10.472 4.33818 9.91205 3.28471 8.98655 2.52189C8.06105 1.75908 6.84174 1.346 5.58367 1.36908C4.3256 1.39216 3.12623 1.8496 2.23645 2.64572C1.34667 3.44184 0.835413 4.51496 0.809619 5.6406C0.783826 6.76624 1.2455 7.85721 2.09806 8.68529C2.95062 9.51336 4.12802 10.0144 5.38398 10.0836C6.63993 10.1528 7.87715 9.78479 8.83681 9.05656C8.83681 9.05656 8.83681 9.07473 8.83681 9.082L11.4774 11.4447C11.5152 11.4787 11.5601 11.5058 11.6096 11.5242C11.6591 11.5427 11.7122 11.5522 11.7659 11.5522C11.8195 11.5522 11.8726 11.5427 11.9221 11.5242C11.9716 11.5058 12.0165 11.4787 12.0543 11.4447C12.096 11.4117 12.1296 11.3714 12.1531 11.3263C12.1767 11.2812 12.1896 11.2322 12.1911 11.1825C12.1926 11.1327 12.1827 11.0832 12.162 11.037C12.1412 10.9908 12.1101 10.949 12.0706 10.914ZM5.68838 9.35461C4.88489 9.35461 4.09945 9.14143 3.43137 8.74203C2.7633 8.34262 2.2426 7.77494 1.93512 7.11075C1.62764 6.44657 1.54718 5.71571 1.70394 5.01062C1.86069 4.30552 2.2476 3.65785 2.81576 3.14951C3.38391 2.64116 4.10777 2.29497 4.89582 2.15472C5.68387 2.01447 6.5007 2.08645 7.24303 2.36157C7.98535 2.63668 8.61983 3.10257 9.06622 3.70032C9.51262 4.29807 9.75088 5.00084 9.75088 5.71975C9.75088 6.19708 9.6458 6.66975 9.44164 7.11075C9.23748 7.55175 8.93824 7.95246 8.561 8.28999C8.18376 8.62752 7.73591 8.89526 7.24303 9.07793C6.75014 9.2606 6.22187 9.35461 5.68838 9.35461Z" fill="black"/>
</g>
</g>
</svg>
