<svg width="43" height="40" viewBox="0 0 43 40" fill="none" xmlns="http://www.w3.org/2000/svg">
<path d="M42.1042 9.99967C42.1042 9.55765 41.9154 9.13372 41.5794 8.82116C41.2434 8.5086 40.7877 8.33301 40.3125 8.33301H21.5C21.0249 8.33301 20.5691 8.5086 20.2331 8.82116C19.8971 9.13372 19.7084 9.55765 19.7084 9.99967C19.7084 10.4417 19.8971 10.8656 20.2331 11.1782C20.5691 11.4907 21.0249 11.6663 21.5 11.6663H40.3125C40.7877 11.6663 41.2434 11.4907 41.5794 11.1782C41.9154 10.8656 42.1042 10.4417 42.1042 9.99967Z" fill="#031054"/>
<path d="M2.68754 11.6667H7.48025C7.9029 12.7787 8.73454 13.7159 9.82819 14.3127C10.9218 14.9095 12.2071 15.1275 13.4568 14.928C14.7064 14.7286 15.8401 14.1246 16.6574 13.2228C17.4746 12.321 17.9228 11.1795 17.9228 10C17.9228 8.82053 17.4746 7.67903 16.6574 6.77724C15.8401 5.87546 14.7064 5.27147 13.4568 5.07202C12.2071 4.87257 10.9218 5.0905 9.82819 5.68729C8.73454 6.28409 7.9029 7.22132 7.48025 8.33334H2.68754C2.21236 8.33334 1.75664 8.50894 1.42064 8.8215C1.08464 9.13406 0.895874 9.55798 0.895874 10C0.895874 10.442 1.08464 10.866 1.42064 11.1785C1.75664 11.4911 2.21236 11.6667 2.68754 11.6667ZM12.5417 8.33334C12.8961 8.33334 13.2425 8.43109 13.5371 8.61423C13.8317 8.79736 14.0614 9.05766 14.197 9.36221C14.3326 9.66675 14.3681 10.0019 14.2989 10.3252C14.2298 10.6485 14.0592 10.9454 13.8086 11.1785C13.558 11.4116 13.2388 11.5703 12.8912 11.6347C12.5437 11.699 12.1835 11.666 11.8561 11.5398C11.5287 11.4137 11.2489 11.2 11.052 10.926C10.8551 10.6519 10.75 10.3296 10.75 10C10.75 9.55798 10.9388 9.13406 11.2748 8.8215C11.6108 8.50894 12.0665 8.33334 12.5417 8.33334Z" fill="#031054"/>
<path d="M40.3125 18.3333H33.7281C33.3055 17.2213 32.4738 16.2841 31.3802 15.6873C30.2865 15.0905 29.0013 14.8726 27.7516 15.072C26.5019 15.2715 25.3683 15.8755 24.551 16.7772C23.7338 17.679 23.2855 18.8205 23.2855 20C23.2855 21.1795 23.7338 22.321 24.551 23.2228C25.3683 24.1246 26.5019 24.7286 27.7516 24.928C29.0013 25.1275 30.2865 24.9095 31.3802 24.3127C32.4738 23.7159 33.3055 22.7787 33.7281 21.6667H40.3125C40.7877 21.6667 41.2434 21.4911 41.5794 21.1785C41.9154 20.866 42.1042 20.442 42.1042 20C42.1042 19.558 41.9154 19.1341 41.5794 18.8215C41.2434 18.5089 40.7877 18.3333 40.3125 18.3333ZM28.6667 21.6667C28.3123 21.6667 27.9659 21.5689 27.6713 21.3858C27.3766 21.2027 27.147 20.9424 27.0114 20.6378C26.8758 20.3333 26.8403 19.9982 26.9094 19.6749C26.9786 19.3516 27.1492 19.0546 27.3998 18.8215C27.6503 18.5884 27.9696 18.4297 28.3171 18.3654C28.6647 18.3011 29.0249 18.3341 29.3523 18.4602C29.6797 18.5864 29.9595 18.8 30.1564 19.0741C30.3533 19.3481 30.4583 19.6704 30.4583 20C30.4583 20.442 30.2696 20.866 29.9336 21.1785C29.5976 21.4911 29.1418 21.6667 28.6667 21.6667Z" fill="#031054"/>
<path d="M19.7084 18.333H2.68754C2.21236 18.333 1.75664 18.5086 1.42064 18.8212C1.08464 19.1337 0.895874 19.5576 0.895874 19.9997C0.895874 20.4417 1.08464 20.8656 1.42064 21.1782C1.75664 21.4907 2.21236 21.6663 2.68754 21.6663H19.7084C20.1836 21.6663 20.6393 21.4907 20.9753 21.1782C21.3113 20.8656 21.5 20.4417 21.5 19.9997C21.5 19.5576 21.3113 19.1337 20.9753 18.8212C20.6393 18.5086 20.1836 18.333 19.7084 18.333Z" fill="#031054"/>
<path d="M40.3125 28.333H25.0833C24.6081 28.333 24.1524 28.5086 23.8164 28.8212C23.4804 29.1337 23.2916 29.5576 23.2916 29.9997C23.2916 30.4417 23.4804 30.8656 23.8164 31.1782C24.1524 31.4907 24.6081 31.6663 25.0833 31.6663H40.3125C40.7876 31.6663 41.2434 31.4907 41.5794 31.1782C41.9154 30.8656 42.1041 30.4417 42.1041 29.9997C42.1041 29.5576 41.9154 29.1337 41.5794 28.8212C41.2434 28.5086 40.7876 28.333 40.3125 28.333Z" fill="#031054"/>
<path d="M16.125 25C15.0146 25.0012 13.9317 25.3223 13.0254 25.9192C12.1191 26.5161 11.4337 27.3594 11.0636 28.3333H2.68754C2.21236 28.3333 1.75664 28.5089 1.42064 28.8215C1.08464 29.1341 0.895874 29.558 0.895874 30C0.895874 30.442 1.08464 30.866 1.42064 31.1785C1.75664 31.4911 2.21236 31.6667 2.68754 31.6667H11.0636C11.3921 32.5311 11.9699 33.2949 12.7337 33.8745C13.4975 34.454 14.4179 34.8271 15.3943 34.9528C16.3706 35.0785 17.3653 34.952 18.2696 34.5872C19.1739 34.2225 19.953 33.6334 20.5216 32.8844C21.0902 32.1355 21.4265 31.2555 21.4937 30.3407C21.5609 29.4259 21.3563 28.5116 20.9025 27.6977C20.4486 26.8838 19.7629 26.2016 18.9203 25.7258C18.0777 25.2501 17.1107 24.999 16.125 25ZM16.125 31.6667C15.7707 31.6667 15.4243 31.5689 15.1296 31.3858C14.835 31.2027 14.6054 30.9424 14.4698 30.6378C14.3341 30.3333 14.2987 29.9982 14.3678 29.6749C14.4369 29.3515 14.6076 29.0546 14.8581 28.8215C15.1087 28.5884 15.428 28.4297 15.7755 28.3654C16.1231 28.3011 16.4833 28.3341 16.8107 28.4602C17.1381 28.5864 17.4179 28.8 17.6148 29.0741C17.8116 29.3481 17.9167 29.6704 17.9167 30C17.9167 30.442 17.7279 30.866 17.3919 31.1785C17.0559 31.4911 16.6002 31.6667 16.125 31.6667Z" fill="#031054"/>
</svg>
