<svg width="25" height="24" viewBox="0 0 25 24" fill="none" xmlns="http://www.w3.org/2000/svg">
<g id="9023670_phone_call_fill_icon 1">
<path id="Vector" d="M21.7249 14.8501L17.2072 12.9751C16.9741 12.8734 16.7182 12.8313 16.4637 12.8526C16.2092 12.8739 15.9645 12.958 15.7526 13.097L13.3348 14.6626C11.8613 13.9661 10.6682 12.8115 9.94415 11.3814L11.5432 9.00013C11.685 8.79376 11.7716 8.55619 11.7952 8.30897C11.8187 8.06176 11.7785 7.81273 11.678 7.5845L9.74187 3.18763C9.60676 2.89074 9.378 2.64345 9.08875 2.48162C8.79951 2.31979 8.46482 2.25185 8.13322 2.28763C6.83242 2.45348 5.63775 3.07342 4.77135 4.03218C3.90494 4.99095 3.42574 6.22331 3.42285 7.50013C3.42285 14.9439 9.64554 21.0001 17.2939 21.0001C18.6058 20.9973 19.872 20.5309 20.8571 19.6877C21.8422 18.8445 22.4792 17.6818 22.6496 16.4158C22.6864 16.093 22.6166 15.7673 22.4503 15.4858C22.284 15.2043 22.0299 14.9816 21.7249 14.8501Z" fill="#E17A01"/>
<path id="Vector_2" d="M15.502 4.47197C16.675 4.78386 17.7441 5.38803 18.604 6.22485C19.4638 7.06168 20.0846 8.10223 20.405 9.24384C20.4475 9.40412 20.5433 9.54621 20.6775 9.64796C20.8117 9.7497 20.9767 9.80539 21.1467 9.80634C21.2152 9.80622 21.2833 9.79675 21.349 9.77822C21.447 9.75327 21.5388 9.70955 21.6192 9.64961C21.6996 9.58968 21.7669 9.51473 21.8171 9.42917C21.8673 9.3436 21.8995 9.24914 21.9118 9.15132C21.924 9.05349 21.9161 8.95427 21.8884 8.85947C21.5032 7.46136 20.7467 6.18652 19.695 5.16297C18.6433 4.13942 17.3335 3.40319 15.8969 3.02822C15.7964 2.99258 15.6894 2.9777 15.5826 2.98452C15.4759 2.99135 15.3718 3.01974 15.2769 3.06788C15.182 3.11602 15.0985 3.18285 15.0316 3.26413C14.9648 3.3454 14.916 3.43934 14.8885 3.53996C14.861 3.64057 14.8553 3.74567 14.8718 3.84854C14.8883 3.95142 14.9266 4.04983 14.9843 4.1375C15.042 4.22517 15.1178 4.30019 15.207 4.35777C15.2961 4.41536 15.3966 4.45425 15.502 4.47197Z" fill="#E17A01"/>
<path id="Vector_3" d="M14.7027 7.36894C15.3547 7.54265 15.949 7.87866 16.427 8.34388C16.905 8.8091 17.2502 9.38749 17.4287 10.0221C17.4697 10.1831 17.5651 10.3262 17.6996 10.4282C17.8341 10.5302 17.9999 10.5852 18.1704 10.5846C18.2358 10.5852 18.3008 10.5757 18.3631 10.5564C18.4619 10.5325 18.5548 10.4895 18.6363 10.43C18.7177 10.3705 18.7861 10.2957 18.8373 10.2101C18.8885 10.1244 18.9215 10.0296 18.9343 9.93127C18.9472 9.83295 18.9397 9.73312 18.9122 9.63769C18.6689 8.74661 18.188 7.93392 17.5181 7.28197C16.8482 6.63002 16.0132 6.16195 15.0976 5.92519C14.9971 5.88955 14.8901 5.87467 14.7833 5.8815C14.6766 5.88833 14.5724 5.91671 14.4776 5.96485C14.3827 6.01299 14.2992 6.07982 14.2323 6.1611C14.1654 6.24238 14.1167 6.33631 14.0892 6.43693C14.0616 6.53755 14.056 6.64264 14.0724 6.74551C14.0889 6.84839 14.1273 6.9468 14.185 7.03447C14.2427 7.12214 14.3185 7.19716 14.4077 7.25474C14.4968 7.31233 14.5973 7.35122 14.7027 7.36894Z" fill="#E17A01"/>
</g>
</svg>
