<svg width="20" height="17" viewBox="0 0 20 17" fill="none" xmlns="http://www.w3.org/2000/svg">
<rect width="20" height="17" fill="#1E1E1E"/>
<g id="profile">
<rect width="1600" height="1303" transform="translate(-419 -640)" fill="#EDEDED"/>
<g id="Group 1000004302">
<g id="Group 1000000865">
<g id="Group 1000004304">
<g id="Group 880">
<g id="13003354851543238910 2" clip-path="url(#clip0_1339_3081)">
<path id="Vector" d="M12.5418 3.54165C13.3557 3.67663 14.1038 4.015 14.6902 4.51343C15.2766 5.01187 15.6746 5.64771 15.8334 6.33956M12.5418 0.708313C14.2328 0.867997 15.8098 1.51169 17.0136 2.53369C18.2175 3.5557 18.9768 4.89528 19.1668 6.33248M18.3334 11.985V14.11C18.3344 14.3073 18.2868 14.5025 18.1939 14.6833C18.1009 14.864 17.9645 15.0263 17.7935 15.1596C17.6225 15.293 17.4206 15.3945 17.2007 15.4577C16.9809 15.5209 16.7479 15.5444 16.5168 15.5266C13.9525 15.2898 11.4893 14.545 9.32511 13.3521C7.31163 12.2645 5.60455 10.8135 4.32511 9.10206C2.91676 7.25417 2.04031 5.15027 1.76677 2.96081C1.74595 2.76494 1.77334 2.56752 1.84719 2.38113C1.92105 2.19474 2.03975 2.02347 2.19575 1.87821C2.35174 1.73295 2.54161 1.6169 2.75327 1.53743C2.96492 1.45797 3.19372 1.41683 3.42511 1.41665H5.92511C6.32953 1.41326 6.7216 1.53499 7.02824 1.75915C7.33488 1.9833 7.53517 2.29459 7.59177 2.63498C7.69729 3.31503 7.89298 3.98274 8.17511 4.6254C8.28723 4.87893 8.31149 5.15446 8.24503 5.41935C8.17857 5.68425 8.02416 5.92739 7.80011 6.11998L6.74177 7.01956C7.92807 8.79291 9.65549 10.2612 11.7418 11.2696L12.8001 10.37C13.0267 10.1795 13.3127 10.0483 13.6244 9.9918C13.936 9.9353 14.2602 9.95593 14.5584 10.0512C15.3145 10.291 16.1001 10.4574 16.9001 10.5471C17.3049 10.5956 17.6746 10.7689 17.9389 11.034C18.2032 11.2992 18.3436 11.6376 18.3334 11.985Z" stroke="#031054" stroke-width="2" stroke-linecap="round" stroke-linejoin="round"/>
</g>
</g>
</g>
</g>
</g>
</g>
<defs>
<clipPath id="clip0_1339_3081">
<rect width="20" height="17" fill="white"/>
</clipPath>
</defs>
</svg>
