<svg width="24" height="22" viewBox="0 0 24 22" fill="none" xmlns="http://www.w3.org/2000/svg">
<rect width="24" height="22" fill="#1E1E1E"/>
<g id="profile">
<rect width="1600" height="1154" transform="translate(-1165 -483)" fill="white"/>
<g id="Group 1000004348">
<rect id="Rectangle 34" x="-964.5" y="-376.5" width="1199" height="962" rx="18.5" stroke="#031054" stroke-opacity="0.5"/>
</g>
<g id="Group 1000000829">
<g id="9023670_phone_call_fill_icon 2" clip-path="url(#clip0_2124_11476)">
<path id="Vector" d="M20.821 13.6125L16.6074 11.8937C16.39 11.8005 16.1513 11.7619 15.9139 11.7814C15.6765 11.801 15.4483 11.8781 15.2507 12.0054L12.9957 13.4406C11.6213 12.8021 10.5085 11.7438 9.83315 10.4328L11.3246 8.24998C11.4568 8.06081 11.5376 7.84303 11.5596 7.61642C11.5816 7.3898 11.544 7.16153 11.4503 6.95232L9.64448 2.92185C9.51847 2.6497 9.3051 2.42302 9.03532 2.27468C8.76554 2.12634 8.45338 2.06405 8.14409 2.09685C6.93084 2.24888 5.81657 2.81716 5.00848 3.69603C4.20038 4.5749 3.75343 5.70456 3.75073 6.87498C3.75073 13.6984 9.55464 19.25 16.6882 19.25C17.9119 19.2474 19.0929 18.8199 20.0117 18.0469C20.9305 17.274 21.5246 16.2081 21.6835 15.0476C21.7178 14.7518 21.6527 14.4532 21.4976 14.1952C21.3426 13.9371 21.1056 13.733 20.821 13.6125Z" fill="#E17A01"/>
<path id="Vector_2" d="M15.0171 4.09922C16.1111 4.38512 17.1083 4.93894 17.9103 5.70603C18.7122 6.47312 19.2912 7.42697 19.5901 8.47344C19.6298 8.62036 19.7191 8.75061 19.8443 8.84388C19.9694 8.93714 20.1233 8.98819 20.2819 8.98907C20.3458 8.98895 20.4093 8.98027 20.4706 8.96328C20.562 8.94042 20.6476 8.90034 20.7226 8.8454C20.7976 8.79045 20.8603 8.72176 20.9072 8.64332C20.954 8.56489 20.9841 8.4783 20.9955 8.38862C21.0069 8.29895 20.9995 8.208 20.9737 8.1211C20.6144 6.8395 19.9088 5.6709 18.9279 4.73264C17.947 3.79439 16.7253 3.11951 15.3854 2.77578C15.2917 2.74311 15.1918 2.72947 15.0923 2.73573C14.9927 2.74199 14.8956 2.76801 14.8071 2.81214C14.7186 2.85627 14.6407 2.91753 14.5784 2.99203C14.516 3.06654 14.4705 3.15265 14.4448 3.24488C14.4192 3.33711 14.4139 3.43344 14.4292 3.52775C14.4446 3.62205 14.4804 3.71226 14.5342 3.79262C14.588 3.87299 14.6588 3.94176 14.7419 3.99454C14.825 4.04733 14.9187 4.08298 15.0171 4.09922Z" fill="#E17A01"/>
<path id="Vector_3" d="M14.2715 6.75468C14.8796 6.91391 15.4339 7.22192 15.8797 7.64837C16.3256 8.07483 16.6476 8.60501 16.814 9.18671C16.8523 9.33437 16.9413 9.46546 17.0667 9.55896C17.1922 9.65246 17.3468 9.70295 17.5058 9.70234C17.5668 9.7029 17.6274 9.6942 17.6855 9.67655C17.7777 9.65463 17.8643 9.61523 17.9403 9.56069C18.0163 9.50615 18.08 9.43758 18.1278 9.35905C18.1755 9.28051 18.2063 9.19361 18.2183 9.10348C18.2303 9.01336 18.2233 8.92184 18.1976 8.83437C17.9707 8.01754 17.5222 7.27258 16.8974 6.67496C16.2726 6.07733 15.4938 5.64827 14.6398 5.43124C14.5461 5.39857 14.4462 5.38493 14.3467 5.39119C14.2471 5.39745 14.15 5.42347 14.0615 5.4676C13.973 5.51172 13.8951 5.57299 13.8328 5.64749C13.7704 5.72199 13.7249 5.8081 13.6992 5.90033C13.6736 5.99257 13.6683 6.0889 13.6836 6.18321C13.699 6.27751 13.7348 6.36771 13.7886 6.44808C13.8424 6.52845 13.9132 6.59721 13.9963 6.65C14.0794 6.70278 14.1731 6.73843 14.2715 6.75468Z" fill="#E17A01"/>
</g>
</g>
</g>
<defs>
<clipPath id="clip0_2124_11476">
<rect width="23" height="22" fill="white" transform="translate(0.875732)"/>
</clipPath>
</defs>
</svg>
