<svg width="22" height="20" viewBox="0 0 22 20" fill="none" xmlns="http://www.w3.org/2000/svg">
<rect width="22" height="20" fill="#1E1E1E"/>
<g id="profile">
<rect width="1600" height="1303" transform="translate(-419 -465)" fill="#EDEDED"/>
<g id="Group 1000004302">
<g id="Group 1000000865">
<g id="Group 1000004304">
<g id="Frame 880">
<g id="Group 879">
<g id="172529_price_usd_tag_icon 1" clip-path="url(#clip0_1339_3081)">
<path id="Vector" d="M20.6799 2.20001C20.6799 1.64761 20.1876 1.20001 19.5799 1.20001C19.5113 1.20001 13.0345 1.20081 13.0345 1.20081C12.4493 1.20081 11.8892 1.17281 11.5645 1.46801L1.56369 10.5592C1.23853 10.8544 1.23853 11.3336 1.56369 11.6288L9.20825 18.5784C9.53297 18.8736 10.0601 18.8736 10.3848 18.5784L20.3851 9.48681C20.7099 9.19201 20.6791 8.69481 20.6791 8.15081C20.6791 8.15081 20.6799 2.26241 20.6799 2.20001Z" stroke="#031054" stroke-width="2" stroke-miterlimit="10" stroke-linecap="round"/>
<g id="Group">
<path id="Vector_2" d="M8.55402 11.3316C8.55666 11.6756 8.67854 12.0016 8.91922 12.308L10.8363 10.5652C10.6436 10.276 10.4918 10.0132 10.3809 9.77641C10.2691 9.53881 10.2049 9.31801 10.1851 9.11161C10.1662 8.90561 10.2023 8.70841 10.2942 8.52001C10.3857 8.33121 10.5375 8.14041 10.7496 7.94721C10.9665 7.75001 11.2041 7.60441 11.462 7.51001C11.7198 7.41561 11.9816 7.36841 12.2469 7.36841C12.5123 7.36841 12.7736 7.41521 13.0319 7.51001C13.2897 7.60401 13.5295 7.73921 13.7517 7.91441L14.2291 7.48041L14.6269 7.84241L14.142 8.28321C14.4843 8.68201 14.6507 9.09601 14.6414 9.52561C14.6317 9.95521 14.4628 10.4072 14.135 10.8804L13.5203 10.3216C13.9009 9.79961 13.911 9.30001 13.5493 8.82241L11.7695 10.4404L12.0877 10.9396C12.1603 11.0496 12.2311 11.1912 12.3015 11.3644C12.371 11.5372 12.4133 11.7268 12.4278 11.9332C12.4423 12.1388 12.4124 12.3528 12.3376 12.5744C12.2628 12.796 12.1141 13.0072 11.8923 13.2088C11.656 13.4236 11.4065 13.5784 11.1434 13.6724C10.8807 13.7668 10.6128 13.8108 10.3409 13.804C10.0681 13.7972 9.79702 13.7416 9.52642 13.6364C9.2567 13.5308 8.99622 13.382 8.74542 13.1896L8.1523 13.7288L7.7541 13.3672L8.34722 12.8276C7.91338 12.3452 7.69734 11.8444 7.69998 11.3248C7.70218 10.8052 7.93758 10.2976 8.4053 9.80201L9.01998 10.3608C8.70758 10.664 8.55182 10.9876 8.55402 11.3316ZM9.76226 12.9432C9.9145 13.0112 10.0689 13.0496 10.2291 13.058C10.3879 13.0668 10.5472 13.0404 10.7065 12.9792C10.8653 12.918 11.0224 12.8172 11.1769 12.6768C11.3159 12.5496 11.4092 12.4212 11.4554 12.2916C11.5011 12.1624 11.5165 12.03 11.502 11.894C11.4875 11.758 11.4448 11.6168 11.3753 11.4696C11.3058 11.3224 11.2244 11.1728 11.1329 11.0196L9.31742 12.67C9.46174 12.7836 9.61046 12.8752 9.76226 12.9432ZM12.3341 8.13201C12.0305 8.11441 11.7405 8.23041 11.4659 8.48041C11.3405 8.59441 11.2539 8.71081 11.2055 8.82921C11.1571 8.94721 11.1403 9.06801 11.1544 9.19041C11.1689 9.31361 11.205 9.44041 11.2631 9.57201C11.3212 9.70361 11.3933 9.83961 11.48 9.97961L13.1731 8.44081C12.9171 8.25241 12.6381 8.14921 12.3341 8.13201Z" fill="#031054"/>
</g>
</g>
</g>
</g>
</g>
</g>
</g>
</g>
<defs>
<clipPath id="clip0_1339_3081">
<rect width="22" height="20" fill="white"/>
</clipPath>
</defs>
</svg>
