<svg width="20" height="20" viewBox="0 0 20 20" fill="none" xmlns="http://www.w3.org/2000/svg">
<g id="185087_link_icon 1">
<g id="Expanded">
<g id="Group">
<g id="Group_2">
<path id="Vector" d="M5.8755 17.6308C5.09633 17.6308 4.36383 17.327 3.813 16.7762L3.22342 16.1875C2.08633 15.0504 2.08633 13.1995 3.22342 12.0629L7.05342 8.23288C7.60425 7.68205 8.33675 7.3783 9.11592 7.3783C9.89508 7.3783 10.6276 7.68205 11.178 8.23288L11.7672 8.82205C11.9301 8.98496 11.9301 9.2483 11.7672 9.41121C11.6043 9.57413 11.3409 9.57413 11.178 9.41121L10.5888 8.82205C10.1955 8.42871 9.67217 8.21163 9.11592 8.21163C8.55925 8.21163 8.03592 8.42871 7.64258 8.82205L3.81258 12.6516C3.0005 13.4637 3.0005 14.7854 3.81258 15.5979L4.40175 16.187C4.79508 16.5804 5.31842 16.7975 5.87508 16.7975C6.43133 16.7975 6.95467 16.5804 7.348 16.187L10.0001 13.5354C10.163 13.3725 10.4263 13.3725 10.5893 13.5354C10.7522 13.6983 10.7522 13.9616 10.5893 14.1245L7.93758 16.7762C7.38717 17.3275 6.65467 17.6308 5.8755 17.6308Z" fill="#031054"/>
</g>
<g id="Group_3">
<path id="Vector_2" d="M10.8837 12.6221C10.105 12.6221 9.37207 12.3183 8.82165 11.7675C8.65873 11.6046 8.65873 11.3412 8.82165 11.1783C8.98457 11.0154 9.2479 11.0154 9.41082 11.1783C9.80415 11.5716 10.3275 11.7887 10.8837 11.7887C11.4404 11.7887 11.9637 11.5716 12.3571 11.1783L16.1871 7.34831C16.9991 6.53622 16.9991 5.21456 16.1871 4.40247L15.5983 3.81247C14.7862 3.00039 13.4641 3.00039 12.6521 3.81247L9.99998 6.46456C9.83707 6.62747 9.57373 6.62747 9.41082 6.46456C9.2479 6.30164 9.2479 6.03831 9.41082 5.87539L12.0625 3.22372C13.1996 2.08664 15.05 2.08664 16.1871 3.22372L16.7762 3.81331C17.9133 4.95039 17.9133 6.80081 16.7762 7.93747L12.9462 11.7675C12.3958 12.3183 11.6629 12.6221 10.8837 12.6221Z" fill="#031054"/>
</g>
</g>
</g>
</g>
</svg>
