<svg width="33" height="33" viewBox="0 0 33 33" fill="none" xmlns="http://www.w3.org/2000/svg">
<g clip-path="url(#clip0_82_5340)">
<path d="M22.9981 22.3767L20.1544 19.533H20.1238C21.0003 18.4995 21.4432 17.1671 21.3599 15.8145C21.2767 14.462 20.6736 13.194 19.6769 12.2759C18.6802 11.3577 17.3671 10.8605 16.0123 10.8883C14.6574 10.9161 13.3658 11.4667 12.4076 12.4249C11.4493 13.3831 10.8988 14.6747 10.871 16.0296C10.8432 17.3844 11.3404 18.6975 12.2585 19.6942C13.1767 20.6909 14.4446 21.294 15.7972 21.3773C17.1498 21.4606 18.4822 21.0176 19.5156 20.1411C19.5156 20.1411 19.5156 20.163 19.5156 20.1717L22.3594 23.0155C22.4001 23.0565 22.4485 23.089 22.5018 23.1112C22.5551 23.1335 22.6123 23.1449 22.67 23.1449C22.7278 23.1449 22.785 23.1335 22.8383 23.1112C22.8916 23.089 22.94 23.0565 22.9806 23.0155C23.0255 22.9758 23.0617 22.9273 23.0871 22.873C23.1124 22.8187 23.1263 22.7598 23.128 22.6999C23.1296 22.64 23.1189 22.5804 23.0966 22.5248C23.0743 22.4693 23.0408 22.4188 22.9981 22.3767ZM16.125 20.4999C15.2597 20.4999 14.4139 20.2433 13.6944 19.7625C12.9749 19.2818 12.4142 18.5985 12.0831 17.7991C11.7519 16.9997 11.6653 16.12 11.8341 15.2713C12.0029 14.4227 12.4196 13.6431 13.0314 13.0313C13.6433 12.4194 14.4228 12.0027 15.2715 11.8339C16.1202 11.6651 16.9998 11.7518 17.7993 12.0829C18.5987 12.414 19.282 12.9748 19.7627 13.6942C20.2434 14.4137 20.5 15.2596 20.5 16.1249C20.5 16.6994 20.3869 17.2683 20.167 17.7991C19.9471 18.3299 19.6249 18.8122 19.2186 19.2185C18.8124 19.6247 18.3301 19.947 17.7993 20.1668C17.2685 20.3867 16.6996 20.4999 16.125 20.4999Z" fill="#E17A01"/>
</g>
<circle cx="16.5" cy="16.5" r="16.5" fill="#031054" fill-opacity="0.5"/>
<defs>
<clipPath id="clip0_82_5340">
<rect width="14" height="14" fill="white" transform="translate(10 10)"/>
</clipPath>
</defs>
</svg>
