<svg width="956" height="626" viewBox="0 0 956 626" fill="none" xmlns="http://www.w3.org/2000/svg">
<g clip-path="url(#clip0_82_5389)">
<path d="M489.238 78.5109C480.292 62.2537 469.692 44.8958 453.091 39.5874C433.866 33.4399 414.118 45.6522 397.366 57.7031C347.27 93.7437 299.026 132.801 252.856 174.697L252.907 175.328C288.852 172.605 324.797 169.881 360.742 167.157C386.713 165.189 413.575 162.95 436.526 149.45C445.235 144.328 453.724 137.485 463.593 137.008C475.854 136.416 486.545 145.825 494.946 155.655C544.644 213.806 559.025 302.731 614.781 353.821C579.623 258.548 537.644 166.489 489.238 78.5109Z" fill="#F2F2F2"/>
<path d="M133.622 71.4266C133.037 71.8901 132.453 72.3536 131.868 72.8066C127.563 75.1873 123.336 77.7261 119.127 80.2858C111.228 85.0893 103.43 90.1035 95.7357 95.3283C80.4254 105.725 65.5947 116.916 51.2435 128.9C43.8039 135.115 36.5179 141.534 29.3854 148.157C28.8682 147.535 28.3692 146.892 27.8805 146.239C27.7653 146.081 27.6408 145.923 27.5355 145.755C22.0549 138.241 18.0543 129.558 15.7873 120.257C13.5203 110.955 13.0363 101.238 14.3659 91.7199C15.6955 82.2021 18.8097 73.0915 23.5112 64.9653C28.2128 56.8392 34.3992 49.8747 41.6784 44.513C48.9576 39.1514 57.171 35.5095 65.7981 33.8182C74.4252 32.1269 83.278 32.423 91.7955 34.6878C100.313 36.9526 108.31 41.1366 115.279 46.9748C122.248 52.813 128.037 60.1781 132.28 68.6035C132.347 68.7299 132.414 68.8668 132.472 68.9932C132.875 69.7938 133.258 70.605 133.622 71.4266Z" fill="#ADC4DE"/>
<path d="M139.769 472.263C165.8 473.043 191.755 475.733 217.46 480.315C294.774 494.135 368.9 524.359 435.704 569.3C457.922 584.238 479.206 600.79 499.417 618.844C501.895 621.06 504.356 623.299 506.801 625.561C508.371 627.012 510.652 624.531 509.069 623.068C489.005 604.525 467.84 587.468 445.715 572.012C423.614 556.581 400.62 542.754 376.879 530.617C353.105 518.454 328.643 507.986 303.644 499.277C278.683 490.582 253.232 483.684 227.455 478.627C201.742 473.575 175.753 470.4 149.658 469.123C146.363 468.964 143.067 468.835 139.769 468.738C137.704 468.676 137.706 472.201 139.769 472.263Z" fill="#E4E4E4"/>
<path d="M133.617 360.848C180.215 364.429 226.831 368.07 273.244 373.959C319.704 379.853 366.002 388.04 411.362 400.691C451.464 411.876 490.749 426.602 528.136 446.149C563.091 464.425 596.438 486.712 626.541 513.509C656.223 539.931 682.762 570.773 703.994 605.726C706.669 610.129 709.259 614.593 711.764 619.116C712.838 621.05 715.613 619.281 714.534 617.337C694.289 581.259 669.099 548.829 639.853 521.192C610.537 493.239 577.799 469.761 543.245 450.407C507.095 430.385 469.225 414.358 430.192 402.561C385.039 388.675 338.791 379.552 292.319 372.988C245.431 366.365 198.28 362.35 151.137 358.677C145.298 358.222 139.458 357.77 133.617 357.323C131.557 357.165 131.566 360.69 133.617 360.848Z" fill="#E4E4E4"/>
<path d="M797.928 577.606C792.433 569.981 786.976 562.32 781.558 554.624C737.418 491.894 695.93 427.045 657.093 360.078C630.714 314.596 605.643 268.24 581.88 221.011C570.567 198.558 559.564 175.929 548.871 153.123C540.574 135.44 532.462 117.652 524.535 99.7575C522.268 94.6466 520.065 89.5121 517.873 84.3658C512.708 72.2639 507.64 60.1033 502.197 48.1659C495.996 34.5601 488.447 20.2963 477.058 11.1552C471.876 6.82444 465.678 4.20404 459.191 3.60034C449.92 2.94238 441.366 7.14868 433.325 11.7427C374.493 45.4518 319.414 87.7144 269.597 135.805C219.651 184.003 175.008 238.456 136.578 298.052C135.402 299.897 132.622 298.135 133.808 296.278C138.481 289.017 143.247 281.834 148.105 274.73C208.512 186.452 282.579 110.538 366.922 50.457C381.112 40.3525 395.569 30.7219 410.292 21.5652C417.713 16.9477 425.166 12.3889 432.747 8.11213C440.179 3.91759 448.07 0.146019 456.56 0.00502617C485.452 -0.488449 500.412 35.4648 510.687 59.6568C513.917 67.2704 517.185 74.8605 520.493 82.4272C532.992 111.154 545.973 139.619 559.436 167.822C567.744 185.234 576.234 202.545 584.906 219.754C611.895 273.343 640.58 325.848 670.962 377.267C711.21 445.378 754.288 511.328 800.195 575.115C801.457 576.878 799.201 579.392 797.928 577.606Z" fill="#E4E4E4"/>
<path d="M266.741 118.052C265.063 115.995 263.395 113.939 261.705 111.883C248.382 95.6924 234.086 79.6897 215.79 70.4077C207.067 65.8422 197.544 63.4166 187.882 63.2993C177.895 63.3345 168.132 66.2131 158.905 70.2432C154.542 72.1583 150.275 74.332 146.073 76.6466C141.272 79.302 136.556 82.1336 131.862 84.9887C123.051 90.3464 114.355 95.9391 105.772 101.767C88.6955 113.364 72.1536 125.845 56.1466 139.212C47.8487 146.144 39.7221 153.304 31.7667 160.69C24.3673 167.552 17.1177 174.597 10.0177 181.827C8.49936 183.367 6.23241 180.876 7.75066 179.336C9.6219 177.421 11.5145 175.518 13.4072 173.638C18.7536 168.327 24.1856 163.118 29.7033 158.011C39.7648 148.682 50.087 139.714 60.6696 131.105C77.126 117.711 94.1489 105.225 111.738 93.648C120.528 87.8673 129.439 82.3294 138.47 77.0343C141.197 75.4364 143.956 73.8738 146.747 72.3933C153.079 68.8836 159.659 65.9406 166.421 63.593C176.001 60.1877 186.137 59.0936 196.137 60.3854C205.792 61.9286 215.094 65.4647 223.553 70.8072C241.517 81.8398 255.45 98.9 269.008 115.549C270.377 117.241 268.121 119.743 266.741 118.052Z" fill="#E4E4E4"/>
<path d="M634.813 285.83L677.859 268.53L699.231 259.941C706.192 257.143 713.136 253.958 720.331 251.955C726.693 250.184 733.157 249.895 739.429 252.223C744.964 254.474 750.029 257.924 754.325 262.369C758.715 266.81 762.798 271.603 766.543 276.706C771.197 282.851 775.781 289.06 780.386 295.248C799.392 320.788 818.273 346.439 837.03 372.201C855.787 397.963 874.418 423.833 892.924 449.814C911.475 475.857 929.899 502.01 948.195 528.271C950.436 531.489 952.676 534.707 954.913 537.928C956.149 539.707 958.937 537.953 957.683 536.149C939.252 509.623 920.693 483.206 902.005 456.897C883.271 430.526 864.408 404.267 845.415 378.119C826.422 351.972 807.302 325.938 788.053 300.018C783.257 293.56 778.454 287.11 773.642 280.666C769.584 275.231 765.571 269.737 761.119 264.679C752.948 255.393 742.74 247.187 730.52 246.964C723.335 246.833 716.381 249.338 709.706 251.992C702.51 254.852 695.331 257.767 688.144 260.655L644.797 278.076L633.96 282.431C632.037 283.204 632.868 286.612 634.813 285.83Z" fill="#E4E4E4"/>
<path d="M145.19 51.057L142.632 53.1827C132.398 38.2826 117.994 27.4883 101.633 22.4594C85.2729 17.4304 67.8621 18.4451 52.0777 25.3474C36.2932 32.2498 23.0089 44.6578 14.2669 60.6637C5.52489 76.6697 1.80921 95.3877 3.69109 113.94C5.55412 132.908 13.2163 150.621 25.4257 164.186L23.1383 166.657C10.423 152.531 2.44332 134.084 0.502926 114.331C-1.45691 95.0112 2.41228 75.519 11.5157 58.8508C20.619 42.1826 34.4527 29.2612 50.8899 22.073C67.3271 14.8848 85.458 13.8277 102.495 19.0642C119.532 24.3007 134.533 35.541 145.19 51.057Z" fill="#E4E4E4"/>
<path d="M390.039 276.779C389.118 276.171 388.33 275.349 387.73 274.37C387.13 273.391 386.733 272.28 386.566 271.114C386.399 269.948 386.467 268.756 386.764 267.622C387.062 266.488 387.583 265.439 388.289 264.55L378.741 159.274L394.684 160.437L399.101 264.102C400.381 265.505 401.149 267.375 401.258 269.358C401.368 271.342 400.811 273.301 399.694 274.863C398.577 276.426 396.977 277.484 395.198 277.837C393.418 278.19 391.583 277.814 390.039 276.779Z" fill="#9E616A"/>
<path d="M401.143 155.375L396.963 190.281L397.543 211.675L380.009 213.439L376.495 195.645L374.559 148.54C374.413 144.987 375.498 141.505 377.595 138.796C379.692 136.088 382.646 134.353 385.861 133.942C389.197 133.516 392.551 134.548 395.2 136.816C397.85 139.083 399.581 142.404 400.022 146.062L401.143 155.375Z" fill="#2F2E41"/>
<path d="M333.993 462.506H323.357L318.297 417.426L333.995 417.427L333.993 462.506Z" fill="#9E616A"/>
<path d="M336.706 473.835L302.41 473.834V473.357C302.41 469.467 303.817 465.736 306.32 462.986C308.824 460.235 312.219 458.69 315.759 458.689L336.707 458.69L336.706 473.835Z" fill="#2F2E41"/>
<path d="M421.82 462.506H411.184L406.123 417.426L421.821 417.427L421.82 462.506Z" fill="#9E616A"/>
<path d="M424.532 473.835L390.236 473.834V473.357C390.236 469.467 391.643 465.736 394.146 462.986C396.65 460.235 400.045 458.69 403.585 458.689L424.533 458.69L424.532 473.835Z" fill="#2F2E41"/>
<path d="M380.459 117.35C393.195 117.35 403.519 106.005 403.519 92.0105C403.519 78.0161 393.195 66.6714 380.459 66.6714C367.723 66.6714 357.398 78.0161 357.398 92.0105C357.398 106.005 367.723 117.35 380.459 117.35Z" fill="#9E616A"/>
<path d="M377.479 127.637L393.482 129.646C397.374 135.711 399.897 142.705 400.844 150.052C401.791 157.399 401.134 164.888 398.928 171.901L386.852 210.285C386.852 210.285 403.615 247.211 403.615 281.494C403.615 315.777 435.539 438.151 435.539 438.151L390.603 443.302L370.996 312.939L343.977 442.776L313.132 437.259L330.121 267.028L341.347 210.997L341.825 183.673C341.825 183.673 337.052 163.169 348.998 150.042L363.584 127.71L377.479 127.637Z" fill="#031054"/>
<path d="M353.577 82.9609H387.464V66.7303C380.026 63.4834 372.748 60.7221 368.348 66.7303C364.431 66.7303 360.674 68.4403 357.904 71.4842C355.133 74.528 353.577 78.6563 353.577 82.9609Z" fill="#2F2E41"/>
<path d="M389.34 63.8662C409.598 63.8662 415.268 91.768 415.268 107.509C415.268 116.287 411.655 119.427 405.978 120.489L403.973 108.739L399.277 120.995C397.682 121.004 396.006 120.97 394.269 120.934L392.677 117.332L389.127 120.87C374.906 120.893 363.412 123.171 363.412 107.509C363.412 91.768 368.385 63.8662 389.34 63.8662Z" fill="#2F2E41"/>
<path opacity="0.2" d="M359.381 217.98L358.525 177.107L356.252 158.962L350.635 176.937L359.381 217.98Z" fill="black"/>
<path d="M402 212.529H376.535V130.283H402C406.872 130.289 411.543 132.418 414.988 136.203C418.432 139.989 420.37 145.121 420.376 150.474V192.337C420.37 197.69 418.432 202.823 414.988 206.608C411.543 210.393 406.872 212.523 402 212.529Z" fill="#6C63FF"/>
<path d="M398.456 168.468C397.605 168.467 396.79 168.096 396.188 167.435C395.587 166.774 395.249 165.878 395.248 164.943V134.395H401.663V164.943C401.663 165.878 401.324 166.774 400.723 167.435C400.122 168.096 399.306 168.467 398.456 168.468Z" fill="#3F3D56"/>
<path d="M406.168 206.066H387.535C386.462 206.065 385.432 205.596 384.673 204.761C383.914 203.927 383.487 202.796 383.486 201.616V189.368C383.487 188.188 383.914 187.057 384.673 186.222C385.432 185.388 386.462 184.919 387.535 184.917H406.168C407.242 184.919 408.271 185.388 409.03 186.222C409.789 187.057 410.216 188.188 410.218 189.368V201.616C410.216 202.796 409.789 203.927 409.03 204.761C408.271 205.596 407.242 206.065 406.168 206.066Z" fill="#3F3D56"/>
<path d="M353.115 181.048C348.292 174.796 345.526 165.714 345.526 156.131C345.526 137.991 355.36 123.233 367.446 123.233C373.935 123.233 380.049 127.494 384.219 134.924L382.399 136.158C378.627 129.437 373.177 125.583 367.446 125.583C356.539 125.583 347.665 139.287 347.665 156.131C347.665 165.166 350.246 173.695 354.747 179.529L353.115 181.048Z" fill="#6C63FF"/>
<path d="M363.509 281.033C362.535 280.308 361.717 279.357 361.113 278.246C360.51 277.136 360.135 275.894 360.016 274.608C359.896 273.321 360.035 272.022 360.422 270.801C360.809 269.579 361.435 268.466 362.256 267.54L357.506 151.738L374.885 154.051L374.109 267.755C375.434 269.374 376.173 271.47 376.185 273.647C376.198 275.824 375.483 277.931 374.176 279.568C372.87 281.204 371.062 282.257 369.096 282.528C367.13 282.798 365.142 282.266 363.509 281.033Z" fill="#9E616A"/>
<path d="M382.226 148.935L375.764 186.851L375.242 210.295L355.963 211.079L353.081 191.383L353.511 139.72C353.543 135.824 354.919 132.085 357.36 129.259C359.801 126.432 363.127 124.727 366.667 124.488C370.339 124.24 373.953 125.588 376.728 128.242C379.504 130.896 381.219 134.642 381.503 138.673L382.226 148.935Z" fill="#2F2E41"/>
<path d="M424.211 507.957C425.644 503.696 417.823 496.597 406.744 492.1C395.664 487.604 385.522 487.413 384.089 491.674C382.657 495.934 390.478 503.034 401.557 507.53C412.636 512.027 422.779 512.218 424.211 507.957Z" fill="#E6E6E6"/>
<path d="M493.243 511.565C495.31 507.631 488.694 499.182 478.465 492.692C468.237 486.203 458.269 484.132 456.202 488.066C454.136 492 460.752 500.449 470.98 506.938C481.209 513.427 491.177 515.498 493.243 511.565Z" fill="#E6E6E6"/>
<path d="M526.856 562.33C528.759 558.298 521.801 550.186 511.316 544.212C500.831 538.238 490.788 536.664 488.885 540.697C486.982 544.729 493.94 552.841 504.425 558.815C514.911 564.789 524.953 566.362 526.856 562.33Z" fill="#E6E6E6"/>
<path d="M595.29 579.954C597.193 575.922 590.235 567.81 579.75 561.836C569.265 555.862 559.222 554.288 557.319 558.321C555.417 562.353 562.374 570.465 572.859 576.439C583.345 582.413 593.387 583.987 595.29 579.954Z" fill="#E6E6E6"/>
<path d="M210.126 90.7802C188.251 78.4267 160.237 80.8462 140.135 96.2801C178.477 103.549 216.4 113.274 253.709 125.407C238.216 115.431 226.097 99.7998 210.126 90.7802Z" fill="#F2F2F2"/>
<path d="M139.92 96.2378L135.709 99.999C137.133 98.6826 138.614 97.4483 140.135 96.2803C140.063 96.2667 139.992 96.2514 139.92 96.2378Z" fill="#F2F2F2"/>
<path d="M752.705 286.003C748.468 280.335 743.886 274.401 737.548 272.099L731.631 272.355C776.675 359.814 837.511 436.236 910.403 496.929C857.837 426.62 805.271 356.311 752.705 286.003Z" fill="#F2F2F2"/>
</g>
<defs>
<clipPath id="clip0_82_5389">
<rect width="958" height="626" fill="white"/>
</clipPath>
</defs>
</svg>
