<svg width="32" height="32" viewBox="0 0 32 32" fill="none" xmlns="http://www.w3.org/2000/svg">
<path d="M12.2629 2.66663L11.4166 6.46611C10.9352 6.69774 10.4751 6.96454 10.0338 7.26558L6.32023 6.09631L2.58325 12.5703L5.39836 15.1484C5.28837 15.9648 5.33819 16.3672 5.39836 16.8515L2.58325 19.4296L6.32023 25.9036L10.0338 24.7343C10.4751 25.0354 10.9352 25.3022 11.4166 25.5338L12.2629 29.3333H19.7369L20.5833 25.5338C21.0646 25.3022 21.5248 25.0354 21.9661 24.7343L25.6796 25.9036L29.4166 19.4296L26.6015 16.8515C26.6245 16.5681 26.6663 16.2845 26.6666 16C26.6677 15.7068 26.6215 15.4107 26.6015 15.1484L29.4166 12.5703L25.6796 6.09631L21.9661 7.26558C21.5248 6.96454 21.0646 6.69774 20.5833 6.46611L19.7369 2.66663H12.2629ZM14.4036 5.33329H17.5963L18.2551 8.29163L18.9166 8.55204C19.6648 8.84507 20.3643 9.24841 20.9921 9.74996L21.5494 10.1927L24.44 9.28381L26.0364 12.0494L23.802 14.0989L23.9088 14.802C24.0344 15.5796 24.01 16.4745 23.9088 17.1979L23.802 17.901L26.0364 19.9505L24.44 22.7161L21.5494 21.8073L20.9921 22.25C20.3643 22.7515 19.6648 23.1548 18.9166 23.4479L18.2551 23.7083L17.5963 26.6666H14.4036L13.7447 23.7083L13.0833 23.4479C12.335 23.1548 11.6356 22.7515 11.0077 22.25L10.4504 21.8073L7.55981 22.7161L5.96346 19.9505L8.19783 17.901L8.09106 17.1979C7.96083 16.4046 7.98083 15.4967 8.09106 14.802L8.19783 14.0989L5.96346 12.0494L7.55981 9.28381L10.4504 10.1927L11.0077 9.74996C11.6356 9.24841 12.335 8.84507 13.0833 8.55204L13.7447 8.29163L14.4036 5.33329ZM15.9999 10.6666C13.0702 10.6666 10.6666 13.0702 10.6666 16C10.6666 18.9297 13.0702 21.3333 15.9999 21.3333C18.9296 21.3333 21.3333 18.9297 21.3333 16C21.3333 13.0702 18.9296 10.6666 15.9999 10.6666ZM15.9999 13.3333C17.4885 13.3333 18.6666 14.5114 18.6666 16C18.6666 17.4885 17.4885 18.6666 15.9999 18.6666C14.5114 18.6666 13.3333 17.4885 13.3333 16C13.3333 14.5114 14.5114 13.3333 15.9999 13.3333Z" fill="#A098AE"/>
</svg>
