<svg width="15" height="15" viewBox="0 0 15 15" fill="none" xmlns="http://www.w3.org/2000/svg">
<path id="settings" d="M14.3256 9L13.5226 8.5625C12.6526 8.0625 12.6526 6.875 13.5226 6.375L14.3256 5.9375C14.9947 5.5625 15.1955 4.8125 14.794 4.25L14.1248 3.1875C13.7233 2.5625 12.9203 2.375 12.3181 2.75L11.515 3.1875C10.6451 3.6875 9.50752 3.0625 9.50752 2.125V1.25C9.50752 0.5625 8.90527 0 8.16917 0H6.83083C6.09474 0 5.49248 0.5625 5.49248 1.25V2.0625C5.49248 3 4.35488 3.625 3.48496 3.125L2.68195 2.75C2.01278 2.375 1.20977 2.625 0.87518 3.1875L0.206007 4.25C-0.12858 4.875 0.0721719 5.625 0.674428 6L1.47744 6.4375C2.34736 6.875 2.34736 8.125 1.47744 8.5625L0.674428 9C0.00525454 9.375 -0.195498 10.125 0.206007 10.6875L0.87518 11.75C1.27668 12.375 2.07969 12.5625 2.68195 12.1875L3.48496 11.8125C4.35488 11.3125 5.49248 11.9375 5.49248 12.875V13.75C5.49248 14.4375 6.09474 15 6.83083 15H8.16917C8.90527 15 9.50752 14.4375 9.50752 13.75V12.9375C9.50752 12 10.6451 11.375 11.515 11.875L12.3181 12.3125C12.9872 12.6875 13.7902 12.4375 14.1248 11.875L14.794 10.8125C15.1286 10.125 14.9278 9.375 14.3256 9ZM7.5 10C6.02782 10 4.82331 8.875 4.82331 7.5C4.82331 6.125 6.02782 5 7.5 5C8.97218 5 10.1767 6.125 10.1767 7.5C10.1767 8.875 8.97218 10 7.5 10Z" fill="#031054"/>
</svg>
