<svg width="32" height="30" viewBox="0 0 32 30" fill="none" xmlns="http://www.w3.org/2000/svg">
<g clip-path="url(#clip0_291_4516)">
<path d="M31.2891 15.2807C31.2891 14.0516 31.1858 13.1547 30.9623 12.2246H16.4263V17.7721H24.9586C24.7866 19.1507 23.8577 21.2269 21.7934 22.622L21.7644 22.8077L26.3604 26.2455L26.6789 26.2762C29.6032 23.6685 31.2891 19.8317 31.2891 15.2807Z" fill="#4285F4"/>
<path d="M16.4262 29.8968C20.6063 29.8968 24.1156 28.568 26.6788 26.2759L21.7933 22.6218C20.486 23.5021 18.7313 24.1166 16.4262 24.1166C12.3321 24.1166 8.85726 21.509 7.61858 17.9048L7.43701 17.9197L2.65802 21.4907L2.59552 21.6585C5.14144 26.5416 10.371 29.8968 16.4262 29.8968Z" fill="#34A853"/>
<path d="M7.61854 17.905C7.2917 16.9749 7.10255 15.9782 7.10255 14.9485C7.10255 13.9187 7.2917 12.9221 7.60134 11.992L7.59268 11.7939L2.7538 8.16553L2.59548 8.23824C1.54618 10.2646 0.944092 12.5401 0.944092 14.9485C0.944092 17.3569 1.54618 19.6323 2.59548 21.6587L7.61854 17.905Z" fill="#E17A01"/>
<path d="M16.4263 5.78004C19.3334 5.78004 21.2944 6.99252 22.4126 8.00576L26.782 3.8866C24.0985 1.47824 20.6064 0 16.4263 0C10.371 0 5.14144 3.35507 2.59552 8.2382L7.60139 11.992C8.85727 8.38774 12.3321 5.78004 16.4263 5.78004Z" fill="#E31515"/>
</g>
<defs>
<clipPath id="clip0_291_4516">
<rect width="30.3625" height="30" fill="white" transform="translate(0.942566)"/>
</clipPath>
</defs>
</svg>
