<svg width="17" height="15" viewBox="0 0 17 15" fill="none" xmlns="http://www.w3.org/2000/svg">
<g id="Group">
<path id="Vector" d="M3.62744 8.43752H11.6875C11.9693 8.43752 12.2395 8.33874 12.4388 8.16293C12.6381 7.98711 12.75 7.74866 12.75 7.50002C12.75 7.25137 12.6381 7.01292 12.4388 6.8371C12.2395 6.66129 11.9693 6.56252 11.6875 6.56252H3.62744L5.00122 5.35036C5.19954 5.17439 5.31069 4.93622 5.3103 4.68806C5.30991 4.43989 5.19801 4.20199 4.99913 4.02651C4.80026 3.85104 4.53064 3.7523 4.24939 3.75195C3.96813 3.75161 3.6982 3.84968 3.49877 4.02467L0.311275 6.83717C0.212592 6.9242 0.134309 7.02754 0.0808997 7.14127C0.0274901 7.255 0 7.3769 0 7.50002C0 7.62313 0.0274901 7.74503 0.0808997 7.85876C0.134309 7.97249 0.212592 8.07583 0.311275 8.16286L3.49877 10.9754C3.59733 11.0628 3.71447 11.1322 3.84348 11.1797C3.97249 11.2271 4.11085 11.2516 4.25061 11.2518C4.39037 11.2519 4.5288 11.2278 4.65797 11.1807C4.78713 11.1335 4.90449 11.0644 5.00331 10.9772C5.10214 10.89 5.1805 10.7865 5.23389 10.6725C5.28729 10.5585 5.31468 10.4364 5.31448 10.3131C5.31429 10.1897 5.28652 10.0677 5.23276 9.95382C5.17901 9.83999 5.10032 9.73663 5.00122 9.64967L3.62744 8.43752Z" fill="#031054"/>
<path id="Vector_2" d="M15.9375 1.50705e-07H7.4375C7.29795 -6.96845e-05 7.15975 0.0241318 7.03081 0.0712209C6.90186 0.11831 6.7847 0.187363 6.68602 0.274432C6.58734 0.361501 6.50908 0.464878 6.45572 0.578652C6.40235 0.692426 6.37492 0.814366 6.375 0.9375V2.8125C6.375 3.06114 6.48694 3.2996 6.6862 3.47541C6.88546 3.65123 7.15571 3.75 7.4375 3.75C7.71929 3.75 7.98954 3.65123 8.1888 3.47541C8.38806 3.2996 8.5 3.06114 8.5 2.8125V1.875H14.875V13.125H8.5V12.1875C8.5 11.9389 8.38806 11.7004 8.1888 11.5246C7.98954 11.3488 7.71929 11.25 7.4375 11.25C7.15571 11.25 6.88546 11.3488 6.6862 11.5246C6.48694 11.7004 6.375 11.9389 6.375 12.1875V14.0625C6.37492 14.1856 6.40235 14.3076 6.45572 14.4213C6.50908 14.5351 6.58734 14.6385 6.68602 14.7256C6.7847 14.8126 6.90186 14.8817 7.03081 14.9288C7.15975 14.9759 7.29795 15.0001 7.4375 15H15.9375C16.0771 15.0001 16.2153 14.9759 16.3442 14.9288C16.4731 14.8817 16.5903 14.8126 16.689 14.7256C16.7877 14.6385 16.8659 14.5351 16.9193 14.4213C16.9727 14.3076 17.0001 14.1856 17 14.0625V0.9375C17.0001 0.814366 16.9727 0.692426 16.9193 0.578652C16.8659 0.464878 16.7877 0.361501 16.689 0.274432C16.5903 0.187363 16.4731 0.11831 16.3442 0.0712209C16.2153 0.0241318 16.0771 -6.96845e-05 15.9375 1.50705e-07Z" fill="#031054"/>
</g>
</svg>
