<svg width="32" height="30" viewBox="0 0 32 30" fill="none" xmlns="http://www.w3.org/2000/svg">
<path d="M15.9454 30C24.3298 30 31.1267 23.2842 31.1267 15C31.1267 6.71572 24.3298 0 15.9454 0C7.56104 0 0.76416 6.71572 0.76416 15C0.76416 23.2842 7.56104 30 15.9454 30Z" fill="#1977F3"/>
<path d="M21.855 19.337L22.5275 15.0001H18.3175V12.1861C18.3175 11.0006 18.9046 9.84258 20.7918 9.84258H22.7068V6.15112C22.7068 6.15112 20.969 5.85791 19.3081 5.85791C15.841 5.85791 13.5738 7.93357 13.5738 11.6946V15.0001H9.71814V19.337H13.5738V29.8187C14.3466 29.9389 15.1386 30.0001 15.9456 30.0001C16.7526 30.0001 17.5447 29.9368 18.3175 29.8187V19.337H21.855Z" fill="white"/>
</svg>
