<svg width="13" height="13" viewBox="0 0 13 13" fill="none" xmlns="http://www.w3.org/2000/svg">
<g clip-path="url(#clip0_287_4045)">
<path d="M8.85052 5.04964C9.06935 4.84567 9.08143 4.50292 8.87744 4.28408C8.6735 4.06524 8.33073 4.05318 8.1119 4.25714L6.52693 5.73439L5.04967 4.1494C4.8457 3.93057 4.50295 3.91851 4.28411 4.12247C4.06527 4.32644 4.05321 4.66919 4.25717 4.88803L5.73442 6.473L4.14944 7.95029C3.9306 8.15423 3.91854 8.49699 4.1225 8.71583C4.32647 8.93466 4.66922 8.94674 4.88806 8.74275L6.47303 7.26552L7.95032 8.85049C8.15426 9.06932 8.49703 9.0814 8.71586 8.87741C8.93469 8.67347 8.94677 8.3307 8.74278 8.11187L7.26555 6.5269L8.85052 5.04964Z" fill="#031054" fill-opacity="0.5"/>
<path fill-rule="evenodd" clip-rule="evenodd" d="M0.541656 6.49984C0.541656 3.20914 3.20929 0.541504 6.49999 0.541504C9.79067 0.541504 12.4583 3.20914 12.4583 6.49984C12.4583 9.79052 9.79067 12.4582 6.49999 12.4582C3.20929 12.4582 0.541656 9.79052 0.541656 6.49984ZM6.49999 11.3748C3.8076 11.3748 1.62499 9.19225 1.62499 6.49984C1.62499 3.80745 3.8076 1.62484 6.49999 1.62484C9.1924 1.62484 11.375 3.80745 11.375 6.49984C11.375 9.19225 9.1924 11.3748 6.49999 11.3748Z" fill="#031054" fill-opacity="0.5"/>
</g>
<defs>
<clipPath id="clip0_287_4045">
<rect width="13" height="13" fill="white"/>
</clipPath>
</defs>
</svg>
