<svg width="16" height="11" viewBox="0 0 16 11" fill="none" xmlns="http://www.w3.org/2000/svg">
<g clip-path="url(#clip0_286_3986)">
<path d="M7.92059 8.59381C6.16819 8.59381 4.74964 7.33246 4.6191 5.73402L2.19555 3.99228C1.87695 4.36396 1.58377 4.75691 1.34719 5.1866C1.29434 5.28382 1.2668 5.39123 1.2668 5.50016C1.2668 5.6091 1.29434 5.71651 1.34719 5.81373C2.60009 8.08699 5.08048 9.62506 7.92059 9.62506C8.5423 9.62506 9.14207 9.53912 9.72012 9.40033L8.52128 8.53773C8.32329 8.5733 8.12223 8.59207 7.92059 8.59381ZM15.1709 9.84205L12.6168 8.00642C13.3927 7.3984 14.0308 6.65297 14.494 5.81351C14.5468 5.71629 14.5744 5.60888 14.5744 5.49995C14.5744 5.39101 14.5468 5.2836 14.494 5.18638C13.2411 2.91312 10.7607 1.37506 7.92059 1.37506C6.73111 1.3764 5.56094 1.65486 4.51698 2.18502L1.57776 0.0724587C1.53943 0.044724 1.4956 0.0242844 1.44878 0.0123079C1.40195 0.00033135 1.35305 -0.00294734 1.30486 0.00265917C1.25667 0.00826568 1.21014 0.0226475 1.16793 0.0449828C1.12572 0.0673181 1.08866 0.097169 1.05886 0.13283L0.605336 0.67574C0.545174 0.747709 0.518216 0.838953 0.53039 0.929404C0.542565 1.01985 0.592875 1.1021 0.670256 1.15806L14.2634 10.9277C14.3017 10.9554 14.3456 10.9758 14.3924 10.9878C14.4392 10.9998 14.4881 11.0031 14.5363 10.9975C14.5845 10.9918 14.631 10.9775 14.6732 10.9551C14.7155 10.9328 14.7525 10.9029 14.7823 10.8673L15.2361 10.3244C15.2962 10.2524 15.3231 10.1611 15.3109 10.0707C15.2987 9.98021 15.2483 9.89798 15.1709 9.84205ZM10.9264 6.79127L10.0184 6.13857C10.0948 5.93307 10.1354 5.7175 10.1385 5.50006C10.143 5.18171 10.0672 4.86683 9.91709 4.58068C9.76699 4.29454 9.54682 4.04513 9.27426 3.85247C9.0017 3.65981 8.68435 3.52928 8.3477 3.47136C8.01105 3.41344 7.66448 3.42975 7.33584 3.51898C7.47516 3.69453 7.55052 3.90688 7.55093 4.12506C7.54749 4.19766 7.53556 4.2697 7.51535 4.3399L5.81471 3.11765C6.40546 2.65858 7.15072 2.40684 7.92059 2.40631C8.35755 2.40608 8.79028 2.48595 9.19403 2.64134C9.59777 2.79674 9.96462 3.02461 10.2736 3.31194C10.5826 3.59927 10.8276 3.94041 10.9947 4.31586C11.1618 4.69132 11.2477 5.09372 11.2475 5.50006C11.2475 5.96476 11.1253 6.39789 10.9264 6.79148V6.79127Z" fill="#031054" fill-opacity="0.5"/>
</g>
<defs>
<clipPath id="clip0_286_3986">
<rect width="14.7862" height="11" fill="white" transform="translate(0.527344)"/>
</clipPath>
</defs>
</svg>
