<svg width="256" height="48" viewBox="0 0 256 48" fill="none" xmlns="http://www.w3.org/2000/svg">
<g id="Frame 875">
<path id="Star 12" d="M24 0L29.3883 16.5836H46.8254L32.7185 26.8328L38.1068 43.4164L24 33.1672L9.89315 43.4164L15.2815 26.8328L1.17464 16.5836H18.6117L24 0Z" fill="#D9D9D9"/>
<path id="Star 13" d="M76 0L81.3883 16.5836H98.8254L84.7185 26.8328L90.1068 43.4164L76 33.1672L61.8932 43.4164L67.2815 26.8328L53.1746 16.5836H70.6117L76 0Z" fill="#D9D9D9"/>
<path id="Star 14" d="M128 0L133.388 16.5836H150.825L136.719 26.8328L142.107 43.4164L128 33.1672L113.893 43.4164L119.281 26.8328L105.175 16.5836H122.612L128 0Z" fill="#D9D9D9"/>
<path id="Star 15" d="M180 0L185.388 16.5836H202.825L188.719 26.8328L194.107 43.4164L180 33.1672L165.893 43.4164L171.281 26.8328L157.175 16.5836H174.612L180 0Z" fill="#D9D9D9"/>
<path id="Star 16" d="M232 0L237.388 16.5836H254.825L240.719 26.8328L246.107 43.4164L232 33.1672L217.893 43.4164L223.281 26.8328L209.175 16.5836H226.612L232 0Z" fill="#D9D9D9"/>
</g>
</svg>
