<svg width="193" height="29" viewBox="0 0 193 29" fill="none" xmlns="http://www.w3.org/2000/svg">
<g id="Group 870">
<path id="Star 2" d="M14.5 0L17.7555 10.0193L28.2903 10.0193L19.7674 16.2115L23.0229 26.2307L14.5 20.0385L5.97711 26.2307L9.23257 16.2115L0.709681 10.0193L11.2445 10.0193L14.5 0Z" fill="#E17A01"/>
<path id="Star 3" d="M55.5 0L58.7555 10.0193L69.2903 10.0193L60.7674 16.2115L64.0229 26.2307L55.5 20.0385L46.9771 26.2307L50.2326 16.2115L41.7097 10.0193L52.2445 10.0193L55.5 0Z" fill="#E17A01"/>
<path id="Star 4" d="M96.5 0L99.7555 10.0193L110.29 10.0193L101.767 16.2115L105.023 26.2307L96.5 20.0385L87.9771 26.2307L91.2326 16.2115L82.7097 10.0193L93.2445 10.0193L96.5 0Z" fill="#E17A01"/>
<path id="Star 5" d="M137.5 0L140.755 10.0193L151.29 10.0193L142.767 16.2115L146.023 26.2307L137.5 20.0385L128.977 26.2307L132.233 16.2115L123.71 10.0193L134.245 10.0193L137.5 0Z" fill="#E17A01"/>
<path id="Star 6" d="M178.5 0L181.755 10.0193L192.29 10.0193L183.767 16.2115L187.023 26.2307L178.5 20.0385L169.977 26.2307L173.233 16.2115L164.71 10.0193L175.245 10.0193L178.5 0Z" fill="#D9D9D9"/>
</g>
</svg>
