<svg width="16" height="19" viewBox="0 0 16 19" fill="none" xmlns="http://www.w3.org/2000/svg">
<g id="8111408_switchrounded_switch_twirl_arrow_arrows_icon 1">
<path id="Vector" d="M12.8822 11.4931L14.9375 13.9335L12.8822 16.3741L12.2188 15.5859L13.2006 14.42C11.9838 14.2519 10.9194 13.7858 9.965 13.0079C8.89219 12.1325 8.08625 10.9751 7.30656 9.85587C5.79156 7.67978 4.36031 5.62541 1.06313 5.62541V4.50878C2.73937 4.50878 4.14906 4.99417 5.37219 5.99316C6.44438 6.86783 7.25 8.02527 8.03125 9.14449C9.34375 11.0308 10.5956 12.8261 13.0528 13.2707L12.2188 12.2832L12.8822 11.4931ZM10.9712 6.56056C11.5994 6.14234 12.2869 5.86773 13.0509 5.72968L12.2188 6.71679L12.8828 7.50537L14.9375 5.06654L12.8822 2.62585L12.2188 3.41406L13.2 4.57929C12.2081 4.71548 11.3216 5.04873 10.5125 5.58755C9.95437 5.95865 9.17219 6.578 8.06781 8.07388L8.77437 8.80865C9.33719 8.04605 10.0391 7.1814 10.9712 6.56056ZM4.36469 12.4394C3.41844 13.0703 2.33812 13.3761 1.0625 13.3761V14.4912C2.50344 14.4912 3.73375 14.1383 4.82406 13.4121C5.88031 12.707 6.6525 11.76 7.26875 10.9257L6.5625 10.1899C6 10.9539 5.29688 11.8186 4.36469 12.4394Z" fill="#031054"/>
</g>
</svg>
