<svg width="20" height="17" viewBox="0 0 20 17" fill="none" xmlns="http://www.w3.org/2000/svg">
<g id="13003354851543238910 2" clip-path="url(#clip0_369_9072)">
<path id="Vector" d="M12.5435 3.54134C13.3574 3.67632 14.1055 4.01469 14.6919 4.51313C15.2783 5.01157 15.6763 5.6474 15.8352 6.33926M12.5435 0.708008C14.2345 0.867692 15.8115 1.51138 17.0154 2.53339C18.2192 3.55539 18.9785 4.89497 19.1685 6.33217M18.3352 11.9847V14.1097C18.3361 14.3069 18.2886 14.5022 18.1956 14.683C18.1026 14.8637 17.9662 15.026 17.7952 15.1593C17.6242 15.2927 17.4223 15.3942 17.2024 15.4574C16.9826 15.5206 16.7496 15.5441 16.5185 15.5263C13.9542 15.2895 11.491 14.5447 9.32682 13.3518C7.31334 12.2642 5.60626 10.8132 4.32682 9.10176C2.91846 7.25386 2.04202 5.14996 1.76848 2.96051C1.74766 2.76463 1.77505 2.56721 1.8489 2.38083C1.92275 2.19444 2.04146 2.02316 2.19745 1.87791C2.35345 1.73265 2.54332 1.61659 2.75498 1.53713C2.96663 1.45766 3.19543 1.41653 3.42682 1.41634H5.92682C6.33124 1.41296 6.72331 1.53469 7.02995 1.75884C7.33659 1.983 7.53688 2.29428 7.59348 2.63467C7.699 3.31472 7.89469 3.98244 8.17682 4.62509C8.28894 4.87862 8.3132 5.15416 8.24674 5.41905C8.18028 5.68394 8.02587 5.92709 7.80182 6.11967L6.74348 7.01926C7.92978 8.7926 9.6572 10.2609 11.7435 11.2693L12.8018 10.3697C13.0284 10.1792 13.3144 10.048 13.6261 9.99149C13.9377 9.935 14.2619 9.95562 14.5601 10.0509C15.3162 10.2907 16.1018 10.4571 16.9018 10.5468C17.3066 10.5953 17.6763 10.7686 17.9406 11.0337C18.2049 11.2989 18.3453 11.6373 18.3352 11.9847Z" stroke="#031054" stroke-width="2" stroke-linecap="round" stroke-linejoin="round"/>
</g>
<defs>
<clipPath id="clip0_369_9072">
<rect width="20" height="17" fill="white"/>
</clipPath>
</defs>
</svg>
