<svg width="59" height="54" viewBox="0 0 59 54" fill="none" xmlns="http://www.w3.org/2000/svg">
<ellipse cx="29.5" cy="27" rx="29.5" ry="27" fill="#ADC4DE"/>
<path d="M49.9394 16.1602C48.5019 16.7566 46.9549 17.1589 45.3316 17.3389C46.989 16.4128 48.2598 14.946 48.8591 13.1961C47.3089 14.0548 45.5928 14.6778 43.7648 15.0142C42.3019 13.5592 40.2167 12.6494 37.9093 12.6494C33.4794 12.6494 29.8877 16.0017 29.8877 20.137C29.8877 20.723 29.9583 21.2942 30.0956 21.8431C23.4282 21.5305 17.5163 18.5501 13.5595 14.02C12.8689 15.1253 12.4736 16.4114 12.4736 17.7849C12.4736 20.3822 13.8897 22.6744 16.0423 24.0167C14.7279 23.9775 13.4904 23.6404 12.4085 23.0796C12.4077 23.1107 12.4077 23.1426 12.4077 23.1744C12.4077 26.8015 15.1732 29.8271 18.8435 30.5161C18.1704 30.6865 17.4615 30.7783 16.7297 30.7783C16.2122 30.7783 15.7097 30.7316 15.22 30.6435C16.2415 33.6179 19.2038 35.7834 22.7138 35.8434C19.9682 37.8518 16.5098 39.049 12.7506 39.049C12.1037 39.049 11.4648 39.0134 10.8369 38.9438C14.3881 41.0692 18.6045 42.3079 23.1345 42.3079C37.891 42.3079 45.9595 30.8991 45.9595 21.0045C45.9595 20.68 45.9524 20.3563 45.9373 20.0348C47.5041 18.9813 48.8646 17.6619 49.9394 16.1602Z" fill="black"/>
</svg>
