<svg width="33" height="33" viewBox="0 0 33 33" fill="none" xmlns="http://www.w3.org/2000/svg">
<rect width="33" height="33" fill="#1E1E1E"/>
<g id="pdf">
<rect width="1600" height="1303" transform="translate(-308 -510)" fill="#EDEDED"/>
<g id="Group 894">
<rect id="Rectangle 20" x="-108" y="-241" width="560" height="459" rx="22" fill="white"/>
<g id="Group 98">
<g id="Group 97">
<g id="Group 81">
<rect id="Rectangle 17" x="-36" y="-13" width="415" height="57" rx="28.5" fill="#031054"/>
</g>
</g>
<g id="216485_upload_icon 2">
<g id="Group">
<path id="Vector" d="M28.8571 22C28.8571 21.8556 28.8516 21.7099 28.8035 21.5655L26.0535 13.3155C25.8665 12.7531 25.3426 12.375 24.75 12.375H19.25V15.125H23.7586L26.0508 22H6.94925L9.24137 15.125H13.75V12.375H8.25C7.65738 12.375 7.1335 12.7531 6.9465 13.3155L4.1965 21.5655C4.14838 21.7099 4.14288 21.8556 4.14288 22C4.125 22 4.125 28.875 4.125 28.875C4.125 29.6354 4.73963 30.25 5.5 30.25H27.5C28.2604 30.25 28.875 29.6354 28.875 28.875C28.875 28.875 28.875 22 28.8571 22Z" fill="white"/>
<path id="Vector_2" d="M22.0003 10.868C22.3564 10.868 22.7125 10.7374 22.9724 10.4789C23.5087 9.94263 23.5087 9.07088 22.9724 8.53463L16.5003 2.0625L10.0282 8.53463C9.49191 9.07088 9.49191 9.94263 10.0282 10.4789C10.288 10.7388 10.6442 10.868 11.0003 10.868C11.3564 10.868 11.7125 10.7388 11.9724 10.4789L15.1253 7.326V16.5C15.1253 17.259 15.7413 17.875 16.5003 17.875C17.2593 17.875 17.8753 17.259 17.8753 16.5V7.326L21.0282 10.4789C21.288 10.7388 21.6442 10.868 22.0003 10.868Z" fill="white"/>
</g>
</g>
</g>
</g>
</g>
</svg>
