<svg width="21" height="19" viewBox="0 0 21 19" fill="none" xmlns="http://www.w3.org/2000/svg">
<g id="216485_upload_icon 2">
<g id="Group">
<path id="Vector" d="M17.6933 12.6667C17.6933 12.5835 17.69 12.4996 17.662 12.4165L16.0578 7.6665C15.9487 7.34271 15.6431 7.125 15.2974 7.125H12.0891V8.70833H14.7191L16.0562 12.6667H4.9136L6.25068 8.70833H8.88072V7.125H5.67237C5.32667 7.125 5.02108 7.34271 4.912 7.6665L3.30782 12.4165C3.27975 12.4996 3.27654 12.5835 3.27654 12.6667C3.26611 12.6667 3.26611 16.625 3.26611 16.625C3.26611 17.0628 3.62465 17.4167 4.0682 17.4167H16.9016C17.3451 17.4167 17.7037 17.0628 17.7037 16.625C17.7037 16.625 17.7037 12.6667 17.6933 12.6667Z" fill="white"/>
<path id="Vector_2" d="M13.6932 6.25733C13.901 6.25733 14.1087 6.18212 14.2603 6.03329C14.5731 5.72454 14.5731 5.22262 14.2603 4.91387L10.4849 1.1875L6.70946 4.91387C6.39665 5.22262 6.39665 5.72454 6.70946 6.03329C6.86106 6.18292 7.0688 6.25733 7.27654 6.25733C7.48428 6.25733 7.69202 6.18292 7.84362 6.03329L9.6828 4.218V9.5C9.6828 9.937 10.0421 10.2917 10.4849 10.2917C10.9276 10.2917 11.287 9.937 11.287 9.5V4.218L13.1262 6.03329C13.2778 6.18292 13.4855 6.25733 13.6932 6.25733Z" fill="white"/>
</g>
</g>
</svg>
