<svg width="11" height="11" viewBox="0 0 11 11" fill="none" xmlns="http://www.w3.org/2000/svg">
<g id="User">
<path id="Vector" d="M6.98348 5.70554C7.50312 5.3203 7.89224 4.77193 8.09455 4.13976C8.29686 3.5076 8.30187 2.82443 8.10884 2.18909C7.91582 1.55375 7.53477 0.999195 7.02083 0.605655C6.50689 0.212115 5.88672 0 5.25004 0C4.61335 0 3.99318 0.212115 3.47924 0.605655C2.96531 0.999195 2.58426 1.55375 2.39123 2.18909C2.19821 2.82443 2.20321 3.5076 2.40552 4.13976C2.60783 4.77193 2.99696 5.3203 3.5166 5.70554C2.50325 6.01478 1.61288 6.65956 0.978896 7.54327C0.344915 8.42697 0.00146213 9.50201 0 10.6073C0 10.7115 0.0395088 10.8113 0.109835 10.885C0.180161 10.9586 0.275544 11 0.375 11H10.125C10.2245 11 10.3198 10.9586 10.3902 10.885C10.4605 10.8113 10.5 10.7115 10.5 10.6073C10.4985 9.50202 10.1551 8.42699 9.52113 7.54329C8.88717 6.65959 7.99681 6.0148 6.98348 5.70554ZM3 3.1462C3 2.6802 3.13196 2.22466 3.37919 1.8372C3.62643 1.44973 3.97783 1.14774 4.38896 0.969406C4.8001 0.791076 5.2525 0.744416 5.68895 0.835328C6.12541 0.926241 6.52632 1.15064 6.84099 1.48015C7.15566 1.80967 7.36995 2.22949 7.45677 2.68654C7.54358 3.14358 7.49903 3.61732 7.32873 4.04785C7.15843 4.47838 6.87004 4.84636 6.50003 5.10526C6.13002 5.36415 5.69501 5.50234 5.25 5.50234C4.65347 5.50163 4.08157 5.25316 3.65976 4.81145C3.23795 4.36975 3.00068 3.77087 3 3.1462ZM0.766875 10.2146C0.861643 9.14189 1.33529 8.14481 2.0951 7.41851C2.85492 6.69221 3.84622 6.28897 4.875 6.28772H5.625C6.65378 6.28897 7.64508 6.69221 8.4049 7.41851C9.16471 8.14481 9.63836 9.14189 9.73312 10.2146H0.766875Z" fill="#031054"/>
</g>
</svg>
