<svg width="25" height="25" viewBox="0 0 25 25" fill="none" xmlns="http://www.w3.org/2000/svg">
<path d="M20.1709 13.7402C19.9509 13.7402 19.7209 13.6702 19.5009 13.6202C19.0554 13.5221 18.6176 13.3917 18.1909 13.2302C17.727 13.0615 17.2171 13.0702 16.7592 13.2548C16.3014 13.4395 15.928 13.7869 15.7109 14.2302L15.4909 14.6802C14.5169 14.1384 13.6219 13.4655 12.8309 12.6802C12.0457 11.8893 11.3728 10.9942 10.8309 10.0202L11.2509 9.74024C11.6943 9.52316 12.0417 9.14977 12.2263 8.69193C12.4109 8.23409 12.4197 7.72415 12.2509 7.26024C12.0922 6.83266 11.9619 6.39504 11.8609 5.95024C11.8109 5.73024 11.7709 5.50024 11.7409 5.27024C11.6195 4.56586 11.2506 3.92798 10.7006 3.47148C10.1506 3.01498 9.45563 2.76985 8.74094 2.78024H5.74094C5.30997 2.77619 4.88319 2.86505 4.48965 3.04077C4.09611 3.21649 3.74505 3.47494 3.46037 3.79852C3.17569 4.12211 2.96407 4.50323 2.83992 4.91595C2.71578 5.32867 2.68202 5.7633 2.74094 6.19024C3.27367 10.3796 5.18696 14.2721 8.17859 17.2529C11.1702 20.2336 15.0696 22.1327 19.2609 22.6502H19.6409C20.3784 22.6513 21.0903 22.3808 21.6409 21.8902C21.9573 21.6073 22.21 21.2604 22.3824 20.8726C22.5548 20.4847 22.6429 20.0647 22.6409 19.6402V16.6402C22.6287 15.9456 22.3757 15.2768 21.9253 14.7479C21.4748 14.219 20.8548 13.8629 20.1709 13.7402ZM20.6709 19.7402C20.6708 19.8822 20.6403 20.0225 20.5817 20.1519C20.5231 20.2812 20.4376 20.3965 20.3309 20.4902C20.2192 20.5867 20.0885 20.6588 19.9473 20.7018C19.8061 20.7449 19.6575 20.758 19.5109 20.7402C15.7658 20.26 12.2872 18.5467 9.62365 15.8705C6.96013 13.1943 5.26335 9.70758 4.80094 5.96024C4.78502 5.81376 4.79897 5.66557 4.84194 5.52463C4.88491 5.38369 4.95601 5.25293 5.05094 5.14024C5.14465 5.03357 5.26 4.94808 5.38931 4.88946C5.51863 4.83083 5.65895 4.80042 5.80094 4.80024H8.80094C9.03348 4.79507 9.26056 4.87112 9.44308 5.01531C9.6256 5.1595 9.75215 5.36281 9.80094 5.59024C9.84094 5.86357 9.89094 6.13357 9.95094 6.40024C10.0665 6.92738 10.2202 7.44542 10.4109 7.95024L9.01094 8.60024C8.89123 8.65516 8.78356 8.73319 8.69409 8.82984C8.60463 8.92648 8.53514 9.03985 8.48961 9.16343C8.44408 9.28701 8.42341 9.41837 8.42878 9.54996C8.43416 9.68155 8.46548 9.81078 8.52094 9.93024C9.96014 13.013 12.4382 15.491 15.5209 16.9302C15.7644 17.0303 16.0375 17.0303 16.2809 16.9302C16.4056 16.8856 16.5203 16.8167 16.6181 16.7274C16.716 16.6382 16.7951 16.5303 16.8509 16.4102L17.4709 15.0102C17.9879 15.1951 18.5155 15.3487 19.0509 15.4702C19.3176 15.5302 19.5876 15.5802 19.8609 15.6202C20.0884 15.669 20.2917 15.7956 20.4359 15.9781C20.5801 16.1606 20.6561 16.3877 20.6509 16.6202L20.6709 19.7402Z" fill="white"/>
</svg>
