<svg width="25" height="25" viewBox="0 0 25 25" fill="none" xmlns="http://www.w3.org/2000/svg">
<g id="Email">
<path id="Vector" d="M19.0259 4.74025H5.02588C4.23023 4.74025 3.46717 5.05632 2.90456 5.61893C2.34195 6.18154 2.02588 6.9446 2.02588 7.74025V17.7402C2.02588 18.5359 2.34195 19.299 2.90456 19.8616C3.46717 20.4242 4.23023 20.7402 5.02588 20.7402H19.0259C19.8215 20.7402 20.5846 20.4242 21.1472 19.8616C21.7098 19.299 22.0259 18.5359 22.0259 17.7402V7.74025C22.0259 6.9446 21.7098 6.18154 21.1472 5.61893C20.5846 5.05632 19.8215 4.74025 19.0259 4.74025ZM18.4529 6.74025L12.6259 11.5402C12.4594 11.6669 12.2571 11.7379 12.0479 11.7429C11.8387 11.7479 11.6333 11.6868 11.4609 11.5682L5.59888 6.74025H18.4529ZM19.0259 18.7402H5.02588C4.76066 18.7402 4.50631 18.6349 4.31877 18.4474C4.13124 18.2598 4.02588 18.0055 4.02588 17.7402V8.04025L10.2259 13.1402C10.7418 13.5266 11.3693 13.7347 12.0139 13.7332C12.6809 13.7322 13.3296 13.5143 13.8619 13.1122L20.0259 8.04025V17.7402C20.0259 18.0055 19.9205 18.2598 19.733 18.4474C19.5455 18.6349 19.2911 18.7402 19.0259 18.7402Z" fill="white"/>
</g>
</svg>
