<svg width="14" height="13" viewBox="0 0 14 13" fill="none" xmlns="http://www.w3.org/2000/svg">
<rect width="14" height="13" fill="#1E1E1E"/>
<g id="profile">
<rect width="1600" height="1154" transform="translate(-364 -190)" fill="white"/>
<g id="Group 1000004302">
<g id="Group 1000000865">
<g id="Group 1000000868">
<g id="3669413_location_ic_on_icon 1" clip-path="url(#clip0_2124_11476)">
<path id="Vector" d="M7.08333 2C4.82875 2 3 3.69812 3 5.79167C3 8.63542 7.08333 12.8333 7.08333 12.8333C7.08333 12.8333 11.1667 8.63542 11.1667 5.79167C11.1667 3.69812 9.33792 2 7.08333 2ZM7.08333 7.14583C6.27833 7.14583 5.625 6.53917 5.625 5.79167C5.625 5.04417 6.27833 4.4375 7.08333 4.4375C7.88833 4.4375 8.54167 5.04417 8.54167 5.79167C8.54167 6.53917 7.88833 7.14583 7.08333 7.14583Z" fill="#031054"/>
</g>
</g>
</g>
</g>
<g id="Group 1000004348">
<rect id="Rectangle 34" x="-163.5" y="-83.5" width="1199" height="962" rx="18.5" stroke="#031054" stroke-opacity="0.5"/>
</g>
</g>
<defs>
<clipPath id="clip0_2124_11476">
<rect width="14" height="13" fill="white"/>
</clipPath>
</defs>
</svg>
