<svg width="159" height="154" viewBox="0 0 159 154" fill="none" xmlns="http://www.w3.org/2000/svg">
<g id="21. Verified">
<path id="Vector" d="M152.247 88.5304C149.68 85.2637 148.298 81.333 148.298 77.2993C148.298 73.2655 149.68 69.3348 152.247 66.0682L157.508 59.3678C158.151 58.5496 158.574 57.6023 158.743 56.6038C158.911 55.6053 158.82 54.5843 158.477 53.6246C158.13 52.675 157.55 51.8122 156.781 51.1037C156.013 50.3952 155.077 49.8602 154.047 49.5406L145.533 46.988C141.363 45.7478 137.727 43.3178 135.152 40.049C132.577 36.7801 131.195 32.8414 131.206 28.8013V20.5056C131.205 19.4984 130.945 18.5057 130.449 17.6086C129.952 16.7116 129.232 15.9357 128.347 15.3444C127.463 14.7531 126.439 14.3632 125.36 14.2066C124.281 14.05 123.177 14.1311 122.138 14.4434L113.555 16.9959C109.389 18.239 104.902 18.2356 100.738 16.9864C96.5732 15.7371 92.9437 13.3059 90.3682 10.0403L85.1077 3.33989C84.4361 2.56334 83.5833 1.93629 82.6126 1.50533C81.642 1.07438 80.5786 0.850586 79.5013 0.850586C78.4239 0.850586 77.3605 1.07438 76.3899 1.50533C75.4192 1.93629 74.5664 2.56334 73.8948 3.33989L68.6344 10.0403C66.0588 13.3059 62.4293 15.7371 58.2647 16.9864C54.1001 18.2356 49.6138 18.239 45.447 16.9959L36.8642 14.4434C35.8256 14.1311 34.7215 14.05 33.6423 14.2066C32.5631 14.3632 31.5395 14.7531 30.6551 15.3444C29.7707 15.9357 29.0507 16.7116 28.5539 17.6086C28.0572 18.5057 27.7978 19.4984 27.797 20.5056V28.8013C27.8076 32.8414 26.4255 36.7801 23.8503 40.049C21.275 43.3178 17.6398 45.7478 13.4693 46.988L4.9557 49.5406C3.92571 49.8602 2.98988 50.3952 2.22141 51.1037C1.45293 51.8122 0.872628 52.675 0.525883 53.6246C0.182652 54.5843 0.0915203 55.6053 0.259988 56.6038C0.428456 57.6023 0.851708 58.5496 1.49491 59.3678L6.75532 66.0682C9.32215 69.3348 10.7042 73.2655 10.7042 77.2993C10.7042 81.333 9.32215 85.2637 6.75532 88.5304L1.49491 95.2307C0.851708 96.0489 0.428456 96.9962 0.259988 97.9947C0.0915203 98.9932 0.182652 100.014 0.525883 100.974C0.872628 101.924 1.45293 102.786 2.22141 103.495C2.98988 104.203 3.92571 104.738 4.9557 105.058L13.4693 107.61C17.6398 108.851 21.275 111.281 23.8503 114.55C26.4255 117.818 27.8076 121.757 27.797 125.797V134.093C27.7978 135.1 28.0572 136.093 28.5539 136.99C29.0507 137.887 29.7707 138.663 30.6551 139.254C31.5395 139.845 32.5631 140.235 33.6423 140.392C34.7215 140.549 35.8256 140.467 36.8642 140.155L45.3778 137.603C49.5534 136.339 54.0568 136.331 58.2372 137.582C62.4177 138.832 66.0588 141.275 68.6344 144.558L73.8948 151.259C74.541 152.07 75.3852 152.729 76.3592 153.184C77.3332 153.639 78.4096 153.876 79.5013 153.876C80.5929 153.876 81.6693 153.639 82.6433 153.184C83.6173 152.729 84.4615 152.07 85.1077 151.259L90.3682 144.558C92.948 141.28 96.5893 138.84 100.768 137.59C104.947 136.34 109.449 136.345 113.625 137.603L122.138 140.155C123.177 140.467 124.281 140.549 125.36 140.392C126.439 140.235 127.463 139.845 128.347 139.254C129.232 138.663 129.952 137.887 130.449 136.99C130.945 136.093 131.205 135.1 131.206 134.093V125.797C131.195 121.757 132.577 117.818 135.152 114.55C137.727 111.281 141.363 108.851 145.533 107.61L154.047 105.058C155.077 104.738 156.013 104.203 156.781 103.495C157.55 102.786 158.13 101.924 158.477 100.974C158.82 100.014 158.911 98.9932 158.743 97.9947C158.574 96.9962 158.151 96.0489 157.508 95.2307L152.247 88.5304ZM112.102 69.0482L77.494 100.955C76.196 102.151 74.4358 102.823 72.6004 102.823C70.7651 102.823 69.0048 102.151 67.7069 100.955L46.9421 81.8108C46.281 81.2222 45.7537 80.518 45.3909 79.7395C45.0282 78.961 44.8373 78.1236 44.8293 77.2763C44.8213 76.429 44.9964 75.5887 45.3444 74.8045C45.6925 74.0202 46.2064 73.3077 46.8563 72.7086C47.5062 72.1094 48.279 71.6356 49.1296 71.3147C49.9803 70.9939 50.8917 70.8324 51.8107 70.8398C52.7298 70.8471 53.638 71.0232 54.4825 71.3576C55.327 71.6921 56.0907 72.1782 56.7292 72.7877L72.5797 87.42L102.294 60.0251C103.599 58.8627 105.348 58.2195 107.163 58.234C108.978 58.2485 110.714 58.9196 111.997 60.1028C113.28 61.2859 114.008 62.8865 114.024 64.5596C114.04 66.2328 113.342 67.8447 112.081 69.0482H112.102Z" fill="#4A62B6"/>
</g>
</svg>
