<?xml version="1.0" standalone="no"?>
<!DOCTYPE svg PUBLIC "-//W3C//DTD SVG 1.1//EN" "http://www.w3.org/Graphics/SVG/1.1/DTD/svg11.dtd" >
<svg xmlns="http://www.w3.org/2000/svg" xmlns:xlink="http://www.w3.org/1999/xlink" version="1.1">
<metadata>
Created by FontForge 20170731 at Mon Oct 24 20:07:37 2011
 By Aleksey,,,
Copyright (c) 2010 by Jos Nicols Silva Schwarzenberg.&#60;info@nsilva.com&#62;, with Reserved Font Names "Poly".
</metadata>
<defs>
<font id="Poly-Regular" horiz-adv-x="519" >
  <font-face 
    font-family="Poly"
    font-weight="400"
    font-stretch="normal"
    units-per-em="1000"
    panose-1="2 4 5 3 5 4 0 0 0 4"
    ascent="800"
    descent="-200"
    x-height="473"
    cap-height="693"
    bbox="-236 -223 1259 919"
    underline-thickness="50"
    underline-position="-150"
    unicode-range="U+0020-FB04"
  />
<missing-glyph horiz-adv-x="520" 
d="M30 0v679h460v-679h-460zM79 46h362v587h-362v-587z" />
    <glyph glyph-name="ff" unicode="ff" horiz-adv-x="686" 
d="M541 404v-332q0 -12 5 -15.5t15 -5.5l49 -12l-4 -39h-219l-6 39q49 10 59.5 20.5t10.5 36.5v314q-182 0 -246 -6v-332q0 -10 4 -14.5t18 -6.5l65 -12l-4 -39h-237l-6 39q49 10 59.5 20.5t10.5 36.5v309h-65l-4 43l49 12q13 3 17 11t5.5 28t5.5 44t17.5 62.5t33.5 66.5
t56 49t85.5 21t107.5 -22q0 -62 -14 -111l-49 -6q-15 70 -24 75q-11 11 -41 11q-47 0 -68.5 -62.5t-21.5 -160.5h216q19 0 25 9t7 26t2.5 30.5t6.5 43.5t12.5 53t22.5 51.5t34 47.5q45 45 106.5 45t121.5 -23q0 -76 -13 -121l-53 -5q-16 81 -24 86q-16 10 -42 10
q-86 0 -86 -253h118l-8 -47z" />
    <glyph glyph-name="fi" unicode="fi" horiz-adv-x="660" 
d="M397 0l-6 39q49 10 59.5 20.5t10.5 36.5v287q0 22 -16.5 31t-61 9t-178.5 -12v-339q0 -10 4 -14.5t18 -6.5l65 -12l-4 -39h-237l-6 39q49 10 59.5 20.5t10.5 36.5v309h-65l-4 43l49 12q13 3 17 11t5 25t3.5 34t10 46.5t18 54t29.5 51.5t44 46q56 44 141 44q61 0 135 -22
q0 -68 -17 -121l-54 -6q-15 81 -24 85q-22 11 -66 11q-66 0 -99 -72t-33 -174h118q69 0 142.5 2.5t74.5 2.5l11 -10v-396q0 -12 5.5 -15.5t14.5 -5.5l49 -12l-4 -39h-219z" />
    <glyph glyph-name="fl" unicode="fl" horiz-adv-x="653" 
d="M454 677q0 45 -83 45t-124.5 -67.5t-41.5 -188.5h118l-8 -47l-110 -15v-332q0 -10 4 -14.5t18 -6.5l65 -12l-4 -39h-237l-6 39q49 10 59.5 20.5t10.5 36.5v309h-65l-4 43l49 12q13 3 17 11t7 43.5t18 81t46 87t87.5 65.5t127.5 24t129 -9l17 -26v-665q0 -12 5 -15.5
t15 -5.5l49 -12l-4 -39h-219l-6 39q49 10 59.5 20.5t10.5 36.5v581z" />
    <glyph glyph-name="ffi" unicode="ffi" horiz-adv-x="996" 
d="M733 0l-6 39q49 10 59.5 20.5t10.5 36.5v287q0 22 -16.5 31t-61 9t-178.5 -12v-339q0 -12 5 -15.5t15 -5.5l67 -12l-4 -39h-237l-6 39q49 10 59.5 20.5t10.5 36.5v321q-182 0 -246 -6v-339q0 -10 4 -14.5t18 -6.5l65 -12l-4 -39h-237l-6 39q49 10 59.5 20.5t10.5 36.5
v309h-65l-4 43l49 12q13 3 17 11t5.5 28t5.5 44t17.5 62.5t33.5 66.5t56 49t85.5 21t107.5 -22q0 -62 -14 -111l-49 -6q-15 70 -24 75q-11 11 -41 11q-47 0 -68.5 -60.5t-21.5 -155.5h216q20 0 26 9t8 32.5t8 51t23 67.5t42 68.5t69.5 49.5t103.5 21t133 -22q0 -68 -17 -121
l-54 -6q-15 81 -24 85q-22 11 -66 11q-66 0 -99 -72t-33 -174h118q69 0 142.5 2.5t74.5 2.5l11 -10v-396q0 -12 5 -15.5t15 -5.5l49 -12l-4 -39h-219z" />
    <glyph glyph-name="ffl" unicode="ffl" horiz-adv-x="989" 
d="M790 677q0 45 -83 45t-124.5 -67.5t-41.5 -188.5h118l-8 -47l-110 -15v-332q0 -12 5 -15.5t15 -5.5l67 -12l-4 -39h-237l-6 39q49 10 59.5 20.5t10.5 36.5v314q-182 0 -246 -6v-332q0 -10 4 -14.5t18 -6.5l65 -12l-4 -39h-237l-6 39q49 10 59.5 20.5t10.5 36.5v309h-65
l-4 43l49 12q13 3 17 11t5.5 28t5.5 44t17.5 62.5t33.5 66.5t56 49t85.5 21t107.5 -22q0 -62 -14 -111l-49 -6q-14 65 -24.5 75.5t-40.5 10.5q-47 0 -68.5 -62.5t-21.5 -160.5h216q18 0 24.5 8.5t7.5 25.5q33 272 287 272q65 0 123 -9l17 -26v-665q0 -12 5 -15.5t15 -5.5
l49 -12l-4 -39h-219l-6 39q49 10 59.5 20.5t10.5 36.5v581z" />
    <glyph glyph-name="_fk" unicode="fk" horiz-adv-x="919" 
d="M454 677q0 45 -83 45t-124.5 -67.5t-41.5 -188.5h118l-8 -47l-110 -15v-332q0 -10 4 -14.5t18 -6.5l65 -12l-4 -39h-237l-6 39q49 10 59.5 20.5t10.5 36.5v309h-65l-4 43l49 12q13 3 17 11t7 43.5t18 81t46 87t87.5 65.5t127.5 24t129 -9l17 -26v-506l172 161q8 8 8 17
q0 15 -69 25l6 39h199l4 -39q-46 -7 -55 -16l-137 -131l145 -207q14 -20 34 -29t58 -12l-6 -39h-139l-155 226l-65 -62v-92q0 -9 3.5 -13t16.5 -8l44 -12l-4 -39h-214l-6 39q49 10 59.5 20.5t10.5 36.5v581z" />
    <glyph glyph-name="_fb" unicode="fb" horiz-adv-x="894" 
d="M51 0l-6 39q49 10 59.5 20.5t10.5 36.5v309h-65l-4 43l49 12q13 3 17 11t7 43.5t18 81t46 87t87.5 65.5t121.5 24t114 -9l17 -26v-256q0 -55 -7 -78l8 -3l10 13q58 75 139 75t133 -64.5t52 -177.5t-59.5 -184t-171.5 -71q-53 0 -108 14t-86 29v643q0 21 -16 31
q-14 14 -44 14q-85 0 -126.5 -67.5t-41.5 -188.5h118l-8 -47l-110 -15v-332q0 -10 4 -14.5t18 -6.5l65 -12l-4 -39h-237zM523 84q43 -36 108.5 -36t85.5 24q44 53 44 152.5t-32 145.5t-79 46t-100 -35q-17 -11 -22 -20t-5 -25v-252z" />
    <glyph glyph-name="_fh" unicode="fh" horiz-adv-x="946" 
d="M454 677q0 45 -83 45t-124.5 -67.5t-41.5 -188.5h118l-8 -47l-110 -15v-332q0 -10 4 -14.5t18 -6.5l65 -12l-4 -39h-237l-6 39q49 10 59.5 20.5t10.5 36.5v309h-65l-4 43l49 12q13 3 17 11t7 43.5t18 81t46 87t87.5 65.5t127.5 24t129 -9l17 -26v-256q0 -55 -7 -78l8 -3
l12 14q62 74 155 74q67 0 104.5 -39t37.5 -107v-270q0 -9 3.5 -13t16.5 -8l49 -12l-4 -39h-214l-6 39q45 9 55 20t10 37v216q0 48 -17.5 76t-70 28t-109.5 -39q-13 -9 -18 -17.5t-5 -30.5v-257q0 -9 3.5 -13t16.5 -8l44 -12l-4 -39h-214l-6 39q49 10 59.5 20.5t10.5 36.5
v581z" />
    <glyph glyph-name="_fj" unicode="fj" horiz-adv-x="630" 
d="M450 68v315q0 22 -16.5 31t-59.5 9t-169 -12v-339q0 -10 4 -14.5t18 -6.5l65 -12l-4 -39h-237l-6 39q49 10 59.5 20.5t10.5 36.5v309h-65l-4 43l49 12q13 3 17 11t5 25t3.5 34t10 46.5t18 54t29.5 51.5t44 46q56 44 141 44q61 0 135 -22q0 -68 -17 -121l-54 -6
q-15 81 -24 85q-22 11 -66 11q-66 0 -99 -72t-33 -174h118q65 0 135 2.5t71 2.5l11 -10v-430q0 -94 -56 -175.5t-108 -81.5q-36 0 -76 7q-3 12 -3 33t17 49q40 -10 61.5 -10t29.5 7q21 14 33 71.5t12 129.5z" />
    <glyph glyph-name="_TT" unicode="TT" horiz-adv-x="1091" 
d="M1075 693q9 -74 9 -117.5t-1 -58.5l-51 -4q-17 97 -30 113q-4 5 -13 9t-138 6v-564q0 -23 20 -26l77 -12l-4 -39h-275l-6 39q63 10 77 20.5t14 41.5v540h-417v-564q0 -23 20 -26l77 -12l-4 -39h-275l-6 39q63 10 77 20.5t14 41.5v540q-129 -2 -138 -6t-14 -9
q-12 -16 -29 -113l-51 4q-1 15 -1 58.5t9 117.5h1059z" />
    <glyph glyph-name="_ft" unicode="ft" horiz-adv-x="700" 
d="M423 749q0 -76 -13 -121l-53 -5q-16 81 -24 86q-16 10 -42 10q-86 0 -86 -253h200q30 0 35 23q0 11 9.5 48.5t14.5 63.5l61 6v-141h138l-8 -47l-130 -15v-237q0 -104 64 -104q36 0 76 30l21 -29q-54 -73 -132 -73q-56 0 -87.5 39t-31.5 107v275q-150 0 -230 -8v-332
q0 -10 4 -14.5t18 -6.5l75 -12l-4 -39h-247l-6 39q49 10 59.5 20.5t10.5 36.5v309h-65l-4 43l49 12q13 3 17 11t5 27t3.5 37t8.5 55t19.5 65t33.5 57q42 60 127 60q54 0 114 -23z" />
    <glyph glyph-name="_f_iacute" unicode="f&#xed;" horiz-adv-x="660" 
d="M403 749q0 -71 -13 -111l-53 -5q-11 49 -15 61t-9 15q-16 10 -37 10q-40 0 -55.5 -62.5t-15.5 -183.5h118q69 0 142.5 2.5t74.5 2.5l11 -10v-396q0 -12 5.5 -15.5t14.5 -5.5l49 -12l-4 -39h-219l-6 39q49 10 59.5 20.5t10.5 36.5v287q0 22 -16.5 31t-61 9t-178.5 -12
v-339q0 -10 4 -14.5t18 -6.5l65 -12l-4 -39h-237l-6 39q49 10 59.5 20.5t10.5 36.5v309h-65l-4 43l49 12q13 3 17 11t5 27.5t3 36.5t8 54.5t17.5 65t29.5 56.5q38 61 114 61q54 0 114 -23zM651 735v-23l-152 -151l-35 25l107 179z" />
    <glyph glyph-name="_ffb" unicode="ffb" horiz-adv-x="1230" 
d="M769 34v643q0 21 -16 31q-14 14 -44 14q-85 0 -126.5 -67.5t-41.5 -188.5h118l-8 -47l-110 -15v-332q0 -12 5 -15.5t15 -5.5l67 -12l-4 -39h-237l-6 39q49 10 59.5 20.5t10.5 36.5v314q-182 0 -246 -6v-332q0 -10 4 -14.5t18 -6.5l65 -12l-4 -39h-237l-6 39
q49 10 59.5 20.5t10.5 36.5v309h-65l-4 43l49 12q13 3 17 11t5.5 28t5.5 44t17.5 62.5t33.5 66.5t56 49t85.5 21t107.5 -22q0 -62 -14 -111l-49 -6q-15 67 -24 75q-16 11 -41 11q-47 0 -68.5 -62.5t-21.5 -160.5h216q30 0 32 31q14 111 69 186q66 89 218 89q53 0 102 -9
l17 -26v-256q0 -55 -7 -78l8 -3l10 13q58 75 139 75t133 -64.5t52 -177.5t-59.5 -184t-171.5 -71q-53 0 -108 14t-86 29zM859 336v-252q43 -36 107.5 -36t89.5 27q17 21 29 64t12 96q0 89 -32 135t-79 46t-100 -35q-17 -11 -22 -20t-5 -25z" />
    <glyph glyph-name="_ffk" unicode="ffk" horiz-adv-x="1255" 
d="M790 677q0 45 -83 45t-124.5 -67.5t-41.5 -188.5h118l-8 -47l-110 -15v-332q0 -12 5 -15.5t15 -5.5l67 -12l-4 -39h-237l-6 39q49 10 59.5 20.5t10.5 36.5v314q-182 0 -246 -6v-332q0 -10 4 -14.5t18 -6.5l65 -12l-4 -39h-237l-6 39q49 10 59.5 20.5t10.5 36.5v309h-65
l-4 43l49 12q13 3 17 11t5.5 28t5.5 44t17.5 62.5t33.5 66.5t56 49t85.5 21t107.5 -22q0 -62 -14 -111l-49 -6q-15 67 -24 75q-16 11 -41 11q-47 0 -68.5 -62.5t-21.5 -160.5h216q30 0 32 31q14 111 69 186q66 89 218 89q65 0 123 -9l17 -26v-506l172 161q8 8 8 17
q0 15 -69 25l6 39h199l4 -39q-46 -7 -55 -16l-137 -131l145 -207q14 -20 33.5 -29t58.5 -12l-6 -39h-139l-155 226l-65 -62v-92q0 -12 5 -15.5t15 -5.5l44 -12l-4 -39h-214l-6 39q49 10 59.5 20.5t10.5 36.5v581z" />
    <glyph glyph-name="_ffh" unicode="ffh" horiz-adv-x="1282" 
d="M790 677q0 45 -83 45t-124.5 -67.5t-41.5 -188.5h118l-8 -47l-110 -15v-332q0 -12 5 -15.5t15 -5.5l67 -12l-4 -39h-237l-6 39q49 10 59.5 20.5t10.5 36.5v314q-182 0 -246 -6v-332q0 -10 4 -14.5t18 -6.5l65 -12l-4 -39h-237l-6 39q49 10 59.5 20.5t10.5 36.5v309h-65
l-4 43l49 12q13 3 17 11t5.5 28t5.5 44t17.5 62.5t33.5 66.5t56 49t85.5 21t107.5 -22q0 -62 -14 -111l-49 -6q-15 67 -24 75q-16 11 -41 11q-47 0 -68.5 -62.5t-21.5 -160.5h216q30 0 32 31q14 111 69 186q66 89 218 89q65 0 123 -9l17 -26v-256q0 -55 -7 -78l8 -3l12 14
q62 74 155 74q67 0 104.5 -39t37.5 -107v-270q0 -12 5 -15.5t15 -5.5l49 -12l-4 -39h-214l-6 39q45 9 55 20t10 37v216q0 48 -17.5 76t-70 28t-109.5 -39q-13 -9 -18 -17.5t-5 -30.5v-257q0 -12 5 -15.5t15 -5.5l44 -12l-4 -39h-214l-6 39q49 10 59.5 20.5t10.5 36.5v581z
" />
    <glyph glyph-name="_fft" unicode="fft" horiz-adv-x="1036" 
d="M541 466h200q24 0 35 23q0 11 9.5 48.5t14.5 63.5l61 6v-141h138l-8 -47l-130 -15v-237q0 -104 64 -104q36 0 76 30l21 -29q-54 -73 -132 -73q-56 0 -87.5 39t-31.5 107v275q-150 0 -230 -8v-332q0 -10 4 -14.5t18 -6.5l75 -12l-4 -39h-247l-6 39q49 10 59.5 20.5
t10.5 36.5v314q-182 0 -246 -6v-332q0 -10 4 -14.5t18 -6.5l65 -12l-4 -39h-237l-6 39q49 10 59.5 20.5t10.5 36.5v309h-65l-4 43l49 12q13 3 17 11t5.5 28t5.5 44t17.5 62.5t33.5 66.5t56 49t85.5 21t107.5 -22q0 -62 -14 -111l-49 -6q-15 67 -24 75q-16 11 -41 11
q-47 0 -68.5 -62.5t-21.5 -160.5h216q19 0 25 9t7 26t2.5 30.5t6.5 43.5t12.5 53t22.5 51.5t34 47.5q45 45 106.5 45t121.5 -23q0 -76 -13 -121l-53 -5q-16 81 -24 86q-16 10 -42 10q-86 0 -86 -253z" />
    <glyph glyph-name="_ffj" unicode="ffj" horiz-adv-x="966" 
d="M876 38q0 -94 -56 -175.5t-108 -81.5q-36 0 -76 7q-3 12 -3 33t17 49q39 -10 59.5 -10t31.5 7q21 14 33 71t12 130v315q0 22 -16.5 31t-59.5 9t-169 -12v-339q0 -12 5 -15.5t15 -5.5l67 -12l-4 -39h-237l-6 39q49 10 59.5 20.5t10.5 36.5v321q-182 0 -246 -6v-339
q0 -10 4 -14.5t18 -6.5l65 -12l-4 -39h-237l-6 39q49 10 59.5 20.5t10.5 36.5v309h-65l-4 43l49 12q13 3 17 11t5.5 28t5.5 44t17.5 62.5t33.5 66.5t56 49t85.5 21t107.5 -22q0 -62 -14 -111l-49 -6q-15 67 -24 75q-16 11 -41 11q-47 0 -68.5 -60.5t-21.5 -155.5h216
q20 0 26 9t8 32.5t8 51t23 67.5t42 68.5t69.5 49.5t103.5 21t133 -22q0 -68 -17 -121l-54 -6q-15 81 -24 85q-22 11 -66 11q-66 0 -99 -72t-33 -174h118q65 0 135 2.5t71 2.5l11 -10v-430z" />
    <glyph glyph-name=".notdef" horiz-adv-x="520" 
d="M30 0v679h460v-679h-460zM79 46h362v587h-362v-587z" />
    <glyph glyph-name=".null" horiz-adv-x="0" 
 />
    <glyph glyph-name="nonmarkingreturn" horiz-adv-x="333" 
 />
    <glyph glyph-name="space" unicode=" " horiz-adv-x="245" 
 />
    <glyph glyph-name="exclam" unicode="!" horiz-adv-x="226" 
d="M167 703l12 -19l-52 -507l-50 2l-13 494zM139.5 7q-15.5 -16 -41 -16t-42 14t-16.5 39t15.5 40t42.5 15q57 0 57 -53q0 -23 -15.5 -39z" />
    <glyph glyph-name="quotedbl" unicode="&#x22;" horiz-adv-x="331" 
d="M125 778l13 -19l-41 -245l-43 3l-5 236zM276 778l13 -19l-41 -245l-43 3l-5 236z" />
    <glyph glyph-name="numbersign" unicode="#" horiz-adv-x="551" 
d="M194 693h58l-27 -201h132l27 201h58l-27 -201h100v-59h-107l-20 -152h106v-59h-113l-29 -222h-59l29 222h-131l-29 -222h-59l29 222h-97v59h105l20 152h-104v59h111zM218 433l-20 -152h132l20 152h-132z" />
    <glyph glyph-name="dollar" unicode="$" horiz-adv-x="480" 
d="M414 524q1 -9 1 -49t-14 -90l-50 -6q-7 92 -24 104q-19 12 -59 14v-176q124 -52 150 -105q13 -27 13 -60q0 -60 -43.5 -104.5t-119.5 -56.5v-123h-57v119q-95 2 -154 27q-2 15 -2 54t9 104l57 5q9 -77 13 -93.5t13 -21.5q21 -13 64 -19v186q-115 48 -141 103
q-13 25 -13 58q0 59 41.5 100t112.5 53v121h57v-116q75 -1 146 -28zM211 496q-74 -7 -74 -67q0 -49 74 -83v150zM268 46q35 3 55.5 22t20.5 51q0 50 -76 89v-162z" />
    <glyph glyph-name="percent" unicode="%" horiz-adv-x="808" 
d="M736.5 54q-46.5 -63 -123.5 -63t-120.5 58.5t-43.5 145t46.5 149.5t123.5 63t120.5 -59t43.5 -145t-46.5 -149zM676.5 316.5q-24.5 47.5 -64.5 47.5q-81 0 -81 -157q0 -86 24.5 -129.5t66.5 -43.5q79 0 79 150q0 85 -24.5 132.5zM589 693h65l-446 -693h-66zM312.5 349
q-46.5 -63 -123.5 -63t-120.5 58.5t-43.5 145t46.5 149.5t123.5 63t120.5 -59t43.5 -145t-46.5 -149zM252.5 611.5q-24.5 47.5 -64.5 47.5q-81 0 -81 -157q0 -86 24.5 -129.5t66.5 -43.5q79 0 79 150q0 85 -24.5 132.5z" />
    <glyph glyph-name="ampersand" unicode="&#x26;" horiz-adv-x="685" 
d="M264 649q-89 0 -89 -82q0 -32 18 -64.5t72 -90.5l208 -225q45 83 45 172q0 38 -18 53t-78 22l6 39h228l4 -39l-62 -12q-20 -4 -20 -26q-5 -146 -66 -251l72 -77q25 -25 81 -29l-6 -39h-144l-64 68q-82 -77 -202 -77q-98 0 -153.5 49t-55.5 124q0 142 138 202
q-82 88 -82 167t51.5 124t136.5 45q63 0 128 -25q1 -8 1 -45t-13 -78l-46 -5q-7 78 -22.5 89t-67.5 11zM180 94q36 -40 106 -40t129 54l-200 217q-71 -41 -71 -130q0 -61 36 -101z" />
    <glyph glyph-name="quotesingle" unicode="'" horiz-adv-x="180" 
d="M125 778l13 -19l-41 -245l-43 3l-5 236z" />
    <glyph glyph-name="parenleft" unicode="(" horiz-adv-x="291" 
d="M245 -189q-78 78 -140.5 208t-62.5 273.5t63 268t140 200.5l34 -28q-68 -79 -111.5 -198.5t-43.5 -241.5t43 -247.5t112 -206.5z" />
    <glyph glyph-name="parenright" unicode=")" horiz-adv-x="291" 
d="M46 -189l-34 28q69 81 112 206.5t43 247.5t-43.5 241.5t-111.5 198.5l34 28q77 -76 140 -200.5t63 -268t-62.5 -273.5t-140.5 -208z" />
    <glyph glyph-name="asterisk" unicode="*" horiz-adv-x="391" 
d="M222 744l9 -12l-16 -114q-4 -24 -8 -30l7 -4q6 12 20 23l85 63l47 -40l-5 -13l-106 -44q-19 -8 -30 -8v-8q18 0 29 -5l97 -42l-11 -61l-14 -2l-91 70q-19 16 -22 22l-7 -4q9 -18 10 -29l13 -105l-59 -21l-9 11l16 114q4 24 8 30l-7 4q-6 -13 -21 -23l-84 -63l-48 40l5 13
l107 43q19 8 30 8v8q-13 0 -30 6l-97 41l11 62l14 2l91 -71q19 -16 22 -22l7 4q-8 16 -9 30l-13 105z" />
    <glyph glyph-name="plus" unicode="+" horiz-adv-x="466" 
d="M45 244v53h163v167h50v-167h163v-53h-163v-171h-50v171h-163z" />
    <glyph glyph-name="comma" unicode="," horiz-adv-x="252" 
d="M91 -137l-27 26q41 49 41 90q0 23 -17.5 44t-17.5 41.5t16.5 34.5t41.5 14t43 -21.5t18 -60.5q0 -90 -98 -168z" />
    <glyph glyph-name="hyphen" unicode="-" horiz-adv-x="295" 
d="M46 277l218 14l-16 -62l-214 -26z" />
    <glyph glyph-name="period" unicode="." horiz-adv-x="252" 
d="M170 9q-17 -18 -44 -18t-44 15.5t-17 43t16.5 45.5t43.5 18q62 0 62 -60q0 -26 -17 -44z" />
    <glyph glyph-name="slash" unicode="/" horiz-adv-x="391" 
d="M307 772h69l-291 -832h-70z" />
    <glyph glyph-name="zero" unicode="0" horiz-adv-x="534" 
d="M438.5 69q-63.5 -78 -175 -78t-171.5 72.5t-60 202t63.5 208t175 78.5t171.5 -73t60 -202.5t-63.5 -207.5zM277 44q58 0 86 35q18 23 30 74t12 111q0 103 -37.5 169t-110.5 66q-58 0 -86 -35q-18 -23 -30 -74t-12 -111q0 -103 37.5 -169t110.5 -66z" />
    <glyph glyph-name="one" unicode="1" horiz-adv-x="354" 
d="M51 0l-6 39q57 9 77 21t20 36v307q0 50 -4.5 60t-24 10t-67.5 -5l-8 38q30 13 90 26.5t93 14.5l11 -10v-465q0 -12 5.5 -15.5t14.5 -5.5l77 -12l-4 -39h-274z" />
    <glyph glyph-name="two" unicode="2" horiz-adv-x="473" 
d="M30 0v53q176 143 208 181q53 62 61 91t8 54q0 52 -30 86t-81 34t-70 -15q-12 -10 -23 -108l-54 6q-8 36 -8 75t1 49q58 46 159.5 46t152 -43t50.5 -116.5t-62 -147.5t-197 -167l2 -7l60 2q129 4 145.5 7.5t37.5 77.5l46 -4q1 -9 1 -30q0 -69 -16 -124h-391z" />
    <glyph glyph-name="three" unicode="3" horiz-adv-x="469" 
d="M55 -138l-5 56q128 17 203.5 62.5t75.5 116.5q0 47 -35 75t-106 28q-27 0 -52 -4l3 48q87 14 127 55.5t40 90.5t-28.5 79t-77.5 30q-65 0 -78 -23q-12 -19 -17 -100l-53 6q-9 45 -9 79.5t1 44.5q70 46 161 46t143.5 -37t52.5 -94t-28 -96t-71 -59l1 -8q57 -11 94 -46
t37 -95q0 -100 -105 -169t-274 -86z" />
    <glyph glyph-name="four" unicode="4" horiz-adv-x="534" 
d="M31 45l-23 61l317 428q56 13 86 13l11 -10v-434l102 -2l-9 -57h-93v-166q-32 -6 -79 -6l-11 10v162h-300zM79 115l4 -7l249 -4v313q0 21 2 30l-6 3l-231 -313q-8 -12 -18 -22z" />
    <glyph glyph-name="five" unicode="5" horiz-adv-x="482" 
d="M55 -138l-5 56q139 18 219.5 70t80.5 128q0 48 -36.5 81.5t-101.5 33.5t-127 -23l-22 26l22 303h256q5 0 8 3q8 10 19 70l51 -7q-4 -94 -14 -147h-260l-12 -179q50 17 111 17q99 0 154.5 -42.5t55.5 -115.5q0 -105 -110 -181.5t-289 -92.5z" />
    <glyph glyph-name="six" unicode="6" horiz-adv-x="516" 
d="M425 362.5q55 -58.5 55 -151t-61 -156.5t-160.5 -64t-156.5 69t-57 186q0 162 103 280t249 154l20 -41q-220 -92 -263 -281l8 -3q51 66 129.5 66t133.5 -58.5zM347 68q38 41 38 120t-29 121.5t-73 42.5q-21 0 -54.5 -7t-55.5 -22q-33 -22 -33 -69q0 -214 139 -214
q42 0 68 28z" />
    <glyph glyph-name="seven" unicode="7" horiz-adv-x="450" 
d="M103 -121q16 99 94 272t174 305l-2 7l-177 -3q-67 -2 -90 -4q-8 -1 -13.5 -14.5t-17.5 -65.5l-46 5q-2 32 -2 75.5t6 80.5h411v-60q-213 -332 -232 -611q-11 -3 -29 -3q-51 0 -76 16z" />
    <glyph glyph-name="eight" unicode="8" 
d="M57 495q0 80 57 131t146 51q59 0 124 -29q34 -16 56 -49t22 -79q0 -90 -78 -148q-23 -16 -37 -16v-9q6 0 16 -5q60 -31 92 -69t32 -95q0 -83 -64.5 -135t-168.5 -52q-70 0 -138 27q-37 15 -60.5 49t-23.5 82q0 97 97 162q27 16 38 16v9q-6 0 -16 5q-94 57 -94 154z
M171 593q-27 -34 -27 -69t11.5 -56.5t36.5 -39.5q41 -29 102 -55q84 57 84 138q0 56 -34.5 86t-90 30t-82.5 -34zM361 79.5q32 33.5 32 69.5t-13 59t-41 41q-43 28 -107 53q-7 3 -10 4q-17 -6 -47 -31q-59 -51 -59 -110.5t40 -89t106.5 -29.5t98.5 33.5z" />
    <glyph glyph-name="nine" unicode="9" horiz-adv-x="516" 
d="M92 184q-56 59 -56 150t61.5 154.5t159.5 63.5t156 -70.5t58 -186.5q0 -142 -84 -270q-42 -64 -117 -108.5t-172 -53.5l-7 45q116 27 180 91.5t91 180.5l-8 3q-47 -58 -126.5 -58t-135.5 59zM241 503q-55 0 -82.5 -42t-27.5 -113.5t36.5 -112.5t85 -41t89.5 22
q24 13 29 37q6 24 6 59q0 86 -33.5 138.5t-102.5 52.5z" />
    <glyph glyph-name="colon" unicode=":" horiz-adv-x="252" 
d="M170 384q-17 -18 -44 -18t-44 15.5t-17 43t16.5 45.5t43.5 18q62 0 62 -60q0 -26 -17 -44zM170 9q-17 -18 -44 -18t-44 15.5t-17 43t16.5 45.5t43.5 18q62 0 62 -60q0 -26 -17 -44z" />
    <glyph glyph-name="semicolon" unicode=";" horiz-adv-x="252" 
d="M170 384q-17 -18 -44 -18t-44 15.5t-17 43t16.5 45.5t43.5 18q62 0 62 -60q0 -26 -17 -44zM91 -137l-27 26q41 49 41 90q0 23 -17.5 44t-17.5 41.5t16.5 34.5t41.5 14t43 -21.5t18 -60.5q0 -90 -98 -168z" />
    <glyph glyph-name="less" unicode="&#x3c;" horiz-adv-x="517" 
d="M26 225v50l464 230v-69l-386 -186l386 -185v-69z" />
    <glyph glyph-name="equal" unicode="=" horiz-adv-x="466" 
d="M45 173v53h376v-53h-376zM45 310v53h376v-53h-376z" />
    <glyph glyph-name="greater" unicode="&#x3e;" horiz-adv-x="517" 
d="M490 275v-50l-464 -229v69l386 185l-386 186v69z" />
    <glyph glyph-name="question" unicode="?" horiz-adv-x="424" 
d="M199 204l-47 -14q-46 64 -46 106q0 50 74 98q30 20 60 41t51.5 51t21.5 72.5t-35.5 66.5t-82.5 24t-77 -16q-8 -4 -12 -19t-9 -70l-54 6q-8 31 -8 65.5t1 44.5q29 17 79 29.5t97 12.5q82 0 135 -40.5t53 -115.5q0 -39 -15.5 -72t-39 -54t-51 -42t-50.5 -36
q-55 -36 -55 -78q0 -20 10 -60zM221.5 7q-15.5 -16 -41 -16t-42 14.5t-16.5 39.5t15.5 39.5t43.5 14.5q56 0 56 -51q0 -25 -15.5 -41z" />
    <glyph glyph-name="at" unicode="@" horiz-adv-x="795" 
d="M31 185q0 178 113 291.5t291 113.5q142 0 235.5 -72t93.5 -209q0 -72 -31.5 -154.5t-90.5 -141.5q-105 -11 -119 -14q-44 7 -44 66q0 19 5 52l6 42l-7 2q-63 -159 -165 -159q-108 0 -108 161q0 125 63 208.5t156 83.5q43 0 100 -19l40 10l19 -12q-1 -9 -14 -84
q-26 -159 -26 -213.5t6.5 -70.5t29 -16t44.5 30t34 73q26 93 26 157q0 97 -72.5 163.5t-195.5 66.5q-79 0 -140 -29.5t-96 -79.5q-71 -99 -71 -238q0 -261 261 -261q36 0 120 20q0 -6 5.5 -19t5.5 -21l-9 -12q-106 -21 -154 -21q-156 0 -233.5 82.5t-77.5 223.5zM343 63
q34 0 69.5 52.5t58 126t25.5 136.5q-52 26 -94.5 26t-55.5 -15q-21 -26 -36 -93t-15 -127q0 -106 48 -106z" />
    <glyph glyph-name="A" unicode="A" horiz-adv-x="670" 
d="M14 0l-7 40q38 10 46.5 16t16.5 27l224 619h83l229 -635q5 -15 59 -25l-4 -42h-233l-6 40q70 14 70 33q0 8 -4 21l-44 130h-259l-51 -142q-4 -12 -4 -16.5t6 -5.5l71 -19l-4 -41h-189zM204 277h223l-98 281q-7 21 -7 29h-10z" />
    <glyph glyph-name="B" unicode="B" horiz-adv-x="619" 
d="M50 0l-6 39q53 9 64.5 20t11.5 42v491q0 31 -11.5 42t-64.5 20l6 39h264q109 0 167 -43.5t58 -121.5q0 -62 -33.5 -104.5t-71.5 -54.5v-7q64 -12 107 -60t43 -116.5t-59.5 -127t-182.5 -58.5h-292zM217 383h56q82 0 120.5 35.5t38.5 97.5q0 124 -148 124h-67v-257z
M217 97q0 -29 15 -35q15 -10 61 -10q96 0 138 34t42 98q0 93 -75 128q-37 18 -84 18h-97v-233z" />
    <glyph glyph-name="C" unicode="C" horiz-adv-x="620" 
d="M35 331q0 114 47 203q55 105 165 146q61 22 127 22t127 -10t80 -18q6 -37 6 -77.5t-2 -90.5l-57 -8q-22 116 -39 128q-9 7 -46.5 15t-74.5 8q-110 0 -166 -81t-56 -213q0 -156 71 -232t176 -76q38 0 71.5 9t44 17t32.5 127l55 -2q0 -76 -11 -162q-31 -17 -93.5 -31
t-127.5 -14q-163 0 -246 96t-83 244z" />
    <glyph glyph-name="D" unicode="D" horiz-adv-x="713" 
d="M50 0l-6 39q53 9 64.5 20t11.5 42v491q0 31 -11.5 42t-64.5 20l6 39h313q86 0 149 -27.5t98 -75.5q68 -92 68 -222q0 -143 -76 -249q-38 -54 -105.5 -86.5t-155.5 -32.5h-291zM217 93q0 -22 21 -26q70 -14 106 -14q111 0 167 79t56 211q0 83 -21.5 144t-57.5 93
q-68 60 -148 60h-123v-547z" />
    <glyph glyph-name="E" unicode="E" horiz-adv-x="592" 
d="M50 0l-6 39q53 9 64.5 20t11.5 42v491q0 31 -11.5 42t-64.5 20l6 39h466q6 -37 6 -73.5t-2 -82.5l-57 -7q-14 69 -20 86.5t-14 18.5q-24 3 -61 4l-151 3v-269h150q13 0 32 71l31 -3q0 -73 2.5 -102t3 -35t4 -29t4.5 -32l-36 -6q-16 57 -21.5 70t-12.5 13h-157v-269l89 1
q113 0 138 12q3 2 4 2q17 5 44 118l55 -5q1 -17 1 -60.5t-11 -118.5h-487z" />
    <glyph glyph-name="F" unicode="F" horiz-adv-x="546" 
d="M50 0l-6 39q53 9 64.5 20t11.5 42v491q0 31 -11.5 42t-64.5 20l6 39h466q6 -37 6 -73.5t-2 -82.5l-57 -7q-14 69 -20 86.5t-14 18.5q-24 3 -61 4l-151 3v-278h154q25 0 44 71l31 -3q0 -73 2.5 -102t3 -35t4 -29t4.5 -32l-36 -6q-24 83 -46 83h-161v-234q0 -24 20 -26
l101 -12l-4 -39h-284z" />
    <glyph glyph-name="G" unicode="G" horiz-adv-x="681" 
d="M587 37q-33 -17 -95.5 -31.5t-127.5 -14.5q-163 0 -246 96t-83 244q0 114 47 203q55 105 165 146q61 22 127 22t127 -10t80 -18q6 -37 6 -77.5t-2 -90.5l-57 -8q-22 116 -39 128q-9 7 -46.5 15t-74.5 8q-110 0 -166 -81t-56 -213q0 -156 71 -232t176 -76q55 0 97 16v139
q0 31 -11.5 42t-64.5 20l6 39h234l4 -39l-51 -12q-20 -4 -20 -26v-189z" />
    <glyph glyph-name="H" unicode="H" horiz-adv-x="767" 
d="M50 0l-6 39q53 9 64.5 20t11.5 42v491q0 31 -11.5 42t-64.5 20l6 39h245l4 -39l-62 -12q-20 -4 -20 -26v-229h333v205q0 31 -11.5 42t-64.5 20l6 39h245l4 -39l-62 -12q-20 -4 -20 -26v-539q0 -22 20 -26l62 -12l-4 -39h-245l-6 39q53 9 64.5 20t11.5 42v226h-333v-250
q0 -22 20 -26l62 -12l-4 -39h-245z" />
    <glyph glyph-name="I" unicode="I" horiz-adv-x="337" 
d="M50 0l-6 39q53 9 64.5 20t11.5 42v491q0 31 -11.5 42t-64.5 20l6 39h245l4 -39l-62 -12q-20 -4 -20 -26v-539q0 -22 20 -26l62 -12l-4 -39h-245z" />
    <glyph glyph-name="J" unicode="J" horiz-adv-x="336" 
d="M219 622v-494q0 -91 -51.5 -169t-105.5 -78q-43 0 -83 8q-3 12 -3 35t19 53q47 -11 66 -11t32 8q29 20 29 184v434q0 30 -15.5 41t-70.5 21l6 39h265l4 -39l-72 -12q-20 -4 -20 -20z" />
    <glyph glyph-name="K" unicode="K" horiz-adv-x="652" 
d="M50 0l-6 39q53 9 64.5 20t11.5 42v491q0 31 -11.5 42t-64.5 20l6 39h245l4 -39l-62 -12q-20 -4 -20 -26v-264l241 256q15 15 15 24q0 18 -76 21l6 40h212l4 -42q-36 0 -61 -25q-3 -3 -9.5 -10t-7.5 -8l-222 -236l241 -292q16 -20 35.5 -29t56.5 -12l-6 -39h-152l-243 299
l-34 -36v-186q0 -22 20 -26l55 -12l-4 -39h-238z" />
    <glyph glyph-name="L" unicode="L" horiz-adv-x="558" 
d="M50 0l-6 39q53 9 64.5 20t11.5 42v491q0 31 -11.5 42t-64.5 20l6 39h245l4 -39l-62 -12q-20 -4 -20 -26v-565l89 1q111 2 130 7q16 5 56 154l55 -5q1 -17 1 -69.5t-11 -138.5h-487z" />
    <glyph glyph-name="M" unicode="M" horiz-adv-x="913" 
d="M43 0l-6 39q54 10 68.5 21t14.5 41v491q0 31 -11.5 42t-64.5 20l6 39h210l192 -526q5 -16 7 -25h10q1 11 5 20l195 531h181l4 -39l-42 -12q-19 -6 -19 -23v-542q0 -22 20 -26l62 -12l-4 -39h-247l-6 39q49 9 63.5 19.5t14.5 34.5v457q0 23 3 38h-8l-211 -568h-72
l-213 570h-8v-490q0 -24 9.5 -36t34.5 -16l49 -9l-4 -39h-233z" />
    <glyph glyph-name="N" unicode="N" horiz-adv-x="775" 
d="M50 0l-6 39q53 9 64.5 20t11.5 42v491q0 31 -11.5 42t-64.5 20l6 39h77h59h55l342 -504h7v383q0 45 -16.5 60t-79.5 22l6 39h235l4 -39l-62 -12q-20 -4 -20 -26v-616h-59v0h-3l-400 592h-8v-492q0 -25 9.5 -37t34.5 -15l70 -9l-4 -39h-247z" />
    <glyph glyph-name="O" unicode="O" horiz-adv-x="711" 
d="M117 84.5q-82 93.5 -82 256t87 262t238.5 99.5t233.5 -91.5t82 -254t-87 -264t-238.5 -101.5t-233.5 93.5zM364 44q54 0 94.5 25t63.5 69q43 85 43 214t-56.5 213t-161.5 84q-54 0 -94.5 -24.5t-62.5 -67.5q-44 -83 -44 -211.5t56 -215t162 -86.5z" />
    <glyph glyph-name="P" unicode="P" horiz-adv-x="559" 
d="M50 0l-6 39q53 9 64.5 20t11.5 42v491q0 31 -11.5 42t-64.5 20l6 39h279q106 0 159 -51.5t53 -145.5t-69.5 -161t-202.5 -67h-52v-191q0 -24 20 -26l101 -12l-4 -39h-284zM217 321h44q66 0 115 31q58 37 58 136q0 92 -48 125q-40 27 -87 27h-62q-20 0 -20 -24v-295z" />
    <glyph glyph-name="Q" unicode="Q" horiz-adv-x="711" 
d="M312 -7q-133 11 -205 103t-72 249.5t87 257t238.5 99.5t233.5 -91.5t82 -246.5q0 -133 -54.5 -226t-154.5 -128v-4q19 -7 69 -43.5t73 -36.5t62 15l23 -36q-22 -18 -36 -27q-41 -30 -77 -30t-71.5 21.5t-62 47.5t-63.5 49.5t-72 26.5zM364 44q54 0 94.5 25t63.5 69
q43 85 43 214t-56.5 213t-161.5 84q-54 0 -94.5 -24.5t-62.5 -67.5q-44 -83 -44 -211.5t56 -215t162 -86.5z" />
    <glyph glyph-name="R" unicode="R" horiz-adv-x="632" 
d="M50 0l-6 39q53 9 64.5 20t11.5 42v491q0 31 -11.5 42t-64.5 20l6 39h278q107 0 159 -44t52 -119t-41 -130.5t-115 -80.5v-5q10 -3 22 -22l141 -212q15 -22 29.5 -30t52.5 -11l-6 -39h-142l-198 304h-65v-227q0 -22 20 -26l55 -12l-4 -39h-238zM217 355h55
q79 0 119.5 34.5t40.5 126.5q0 124 -135 124h-60q-20 0 -20 -24v-261z" />
    <glyph glyph-name="S" unicode="S" horiz-adv-x="523" 
d="M187.5 58.5q38.5 -11.5 86.5 -11.5t80 29t32 78q0 76 -86 124q-22 11 -68 30.5t-65 29t-44.5 27t-39.5 35.5q-35 43 -35 105q0 91 67.5 144t175.5 53q82 0 154 -27q3 -24 3 -63.5t-11 -105.5l-58 -7q-11 113 -27 126q-24 21 -87.5 21t-98.5 -25.5t-35 -74.5q0 -28 11 -50
t40 -41t46 -27q25 -13 70 -32t70 -33t54 -37q56 -47 56 -136t-63.5 -144t-173.5 -55q-59 0 -117.5 14.5t-85.5 28.5q-3 12 -3 57t12 109l57 3q8 -72 13.5 -93t14.5 -28q17 -12 55.5 -23.5z" />
    <glyph glyph-name="T" unicode="T" horiz-adv-x="577" 
d="M149 39q63 10 77 20.5t14 41.5v540q-129 -2 -138 -6t-14 -9q-12 -16 -29 -113l-51 4q-1 15 -1 58.5t9 117.5h545q9 -74 9 -117.5t-1 -58.5l-51 -4q-17 97 -30 113q-4 5 -13 9t-138 6v-564q0 -23 20 -26l77 -12l-4 -39h-275z" />
    <glyph glyph-name="U" unicode="U" horiz-adv-x="736" 
d="M574 573q0 44 -16.5 59t-79.5 22l6 39h235l4 -39l-62 -12q-18 -4 -19 -14q-1 -4 -1 -12v-359q0 -123 -67 -194.5t-201 -71.5q-258 0 -258 258v343q0 31 -11.5 42t-64.5 20l6 39h245l4 -39l-62 -12q-20 -4 -20 -26v-352q0 -102 42 -154t136.5 -52t139 56t44.5 135v324z
" />
    <glyph glyph-name="V" unicode="V" horiz-adv-x="655" 
d="M293 -9l-223 619q-8 21 -19 27.5t-48 15.5l7 40h238l4 -41l-71 -19q-7 -1 -7 -5.5t4 -16.5l154 -453q9 -25 9 -34h10l156 445q14 39 14 51q0 19 -73 33l6 40h197l4 -42q-41 -8 -52 -18t-21 -38l-220 -604h-69z" />
    <glyph glyph-name="W" unicode="W" horiz-adv-x="930" 
d="M591 -9l-108 364q-5 15 -5 26h-8q0 -11 -6 -26l-121 -364h-71l-209 619q-7 21 -18 27.5t-49 15.5l7 40h223l4 -41l-56 -19q-7 -1 -7 -5.5t4 -16.5l139 -449q9 -32 9 -34h10l115 364l-35 118q-3 12 -6.5 18t-12.5 11q-12 6 -41 14l7 40h211l4 -41l-71 -19q-7 -1 -7 -5.5
t4 -16.5l132 -449q9 -31 9 -34h10l140 441q11 37 11 49q0 22 -77 35l6 40h205l4 -42q-41 -9 -53 -19t-21 -37l-200 -604h-72z" />
    <glyph glyph-name="X" unicode="X" horiz-adv-x="639" 
d="M21 0l-7 40q41 11 54.5 17t25.5 24l177 260l-179 269q-14 21 -24.5 28t-43.5 15l7 40h238l4 -41l-67 -18q-7 -1 -7 -7.5t7 -15.5l114 -170q10 -15 10 -27h10l111 162q25 35 25 46t-13 17t-48 14l6 40h195l4 -42q-12 -3 -21 -5t-16.5 -5.5t-11.5 -5t-9 -7.5t-6.5 -7.5
t-7 -10t-7.5 -11.5l-165 -241l195 -290q11 -15 68 -26l-4 -42h-241l-6 40q46 9 52.5 16t6.5 15t-7 19l-112 166q-10 15 -10 30h-10l-138 -202q-8 -11 -8 -18.5t10 -10.5l47 -14l-4 -41h-194z" />
    <glyph glyph-name="Y" unicode="Y" horiz-adv-x="598" 
d="M319 361l111 215q21 40 21 49t-12.5 14.5t-47.5 13.5l6 40h198l4 -42q-44 -9 -61 -19.5t-29 -34.5l-158 -310v-210q0 -23 20 -26l77 -12l-4 -39h-275l-6 39q63 10 77 20.5t14 41.5v178l-180 331q-13 22 -23.5 28.5t-45.5 14.5l7 40h235l4 -41l-67 -18q-7 -1 -7 -6t7 -17
l115 -221q10 -17 10 -29h10z" />
    <glyph glyph-name="Z" unicode="Z" horiz-adv-x="607" 
d="M120 510l-63 7q-2 42 -2 84.5t9 91.5h509v-26l-382 -586q-13 -19 -22 -23l2 -6h150q106 0 130 7q16 5 56 154l55 -5q1 -17 1 -69.5t-11 -138.5h-517v26l381 586q13 19 22 23l-2 7h-96q-137 0 -179 -6q-15 -1 -41 -126z" />
    <glyph glyph-name="bracketleft" unicode="[" horiz-adv-x="284" 
d="M70 -164v930h161v-53h-91v-824h91v-53h-161z" />
    <glyph glyph-name="backslash" unicode="\" horiz-adv-x="391" 
d="M15 772h69l292 -832h-70z" />
    <glyph glyph-name="bracketright" unicode="]" horiz-adv-x="284" 
d="M214 766v-930h-161v53h91v824h-91v53h161z" />
    <glyph glyph-name="asciicircum" unicode="^" horiz-adv-x="501" 
d="M205 693h77l195 -369h-68l-166 313l-151 -313h-68z" />
    <glyph glyph-name="underscore" unicode="_" horiz-adv-x="430" 
d="M-6 -73h442v-48h-442v48z" />
    <glyph glyph-name="grave" unicode="`" horiz-adv-x="202" 
d="M0 712v23l80 30l107 -179l-35 -25z" />
    <glyph glyph-name="a" unicode="a" horiz-adv-x="512" 
d="M42 123q0 75 64 112t208 38v32q0 130 -94 130q-45 0 -56.5 -13t-24.5 -85l-54 6q-8 31 -8 64.5t1 43.5q59 37 155 37t133.5 -37t37.5 -122v-230q0 -26 12.5 -36.5t63.5 -20.5l-6 -32l-120 -13q-10 0 -21 19t-11 35.5t1 24.5l-8 3l-12 -18q-47 -70 -129 -70q-56 0 -94 35
t-38 97zM139 132q0 -36 19 -54.5t54 -18.5t79 34q23 18 23 38v98q-90 -2 -132.5 -24t-42.5 -73z" />
    <glyph glyph-name="b" unicode="b" horiz-adv-x="544" 
d="M83 34v643q0 21 -16 30.5t-60 18.5l6 32q107 14 149 14l11 -10v-281q0 -55 -7 -78l8 -3l10 13q58 75 139 75t133 -64.5t52 -177.5t-59.5 -184t-171.5 -71q-53 0 -108 14t-86 29zM173 84q43 -36 108.5 -36t88.5 27q18 20 29.5 63.5t11.5 96.5q0 89 -32 135t-79 46
t-100 -35q-17 -11 -22 -20t-5 -25v-252z" />
    <glyph glyph-name="c" unicode="c" horiz-adv-x="468" 
d="M82 404q25 39 73.5 61.5t120 22.5t141.5 -28q1 -8 1 -51.5t-12 -85.5l-56 -6q-16 101 -30 107q-21 9 -75 9t-79 -37q-35 -53 -35 -150.5t42.5 -142t111 -44.5t132.5 44l28 -33q-81 -79 -190.5 -79t-165 68.5t-55.5 170t48 174.5z" />
    <glyph glyph-name="d" unicode="d" horiz-adv-x="569" 
d="M360 66q-58 -75 -139 -75t-133 64.5t-52 176.5t59 184t165 72q73 0 108 -26l7 3q-4 16 -4 44v168q0 21 -20.5 31.5t-73.5 17.5l6 32q107 14 167 14l11 -10v-664q0 -26 12.5 -36.5t63.5 -20.5l-6 -32l-120 -13q-10 0 -22 20t-12 36t1 24l-8 3zM164.5 110
q31.5 -47 79.5 -47t100 34q27 18 27 46v239q-41 49 -128 49q-43 0 -68 -28q-42 -47 -42 -146.5t31.5 -146.5z" />
    <glyph glyph-name="e" unicode="e" horiz-adv-x="478" 
d="M89.5 60q-55.5 69 -55.5 174.5t64 179.5t169 74q170 0 178 -209l-26 -19l-290 -16q0 -185 158 -185q69 0 135 34l21 -33q-33 -27 -86 -48t-111 -21q-101 0 -156.5 69zM132 290l207 18q10 1 10 19q0 44 -23.5 76t-79.5 32t-81.5 -37.5t-32.5 -107.5z" />
    <glyph glyph-name="f" unicode="f" horiz-adv-x="350" 
d="M51 0l-6 39q49 10 59.5 20.5t10.5 36.5v309h-65l-4 43l49 12q13 3 17 11t5 27t3.5 37t8.5 55t19.5 65t33.5 57q42 60 127 60q54 0 114 -23q0 -76 -13 -121l-53 -5q-16 81 -24 86q-16 10 -42 10q-86 0 -86 -253h118l-8 -47l-110 -15v-332q0 -10 4 -14.5t18 -6.5l75 -12
l-4 -39h-247z" />
    <glyph glyph-name="g" unicode="g" horiz-adv-x="554" 
d="M160 -24q-28 -31 -28 -67t30 -57t102.5 -21t112.5 30t40 60t-33 36.5t-104.5 7.5t-119.5 11zM74 61q0 40 30 77q21 26 48 47q-15 7 -28 17q-50 40 -50 120.5t55 123t137 42.5q73 0 121 -31q65 31 126 33q10 -17 10 -40.5t-3 -32.5q-34 8 -71 8h-27q28 -38 28 -98
q0 -80 -55 -122.5t-137 -42.5q-46 0 -81 12q-30 -36 -30 -69q0 -30 34 -36q30 -5 67.5 -5t58 -0.5t52.5 -3.5t50.5 -10t38.5 -18q37 -21 37 -74q0 -72 -72 -124.5t-194 -52.5q-164 0 -164 94q0 34 19.5 58.5t56.5 51.5q-57 18 -57 76zM265 211q93 0 93 114t-99 114
q-93 0 -93 -114t99 -114z" />
    <glyph glyph-name="h" unicode="h" horiz-adv-x="596" 
d="M40 0l-6 39q49 10 59.5 20.5t10.5 36.5v581q0 21 -16 30.5t-60 18.5l6 32q107 14 149 14l11 -10v-281q0 -55 -7 -78l8 -3l12 14q62 74 155 74q67 0 104.5 -39t37.5 -107v-270q0 -12 5.5 -15.5t14.5 -5.5l49 -12l-4 -39h-214l-6 39q45 9 55 20t10 37v216q0 48 -17.5 76
t-70 28t-109.5 -39q-13 -9 -18 -17.5t-5 -30.5v-257q0 -12 5.5 -15.5t14.5 -5.5l44 -12l-4 -39h-214z" />
    <glyph glyph-name="i" unicode="i" horiz-adv-x="310" 
d="M47 0l-6 39q49 10 59.5 20.5t10.5 36.5v287q0 21 -16 30.5t-60 18.5l6 32q107 14 149 14l11 -10v-396q0 -12 5.5 -15.5t14.5 -5.5l49 -12l-4 -39h-219zM186.5 614q-15.5 -17 -41 -17t-42 15t-16.5 41.5t15.5 42.5t42.5 16q57 0 57 -56q0 -25 -15.5 -42z" />
    <glyph glyph-name="j" unicode="j" horiz-adv-x="280" 
d="M100 68v315q0 21 -16 30.5t-60 18.5l6 32q107 14 149 14l11 -10v-430q0 -94 -56 -175.5t-108 -81.5q-36 0 -76 7q-3 12 -3 33t17 49q40 -10 60.5 -10t30.5 7q21 14 33 71.5t12 129.5zM175.5 614q-15.5 -17 -41 -17t-42 15t-16.5 41.5t15.5 42.5t42.5 16q57 0 57 -56
q0 -25 -15.5 -42z" />
    <glyph glyph-name="k" unicode="k" horiz-adv-x="569" 
d="M40 0l-6 39q49 10 59.5 20.5t10.5 36.5v581q0 21 -16 30.5t-60 18.5l6 32q107 14 149 14l11 -10v-531l172 161q8 9 8 17q0 15 -69 25l6 39h199l4 -39q-46 -7 -55 -16l-137 -131l145 -207q16 -20 35.5 -29t56.5 -12l-6 -39h-139l-155 226l-65 -62v-92q0 -12 5.5 -15.5
t14.5 -5.5l44 -12l-4 -39h-214z" />
    <glyph glyph-name="l" unicode="l" horiz-adv-x="303" 
d="M40 0l-6 39q49 10 59.5 20.5t10.5 36.5v581q0 21 -16 30.5t-60 18.5l6 32q107 14 149 14l11 -10v-690q0 -12 5.5 -15.5t14.5 -5.5l49 -12l-4 -39h-219z" />
    <glyph glyph-name="m" unicode="m" horiz-adv-x="859" 
d="M47 0l-6 39q49 10 59.5 20.5t10.5 36.5v288q0 26 -12.5 36.5t-63.5 20.5l6 32l129 13q7 0 14.5 -27.5t7.5 -49.5v-6l7 -3l10 13q25 32 63.5 53.5t81.5 21.5q96 0 122 -86l7 -1l11 14q57 73 143 73q61 0 95.5 -39t34.5 -107v-270q0 -12 5.5 -15.5t14.5 -5.5l49 -12l-4 -39
h-214l-6 39q45 9 55 20t10 37v227q0 93 -75 93q-39 0 -98 -39q-12 -7 -16 -15.5t-4 -30.5v-259q0 -12 5.5 -15.5t14.5 -5.5l44 -12l-4 -39h-209l-6 39q45 9 55 20t10 37v227q0 93 -75 93q-39 0 -98 -39q-12 -7 -16 -15.5t-4 -30.5v-259q0 -12 5.5 -15.5t14.5 -5.5l44 -12
l-4 -39h-214z" />
    <glyph glyph-name="n" unicode="n" horiz-adv-x="596" 
d="M47 0l-6 39q49 10 59.5 20.5t10.5 36.5v288q0 26 -12.5 36.5t-63.5 20.5l6 32l129 13q7 0 14.5 -28t7.5 -49v-6l8 -3l12 14q63 74 154 74q64 0 101 -38.5t37 -107.5v-270q0 -12 5.5 -15.5t14.5 -5.5l49 -12l-4 -39h-214l-6 39q45 9 55 20t10 37v216q0 47 -17 75.5
t-66.5 28.5t-107.5 -39q-9 -6 -13 -9q-9 -10 -9 -37v-258q0 -11 3.5 -15t16.5 -7l44 -12l-4 -39h-214z" />
    <glyph glyph-name="o" unicode="o" horiz-adv-x="520" 
d="M90 55q-58 64 -58 179t61.5 184.5t170 69.5t166.5 -64.5t58 -179.5t-61.5 -184t-170 -69t-166.5 64zM165 101q36 -57 98 -57t88 30q18 20 29 63.5t11 94.5q0 89 -36 146t-98 57t-88 -30q-18 -20 -29 -63.5t-11 -94.5q0 -89 36 -146z" />
    <glyph glyph-name="p" unicode="p" horiz-adv-x="557" 
d="M96 -114v498q0 26 -12.5 36.5t-63.5 20.5l6 32q124 13 130 13t14.5 -26.5t8.5 -46.5v-10l8 -3l10 13q58 75 139 75t133 -64.5t52 -176.5t-59 -184t-165 -72q-75 0 -108 26l-7 -3q4 -22 4 -44v-108q0 -13 5.5 -16.5t14.5 -4.5l91 -12l-4 -39h-261l-6 39q49 10 59.5 20.5
t10.5 36.5zM186 97q41 -49 128 -49q43 0 68 28q42 47 42 146.5t-31.5 146.5t-79.5 47t-100 -34q-27 -18 -27 -46v-239z" />
    <glyph glyph-name="q" unicode="q" horiz-adv-x="543" 
d="M360 66q-58 -75 -139 -75t-133 64.5t-52 177.5t59.5 184t171.5 71q53 0 108 -14t86 -29v-583q0 -12 5.5 -15.5t14.5 -5.5l49 -12l-4 -39h-260l-6 39q72 9 91.5 22t19.5 40v107q0 55 7 78l-8 3zM244 63q47 0 100 35q17 11 22 20t5 25v252q-43 36 -108.5 36t-88.5 -27
q-18 -20 -29.5 -63.5t-11.5 -96.5q0 -89 32 -135t79 -46z" />
    <glyph glyph-name="r" unicode="r" horiz-adv-x="432" 
d="M40 0l-6 39q53 9 65 20t12 37v288q0 26 -13.5 37.5t-69.5 19.5l6 32l136 13q7 0 15 -20t8 -41.5t-4 -49.5l8 -3l13 29q18 40 54.5 63.5t74 23.5t69.5 -16q0 -82 -15 -164l-49 -5q-8 84 -16 95.5t-26.5 11.5t-43.5 -16.5t-41 -35t-16 -60.5v-226q0 -13 5.5 -16.5
t14.5 -4.5l91 -12l-4 -39h-268z" />
    <glyph glyph-name="s" unicode="s" horiz-adv-x="437" 
d="M224 435q-88 0 -88 -60q0 -24 12 -35.5t17.5 -17t21.5 -13.5t22.5 -11.5t26.5 -11.5q84 -35 118 -66t34 -88t-50.5 -99t-138.5 -42q-39 0 -81 8t-61 16q-2 13 -2 53t9 87l52 4q7 -64 10.5 -78.5t10.5 -18.5q32 -18 84 -18q81 0 81 65q0 31 -24 51q-27 22 -62 37
q-92 38 -125.5 69.5t-33.5 87.5t51 95t123 39t132 -25q1 -8 1 -45t-13 -78l-46 -5q-7 78 -22.5 89t-58.5 11z" />
    <glyph glyph-name="t" unicode="t" horiz-adv-x="350" 
d="M85 137v275h-65l-4 43l49 12q19 5 25.5 22.5t23.5 111.5l61 6v-134h139l-8 -47l-131 -15v-244q0 -104 64 -104q36 0 76 30l21 -29q-54 -73 -132 -73q-56 0 -87.5 39t-31.5 107z" />
    <glyph glyph-name="u" unicode="u" horiz-adv-x="577" 
d="M92 124v264q0 21 -16 30.5t-60 18.5l6 32q107 14 149 14l11 -10v-306q0 -104 79 -104q51 0 106 39q13 9 17 17.5t4 28.5v240q0 21 -16 30.5t-60 18.5l6 32q107 14 149 14l11 -10v-374q0 -26 12.5 -36.5t63.5 -20.5l-6 -32l-129 -14q-7 -1 -14.5 26.5t-7.5 47.5v6l-8 3
l-12 -14q-63 -74 -154 -74q-61 0 -96 32.5t-35 100.5z" />
    <glyph glyph-name="v" unicode="v" horiz-adv-x="496" 
d="M211 -9l-158 407q-7 19 -14 24t-39 12l6 39h206l4 -39l-61 -15q-7 -1 -7 -8q0 -1 4 -13l90 -252q12 -35 12 -55h8l111 284q6 16 6 26.5t-14.5 17.5t-51.5 15l6 39h178l4 -39q-32 -8 -39 -10.5t-8 -6.5l-178 -426h-65z" />
    <glyph glyph-name="w" unicode="w" horiz-adv-x="754" 
d="M207 -9l-145 407q-7 19 -14 24t-40 12l6 39h185l4 -39l-44 -14q-7 -1 -7 -7q0 -1 4 -13l92 -288q4 -10 4 -24v-4h8q0 11 8 30l91 227l-19 57q-6 18 -12.5 23.5t-31.5 12.5l6 39h164l4 -39l-44 -14q-7 -1 -7 -7q0 -1 4 -13l91 -288q4 -12 4 -24v-4h8q0 6 8 30l91 261
q6 16 6 21.5t-0.5 8t-2.5 5t-3.5 4t-5 3.5t-6 3.5t-7.5 3.5t-8.5 3t-9.5 3.5t-10 3.5l6 39h164l4 -39q-32 -8 -39 -10.5t-8 -6.5l-166 -426h-65l-82 252q-5 15 -5 27h-8q0 -11 -6 -26l-101 -253h-65z" />
    <glyph glyph-name="x" unicode="x" horiz-adv-x="554" 
d="M16 0l-4 39q51 8 57 14l157 184l-143 171q-8 10 -20 14l-36 12l4 39h198l6 -39l-31 -7q-13 -4 -13 -11.5t15 -25.5l79 -95l78 97q7 8 7 16q0 17 -45 26l6 39h186l4 -39q-46 -7 -55 -16l-143 -169l154 -184q8 -10 20 -14l36 -12l-4 -39h-198l-6 39l31 7q13 4 13 11.5
t-15 25.5l-92 110l-92 -112q-7 -8 -7 -16q0 -17 45 -26l-6 -39h-186z" />
    <glyph glyph-name="y" unicode="y" horiz-adv-x="500" 
d="M29 -117q24 -3 66.5 -3t67.5 10.5t60 109.5l-166 398q-8 19 -14.5 24t-38.5 12l6 39h206l4 -39l-61 -15q-7 -1 -7 -8q0 -1 4 -13l102 -267q5 -14 5 -31h8l106 275q6 16 6 26.5t-14.5 17.5t-51.5 15l6 39h178l4 -39q-44 -10 -47 -17l-158 -392q-20 -50 -32 -76.5
t-33 -59.5t-44 -51q-57 -43 -138 -57q-26 26 -26 82q0 6 2 20z" />
    <glyph glyph-name="z" unicode="z" horiz-adv-x="443" 
d="M28 0v26l253 366q16 20 22 23l-2 7h-114q-39 0 -66 -3q-7 -1 -12 -14.5t-19 -69.5l-46 5q-2 32 -2 64t6 69h366v-28l-250 -364q-13 -19 -22 -23l2 -7l49 1q107 2 126 6.5t41 99.5l52 -4q-2 -80 -11 -154h-373z" />
    <glyph glyph-name="braceleft" unicode="{" horiz-adv-x="323" 
d="M99 -50l10 235q0 43 -18 61.5t-61 35.5v38q43 17 61 35.5t18 61.5l-10 235q0 52 30 83t77 31q14 0 64 -4v-43q-47 -5 -69 -19.5t-22 -56.5v-253q0 -68 -59 -85l-11 -3v-2l11 -3q41 -10 52 -41q7 -15 7 -44v-253q0 -42 22 -56.5t69 -19.5v-43q-50 -4 -64 -4q-47 0 -77 31
t-30 83z" />
    <glyph glyph-name="bar" unicode="|" horiz-adv-x="255" 
d="M95 772h65v-982h-65v982z" />
    <glyph glyph-name="braceright" unicode="}" horiz-adv-x="323" 
d="M224 652l-10 -235q0 -43 18 -61.5t61 -35.5v-38q-43 -17 -61 -35.5t-18 -61.5l10 -235q0 -52 -30 -83t-77 -31q-14 0 -64 4v43q47 5 69 19.5t22 56.5v253q0 29 7 44q11 31 52 41l11 3v2l-11 3q-59 17 -59 85v253q0 42 -22 56.5t-69 19.5v43q50 4 64 4q47 0 77 -31t30 -83
z" />
    <glyph glyph-name="asciitilde" unicode="~" horiz-adv-x="485" 
d="M422 324l35 -24q-28 -43 -45 -64q-29 -36 -63 -36q-18 0 -36 5.5t-69 24.5t-68 24.5t-35 5.5q-32 0 -76 -49l-35 24q33 56 56.5 78t47.5 22t40.5 -5t123.5 -45q28 -10 45.5 -10t31.5 7.5t22 15.5t25 26z" />
    <glyph glyph-name="nbspace" unicode="&#xa0;" horiz-adv-x="195" 
 />
    <glyph glyph-name="exclamdown" unicode="&#xa1;" horiz-adv-x="226" 
d="M86.5 476q15.5 16 41 16t42 -14t16.5 -39t-15.5 -40t-42.5 -15q-57 0 -57 53q0 23 15.5 39zM59 -220l-12 19l52 507l50 -2l13 -494z" />
    <glyph glyph-name="cent" unicode="&#xa2;" horiz-adv-x="424" 
d="M195 668h57v-122q68 0 123 -23q1 -6 1 -42.5t-10 -69.5l-43 -5q-10 54 -14 68.5t-10 16.5q-14 4 -47 6v-300h6q62 0 117 37l26 -30q-65 -58 -149 -65v-139h-57v141q-79 12 -120 66t-41 129.5t37.5 132t123.5 72.5v127zM124 347q0 -101 71 -135v281q-20 -4 -34 -21
q-37 -45 -37 -125z" />
    <glyph glyph-name="sterling" unicode="&#xa3;" horiz-adv-x="521" 
d="M401 80q32 0 73 41l35 -23q-25 -46 -43 -68q-33 -39 -88 -39q-33 0 -99.5 21.5t-101.5 21.5t-56.5 -7t-32.5 -13.5t-34 -23.5l-25 33q36 40 55 75t22.5 55t3.5 55.5t-11 105.5h-83v53h74q-5 32 -5 62q0 133 70.5 203t185.5 70q54 0 122 -25q1 -8 1 -45t-13 -78l-46 -5
q-6 75 -17 84q-16 16 -65 16q-72 0 -99.5 -48t-27.5 -162q0 -36 3 -72h193v-53h-190q1 -12 1 -34q0 -112 -55 -179l3 -5q29 20 68 20t102 -18t80 -18z" />
    <glyph glyph-name="currency" unicode="&#xa4;" horiz-adv-x="603" 
d="M421 166q-53 -28 -123 -28t-120 25l-97 -97l-46 46l91 91q-42 49 -42 129t39 133l-87 88l46 45l88 -89q56 36 136 36t130 -32l85 85l47 -46l-84 -83q36 -48 36 -128.5t-47 -133.5l95 -96l-46 -45zM389.5 448q-33.5 44 -92 44t-85.5 -27q-31 -35 -31 -110.5t33.5 -119.5
t92 -44t85.5 27q31 35 31 110.5t-33.5 119.5z" />
    <glyph glyph-name="yen" unicode="&#xa5;" horiz-adv-x="594" 
d="M112 192v53h376v-53h-139v-115q0 -23 20 -26l77 -12l-4 -39h-275l-6 39q63 10 77 20.5t14 41.5v91h-140zM112 314v53h103l-132 243q-13 22 -23.5 28.5t-45.5 14.5l7 40h235l4 -41l-67 -18q-7 -1 -7 -6t7 -17l104 -201q10 -17 10 -29h10l101 195q21 40 21 49t-12.5 14.5
t-47.5 13.5l6 40h198l4 -42q-44 -9 -61 -19.5t-29 -34.5l-118 -230h109v-53h-376z" />
    <glyph glyph-name="brokenbar" unicode="&#xa6;" horiz-adv-x="255" 
d="M95 772h65v-417h-65v417zM95 208h65v-418h-65v418z" />
    <glyph glyph-name="section" unicode="&#xa7;" horiz-adv-x="437" 
d="M211 -66q91 0 91 65q0 39 -25.5 64t-75.5 52l-32 18q-8 5 -32 17t-34.5 18t-28.5 19.5t-26 24.5q-23 31 -23 68q0 82 104 147q-69 52 -69 136q0 57 48.5 98t125.5 41t133 -24q2 -13 2 -53t-9 -87l-52 -4q-5 93 -20 102q-21 13 -62 13t-64 -13t-23 -52.5t21.5 -66.5
t62.5 -49l61 -33q8 -5 32 -17t34.5 -18t28.5 -19.5t27 -24.5q22 -31 22 -68q0 -80 -102 -146q62 -44 62 -110.5t-53.5 -108.5t-145.5 -42q-39 0 -81 8t-61 16q-2 13 -2 63.5t9 76.5l52 4q7 -66 10 -79.5t11 -17.5q32 -18 84 -18zM215 207l67 -37q67 51 67 91q0 28 -25 47
t-52 33.5t-34 18.5l-67 38q-67 -52 -67 -91q0 -38 57 -71q40 -22 54 -29z" />
    <glyph glyph-name="dieresis" unicode="&#xa8;" horiz-adv-x="308" 
d="M250 600q-52 0 -52 56q0 22 14.5 38t37.5 16q53 0 53 -54q0 -23 -15 -39.5t-38 -16.5zM57 600q-52 0 -52 56q0 22 14.5 38t37.5 16q53 0 53 -54q0 -23 -15 -39.5t-38 -16.5z" />
    <glyph glyph-name="copyright" unicode="&#xa9;" horiz-adv-x="841" 
d="M703 92.5q-103 -101.5 -283 -101.5t-277.5 93.5t-97.5 256t103 262t283 99.5t277.5 -91.5t97.5 -254t-103 -264zM434 44q74 0 129 25t86 69q60 85 60 213.5t-75.5 213t-216.5 84.5q-74 0 -129 -24.5t-86 -67.5q-60 -83 -60 -211.5t75.5 -215t216.5 -86.5zM342 557
q47 21 111.5 21t143.5 -51v-22q0 -57 -9 -95l-68 -6q-11 94 -13 97q-20 24 -64 24q-65 0 -97.5 -48t-32.5 -133t44.5 -131t101.5 -46q18 0 35 4.5t19 10.5q10 10 18 83l59 -4q10 -32 10 -66t-1 -42q-16 -14 -62 -26.5t-75 -12.5q-132 0 -189 64.5t-57 169.5q0 85 52 154
q27 34 74 55z" />
    <glyph glyph-name="ordfeminine" unicode="&#xaa;" horiz-adv-x="378" 
d="M117 586l-50 4q-7 24 -7 49t1 36q43 27 113.5 27t98 -26t27.5 -88v-166q0 -18 9 -25.5t46 -14.5l-4 -30l-88 -9q-7 0 -15 14.5t-8 30.5v14l-5 2l-9 -13q-35 -53 -95 -53q-41 0 -68.5 25.5t-27.5 76.5q0 106 188 108v21q0 88 -57 88q-28 0 -35 -9q-7 -12 -14 -62zM223 443
v67q-55 -2 -80.5 -17t-25.5 -49q0 -49 41 -49q24 0 51 22q14 13 14 26zM29 227v53h330v-53h-330z" />
    <glyph glyph-name="guillemotleft" unicode="&#xab;" horiz-adv-x="460" 
d="M244 414l-105 -162l105 -174l-21 -16l-163 182v16l163 170zM420 414l-105 -162l105 -174l-21 -16l-163 182v16l163 170z" />
    <glyph glyph-name="logicalnot" unicode="&#xac;" horiz-adv-x="516" 
d="M471 164h-57v171h-369v53h426v-224z" />
    <glyph glyph-name="uni00AD" unicode="&#xad;" horiz-adv-x="295" 
d="M46 277l218 14l-16 -62l-214 -26z" />
    <glyph glyph-name="registered" unicode="&#xae;" horiz-adv-x="841" 
d="M703 92.5q-103 -101.5 -283 -101.5t-277.5 93.5t-97.5 256t103 262t283 99.5t277.5 -91.5t97.5 -254t-103 -264zM434 44q74 0 129 25t86 69q60 85 60 213.5t-75.5 213t-216.5 84.5q-74 0 -129 -24.5t-86 -67.5q-60 -83 -60 -211.5t75.5 -215t216.5 -86.5zM253 124l-4 37
q23 6 31 13t8 24v301q0 18 -6.5 24.5t-34.5 12.5l4 36h193q146 0 146 -105q0 -37 -27.5 -75t-75.5 -57v-4q6 -1 16 -14l80 -130q13 -21 43 -26l-4 -37h-99l-110 190h-38v-130q0 -13 13 -16l35 -7l-2 -37h-168zM412 526h-25q-12 0 -12 -13v-151h22q49 0 74 20t25 72
q0 72 -84 72z" />
    <glyph glyph-name="macron" unicode="&#xaf;" horiz-adv-x="378" 
d="M22 642v60h249v-60h-249z" />
    <glyph glyph-name="degree" unicode="&#xb0;" horiz-adv-x="365" 
d="M281.5 472.5q-37.5 -37.5 -102 -37.5t-99.5 34.5t-35 96.5t37 99t102 37t100 -34.5t35 -96t-37.5 -99zM122 507q20 -21 58 -21t60 23.5t22 61.5t-20 59t-58 21t-60 -23.5t-22 -61.5t20 -59z" />
    <glyph glyph-name="plusminus" unicode="&#xb1;" horiz-adv-x="466" 
d="M45 306v53h163v167h50v-167h163v-53h-163v-171h-50v171h-163zM45 -1v53h376v-53h-376z" />
    <glyph glyph-name="twosuperior" unicode="&#xb2;" horiz-adv-x="330" 
d="M8 435v42q103 82 153.5 145t50.5 115q0 33 -21 55.5t-60.5 22.5t-53.5 -16q-11 -11 -15 -68l-44 4q-6 29 -6 54t1 32q21 16 59 25.5t70 9.5q78 0 119.5 -33.5t41.5 -89.5t-50 -112t-167 -139l1 -5l61 2q82 2 86 4q12 2 26 61l40 -2v-19q0 -54 -10 -88h-282z" />
    <glyph glyph-name="threesuperior" unicode="&#xb3;" horiz-adv-x="313" 
d="M12 531l44 3q3 -56 13 -59q18 -6 52 -6t57.5 21.5t23.5 56.5q0 86 -86 86q-10 0 -34 -2l2 36q54 8 79 33.5t25 54.5t-18.5 45.5t-48.5 16.5t-42 -8.5t-17 -68.5l-43 4q-6 32 -6 54t1 30q50 28 115 28t103 -23.5t38 -60t-23 -64t-54 -39.5l1 -5q40 -6 69 -34t29 -75
t-50.5 -86.5t-124.5 -39.5t-116 13q7 64 11 89z" />
    <glyph glyph-name="acute" unicode="&#xb4;" horiz-adv-x="198" 
d="M199 735v-23l-152 -151l-35 25l107 179z" />
    <glyph glyph-name="mu" unicode="&#xb5;" horiz-adv-x="577" 
d="M223 -9q-42 0 -62 12l-7 -6l34 -180l-81 -40l-15 17v594q0 21 -16 30.5t-60 18.5l6 32q107 14 149 14l11 -10v-306q0 -104 79 -104q51 0 106 39q13 9 17 17.5t4 28.5v240q0 21 -16 30.5t-60 18.5l6 32q107 14 149 14l11 -10v-378q0 -26 12.5 -36.5t63.5 -20.5l-6 -32
l-129 -13q-7 -1 -14.5 27.5t-7.5 49.5v6l-8 3l-12 -14q-63 -74 -154 -74z" />
    <glyph glyph-name="paragraph" unicode="&#xb6;" horiz-adv-x="597" 
d="M348 34q-32 -6 -71 -6l-11 10v240q-96 3 -148.5 67t-52.5 154t51.5 142t150.5 52h288l4 -39l-62 -12q-20 -4 -20 -26v-488q0 -91 -47.5 -169t-93.5 -78t-86 8q-3 12 -3 35t19 53q47 -11 66 -11t35.5 10.5t22 56t5.5 125.5v482h-47v-606z" />
    <glyph glyph-name="periodcentered" unicode="&#xb7;" horiz-adv-x="240" 
d="M166.5 212.5q-18.5 -19.5 -47 -19.5t-46.5 16.5t-18 46t18 48.5t46.5 19t47 -15.5t18.5 -45.5t-18.5 -49.5z" />
    <glyph glyph-name="cedilla" unicode="&#xb8;" horiz-adv-x="485" 
d="M210 -217l-4 31q95 13 95 58q0 16 -12 27t-34.5 11t-40.5 -10l-9 11l38 129l49 -13l-21 -75q16 3 35 3q32 0 54.5 -17t22.5 -47q0 -42 -46.5 -73t-126.5 -35z" />
    <glyph glyph-name="onesuperior" unicode="&#xb9;" horiz-adv-x="267" 
d="M41 435l-4 31q38 6 51 13.5t13 21.5v258q0 31 -3 37t-22.5 6t-37.5 -3l-5 31q75 26 133 26l8 -7v-367q0 -5 4.5 -6t8.5 -2l50 -8l-3 -31h-193z" />
    <glyph glyph-name="ordmasculine" unicode="&#xba;" horiz-adv-x="384" 
d="M314 389q-45 -51 -124.5 -51t-122 47t-42.5 131.5t45 135t124 50.5t122 -47.5t43 -131t-45 -134.5zM253.5 616.5q-23.5 39.5 -64 39.5t-56.5 -21q-27 -32 -27 -102t23.5 -110t64 -40t58.5 22q25 32 25 102t-23.5 109.5zM27 227v53h330v-53h-330z" />
    <glyph glyph-name="guillemotright" unicode="&#xbb;" horiz-adv-x="460" 
d="M145 252l-105 162l21 16l163 -170v-16l-163 -182l-21 16zM321 252l-105 162l21 16l163 -170v-16l-163 -182l-21 16z" />
    <glyph glyph-name="onequarter" unicode="&#xbc;" horiz-adv-x="845" 
d="M81 278l-4 31q38 6 51 13.5t13 21.5v258q0 31 -3 37t-22.5 6t-37.5 -3l-5 31q75 26 133 26l8 -7v-366q0 -6 4.5 -7t8.5 -2l50 -8l-3 -31h-193zM611 693h65l-446 -693h-66zM592 0l-4 31q38 6 50.5 13t12.5 22v43h-191l-15 46l202 258q46 8 70 8l7 -6v-255l67 -1l-6 -50
h-61v-57q0 -11 13 -13l37 -8l-2 -31h-180zM504 167l2 -4l145 -3v170q0 13 2 19l-4 2l-134 -170q-6 -9 -11 -14z" />
    <glyph glyph-name="onehalf" unicode="&#xbd;" horiz-adv-x="900" 
d="M81 278l-4 31q38 6 51 13.5t13 21.5v258q0 31 -3 37t-22.5 6t-37.5 -3l-5 31q75 26 133 26l8 -7v-366q0 -6 4.5 -7t8.5 -2l50 -8l-3 -31h-193zM611 693h65l-446 -693h-66zM538 0v42q103 82 153.5 145t50.5 115q0 33 -21 55.5t-60.5 22.5t-53.5 -16q-11 -11 -15 -68l-44 4
q-6 28 -6 53.5t1 32.5q21 16 59 25.5t70 9.5q78 0 119.5 -33.5t41.5 -89.5t-50 -112t-167 -139l1 -5l61 2q82 2 86 4q12 2 26 61l40 -2v-19q0 -54 -10 -88h-282z" />
    <glyph glyph-name="threequarters" unicode="&#xbe;" horiz-adv-x="845" 
d="M52 374l44 3q3 -56 13 -59q18 -6 52 -6t57.5 21.5t23.5 56.5q0 86 -86 86q-10 0 -34 -2l2 36q54 8 79 33.5t25 54.5t-18.5 45.5t-48.5 16.5t-42 -8.5t-17 -68.5l-43 4q-6 32 -6 54t1 30q50 28 115 28t103 -23.5t38 -60t-23 -64t-54 -39.5l1 -5q40 -6 69 -34t29 -75
t-50.5 -86.5t-124.5 -39.5t-116 13q7 64 11 89zM611 693h65l-446 -693h-66zM592 0l-4 31q38 6 50.5 13t12.5 22v43h-191l-15 46l202 258q46 8 70 8l7 -6v-255l67 -1l-6 -50h-61v-57q0 -11 13 -13l37 -8l-2 -31h-180zM504 167l2 -4l145 -3v170q0 13 2 19l-4 2l-134 -170
q-6 -9 -11 -14z" />
    <glyph glyph-name="questiondown" unicode="&#xbf;" horiz-adv-x="424" 
d="M202.5 476q15.5 16 41 16t42 -14.5t16.5 -39.5t-15.5 -39.5t-43.5 -14.5q-56 0 -56 51q0 25 15.5 41zM225 279l47 14q46 -64 46 -106q0 -50 -74 -98q-30 -20 -60 -41t-51.5 -51t-21.5 -72.5t35.5 -66.5t82.5 -24t77 16q8 4 12 19t9 70l54 -6q8 -31 8 -65.5t-1 -44.5
q-29 -17 -79 -29.5t-97 -12.5q-82 0 -135 40.5t-53 115.5q0 39 15.5 72t39 54t51 42t50.5 37q55 35 55 77q0 20 -10 60z" />
    <glyph glyph-name="Agrave" unicode="&#xc0;" horiz-adv-x="670" 
d="M14 0l-7 40q38 10 46.5 16t16.5 27l224 619h83l229 -635q5 -15 59 -25l-4 -42h-233l-6 40q70 14 70 33q0 8 -4 21l-44 130h-259l-51 -142q-4 -12 -4 -16.5t6 -5.5l71 -19l-4 -41h-189zM204 277h223l-98 281q-7 21 -7 29h-10zM178 842l-8 21l60 51l174 -129l-25 -36z" />
    <glyph glyph-name="Aacute" unicode="&#xc1;" horiz-adv-x="670" 
d="M14 0l-7 40q38 10 46.5 16t16.5 27l224 619h83l229 -635q5 -15 59 -25l-4 -42h-233l-6 40q70 14 70 33q0 8 -4 21l-44 130h-259l-51 -142q-4 -12 -4 -16.5t6 -5.5l71 -19l-4 -41h-189zM204 277h223l-98 281q-7 21 -7 29h-10zM504 863l-8 -21l-201 -93l-25 36l174 129z
" />
    <glyph glyph-name="Acircumflex" unicode="&#xc2;" horiz-adv-x="670" 
d="M14 0l-7 40q38 10 46.5 16t16.5 27l224 619h83l229 -635q5 -15 59 -25l-4 -42h-233l-6 40q70 14 70 33q0 8 -4 21l-44 130h-259l-51 -142q-4 -12 -4 -16.5t6 -5.5l71 -19l-4 -41h-189zM204 277h223l-98 281q-7 21 -7 29h-10zM476 749l-139 91l-139 -91l-25 26l136 139h56
l136 -139z" />
    <glyph glyph-name="Atilde" unicode="&#xc3;" horiz-adv-x="670" 
d="M14 0l-7 40q38 10 46.5 16t16.5 27l224 619h83l229 -635q5 -15 59 -25l-4 -42h-233l-6 40q70 14 70 33q0 8 -4 21l-44 130h-259l-51 -142q-4 -12 -4 -16.5t6 -5.5l71 -19l-4 -41h-189zM204 277h223l-98 281q-7 21 -7 29h-10zM493 891l25 -12q-21 -46 -42.5 -73.5
t-44 -27.5t-89 13.5t-90.5 13.5q-38 0 -72 -34l-23 16q32 53 55 74.5t46 21.5t87.5 -13.5t89.5 -13.5t58 35z" />
    <glyph glyph-name="Adieresis" unicode="&#xc4;" horiz-adv-x="670" 
d="M14 0l-7 40q38 10 46.5 16t16.5 27l224 619h83l229 -635q5 -15 59 -25l-4 -42h-233l-6 40q70 14 70 33q0 8 -4 21l-44 130h-259l-51 -142q-4 -12 -4 -16.5t6 -5.5l71 -19l-4 -41h-189zM204 277h223l-98 281q-7 21 -7 29h-10zM433 775q-52 0 -52 56q0 22 14.5 38t37.5 16
q53 0 53 -54q0 -23 -15 -39.5t-38 -16.5zM240 775q-52 0 -52 56q0 22 14.5 38t37.5 16q53 0 53 -54q0 -23 -15 -39.5t-38 -16.5z" />
    <glyph glyph-name="Aring" unicode="&#xc5;" horiz-adv-x="670" 
d="M14 0l-7 40q38 10 46.5 16t16.5 27l224 619h83l229 -635q5 -15 59 -25l-4 -42h-233l-6 40q70 14 70 33q0 8 -4 21l-44 130h-259l-51 -142q-4 -12 -4 -16.5t6 -5.5l71 -19l-4 -41h-189zM204 277h223l-98 281q-7 21 -7 29h-10zM410.5 765q-29.5 -26 -71 -26t-69 23.5
t-27.5 64.5t29.5 66.5t70.5 25.5t69 -24t28 -64t-29.5 -66zM305 794q13 -12 34.5 -12t36 14t14.5 35t-13 33t-33 12q-52 0 -52 -49q0 -21 13 -33z" />
    <glyph glyph-name="AE" unicode="&#xc6;" horiz-adv-x="880" 
d="M328 693h497q6 -37 6 -73.5t-2 -82.5l-57 -7q-14 69 -20 86.5t-14 18.5q-24 3 -61 4l-152 3v-269h151q13 0 32 71l31 -3q0 -73 2.5 -102t3 -35t4 -29t4.5 -32l-36 -6q-16 57 -21.5 70t-12.5 13h-158v-269l85 1q130 2 147 14q10 7 42 117l55 -4q1 -13 1 -59t-11 -120h-486
l-6 39q53 9 64.5 20t11.5 42v219h-153l-134 -233q-9 -16 -9 -20.5t11 -7.5l68 -18l-4 -41h-186l-7 40q34 9 42 14.5t21 28.5l300 523q6 10 6 17q0 20 -61 31zM422 587l-117 -214h123v214h-6z" />
    <glyph glyph-name="Ccedilla" unicode="&#xc7;" horiz-adv-x="620" 
d="M296 -217l-4 31q44 5 69.5 20.5t25.5 34.5t-12 30t-34.5 11t-40.5 -10l-9 11l24 82q-127 13 -197 94q-83 96 -83 244q0 114 47 203q55 105 165 146q61 22 127 22t127 -10t80 -18q6 -37 6 -77.5t-2 -90.5l-57 -8q-22 116 -39 128q-9 7 -46.5 15t-74.5 8q-110 0 -166 -81
t-56 -213q0 -156 71 -232t176 -76q38 0 71.5 9t44 17t32.5 127l55 -2q0 -76 -11 -162q-31 -17 -93 -31q-61 -14 -124 -14l-11 -39q16 3 35 3q32 0 54.5 -17t22.5 -47q0 -42 -46.5 -73t-126.5 -35z" />
    <glyph glyph-name="Egrave" unicode="&#xc8;" horiz-adv-x="592" 
d="M50 0l-6 39q53 9 64.5 20t11.5 42v491q0 31 -11.5 42t-64.5 20l6 39h466q6 -37 6 -73.5t-2 -82.5l-57 -7q-14 69 -20 86.5t-14 18.5q-24 3 -61 4l-151 3v-269h150q13 0 32 71l31 -3q0 -73 2.5 -102t3 -35t4 -29t4.5 -32l-36 -6q-16 57 -21.5 70t-12.5 13h-157v-269l89 1
q113 0 138 12q3 2 4 2q17 5 44 118l55 -5q1 -17 1 -60.5t-11 -118.5h-487zM132 842l-8 21l60 51l174 -129l-25 -36z" />
    <glyph glyph-name="Eacute" unicode="&#xc9;" horiz-adv-x="592" 
d="M50 0l-6 39q53 9 64.5 20t11.5 42v491q0 31 -11.5 42t-64.5 20l6 39h466q6 -37 6 -73.5t-2 -82.5l-57 -7q-14 69 -20 86.5t-14 18.5q-24 3 -61 4l-151 3v-269h150q13 0 32 71l31 -3q0 -73 2.5 -102t3 -35t4 -29t4.5 -32l-36 -6q-16 57 -21.5 70t-12.5 13h-157v-269l89 1
q113 0 138 12q3 2 4 2q17 5 44 118l55 -5q1 -17 1 -60.5t-11 -118.5h-487zM438 863l-8 -21l-201 -93l-25 36l174 129z" />
    <glyph glyph-name="Ecircumflex" unicode="&#xca;" horiz-adv-x="592" 
d="M50 0l-6 39q53 9 64.5 20t11.5 42v491q0 31 -11.5 42t-64.5 20l6 39h466q6 -37 6 -73.5t-2 -82.5l-57 -7q-14 69 -20 86.5t-14 18.5q-24 3 -61 4l-151 3v-269h150q13 0 32 71l31 -3q0 -73 2.5 -102t3 -35t4 -29t4.5 -32l-36 -6q-16 57 -21.5 70t-12.5 13h-157v-269l89 1
q113 0 138 12q3 2 4 2q17 5 44 118l55 -5q1 -17 1 -60.5t-11 -118.5h-487zM430 749l-139 91l-139 -91l-25 26l136 139h56l136 -139z" />
    <glyph glyph-name="Edieresis" unicode="&#xcb;" horiz-adv-x="592" 
d="M50 0l-6 39q53 9 64.5 20t11.5 42v491q0 31 -11.5 42t-64.5 20l6 39h466q6 -37 6 -73.5t-2 -82.5l-57 -7q-14 69 -20 86.5t-14 18.5q-24 3 -61 4l-151 3v-269h150q13 0 32 71l31 -3q0 -73 2.5 -102t3 -35t4 -29t4.5 -32l-36 -6q-16 57 -21.5 70t-12.5 13h-157v-269l89 1
q113 0 138 12q3 2 4 2q17 5 44 118l55 -5q1 -17 1 -60.5t-11 -118.5h-487zM388 775q-52 0 -52 56q0 22 14.5 38t37.5 16q53 0 53 -54q0 -23 -15 -39.5t-38 -16.5zM195 775q-52 0 -52 56q0 22 14.5 38t37.5 16q53 0 53 -54q0 -23 -15 -39.5t-38 -16.5z" />
    <glyph glyph-name="Igrave" unicode="&#xcc;" horiz-adv-x="337" 
d="M50 0l-6 39q53 9 64.5 20t11.5 42v491q0 31 -11.5 42t-64.5 20l6 39h245l4 -39l-62 -12q-20 -4 -20 -26v-539q0 -22 20 -26l62 -12l-4 -39h-245zM15 842l-8 21l60 51l174 -129l-25 -36z" />
    <glyph glyph-name="Iacute" unicode="&#xcd;" horiz-adv-x="337" 
d="M50 0l-6 39q53 9 64.5 20t11.5 42v491q0 31 -11.5 42t-64.5 20l6 39h245l4 -39l-62 -12q-20 -4 -20 -26v-539q0 -22 20 -26l62 -12l-4 -39h-245zM312 863l-8 -21l-201 -93l-25 36l174 129z" />
    <glyph glyph-name="Icircumflex" unicode="&#xce;" horiz-adv-x="337" 
d="M50 0l-6 39q53 9 64.5 20t11.5 42v491q0 31 -11.5 42t-64.5 20l6 39h245l4 -39l-62 -12q-20 -4 -20 -26v-539q0 -22 20 -26l62 -12l-4 -39h-245zM307 749l-139 91l-139 -91l-25 26l136 139h56l136 -139z" />
    <glyph glyph-name="Idieresis" unicode="&#xcf;" horiz-adv-x="337" 
d="M50 0l-6 39q53 9 64.5 20t11.5 42v491q0 31 -11.5 42t-64.5 20l6 39h245l4 -39l-62 -12q-20 -4 -20 -26v-539q0 -22 20 -26l62 -12l-4 -39h-245zM264 775q-52 0 -52 56q0 22 14.5 38t37.5 16q53 0 53 -54q0 -23 -15 -39.5t-38 -16.5zM71 775q-52 0 -52 56q0 22 14.5 38
t37.5 16q53 0 53 -54q0 -23 -15 -39.5t-38 -16.5z" />
    <glyph glyph-name="Eth" unicode="&#xd0;" horiz-adv-x="713" 
d="M27 338v60h93v194q0 31 -11.5 42t-64.5 20l6 39h313q86 0 149 -27.5t98 -75.5q68 -92 68 -222q0 -143 -76 -249q-38 -54 -105.5 -86.5t-155.5 -32.5h-291l-6 39q53 9 64.5 20t11.5 42v237h-93zM238 67q70 -14 106 -14q111 0 167 79t56 211q0 83 -21.5 144t-57.5 93
q-68 60 -148 60h-123v-242h167v-60h-167v-245q0 -22 21 -26z" />
    <glyph glyph-name="Ntilde" unicode="&#xd1;" horiz-adv-x="775" 
d="M550 891l25 -12q-21 -46 -42.5 -73.5t-44 -27.5t-89 13.5t-90.5 13.5q-38 0 -72 -34l-23 16q32 53 55 74.5t46 21.5t87.5 -13.5t89.5 -13.5t58 35zM50 0l-6 39q53 9 64.5 20t11.5 42v491q0 31 -11.5 42t-64.5 20l6 39h77h59h55l342 -504h7v383q0 45 -16.5 60t-79.5 22
l6 39h235l4 -39l-62 -12q-20 -4 -20 -26v-616h-59v0h-3l-400 592h-8v-492q0 -25 9.5 -37t34.5 -15l70 -9l-4 -39h-247z" />
    <glyph glyph-name="Ograve" unicode="&#xd2;" horiz-adv-x="711" 
d="M117 84.5q-82 93.5 -82 256t87 262t238.5 99.5t233.5 -91.5t82 -254t-87 -264t-238.5 -101.5t-233.5 93.5zM364 44q54 0 94.5 25t63.5 69q43 85 43 214t-56.5 213t-161.5 84q-54 0 -94.5 -24.5t-62.5 -67.5q-44 -83 -44 -211.5t56 -215t162 -86.5zM226 842l-8 21l60 51
l174 -129l-25 -36z" />
    <glyph glyph-name="Oacute" unicode="&#xd3;" horiz-adv-x="711" 
d="M117 84.5q-82 93.5 -82 256t87 262t238.5 99.5t233.5 -91.5t82 -254t-87 -264t-238.5 -101.5t-233.5 93.5zM364 44q54 0 94.5 25t63.5 69q43 85 43 214t-56.5 213t-161.5 84q-54 0 -94.5 -24.5t-62.5 -67.5q-44 -83 -44 -211.5t56 -215t162 -86.5zM497 863l-8 -21
l-201 -93l-25 36l174 129z" />
    <glyph glyph-name="Ocircumflex" unicode="&#xd4;" horiz-adv-x="711" 
d="M117 84.5q-82 93.5 -82 256t87 262t238.5 99.5t233.5 -91.5t82 -254t-87 -264t-238.5 -101.5t-233.5 93.5zM364 44q54 0 94.5 25t63.5 69q43 85 43 214t-56.5 213t-161.5 84q-54 0 -94.5 -24.5t-62.5 -67.5q-44 -83 -44 -211.5t56 -215t162 -86.5zM494 749l-139 91
l-139 -91l-25 26l136 139h56l136 -139z" />
    <glyph glyph-name="Otilde" unicode="&#xd5;" horiz-adv-x="711" 
d="M117 84.5q-82 93.5 -82 256t87 262t238.5 99.5t233.5 -91.5t82 -254t-87 -264t-238.5 -101.5t-233.5 93.5zM364 44q54 0 94.5 25t63.5 69q43 85 43 214t-56.5 213t-161.5 84q-54 0 -94.5 -24.5t-62.5 -67.5q-44 -83 -44 -211.5t56 -215t162 -86.5zM515 891l25 -12
q-21 -46 -42.5 -73.5t-44 -27.5t-89 13.5t-90.5 13.5q-38 0 -72 -34l-23 16q32 53 55 74.5t46 21.5t87.5 -13.5t89.5 -13.5t58 35z" />
    <glyph glyph-name="Odieresis" unicode="&#xd6;" horiz-adv-x="711" 
d="M117 84.5q-82 93.5 -82 256t87 262t238.5 99.5t233.5 -91.5t82 -254t-87 -264t-238.5 -101.5t-233.5 93.5zM364 44q54 0 94.5 25t63.5 69q43 85 43 214t-56.5 213t-161.5 84q-54 0 -94.5 -24.5t-62.5 -67.5q-44 -83 -44 -211.5t56 -215t162 -86.5zM447 775q-52 0 -52 56
q0 22 14.5 38t37.5 16q53 0 53 -54q0 -23 -15 -39.5t-38 -16.5zM254 775q-52 0 -52 56q0 22 14.5 38t37.5 16q53 0 53 -54q0 -23 -15 -39.5t-38 -16.5z" />
    <glyph glyph-name="multiply" unicode="&#xd7;" 
d="M121 75l-36 36l139 139l-138 138l36 35l137 -137l138 137l37 -36l-139 -137l139 -140l-36 -35l-138 139z" />
    <glyph glyph-name="Oslash" unicode="&#xd8;" horiz-adv-x="709" 
d="M348 -9q-66 0 -126 21l-48 -92l-54 20l50 98q-135 89 -135 300q0 165 87 264.5t241 99.5q75 0 135 -26l50 96l55 -20l-54 -104q127 -90 127 -294q0 -165 -87 -264t-241 -99zM146 355q0 -152 65 -237l253 492q-48 39 -109.5 39t-102 -24.5t-62.5 -66.5q-44 -83 -44 -203z
M255 76q48 -32 105.5 -32t98 24.5t63.5 67.5q43 82 43 212.5t-59 216.5z" />
    <glyph glyph-name="Ugrave" unicode="&#xd9;" horiz-adv-x="736" 
d="M574 573q0 44 -16.5 59t-79.5 22l6 39h235l4 -39l-62 -12q-18 -4 -19 -14q-1 -4 -1 -12v-359q0 -123 -67 -194.5t-201 -71.5q-258 0 -258 258v343q0 31 -11.5 42t-64.5 20l6 39h245l4 -39l-62 -12q-20 -4 -20 -26v-352q0 -102 42 -154t136.5 -52t139 56t44.5 135v324z
M218 842l-8 21l60 51l174 -129l-25 -36z" />
    <glyph glyph-name="Uacute" unicode="&#xda;" horiz-adv-x="736" 
d="M574 573q0 44 -16.5 59t-79.5 22l6 39h235l4 -39l-62 -12q-18 -4 -19 -14q-1 -4 -1 -12v-359q0 -123 -67 -194.5t-201 -71.5q-258 0 -258 258v343q0 31 -11.5 42t-64.5 20l6 39h245l4 -39l-62 -12q-20 -4 -20 -26v-352q0 -102 42 -154t136.5 -52t139 56t44.5 135v324z
M555 863l-8 -21l-201 -93l-25 36l174 129z" />
    <glyph glyph-name="Ucircumflex" unicode="&#xdb;" horiz-adv-x="736" 
d="M574 573q0 44 -16.5 59t-79.5 22l6 39h235l4 -39l-62 -12q-18 -4 -19 -14q-1 -4 -1 -12v-359q0 -123 -67 -194.5t-201 -71.5q-258 0 -258 258v343q0 31 -11.5 42t-64.5 20l6 39h245l4 -39l-62 -12q-20 -4 -20 -26v-352q0 -102 42 -154t136.5 -52t139 56t44.5 135v324z
M516 749l-139 91l-139 -91l-25 26l136 139h56l136 -139z" />
    <glyph glyph-name="Udieresis" unicode="&#xdc;" horiz-adv-x="736" 
d="M574 573q0 44 -16.5 59t-79.5 22l6 39h235l4 -39l-62 -12q-18 -4 -19 -14q-1 -4 -1 -12v-359q0 -123 -67 -194.5t-201 -71.5q-258 0 -258 258v343q0 31 -11.5 42t-64.5 20l6 39h245l4 -39l-62 -12q-20 -4 -20 -26v-352q0 -102 42 -154t136.5 -52t139 56t44.5 135v324z
M477 775q-52 0 -52 56q0 22 14.5 38t37.5 16q53 0 53 -54q0 -23 -15 -39.5t-38 -16.5zM284 775q-52 0 -52 56q0 22 14.5 38t37.5 16q53 0 53 -54q0 -23 -15 -39.5t-38 -16.5z" />
    <glyph glyph-name="Yacute" unicode="&#xdd;" horiz-adv-x="598" 
d="M319 361l111 215q21 40 21 49t-12.5 14.5t-47.5 13.5l6 40h198l4 -42q-44 -9 -61 -19.5t-29 -34.5l-158 -310v-210q0 -23 20 -26l77 -12l-4 -39h-275l-6 39q63 10 77 20.5t14 41.5v178l-180 331q-13 22 -23.5 28.5t-45.5 14.5l7 40h235l4 -41l-67 -18q-7 -1 -7 -6t7 -17
l115 -221q10 -17 10 -29h10zM486 863l-8 -21l-201 -93l-25 36l174 129z" />
    <glyph glyph-name="Thorn" unicode="&#xde;" horiz-adv-x="567" 
d="M120 101v491q0 31 -11.5 42t-64.5 20l6 39h245l4 -39l-62 -12q-20 -4 -20 -26v-59h107q112 0 168.5 -49t56.5 -136t-75 -148.5t-215 -61.5h-42v-85q0 -24 20 -26l87 -12l-4 -39h-270l-6 39q53 9 64.5 20t11.5 42zM294 504h-57q-20 0 -20 -22v-267h24q71 0 127 27
q32 15 51 46.5t19 74t-14 72t-37 43.5q-43 26 -93 26z" />
    <glyph glyph-name="germandbls" unicode="&#xdf;" horiz-adv-x="677" 
d="M460 44q82 0 82 66q0 34 -29 54q-26 19 -59 34q-85 37 -114.5 70t-29.5 83q0 54 50 103q20 21 40 41q50 48 50 102.5t-31 88t-78 33.5q-68 0 -102 -67.5t-34 -185.5v-466h-154l-6 39q49 10 59.5 20.5t10.5 36.5v309h-65l-4 43l49 12q13 3 17 11t5 25t3 31t8.5 45t16 54.5
t28.5 52.5t43 48q59 45 138.5 45t132.5 -44t53 -120q0 -40 -23.5 -74t-51.5 -54t-51.5 -48.5t-23.5 -58.5q0 -28 22 -47q9 -7 14 -11.5t18.5 -11.5t19.5 -9l22 -10q71 -33 97 -55t35.5 -43.5t9.5 -48.5q0 -62 -50.5 -104t-133 -42t-133.5 24q-2 10 -2 50t9 61l48 3
q7 -47 10.5 -58t9.5 -13q34 -14 74 -14z" />
    <glyph glyph-name="agrave" unicode="&#xe0;" horiz-adv-x="512" 
d="M42 123q0 75 64 112t208 38v32q0 130 -94 130q-45 0 -56.5 -13t-24.5 -85l-54 6q-8 31 -8 64.5t1 43.5q59 37 155 37t133.5 -37t37.5 -122v-230q0 -26 12.5 -36.5t63.5 -20.5l-6 -32l-120 -13q-10 0 -21 19t-11 35.5t1 24.5l-8 3l-12 -18q-47 -70 -129 -70q-56 0 -94 35
t-38 97zM139 132q0 -36 19 -54.5t54 -18.5t79 34q23 18 23 38v98q-90 -2 -132.5 -24t-42.5 -73zM125 712v23l80 30l107 -179l-35 -25z" />
    <glyph glyph-name="aacute" unicode="&#xe1;" horiz-adv-x="512" 
d="M42 123q0 75 64 112t208 38v32q0 130 -94 130q-45 0 -56.5 -13t-24.5 -85l-54 6q-8 31 -8 64.5t1 43.5q59 37 155 37t133.5 -37t37.5 -122v-230q0 -26 12.5 -36.5t63.5 -20.5l-6 -32l-120 -13q-10 0 -21 19t-11 35.5t1 24.5l-8 3l-12 -18q-47 -70 -129 -70q-56 0 -94 35
t-38 97zM139 132q0 -36 19 -54.5t54 -18.5t79 34q23 18 23 38v98q-90 -2 -132.5 -24t-42.5 -73zM376 735v-23l-152 -151l-35 25l107 179z" />
    <glyph glyph-name="acircumflex" unicode="&#xe2;" horiz-adv-x="512" 
d="M42 123q0 75 64 112t208 38v32q0 130 -94 130q-45 0 -56.5 -13t-24.5 -85l-54 6q-8 31 -8 64.5t1 43.5q59 37 155 37t133.5 -37t37.5 -122v-230q0 -26 12.5 -36.5t63.5 -20.5l-6 -32l-120 -13q-10 0 -21 19t-11 35.5t1 24.5l-8 3l-12 -18q-47 -70 -129 -70q-56 0 -94 35
t-38 97zM139 132q0 -36 19 -54.5t54 -18.5t79 34q23 18 23 38v98q-90 -2 -132.5 -24t-42.5 -73zM273 755l118 -169l-35 -25l-115 118l-114 -118l-35 25l118 169h63z" />
    <glyph glyph-name="atilde" unicode="&#xe3;" horiz-adv-x="512" 
d="M42 123q0 75 64 112t208 38v32q0 130 -94 130q-45 0 -56.5 -13t-24.5 -85l-54 6q-8 31 -8 64.5t1 43.5q59 37 155 37t133.5 -37t37.5 -122v-230q0 -26 12.5 -36.5t63.5 -20.5l-6 -32l-120 -13q-10 0 -21 19t-11 35.5t1 24.5l-8 3l-12 -18q-47 -70 -129 -70q-56 0 -94 35
t-38 97zM139 132q0 -36 19 -54.5t54 -18.5t79 34q23 18 23 38v98q-90 -2 -132.5 -24t-42.5 -73zM404 715l25 -13q-21 -49 -42.5 -78t-44 -29t-89 21t-90.5 21q-38 0 -72 -42l-23 17q32 56 55 79t46 23t87.5 -21t89 -21t58.5 43z" />
    <glyph glyph-name="adieresis" unicode="&#xe4;" horiz-adv-x="512" 
d="M42 123q0 75 64 112t208 38v32q0 130 -94 130q-45 0 -56.5 -13t-24.5 -85l-54 6q-8 31 -8 64.5t1 43.5q59 37 155 37t133.5 -37t37.5 -122v-230q0 -26 12.5 -36.5t63.5 -20.5l-6 -32l-120 -13q-10 0 -21 19t-11 35.5t1 24.5l-8 3l-12 -18q-47 -70 -129 -70q-56 0 -94 35
t-38 97zM139 132q0 -36 19 -54.5t54 -18.5t79 34q23 18 23 38v98q-90 -2 -132.5 -24t-42.5 -73zM336 600q-52 0 -52 56q0 22 14.5 38t37.5 16q53 0 53 -54q0 -23 -15 -39.5t-38 -16.5zM143 600q-52 0 -52 56q0 22 14.5 38t37.5 16q53 0 53 -54q0 -23 -15 -39.5t-38 -16.5z
" />
    <glyph glyph-name="aring" unicode="&#xe5;" horiz-adv-x="512" 
d="M42 123q0 75 64 112t208 38v32q0 130 -94 130q-45 0 -56.5 -13t-24.5 -85l-54 6q-8 31 -8 64.5t1 43.5q59 37 155 37t133.5 -37t37.5 -122v-230q0 -26 12.5 -36.5t63.5 -20.5l-6 -32l-120 -13q-10 0 -21 19t-11 35.5t1 24.5l-8 3l-12 -18q-47 -70 -129 -70q-56 0 -94 35
t-38 97zM139 132q0 -36 19 -54.5t54 -18.5t79 34q23 18 23 38v98q-90 -2 -132.5 -24t-42.5 -73zM315.5 591q-26.5 -27 -73.5 -27t-72 24.5t-25 69.5t26.5 71t73.5 26t72 -24.5t25 -68.5t-26.5 -71zM241 607q24 0 37.5 15.5t13.5 40.5q0 49 -46 49q-24 0 -38 -15t-14 -40
q0 -50 47 -50z" />
    <glyph glyph-name="ae" unicode="&#xe6;" horiz-adv-x="763" 
d="M139 337l-54 6q-8 31 -8 64.5t1 43.5q59 37 169 37t141 -68q65 68 164 68q170 0 178 -209l-26 -19l-290 -16q0 -185 158 -185q69 0 135 34l21 -33q-33 -27 -86 -48t-111 -21q-127 0 -182 107h-6q-25 -46 -68.5 -76.5t-100 -30.5t-94.5 35t-38 103t63.5 106t208.5 47v23
q0 130 -94 130q-45 0 -56.5 -13t-24.5 -85zM417 290l207 18q10 1 10 19q0 44 -23.5 76t-79.5 32t-81.5 -37.5t-32.5 -107.5zM314 131v107q-92 -9 -133.5 -32.5t-41.5 -73.5q0 -35 19 -53.5t55 -18.5t78 33q23 18 23 38z" />
    <glyph glyph-name="ccedilla" unicode="&#xe7;" horiz-adv-x="468" 
d="M82 404q25 39 73.5 61.5t120 22.5t141.5 -28q1 -8 1 -51.5t-12 -85.5l-56 -6q-16 101 -30 107q-21 9 -75 9t-79 -37q-35 -53 -35 -150.5t42.5 -142t111 -44.5t132.5 44l28 -33q-81 -79 -190.5 -79t-165 68.5t-55.5 170t48 174.5zM201 -217l-4 31q95 13 95 58q0 16 -12 27
t-34.5 11t-40.5 -10l-9 11l38 129l49 -13l-21 -75q16 3 35 3q32 0 54.5 -17t22.5 -47q0 -42 -46.5 -73t-126.5 -35z" />
    <glyph glyph-name="egrave" unicode="&#xe8;" horiz-adv-x="478" 
d="M89.5 60q-55.5 69 -55.5 174.5t64 179.5t169 74q170 0 178 -209l-26 -19l-290 -16q0 -185 158 -185q69 0 135 34l21 -33q-33 -27 -86 -48t-111 -21q-101 0 -156.5 69zM132 290l207 18q10 1 10 19q0 44 -23.5 76t-79.5 32t-81.5 -37.5t-32.5 -107.5zM104 712v23l80 30
l107 -179l-35 -25z" />
    <glyph glyph-name="eacute" unicode="&#xe9;" horiz-adv-x="478" 
d="M89.5 60q-55.5 69 -55.5 174.5t64 179.5t169 74q170 0 178 -209l-26 -19l-290 -16q0 -185 158 -185q69 0 135 34l21 -33q-33 -27 -86 -48t-111 -21q-101 0 -156.5 69zM132 290l207 18q10 1 10 19q0 44 -23.5 76t-79.5 32t-81.5 -37.5t-32.5 -107.5zM395 735v-23
l-152 -151l-35 25l107 179z" />
    <glyph glyph-name="ecircumflex" unicode="&#xea;" horiz-adv-x="478" 
d="M89.5 60q-55.5 69 -55.5 174.5t64 179.5t169 74q170 0 178 -209l-26 -19l-290 -16q0 -185 158 -185q69 0 135 34l21 -33q-33 -27 -86 -48t-111 -21q-101 0 -156.5 69zM132 290l207 18q10 1 10 19q0 44 -23.5 76t-79.5 32t-81.5 -37.5t-32.5 -107.5zM277 755l118 -169
l-35 -25l-115 118l-114 -118l-35 25l118 169h63z" />
    <glyph glyph-name="edieresis" unicode="&#xeb;" horiz-adv-x="478" 
d="M89.5 60q-55.5 69 -55.5 174.5t64 179.5t169 74q170 0 178 -209l-26 -19l-290 -16q0 -185 158 -185q69 0 135 34l21 -33q-33 -27 -86 -48t-111 -21q-101 0 -156.5 69zM132 290l207 18q10 1 10 19q0 44 -23.5 76t-79.5 32t-81.5 -37.5t-32.5 -107.5zM348 600q-52 0 -52 56
q0 22 14.5 38t37.5 16q53 0 53 -54q0 -23 -15 -39.5t-38 -16.5zM155 600q-52 0 -52 56q0 22 14.5 38t37.5 16q53 0 53 -54q0 -23 -15 -39.5t-38 -16.5z" />
    <glyph glyph-name="igrave" unicode="&#xec;" horiz-adv-x="310" 
d="M16 712v23l80 30l107 -179l-35 -25zM47 0l-6 39q49 10 59.5 20.5t10.5 36.5v287q0 21 -16 30.5t-60 18.5l6 32q107 14 149 14l11 -10v-396q0 -12 5.5 -15.5t14.5 -5.5l49 -12l-4 -39h-219z" />
    <glyph glyph-name="iacute" unicode="&#xed;" horiz-adv-x="310" 
d="M288 735v-23l-152 -151l-35 25l107 179zM47 0l-6 39q49 10 59.5 20.5t10.5 36.5v287q0 21 -16 30.5t-60 18.5l6 32q107 14 149 14l11 -10v-396q0 -12 5.5 -15.5t14.5 -5.5l49 -12l-4 -39h-219z" />
    <glyph glyph-name="icircumflex" unicode="&#xee;" horiz-adv-x="310" 
d="M176 755l118 -169l-35 -25l-115 118l-114 -118l-35 25l118 169h63zM47 0l-6 39q49 10 59.5 20.5t10.5 36.5v287q0 21 -16 30.5t-60 18.5l6 32q107 14 149 14l11 -10v-396q0 -12 5.5 -15.5t14.5 -5.5l49 -12l-4 -39h-219z" />
    <glyph glyph-name="idieresis" unicode="&#xef;" horiz-adv-x="310" 
d="M242 600q-52 0 -52 56q0 22 14.5 38t37.5 16q53 0 53 -54q0 -23 -15 -39.5t-38 -16.5zM49 600q-52 0 -52 56q0 22 14.5 38t37.5 16q53 0 53 -54q0 -23 -15 -39.5t-38 -16.5zM47 0l-6 39q49 10 59.5 20.5t10.5 36.5v287q0 21 -16 30.5t-60 18.5l6 32q107 14 149 14l11 -10
v-396q0 -12 5.5 -15.5t14.5 -5.5l49 -12l-4 -39h-219z" />
    <glyph glyph-name="eth" unicode="&#xf0;" horiz-adv-x="533" 
d="M416 774l40 -36l-132 -54q164 -188 164 -438q0 -117 -61.5 -186t-170 -69t-166.5 64t-58 179t61.5 184.5t172.5 69.5q49 0 92 -16q-32 107 -96 186l-113 -46l-39 35l119 49q-27 29 -59 53l52 28q33 -24 67 -56zM354.5 379q-36.5 56 -98 56t-87.5 -30q-18 -20 -29 -63.5
t-11 -94.5q0 -89 36 -146t98 -57t88 30q18 20 29 63.5t11 94.5q0 91 -36.5 147z" />
    <glyph glyph-name="ntilde" unicode="&#xf1;" horiz-adv-x="596" 
d="M47 0l-6 39q49 10 59.5 20.5t10.5 36.5v288q0 26 -12.5 36.5t-63.5 20.5l6 32l129 13q7 0 14.5 -28t7.5 -49v-6l8 -3l12 14q63 74 154 74q64 0 101 -38.5t37 -107.5v-270q0 -12 5.5 -15.5t14.5 -5.5l49 -12l-4 -39h-214l-6 39q45 9 55 20t10 37v216q0 47 -17 75.5
t-66.5 28.5t-107.5 -39q-9 -6 -13 -9q-9 -10 -9 -37v-258q0 -11 3.5 -15t16.5 -7l44 -12l-4 -39h-214zM463 715l25 -13q-21 -49 -42.5 -78t-44 -29t-89 21t-90.5 21q-38 0 -72 -42l-23 17q32 56 55 79t46 23t87.5 -21t89 -21t58.5 43z" />
    <glyph glyph-name="ograve" unicode="&#xf2;" horiz-adv-x="520" 
d="M90 55q-58 64 -58 179t61.5 184.5t170 69.5t166.5 -64.5t58 -179.5t-61.5 -184t-170 -69t-166.5 64zM165 101q36 -57 98 -57t88 30q18 20 29 63.5t11 94.5q0 89 -36 146t-98 57t-88 -30q-18 -20 -29 -63.5t-11 -94.5q0 -89 36 -146zM128 712v23l80 30l107 -179l-35 -25z
" />
    <glyph glyph-name="oacute" unicode="&#xf3;" horiz-adv-x="520" 
d="M90 55q-58 64 -58 179t61.5 184.5t170 69.5t166.5 -64.5t58 -179.5t-61.5 -184t-170 -69t-166.5 64zM165 101q36 -57 98 -57t88 30q18 20 29 63.5t11 94.5q0 89 -36 146t-98 57t-88 -30q-18 -20 -29 -63.5t-11 -94.5q0 -89 36 -146zM390 735v-23l-152 -151l-35 25
l107 179z" />
    <glyph glyph-name="ocircumflex" unicode="&#xf4;" horiz-adv-x="520" 
d="M90 55q-58 64 -58 179t61.5 184.5t170 69.5t166.5 -64.5t58 -179.5t-61.5 -184t-170 -69t-166.5 64zM165 101q36 -57 98 -57t88 30q18 20 29 63.5t11 94.5q0 89 -36 146t-98 57t-88 -30q-18 -20 -29 -63.5t-11 -94.5q0 -89 36 -146zM286 755l118 -169l-35 -25l-115 118
l-114 -118l-35 25l118 169h63z" />
    <glyph glyph-name="otilde" unicode="&#xf5;" horiz-adv-x="520" 
d="M90 55q-58 64 -58 179t61.5 184.5t170 69.5t166.5 -64.5t58 -179.5t-61.5 -184t-170 -69t-166.5 64zM165 101q36 -57 98 -57t88 30q18 20 29 63.5t11 94.5q0 89 -36 146t-98 57t-88 -30q-18 -20 -29 -63.5t-11 -94.5q0 -89 36 -146zM415 715l25 -13q-21 -49 -42.5 -78
t-44 -29t-89 21t-90.5 21q-38 0 -72 -42l-23 17q32 56 55 79t46 23t87.5 -21t89 -21t58.5 43z" />
    <glyph glyph-name="odieresis" unicode="&#xf6;" horiz-adv-x="520" 
d="M90 55q-58 64 -58 179t61.5 184.5t170 69.5t166.5 -64.5t58 -179.5t-61.5 -184t-170 -69t-166.5 64zM165 101q36 -57 98 -57t88 30q18 20 29 63.5t11 94.5q0 89 -36 146t-98 57t-88 -30q-18 -20 -29 -63.5t-11 -94.5q0 -89 36 -146zM347 600q-52 0 -52 56q0 22 14.5 38
t37.5 16q53 0 53 -54q0 -23 -15 -39.5t-38 -16.5zM154 600q-52 0 -52 56q0 22 14.5 38t37.5 16q53 0 53 -54q0 -23 -15 -39.5t-38 -16.5z" />
    <glyph glyph-name="divide" unicode="&#xf7;" horiz-adv-x="466" 
d="M268.5 393.5q-16.5 -17.5 -42 -17.5t-41.5 15t-16 41t16 43t41 17q59 0 59 -57q0 -24 -16.5 -41.5zM268.5 81.5q-16.5 -17.5 -42 -17.5t-41.5 15t-16 41t16 43t41 17q59 0 59 -57q0 -24 -16.5 -41.5zM45 244v53h376v-53h-376z" />
    <glyph glyph-name="oslash" unicode="&#xf8;" horiz-adv-x="520" 
d="M254 -9q-52 0 -91 15l-37 -72l-54 20l41 80q-81 63 -81 198q0 117 61.5 186.5t172.5 69.5q37 0 74 -10l49 94l55 -20l-51 -98q95 -61 95 -208q0 -117 -61.5 -186t-172.5 -69zM251 435q-56 0 -82 -30q-18 -20 -29 -63.5t-11 -108.5t26 -116l156 303q-28 15 -60 15z
M391 232q0 90 -36 146l-160 -310q30 -24 80 -24t76 30q18 20 29 63.5t11 94.5z" />
    <glyph glyph-name="ugrave" unicode="&#xf9;" horiz-adv-x="577" 
d="M92 124v264q0 21 -16 30.5t-60 18.5l6 32q107 14 149 14l11 -10v-306q0 -104 79 -104q51 0 106 39q13 9 17 17.5t4 28.5v240q0 21 -16 30.5t-60 18.5l6 32q107 14 149 14l11 -10v-374q0 -26 12.5 -36.5t63.5 -20.5l-6 -32l-129 -14q-7 -1 -14.5 26.5t-7.5 47.5v6l-8 3
l-12 -14q-63 -74 -154 -74q-61 0 -96 32.5t-35 100.5zM138 712v23l80 30l107 -179l-35 -25z" />
    <glyph glyph-name="uacute" unicode="&#xfa;" horiz-adv-x="577" 
d="M92 124v264q0 21 -16 30.5t-60 18.5l6 32q107 14 149 14l11 -10v-306q0 -104 79 -104q51 0 106 39q13 9 17 17.5t4 28.5v240q0 21 -16 30.5t-60 18.5l6 32q107 14 149 14l11 -10v-374q0 -26 12.5 -36.5t63.5 -20.5l-6 -32l-129 -14q-7 -1 -14.5 26.5t-7.5 47.5v6l-8 3
l-12 -14q-63 -74 -154 -74q-61 0 -96 32.5t-35 100.5zM422 735v-23l-152 -151l-35 25l107 179z" />
    <glyph glyph-name="ucircumflex" unicode="&#xfb;" horiz-adv-x="577" 
d="M92 124v264q0 21 -16 30.5t-60 18.5l6 32q107 14 149 14l11 -10v-306q0 -104 79 -104q51 0 106 39q13 9 17 17.5t4 28.5v240q0 21 -16 30.5t-60 18.5l6 32q107 14 149 14l11 -10v-374q0 -26 12.5 -36.5t63.5 -20.5l-6 -32l-129 -14q-7 -1 -14.5 26.5t-7.5 47.5v6l-8 3
l-12 -14q-63 -74 -154 -74q-61 0 -96 32.5t-35 100.5zM306 755l118 -169l-35 -25l-115 118l-114 -118l-35 25l118 169h63z" />
    <glyph glyph-name="udieresis" unicode="&#xfc;" horiz-adv-x="577" 
d="M92 124v264q0 21 -16 30.5t-60 18.5l6 32q107 14 149 14l11 -10v-306q0 -104 79 -104q51 0 106 39q13 9 17 17.5t4 28.5v240q0 21 -16 30.5t-60 18.5l6 32q107 14 149 14l11 -10v-374q0 -26 12.5 -36.5t63.5 -20.5l-6 -32l-129 -14q-7 -1 -14.5 26.5t-7.5 47.5v6l-8 3
l-12 -14q-63 -74 -154 -74q-61 0 -96 32.5t-35 100.5zM369 600q-52 0 -52 56q0 22 14.5 38t37.5 16q53 0 53 -54q0 -23 -15 -39.5t-38 -16.5zM176 600q-52 0 -52 56q0 22 14.5 38t37.5 16q53 0 53 -54q0 -23 -15 -39.5t-38 -16.5z" />
    <glyph glyph-name="yacute" unicode="&#xfd;" horiz-adv-x="500" 
d="M29 -117q24 -3 66.5 -3t67.5 10.5t60 109.5l-166 398q-8 19 -14.5 24t-38.5 12l6 39h206l4 -39l-61 -15q-7 -1 -7 -8q0 -1 4 -13l102 -267q5 -14 5 -31h8l106 275q6 16 6 26.5t-14.5 17.5t-51.5 15l6 39h178l4 -39q-44 -10 -47 -17l-158 -392q-20 -50 -32 -76.5
t-33 -59.5t-44 -51q-57 -43 -138 -57q-26 26 -26 82q0 6 2 20zM418 735v-23l-152 -151l-35 25l107 179z" />
    <glyph glyph-name="thorn" unicode="&#xfe;" horiz-adv-x="566" 
d="M32 -210l-6 39q49 10 59.5 20.5t10.5 36.5v791q0 21 -16 30.5t-60 18.5l6 32q107 14 149 14l11 -10v-281q0 -55 -7 -78l8 -3l10 13q58 75 139 75t133 -64.5t52 -176.5t-59 -184t-165 -72q-75 0 -108 26l-7 -3q4 -22 4 -44v-108q0 -13 5.5 -16.5t14.5 -4.5l91 -12l-4 -39
h-261zM186 336v-239q41 -49 128 -49q43 0 68 28q42 47 42 146.5t-31.5 146.5t-79.5 47t-100 -34q-27 -18 -27 -46z" />
    <glyph glyph-name="ydieresis" unicode="&#xff;" horiz-adv-x="500" 
d="M29 -117q24 -3 66.5 -3t67.5 10.5t60 109.5l-166 398q-8 19 -14.5 24t-38.5 12l6 39h206l4 -39l-61 -15q-7 -1 -7 -8q0 -1 4 -13l102 -267q5 -14 5 -31h8l106 275q6 16 6 26.5t-14.5 17.5t-51.5 15l6 39h178l4 -39q-44 -10 -47 -17l-158 -392q-20 -50 -32 -76.5
t-33 -59.5t-44 -51q-57 -43 -138 -57q-26 26 -26 82q0 6 2 20zM361 600q-52 0 -52 56q0 22 14.5 38t37.5 16q53 0 53 -54q0 -23 -15 -39.5t-38 -16.5zM168 600q-52 0 -52 56q0 22 14.5 38t37.5 16q53 0 53 -54q0 -23 -15 -39.5t-38 -16.5z" />
    <glyph glyph-name="Amacron" unicode="&#x100;" horiz-adv-x="670" 
d="M14 0l-7 40q38 10 46.5 16t16.5 27l224 619h83l229 -635q5 -15 59 -25l-4 -42h-233l-6 40q70 14 70 33q0 8 -4 21l-44 130h-259l-51 -142q-4 -12 -4 -16.5t6 -5.5l71 -19l-4 -41h-189zM204 277h223l-98 281q-7 21 -7 29h-10zM213 776v60h249v-60h-249z" />
    <glyph glyph-name="amacron" unicode="&#x101;" horiz-adv-x="512" 
d="M42 123q0 75 64 112t208 38v32q0 130 -94 130q-45 0 -56.5 -13t-24.5 -85l-54 6q-8 31 -8 64.5t1 43.5q59 37 155 37t133.5 -37t37.5 -122v-230q0 -26 12.5 -36.5t63.5 -20.5l-6 -32l-120 -13q-10 0 -21 19t-11 35.5t1 24.5l-8 3l-12 -18q-47 -70 -129 -70q-56 0 -94 35
t-38 97zM139 132q0 -36 19 -54.5t54 -18.5t79 34q23 18 23 38v98q-90 -2 -132.5 -24t-42.5 -73zM120 642v60h249v-60h-249z" />
    <glyph glyph-name="Abreve" unicode="&#x102;" horiz-adv-x="670" 
d="M14 0l-7 40q38 10 46.5 16t16.5 27l224 619h83l229 -635q5 -15 59 -25l-4 -42h-233l-6 40q70 14 70 33q0 8 -4 21l-44 130h-259l-51 -142q-4 -12 -4 -16.5t6 -5.5l71 -19l-4 -41h-189zM204 277h223l-98 281q-7 21 -7 29h-10zM451 900h37q-4 -62 -41 -101t-108 -39
t-108 39t-41 101h37q17 -72 112 -72t112 72z" />
    <glyph glyph-name="abreve" unicode="&#x103;" horiz-adv-x="512" 
d="M42 123q0 75 64 112t208 38v32q0 130 -94 130q-45 0 -56.5 -13t-24.5 -85l-54 6q-8 31 -8 64.5t1 43.5q59 37 155 37t133.5 -37t37.5 -122v-230q0 -26 12.5 -36.5t63.5 -20.5l-6 -32l-120 -13q-10 0 -21 19t-11 35.5t1 24.5l-8 3l-12 -18q-47 -70 -129 -70q-56 0 -94 35
t-38 97zM139 132q0 -36 19 -54.5t54 -18.5t79 34q23 18 23 38v98q-90 -2 -132.5 -24t-42.5 -73zM364 720h37q-4 -67 -41 -110t-108 -43t-108 43t-41 110h37q17 -85 112 -85t112 85z" />
    <glyph glyph-name="Aogonek" unicode="&#x104;" horiz-adv-x="670" 
d="M628 -169q-51 -46 -110 -46q-39 0 -68.5 25.5t-29.5 64.5q0 58 61 105q15 11 33 20h-86l-6 40q70 14 70 33q0 8 -4 21l-44 130h-259l-51 -142q-4 -12 -4 -16.5t6 -5.5l71 -19l-4 -41h-189l-7 40q38 10 46.5 16t16.5 27l224 619h83l229 -635q5 -15 59 -25l-4 -42h-18
q-60 -2 -101 -31.5t-41 -73.5q0 -26 15.5 -40t43 -14t56.5 10zM204 277h223l-98 281q-7 21 -7 29h-10z" />
    <glyph glyph-name="aogonek" unicode="&#x105;" horiz-adv-x="512" 
d="M139 132q0 -36 19 -54.5t54 -18.5t79 34q23 18 23 38v98q-90 -2 -132.5 -24t-42.5 -73zM42 123q0 75 64 112t208 38v32q0 130 -94 130q-45 0 -56.5 -13t-24.5 -85l-54 6q-8 31 -8 64.5t1 43.5q59 37 155 37t133.5 -37t37.5 -122v-230q0 -26 12.5 -36.5t63.5 -20.5l-6 -32
l-22 -2q-36 -7 -62 -32q-35 -33 -35 -81q0 -26 15.5 -40t43 -14t56.5 10l12 -20q-51 -46 -110 -46q-39 0 -68.5 25.5t-29.5 64.5q0 61 54 111q9 8 18 14q-6 5 -13 16q-11 19 -11 35.5t1 24.5l-8 3l-12 -18q-47 -70 -129 -70q-56 0 -94 35t-38 97z" />
    <glyph glyph-name="Cacute" unicode="&#x106;" horiz-adv-x="620" 
d="M35 331q0 114 47 203q55 105 165 146q61 22 127 22t127 -10t80 -18q6 -37 6 -77.5t-2 -90.5l-57 -8q-22 116 -39 128q-9 7 -46.5 15t-74.5 8q-110 0 -166 -81t-56 -213q0 -156 71 -232t176 -76q38 0 71.5 9t44 17t32.5 127l55 -2q0 -76 -11 -162q-31 -17 -93.5 -31
t-127.5 -14q-163 0 -246 96t-83 244zM521 863l-8 -21l-201 -93l-25 36l174 129z" />
    <glyph glyph-name="cacute" unicode="&#x107;" horiz-adv-x="468" 
d="M82 404q25 39 73.5 61.5t120 22.5t141.5 -28q1 -8 1 -51.5t-12 -85.5l-56 -6q-16 101 -30 107q-21 9 -75 9t-79 -37q-35 -53 -35 -150.5t42.5 -142t111 -44.5t132.5 44l28 -33q-81 -79 -190.5 -79t-165 68.5t-55.5 170t48 174.5zM417 735v-23l-152 -151l-35 25l107 179z
" />
    <glyph glyph-name="Ccircumflex" unicode="&#x108;" horiz-adv-x="620" 
d="M35 331q0 114 47 203q55 105 165 146q61 22 127 22t127 -10t80 -18q6 -37 6 -77.5t-2 -90.5l-57 -8q-22 116 -39 128q-9 7 -46.5 15t-74.5 8q-110 0 -166 -81t-56 -213q0 -156 71 -232t176 -76q38 0 71.5 9t44 17t32.5 127l55 -2q0 -76 -11 -162q-31 -17 -93.5 -31
t-127.5 -14q-163 0 -246 96t-83 244zM490 749l-139 91l-139 -91l-25 26l136 139h56l136 -139z" />
    <glyph glyph-name="ccircumflex" unicode="&#x109;" horiz-adv-x="468" 
d="M82 404q25 39 73.5 61.5t120 22.5t141.5 -28q1 -8 1 -51.5t-12 -85.5l-56 -6q-16 101 -30 107q-21 9 -75 9t-79 -37q-35 -53 -35 -150.5t42.5 -142t111 -44.5t132.5 44l28 -33q-81 -79 -190.5 -79t-165 68.5t-55.5 170t48 174.5zM287 755l118 -169l-35 -25l-115 118
l-114 -118l-35 25l118 169h63z" />
    <glyph glyph-name="Ccaron" unicode="&#x10c;" horiz-adv-x="620" 
d="M35 331q0 114 47 203q55 105 165 146q61 22 127 22t127 -10t80 -18q6 -37 6 -77.5t-2 -90.5l-57 -8q-22 116 -39 128q-9 7 -46.5 15t-74.5 8q-110 0 -166 -81t-56 -213q0 -156 71 -232t176 -76q38 0 71.5 9t44 17t32.5 127l55 -2q0 -76 -11 -162q-31 -17 -93.5 -31
t-127.5 -14q-163 0 -246 96t-83 244zM233 917l139 -91l139 91l25 -26l-136 -139h-56l-136 139z" />
    <glyph glyph-name="ccaron" unicode="&#x10d;" horiz-adv-x="468" 
d="M82 404q25 39 73.5 61.5t120 22.5t141.5 -28q1 -8 1 -51.5t-12 -85.5l-56 -6q-16 101 -30 107q-21 9 -75 9t-79 -37q-35 -53 -35 -150.5t42.5 -142t111 -44.5t132.5 44l28 -33q-81 -79 -190.5 -79t-165 68.5t-55.5 170t48 174.5zM227 566l-118 169l35 25l115 -118
l114 118l35 -25l-118 -169h-63z" />
    <glyph glyph-name="Dcaron" unicode="&#x10e;" horiz-adv-x="713" 
d="M50 0l-6 39q53 9 64.5 20t11.5 42v491q0 31 -11.5 42t-64.5 20l6 39h313q86 0 149 -27.5t98 -75.5q68 -92 68 -222q0 -143 -76 -249q-38 -54 -105.5 -86.5t-155.5 -32.5h-291zM217 93q0 -22 21 -26q70 -14 106 -14q111 0 167 79t56 211q0 83 -21.5 144t-57.5 93
q-68 60 -148 60h-123v-547zM172 917l139 -91l139 91l25 -26l-136 -139h-56l-136 139z" />
    <glyph glyph-name="dcaron" unicode="&#x10f;" horiz-adv-x="569" 
d="M360 66q-58 -75 -139 -75t-133 64.5t-52 176.5t59 184t165 72q73 0 108 -26l7 3q-4 16 -4 44v168q0 21 -20.5 31.5t-73.5 17.5l6 32q107 14 167 14l11 -10v-664q0 -26 12.5 -36.5t63.5 -20.5l-6 -32l-120 -13q-10 0 -22 20t-12 36t1 24l-8 3zM164.5 110
q31.5 -47 79.5 -47t100 34q27 18 27 46v239q-41 49 -128 49q-43 0 -68 -28q-42 -47 -42 -146.5t31.5 -146.5zM609 774l12 -19q-9 -96 -65 -178l-42 14q14 53 14 93.5t-4 67.5z" />
    <glyph glyph-name="Dcroat" unicode="&#x110;" horiz-adv-x="713" 
d="M27 338v60h93v194q0 31 -11.5 42t-64.5 20l6 39h313q86 0 149 -27.5t98 -75.5q68 -92 68 -222q0 -143 -76 -249q-38 -54 -105.5 -86.5t-155.5 -32.5h-291l-6 39q53 9 64.5 20t11.5 42v237h-93zM238 67q70 -14 106 -14q111 0 167 79t56 211q0 83 -21.5 144t-57.5 93
q-68 60 -148 60h-123v-242h167v-60h-167v-245q0 -22 21 -26z" />
    <glyph glyph-name="dcroat" unicode="&#x111;" horiz-adv-x="569" 
d="M241 585v53h130v39q0 21 -20.5 31.5t-73.5 17.5l6 32q107 14 167 14l11 -10v-124h81v-53h-81v-487q0 -26 12.5 -36.5t63.5 -20.5l-6 -32l-120 -13q-10 0 -22 20t-12 36t1 24l-8 3l-10 -13q-58 -75 -139 -75t-133 64.5t-52 176.5t59 184t165 72q73 0 108 -26l7 3
q-4 16 -4 44v76h-130zM164.5 110q31.5 -47 79.5 -47t100 34q27 18 27 46v239q-41 49 -128 49q-43 0 -68 -28q-42 -47 -42 -146.5t31.5 -146.5z" />
    <glyph glyph-name="Emacron" unicode="&#x112;" horiz-adv-x="592" 
d="M50 0l-6 39q53 9 64.5 20t11.5 42v491q0 31 -11.5 42t-64.5 20l6 39h466q6 -37 6 -73.5t-2 -82.5l-57 -7q-14 69 -20 86.5t-14 18.5q-24 3 -61 4l-151 3v-269h150q13 0 32 71l31 -3q0 -73 2.5 -102t3 -35t4 -29t4.5 -32l-36 -6q-16 57 -21.5 70t-12.5 13h-157v-269l89 1
q113 0 138 12q3 2 4 2q17 5 44 118l55 -5q1 -17 1 -60.5t-11 -118.5h-487zM182 776v60h249v-60h-249z" />
    <glyph glyph-name="emacron" unicode="&#x113;" horiz-adv-x="478" 
d="M89.5 60q-55.5 69 -55.5 174.5t64 179.5t169 74q170 0 178 -209l-26 -19l-290 -16q0 -185 158 -185q69 0 135 34l21 -33q-33 -27 -86 -48t-111 -21q-101 0 -156.5 69zM132 290l207 18q10 1 10 19q0 44 -23.5 76t-79.5 32t-81.5 -37.5t-32.5 -107.5zM138 642v60h249v-60
h-249z" />
    <glyph glyph-name="Ebreve" unicode="&#x114;" horiz-adv-x="592" 
d="M50 0l-6 39q53 9 64.5 20t11.5 42v491q0 31 -11.5 42t-64.5 20l6 39h466q6 -37 6 -73.5t-2 -82.5l-57 -7q-14 69 -20 86.5t-14 18.5q-24 3 -61 4l-151 3v-269h150q13 0 32 71l31 -3q0 -73 2.5 -102t3 -35t4 -29t4.5 -32l-36 -6q-16 57 -21.5 70t-12.5 13h-157v-269l89 1
q113 0 138 12q3 2 4 2q17 5 44 118l55 -5q1 -17 1 -60.5t-11 -118.5h-487zM413 900h37q-4 -62 -41 -101t-108 -39t-108 39t-41 101h37q17 -72 112 -72t112 72z" />
    <glyph glyph-name="ebreve" unicode="&#x115;" horiz-adv-x="478" 
d="M89.5 60q-55.5 69 -55.5 174.5t64 179.5t169 74q170 0 178 -209l-26 -19l-290 -16q0 -185 158 -185q69 0 135 34l21 -33q-33 -27 -86 -48t-111 -21q-101 0 -156.5 69zM132 290l207 18q10 1 10 19q0 44 -23.5 76t-79.5 32t-81.5 -37.5t-32.5 -107.5zM368 720h37
q-4 -67 -41 -110t-108 -43t-108 43t-41 110h37q17 -85 112 -85t112 85z" />
    <glyph glyph-name="Eogonek" unicode="&#x118;" horiz-adv-x="592" 
d="M521 -169q-51 -46 -110 -46q-39 0 -68.5 25.5t-29.5 64.5q0 58 61 105q15 11 33 20h-357l-6 39q53 9 64.5 20t11.5 42v491q0 31 -11.5 42t-64.5 20l6 39h466q6 -37 6 -73.5t-2 -82.5l-57 -7q-14 69 -20 86.5t-14 18.5q-24 3 -61 4l-151 3v-269h150q13 0 32 71l31 -3
q0 -73 2.5 -102t3 -35t4 -29t4.5 -32l-36 -6q-16 57 -21.5 70t-12.5 13h-157v-269l89 1q113 0 138 12q3 2 4 2q17 5 44 118l55 -5q1 -17 1 -60.5t-11 -118.5h-1q-60 -2 -101 -31.5t-41 -73.5q0 -26 15.5 -40t43 -14t56.5 10z" />
    <glyph glyph-name="eogonek" unicode="&#x119;" horiz-adv-x="478" 
d="M89.5 60q-55.5 69 -55.5 174.5t64 179.5t169 74q170 0 178 -209l-26 -19l-290 -16q0 -185 158 -185q69 0 135 34l21 -33q-33 -27 -86 -48t-111 -21q-101 0 -156.5 69zM132 290l207 18q10 1 10 19q0 44 -23.5 76t-79.5 32t-81.5 -37.5t-32.5 -107.5zM449 -169
q-51 -46 -110 -46q-40 0 -69 27.5t-29 76.5t44.5 95.5t142.5 95.5l12 -22q-60 -43 -89 -79t-29 -82q0 -26 15.5 -41t43.5 -15t56 10z" />
    <glyph glyph-name="Ecaron" unicode="&#x11a;" horiz-adv-x="592" 
d="M50 0l-6 39q53 9 64.5 20t11.5 42v491q0 31 -11.5 42t-64.5 20l6 39h466q6 -37 6 -73.5t-2 -82.5l-57 -7q-14 69 -20 86.5t-14 18.5q-24 3 -61 4l-151 3v-269h150q13 0 32 71l31 -3q0 -73 2.5 -102t3 -35t4 -29t4.5 -32l-36 -6q-16 57 -21.5 70t-12.5 13h-157v-269l89 1
q113 0 138 12q3 2 4 2q17 5 44 118l55 -5q1 -17 1 -60.5t-11 -118.5h-487zM150 917l139 -91l139 91l25 -26l-136 -139h-56l-136 139z" />
    <glyph glyph-name="ecaron" unicode="&#x11b;" horiz-adv-x="478" 
d="M89.5 60q-55.5 69 -55.5 174.5t64 179.5t169 74q170 0 178 -209l-26 -19l-290 -16q0 -185 158 -185q69 0 135 34l21 -33q-33 -27 -86 -48t-111 -21q-101 0 -156.5 69zM132 290l207 18q10 1 10 19q0 44 -23.5 76t-79.5 32t-81.5 -37.5t-32.5 -107.5zM218 566l-118 169
l35 25l115 -118l114 118l35 -25l-118 -169h-63z" />
    <glyph glyph-name="Gcircumflex" unicode="&#x11c;" horiz-adv-x="681" 
d="M587 37q-33 -17 -95.5 -31.5t-127.5 -14.5q-163 0 -246 96t-83 244q0 114 47 203q55 105 165 146q61 22 127 22t127 -10t80 -18q6 -37 6 -77.5t-2 -90.5l-57 -8q-22 116 -39 128q-9 7 -46.5 15t-74.5 8q-110 0 -166 -81t-56 -213q0 -156 71 -232t176 -76q55 0 97 16v139
q0 31 -11.5 42t-64.5 20l6 39h234l4 -39l-51 -12q-20 -4 -20 -26v-189zM488 749l-139 91l-139 -91l-25 26l136 139h56l136 -139z" />
    <glyph glyph-name="gcircumflex" unicode="&#x11d;" horiz-adv-x="554" 
d="M160 -24q-28 -31 -28 -67t30 -57t102.5 -21t112.5 30t40 60t-33 36.5t-104.5 7.5t-119.5 11zM74 61q0 40 30 77q21 26 48 47q-15 7 -28 17q-50 40 -50 120.5t55 123t137 42.5q73 0 121 -31q65 31 126 33q10 -17 10 -40.5t-3 -32.5q-34 8 -71 8h-27q28 -38 28 -98
q0 -80 -55 -122.5t-137 -42.5q-46 0 -81 12q-30 -36 -30 -69q0 -30 34 -36q30 -5 67.5 -5t58 -0.5t52.5 -3.5t50.5 -10t38.5 -18q37 -21 37 -74q0 -72 -72 -124.5t-194 -52.5q-164 0 -164 94q0 34 19.5 58.5t56.5 51.5q-57 18 -57 76zM265 211q93 0 93 114t-99 114
q-93 0 -93 -114t99 -114zM291 755l118 -169l-35 -25l-115 118l-114 -118l-35 25l118 169h63z" />
    <glyph glyph-name="Gbreve" unicode="&#x11e;" horiz-adv-x="681" 
d="M587 37q-33 -17 -95.5 -31.5t-127.5 -14.5q-163 0 -246 96t-83 244q0 114 47 203q55 105 165 146q61 22 127 22t127 -10t80 -18q6 -37 6 -77.5t-2 -90.5l-57 -8q-22 116 -39 128q-9 7 -46.5 15t-74.5 8q-110 0 -166 -81t-56 -213q0 -156 71 -232t176 -76q55 0 97 16v139
q0 31 -11.5 42t-64.5 20l6 39h234l4 -39l-51 -12q-20 -4 -20 -26v-189zM490 900h37q-4 -62 -41 -101t-108 -39t-108 39t-41 101h37q17 -72 112 -72t112 72z" />
    <glyph glyph-name="gbreve" unicode="&#x11f;" horiz-adv-x="554" 
d="M160 -24q-28 -31 -28 -67t30 -57t102.5 -21t112.5 30t40 60t-33 36.5t-104.5 7.5t-119.5 11zM74 61q0 40 30 77q21 26 48 47q-15 7 -28 17q-50 40 -50 120.5t55 123t137 42.5q73 0 121 -31q65 31 126 33q10 -17 10 -40.5t-3 -32.5q-34 8 -71 8h-27q28 -38 28 -98
q0 -80 -55 -122.5t-137 -42.5q-46 0 -81 12q-30 -36 -30 -69q0 -30 34 -36q30 -5 67.5 -5t58 -0.5t52.5 -3.5t50.5 -10t38.5 -18q37 -21 37 -74q0 -72 -72 -124.5t-194 -52.5q-164 0 -164 94q0 34 19.5 58.5t56.5 51.5q-57 18 -57 76zM265 211q93 0 93 114t-99 114
q-93 0 -93 -114t99 -114zM378 720h37q-4 -67 -41 -110t-108 -43t-108 43t-41 110h37q17 -85 112 -85t112 85z" />
    <glyph glyph-name="Hcircumflex" unicode="&#x124;" horiz-adv-x="767" 
d="M50 0l-6 39q53 9 64.5 20t11.5 42v491q0 31 -11.5 42t-64.5 20l6 39h245l4 -39l-62 -12q-20 -4 -20 -26v-229h333v205q0 31 -11.5 42t-64.5 20l6 39h245l4 -39l-62 -12q-20 -4 -20 -26v-539q0 -22 20 -26l62 -12l-4 -39h-245l-6 39q53 9 64.5 20t11.5 42v226h-333v-250
q0 -22 20 -26l62 -12l-4 -39h-245zM528 749l-139 91l-139 -91l-25 26l136 139h56l136 -139z" />
    <glyph glyph-name="hcircumflex" unicode="&#x125;" horiz-adv-x="596" 
d="M40 0l-6 39q49 10 59.5 20.5t10.5 36.5v560q0 21 -16 30.5t-60 18.5l6 32q107 14 149 14l11 -10v-260q0 -55 -7 -78l8 -3l12 14q62 74 155 74q67 0 104.5 -39t37.5 -107v-270q0 -12 5.5 -15.5t14.5 -5.5l49 -12l-4 -39h-214l-6 39q45 9 55 20t10 37v216q0 48 -17.5 76
t-70 28t-109.5 -39q-13 -9 -18 -17.5t-5 -30.5v-257q0 -12 5.5 -15.5t14.5 -5.5l44 -12l-4 -39h-214zM263 749l-139 91l-139 -91l-25 26l136 139h56l136 -139z" />
    <glyph glyph-name="Hbar" unicode="&#x126;" horiz-adv-x="767" 
d="M50 492v53h70v47q0 31 -11.5 42t-64.5 20l6 39h245l4 -39l-62 -12q-20 -4 -20 -26v-71h333v47q0 31 -11.5 42t-64.5 20l6 39h245l4 -39l-62 -12q-20 -4 -20 -26v-71h76v-53h-76v-415q0 -22 20 -26l62 -12l-4 -39h-245l-6 39q53 9 64.5 20t11.5 42v226h-333v-250
q0 -22 20 -26l62 -12l-4 -39h-245l-6 39q53 9 64.5 20t11.5 42v391h-70zM550 492h-333v-105h333v105z" />
    <glyph glyph-name="hbar" unicode="&#x127;" horiz-adv-x="596" 
d="M23 585v53h81v39q0 21 -16 30.5t-60 18.5l6 32q107 14 149 14l11 -10v-124h130v-53h-130v-104q0 -55 -7 -78l8 -3l12 14q62 74 155 74q67 0 104.5 -39t37.5 -107v-270q0 -12 5.5 -15.5t14.5 -5.5l49 -12l-4 -39h-214l-6 39q45 9 55 20t10 37v216q0 48 -17.5 76t-70 28
t-109.5 -39q-13 -9 -18 -17.5t-5 -30.5v-257q0 -12 5.5 -15.5t14.5 -5.5l44 -12l-4 -39h-214l-6 39q49 10 59.5 20.5t10.5 36.5v489h-81z" />
    <glyph glyph-name="Itilde" unicode="&#x128;" horiz-adv-x="337" 
d="M50 0l-6 39q53 9 64.5 20t11.5 42v491q0 31 -11.5 42t-64.5 20l6 39h245l4 -39l-62 -12q-20 -4 -20 -26v-539q0 -22 20 -26l62 -12l-4 -39h-245zM331 891l25 -12q-21 -46 -42.5 -73.5t-44 -27.5t-89 13.5t-90.5 13.5q-38 0 -72 -34l-23 16q32 53 55 74.5t46 21.5
t87.5 -13.5t89.5 -13.5t58 35z" />
    <glyph glyph-name="itilde" unicode="&#x129;" horiz-adv-x="310" 
d="M296 715l25 -13q-21 -49 -42.5 -78t-44 -29t-89 21t-90.5 21q-38 0 -72 -42l-23 17q32 56 55 79t46 23t87.5 -21t89 -21t58.5 43zM47 0l-6 39q49 10 59.5 20.5t10.5 36.5v287q0 21 -16 30.5t-60 18.5l6 32q107 14 149 14l11 -10v-396q0 -12 5.5 -15.5t14.5 -5.5l49 -12
l-4 -39h-219z" />
    <glyph glyph-name="Imacron" unicode="&#x12a;" horiz-adv-x="337" 
d="M46 776v60h249v-60h-249zM50 0l-6 39q53 9 64.5 20t11.5 42v491q0 31 -11.5 42t-64.5 20l6 39h245l4 -39l-62 -12q-20 -4 -20 -26v-539q0 -22 20 -26l62 -12l-4 -39h-245z" />
    <glyph glyph-name="imacron" unicode="&#x12b;" horiz-adv-x="310" 
d="M47 0l-6 39q49 10 59.5 20.5t10.5 36.5v287q0 21 -16 30.5t-60 18.5l6 32q107 14 149 14l11 -10v-396q0 -12 5.5 -15.5t14.5 -5.5l49 -12l-4 -39h-219zM11 642v60h249v-60h-249z" />
    <glyph glyph-name="Ibreve" unicode="&#x12c;" horiz-adv-x="337" 
d="M50 0l-6 39q53 9 64.5 20t11.5 42v491q0 31 -11.5 42t-64.5 20l6 39h245l4 -39l-62 -12q-20 -4 -20 -26v-539q0 -22 20 -26l62 -12l-4 -39h-245zM281 900h37q-4 -62 -41 -101t-108 -39t-108 39t-41 101h37q17 -72 112 -72t112 72z" />
    <glyph glyph-name="ibreve" unicode="&#x12d;" horiz-adv-x="310" 
d="M47 0l-6 39q49 10 59.5 20.5t10.5 36.5v287q0 21 -16 30.5t-60 18.5l6 32q107 14 149 14l11 -10v-396q0 -12 5.5 -15.5t14.5 -5.5l49 -12l-4 -39h-219zM255 720h37q-4 -67 -41 -110t-108 -43t-108 43t-41 110h37q17 -85 112 -85t112 85z" />
    <glyph glyph-name="Iogonek" unicode="&#x12e;" horiz-adv-x="337" 
d="M262 -169q-51 -46 -110 -46q-39 0 -68.5 25.5t-29.5 64.5q0 58 61 105q15 11 33 20h-98l-6 39q53 9 64.5 20t11.5 42v491q0 31 -11.5 42t-64.5 20l6 39h245l4 -39l-62 -12q-20 -4 -20 -26v-539q0 -22 20 -26l62 -12l-4 -39h-18q-60 -2 -101 -31.5t-41 -73.5
q0 -26 15.5 -40t43 -14t56.5 10z" />
    <glyph glyph-name="iogonek" unicode="&#x12f;" horiz-adv-x="310" 
d="M242 -169q-51 -46 -110 -46q-39 0 -68.5 25.5t-29.5 64.5q0 58 61 105q15 11 33 20h-81l-6 39q49 10 59.5 20.5t10.5 36.5v287q0 21 -16 30.5t-60 18.5l6 32q107 14 149 14l11 -10v-396q0 -12 5.5 -15.5t14.5 -5.5l49 -12l-4 -39h-9q-60 -2 -101 -31.5t-41 -73.5
q0 -26 15.5 -40t43 -14t56.5 10zM186.5 614q-15.5 -17 -41 -17t-42 15t-16.5 41.5t15.5 42.5t42.5 16q57 0 57 -56q0 -25 -15.5 -42z" />
    <glyph glyph-name="dotlessi" unicode="&#x131;" horiz-adv-x="310" 
d="M47 0l-6 39q49 10 59.5 20.5t10.5 36.5v287q0 21 -16 30.5t-60 18.5l6 32q107 14 149 14l11 -10v-396q0 -12 5.5 -15.5t14.5 -5.5l49 -12l-4 -39h-219z" />
    <glyph glyph-name="IJ" unicode="&#x132;" horiz-adv-x="673" 
d="M50 0l-6 39q53 9 64.5 20t11.5 42v491q0 31 -11.5 42t-64.5 20l6 39h245l4 -39l-62 -12q-20 -4 -20 -26v-539q0 -22 20 -26l62 -12l-4 -39h-245zM556 622v-494q0 -91 -51.5 -169t-105.5 -78q-43 0 -83 8q-3 12 -3 35t19 53q47 -11 66 -11t32 8q29 20 29 184v434
q0 30 -15.5 41t-70.5 21l6 39h265l4 -39l-72 -12q-20 -4 -20 -20z" />
    <glyph glyph-name="ij" unicode="&#x133;" horiz-adv-x="590" 
d="M47 0l-6 39q49 10 59.5 20.5t10.5 36.5v287q0 21 -16 30.5t-60 18.5l6 32q107 14 149 14l11 -10v-396q0 -12 5.5 -15.5t14.5 -5.5l49 -12l-4 -39h-219zM186.5 614q-15.5 -17 -41 -17t-42 15t-16.5 41.5t15.5 42.5t42.5 16q57 0 57 -56q0 -25 -15.5 -42zM410 68v315
q0 21 -16 30.5t-60 18.5l6 32q107 14 149 14l11 -10v-430q0 -94 -56 -175.5t-108 -81.5q-36 0 -76 7q-3 12 -3 33t17 49q40 -10 60.5 -10t30.5 7q21 14 33 71.5t12 129.5zM485.5 614q-15.5 -17 -41 -17t-42 15t-16.5 41.5t15.5 42.5t42.5 16q57 0 57 -56q0 -25 -15.5 -42z
" />
    <glyph glyph-name="Jcircumflex" unicode="&#x134;" horiz-adv-x="336" 
d="M219 622v-494q0 -91 -51.5 -169t-105.5 -78q-43 0 -83 8q-3 12 -3 35t19 53q47 -11 66 -11t32 8q29 20 29 184v434q0 30 -15.5 41t-70.5 21l6 39h265l4 -39l-72 -12q-20 -4 -20 -20zM311 749l-139 91l-139 -91l-25 26l136 139h56l136 -139z" />
    <glyph glyph-name="jcircumflex" unicode="&#x135;" horiz-adv-x="280" 
d="M165 755l118 -169l-35 -25l-115 118l-114 -118l-35 25l118 169h63zM100 68v315q0 21 -16 30.5t-60 18.5l6 32q107 14 149 14l11 -10v-430q0 -94 -56 -175.5t-108 -81.5q-36 0 -76 7q-3 12 -3 33t17 49q40 -10 60.5 -10t30.5 7q21 14 33 71.5t12 129.5z" />
    <glyph glyph-name="kcommaaccent" unicode="&#x137;" horiz-adv-x="569" 
d="M40 0l-6 39q49 10 59.5 20.5t10.5 36.5v581q0 21 -16 30.5t-60 18.5l6 32q107 14 149 14l11 -10v-531l172 161q8 9 8 17q0 15 -69 25l6 39h199l4 -39q-46 -7 -55 -16l-137 -131l145 -207q16 -20 35.5 -29t56.5 -12l-6 -39h-139l-155 226l-65 -62v-92q0 -12 5.5 -15.5
t14.5 -5.5l44 -12l-4 -39h-214zM278 -210l-26 25q45 32 45 59q0 16 -11.5 32.5t-11.5 33t13.5 28t34 11.5t35 -16.5t14.5 -47t-23.5 -65.5t-69.5 -60z" />
    <glyph glyph-name="kgreenlandic" unicode="&#x138;" horiz-adv-x="569" 
d="M40 0l-6 39q49 10 59.5 20.5t10.5 36.5v294q0 21 -16 30.5t-60 18.5l6 32q107 14 149 14l11 -10v-244l172 161q8 9 8 17q0 15 -69 25l6 39h199l4 -39q-46 -7 -55 -16l-137 -131l145 -207q16 -20 35.5 -29t56.5 -12l-6 -39h-139l-155 226l-65 -62v-92q0 -12 5.5 -15.5
t14.5 -5.5l44 -12l-4 -39h-214z" />
    <glyph glyph-name="Lacute" unicode="&#x139;" horiz-adv-x="558" 
d="M50 0l-6 39q53 9 64.5 20t11.5 42v491q0 31 -11.5 42t-64.5 20l6 39h245l4 -39l-62 -12q-20 -4 -20 -26v-565l89 1q111 2 130 7q16 5 56 154l55 -5q1 -17 1 -69.5t-11 -138.5h-487zM340 863l-8 -21l-201 -93l-25 36l174 129z" />
    <glyph glyph-name="lacute" unicode="&#x13a;" horiz-adv-x="302" 
d="M40 0l-6 39q49 10 59.5 20.5t10.5 36.5v528q0 21 -16 30.5t-60 18.5l6 32q107 14 149 14l11 -10v-637q0 -12 5.5 -15.5t14.5 -5.5l49 -12l-4 -39h-219zM261 863l-8 -21l-201 -93l-25 36l174 129z" />
    <glyph glyph-name="Lcaron" unicode="&#x13d;" horiz-adv-x="558" 
d="M50 0l-6 39q53 9 64.5 20t11.5 42v491q0 31 -11.5 42t-64.5 20l6 39h245l4 -39l-62 -12q-20 -4 -20 -26v-565l89 1q111 2 130 7q16 5 56 154l55 -5q1 -17 1 -69.5t-11 -138.5h-487zM450 774l12 -19q-9 -96 -65 -178l-42 14q14 53 14 93.5t-4 67.5z" />
    <glyph glyph-name="lcaron" unicode="&#x13e;" horiz-adv-x="303" 
d="M40 0l-6 39q49 10 59.5 20.5t10.5 36.5v581q0 21 -16 30.5t-60 18.5l6 32q107 14 149 14l11 -10v-690q0 -12 5.5 -15.5t14.5 -5.5l49 -12l-4 -39h-219zM348 774l12 -19q-9 -96 -65 -178l-42 14q14 53 14 93.5t-4 67.5z" />
    <glyph glyph-name="Ldotaccent" unicode="&#x13f;" horiz-adv-x="558" 
d="M50 0l-6 39q53 9 64.5 20t11.5 42v491q0 31 -11.5 42t-64.5 20l6 39h245l4 -39l-62 -12q-20 -4 -20 -26v-565l89 1q111 2 130 7q16 5 56 154l55 -5q1 -17 1 -69.5t-11 -138.5h-487zM497 351.5q-16 -17.5 -41 -17.5t-41.5 15t-16.5 41t16 42.5t41 16.5q58 0 58 -56
q0 -24 -16 -41.5z" />
    <glyph glyph-name="ldot" unicode="&#x140;" horiz-adv-x="339" 
d="M40 0l-6 39q49 10 59.5 20.5t10.5 36.5v581q0 21 -16 30.5t-60 18.5l6 32q107 14 149 14l11 -10v-690q0 -12 5.5 -15.5t14.5 -5.5l49 -12l-4 -39h-219zM354 351.5q-16 -17.5 -41 -17.5t-41.5 15t-16.5 41t16 42.5t41 16.5q58 0 58 -56q0 -24 -16 -41.5z" />
    <glyph glyph-name="Lslash" unicode="&#x141;" horiz-adv-x="558" 
d="M50 0l-6 39q53 9 64.5 20t11.5 42v152l-58 -38l-28 43l86 57v277q0 31 -11.5 42t-64.5 20l6 39h245l4 -39l-62 -12q-20 -4 -20 -26v-238l165 109l28 -43l-193 -127v-266l89 1q111 2 130 7q16 5 56 154l55 -5q1 -17 1 -69.5t-11 -138.5h-487z" />
    <glyph glyph-name="lslash" unicode="&#x142;" horiz-adv-x="303" 
d="M40 0l-6 39q49 10 59.5 20.5t10.5 36.5v230l-61 -40l-28 43l89 58v290q0 21 -16 30.5t-60 18.5l6 32q107 14 149 14l11 -10v-316l81 53l28 -43l-109 -71v-313q0 -12 5.5 -15.5t14.5 -5.5l49 -12l-4 -39h-219z" />
    <glyph glyph-name="Nacute" unicode="&#x143;" horiz-adv-x="775" 
d="M540 863l-8 -21l-201 -93l-25 36l174 129zM50 0l-6 39q53 9 64.5 20t11.5 42v491q0 31 -11.5 42t-64.5 20l6 39h77h59h55l342 -504h7v383q0 45 -16.5 60t-79.5 22l6 39h235l4 -39l-62 -12q-20 -4 -20 -26v-616h-59v0h-3l-400 592h-8v-492q0 -25 9.5 -37t34.5 -15l70 -9
l-4 -39h-247z" />
    <glyph glyph-name="nacute" unicode="&#x144;" horiz-adv-x="596" 
d="M47 0l-6 39q49 10 59.5 20.5t10.5 36.5v288q0 26 -12.5 36.5t-63.5 20.5l6 32l129 13q7 0 14.5 -28t7.5 -49v-6l8 -3l12 14q63 74 154 74q64 0 101 -38.5t37 -107.5v-270q0 -12 5.5 -15.5t14.5 -5.5l49 -12l-4 -39h-214l-6 39q45 9 55 20t10 37v216q0 47 -17 75.5
t-66.5 28.5t-107.5 -39q-9 -6 -13 -9q-9 -10 -9 -37v-258q0 -11 3.5 -15t16.5 -7l44 -12l-4 -39h-214zM455 735v-23l-152 -151l-35 25l107 179z" />
    <glyph glyph-name="Ncaron" unicode="&#x147;" horiz-adv-x="775" 
d="M235 917l139 -91l139 91l25 -26l-136 -139h-56l-136 139zM50 0l-6 39q53 9 64.5 20t11.5 42v491q0 31 -11.5 42t-64.5 20l6 39h77h59h55l342 -504h7v383q0 45 -16.5 60t-79.5 22l6 39h235l4 -39l-62 -12q-20 -4 -20 -26v-616h-59v0h-3l-400 592h-8v-492q0 -25 9.5 -37
t34.5 -15l70 -9l-4 -39h-247z" />
    <glyph glyph-name="ncaron" unicode="&#x148;" horiz-adv-x="596" 
d="M47 0l-6 39q49 10 59.5 20.5t10.5 36.5v288q0 26 -12.5 36.5t-63.5 20.5l6 32l129 13q7 0 14.5 -28t7.5 -49v-6l8 -3l12 14q63 74 154 74q64 0 101 -38.5t37 -107.5v-270q0 -12 5.5 -15.5t14.5 -5.5l49 -12l-4 -39h-214l-6 39q45 9 55 20t10 37v216q0 47 -17 75.5
t-66.5 28.5t-107.5 -39q-9 -6 -13 -9q-9 -10 -9 -37v-258q0 -11 3.5 -15t16.5 -7l44 -12l-4 -39h-214zM257 566l-118 169l35 25l115 -118l114 118l35 -25l-118 -169h-63z" />
    <glyph glyph-name="napostrophe" unicode="&#x149;" horiz-adv-x="596" 
d="M47 0l-6 39q49 10 59.5 20.5t10.5 36.5v288q0 26 -12.5 36.5t-63.5 20.5l6 32l129 13q7 0 14.5 -28t7.5 -49v-6l8 -3l12 14q63 74 154 74q64 0 101 -38.5t37 -107.5v-270q0 -12 5.5 -15.5t14.5 -5.5l49 -12l-4 -39h-214l-6 39q45 9 55 20t10 37v216q0 47 -17 75.5
t-66.5 28.5t-107.5 -39q-9 -6 -13 -9q-9 -10 -9 -37v-258q0 -11 3.5 -15t16.5 -7l44 -12l-4 -39h-214zM86 557l-24 23q33 39 33 84q0 14 -13.5 31t-13.5 33t12.5 27t29.5 11q51 0 51 -75.5t-75 -133.5z" />
    <glyph glyph-name="Eng" unicode="&#x14a;" horiz-adv-x="775" 
d="M186 693h55l342 -504h7v383q0 45 -16.5 60t-79.5 22l6 39h235l4 -39l-62 -12q-20 -4 -20 -26v-447v-66q0 -322 -165 -322q-26 0 -52 7q-3 12 -3 33t17 49q40 -10 60.5 -10t30.5 7q21 14 33 71q7 34 10 72l-393 582h-8v-492q0 -25 9.5 -37t34.5 -15l70 -9l-4 -39h-247
l-6 39q53 9 64.5 20t11.5 42v491q0 31 -11.5 42t-64.5 20l6 39h77h59z" />
    <glyph glyph-name="eng" unicode="&#x14b;" horiz-adv-x="594" 
d="M414 68v244q0 47 -17 75.5t-66.5 28.5t-107.5 -39q-9 -6 -13 -9q-9 -10 -9 -37v-258q0 -11 3.5 -15t16.5 -7l44 -12l-4 -39h-214l-6 39q49 10 59.5 20.5t10.5 36.5v288q0 26 -12.5 36.5t-63.5 20.5l6 32l129 13q7 0 14.5 -28t7.5 -49v-6l8 -3l12 14q63 74 154 74
q64 0 101 -38.5t37 -107.5v-304q0 -94 -56 -175.5t-108 -81.5q-36 0 -76 7q-3 12 -3 33t17 49q40 -10 60.5 -10t30.5 7q21 14 33 71.5t12 129.5z" />
    <glyph glyph-name="Omacron" unicode="&#x14c;" horiz-adv-x="711" 
d="M117 84.5q-82 93.5 -82 256t87 262t238.5 99.5t233.5 -91.5t82 -254t-87 -264t-238.5 -101.5t-233.5 93.5zM364 44q54 0 94.5 25t63.5 69q43 85 43 214t-56.5 213t-161.5 84q-54 0 -94.5 -24.5t-62.5 -67.5q-44 -83 -44 -211.5t56 -215t162 -86.5zM239 776v60h249v-60
h-249z" />
    <glyph glyph-name="omacron" unicode="&#x14d;" horiz-adv-x="520" 
d="M90 55q-58 64 -58 179t61.5 184.5t170 69.5t166.5 -64.5t58 -179.5t-61.5 -184t-170 -69t-166.5 64zM165 101q36 -57 98 -57t88 30q18 20 29 63.5t11 94.5q0 89 -36 146t-98 57t-88 -30q-18 -20 -29 -63.5t-11 -94.5q0 -89 36 -146zM141 642v60h249v-60h-249z" />
    <glyph glyph-name="Obreve" unicode="&#x14e;" horiz-adv-x="711" 
d="M117 84.5q-82 93.5 -82 256t87 262t238.5 99.5t233.5 -91.5t82 -254t-87 -264t-238.5 -101.5t-233.5 93.5zM364 44q54 0 94.5 25t63.5 69q43 85 43 214t-56.5 213t-161.5 84q-54 0 -94.5 -24.5t-62.5 -67.5q-44 -83 -44 -211.5t56 -215t162 -86.5zM478 900h37
q-4 -62 -41 -101t-108 -39t-108 39t-41 101h37q17 -72 112 -72t112 72z" />
    <glyph glyph-name="obreve" unicode="&#x14f;" horiz-adv-x="520" 
d="M90 55q-58 64 -58 179t61.5 184.5t170 69.5t166.5 -64.5t58 -179.5t-61.5 -184t-170 -69t-166.5 64zM165 101q36 -57 98 -57t88 30q18 20 29 63.5t11 94.5q0 89 -36 146t-98 57t-88 -30q-18 -20 -29 -63.5t-11 -94.5q0 -89 36 -146zM379 720h37q-4 -67 -41 -110t-108 -43
t-108 43t-41 110h37q17 -85 112 -85t112 85z" />
    <glyph glyph-name="Ohungarumlaut" unicode="&#x150;" horiz-adv-x="711" 
d="M117 84.5q-82 93.5 -82 256t87 262t238.5 99.5t233.5 -91.5t82 -254t-87 -264t-238.5 -101.5t-233.5 93.5zM364 44q54 0 94.5 25t63.5 69q43 85 43 214t-56.5 213t-161.5 84q-54 0 -94.5 -24.5t-62.5 -67.5q-44 -83 -44 -211.5t56 -215t162 -86.5zM620 885v-23l-177 -111
l-35 25l117 139zM422 885v-23l-177 -111l-35 25l117 139z" />
    <glyph glyph-name="ohungarumlaut" unicode="&#x151;" horiz-adv-x="520" 
d="M90 55q-58 64 -58 179t61.5 184.5t170 69.5t166.5 -64.5t58 -179.5t-61.5 -184t-170 -69t-166.5 64zM165 101q36 -57 98 -57t88 30q18 20 29 63.5t11 94.5q0 89 -36 146t-98 57t-88 -30q-18 -20 -29 -63.5t-11 -94.5q0 -89 36 -146zM490 735v-23l-167 -151l-35 25
l107 179zM292 735v-23l-167 -151l-35 25l107 179z" />
    <glyph glyph-name="OE" unicode="&#x152;" horiz-adv-x="993" 
d="M348 -9q-149 0 -231 93.5t-82 256t87 262t241 99.5q19 0 66 -2q165 -7 488 -7q6 -37 6 -73.5t-2 -82.5l-57 -7q-14 69 -20 86.5t-14 18.5q-24 3 -61 4l-151 3v-269h150q13 0 32 71l31 -3q0 -73 2.5 -102t3 -35t4 -29t4.5 -32l-36 -6q-16 57 -21.5 70t-12.5 13h-157v-269
l86 1q130 2 147 14q10 7 42 117l55 -4q1 -13 1 -59t-11 -120q-371 0 -473.5 -4.5t-116.5 -4.5zM364 44q106 0 130 24q27 27 27 82v399q0 63 -32 81.5t-117 18.5q-226 0 -226 -294q0 -138 56 -224.5t162 -86.5z" />
    <glyph glyph-name="oe" unicode="&#x153;" horiz-adv-x="835" 
d="M802 279l-26 -19l-290 -16q0 -102 39 -143.5t110.5 -41.5t137.5 34l21 -33q-33 -27 -86 -48t-111 -21q-112 0 -165 91q-57 -91 -178 -91q-106 0 -164 64t-58 179t61.5 184.5t177 69.5t170.5 -97q62 97 183 97q170 0 178 -209zM489 290l207 18q10 1 10 19q0 44 -23.5 76
t-79.5 32t-81.5 -37.5t-32.5 -107.5zM354 378.5q-35 56.5 -97 56.5t-88 -30q-18 -20 -29 -63.5t-11 -94.5q0 -89 36 -146t98 -57t88 30q38 45 38 146.5t-35 158z" />
    <glyph glyph-name="Racute" unicode="&#x154;" horiz-adv-x="632" 
d="M50 0l-6 39q53 9 64.5 20t11.5 42v491q0 31 -11.5 42t-64.5 20l6 39h278q107 0 159 -44t52 -119t-41 -130.5t-115 -80.5v-5q10 -3 22 -22l141 -212q15 -22 29.5 -30t52.5 -11l-6 -39h-142l-198 304h-65v-227q0 -22 20 -26l55 -12l-4 -39h-238zM217 355h55
q79 0 119.5 34.5t40.5 126.5q0 124 -135 124h-60q-20 0 -20 -24v-261zM440 863l-8 -21l-201 -93l-25 36l174 129z" />
    <glyph glyph-name="racute" unicode="&#x155;" horiz-adv-x="432" 
d="M40 0l-6 39q53 9 65 20t12 37v288q0 26 -13.5 37.5t-69.5 19.5l6 32l136 13q7 0 15 -20t8 -41.5t-4 -49.5l8 -3l13 29q18 40 54.5 63.5t74 23.5t69.5 -16q0 -82 -15 -164l-49 -5q-8 84 -16 95.5t-26.5 11.5t-43.5 -16.5t-41 -35t-16 -60.5v-226q0 -13 5.5 -16.5
t14.5 -4.5l91 -12l-4 -39h-268zM365 735v-23l-152 -151l-35 25l107 179z" />
    <glyph glyph-name="Rcommaaccent" unicode="&#x156;" horiz-adv-x="632" 
d="M50 0l-6 39q53 9 64.5 20t11.5 42v491q0 31 -11.5 42t-64.5 20l6 39h278q107 0 159 -44t52 -119t-41 -130.5t-115 -80.5v-5q10 -3 22 -22l141 -212q15 -22 29.5 -30t52.5 -11l-6 -39h-142l-198 304h-65v-227q0 -22 20 -26l55 -12l-4 -39h-238zM217 355h55
q79 0 119.5 34.5t40.5 126.5q0 124 -135 124h-60q-20 0 -20 -24v-261zM301 -210l-26 25q45 32 45 59q0 16 -11.5 32.5t-11.5 33t13.5 28t34 11.5t35 -16.5t14.5 -47t-23.5 -65.5t-69.5 -60z" />
    <glyph glyph-name="rcommaaccent" unicode="&#x157;" horiz-adv-x="432" 
d="M40 0l-6 39q53 9 65 20t12 37v288q0 26 -13.5 37.5t-69.5 19.5l6 32l136 13q7 0 15 -20t8 -41.5t-4 -49.5l8 -3l13 29q18 40 54.5 63.5t74 23.5t69.5 -16q0 -82 -15 -164l-49 -5q-8 84 -16 95.5t-26.5 11.5t-43.5 -16.5t-41 -35t-16 -60.5v-226q0 -13 5.5 -16.5
t14.5 -4.5l91 -12l-4 -39h-268zM118 -210l-26 25q45 31 45 59q0 16 -11.5 32.5t-11.5 33t13.5 28t34 11.5t35 -16.5t14.5 -47t-23.5 -65.5t-69.5 -60z" />
    <glyph glyph-name="Rcaron" unicode="&#x158;" horiz-adv-x="632" 
d="M50 0l-6 39q53 9 64.5 20t11.5 42v491q0 31 -11.5 42t-64.5 20l6 39h278q107 0 159 -44t52 -119t-41 -130.5t-115 -80.5v-5q10 -3 22 -22l141 -212q15 -22 29.5 -30t52.5 -11l-6 -39h-142l-198 304h-65v-227q0 -22 20 -26l55 -12l-4 -39h-238zM217 355h55
q79 0 119.5 34.5t40.5 126.5q0 124 -135 124h-60q-20 0 -20 -24v-261zM152 917l139 -91l139 91l25 -26l-136 -139h-56l-136 139z" />
    <glyph glyph-name="rcaron" unicode="&#x159;" horiz-adv-x="432" 
d="M40 0l-6 39q53 9 65 20t12 37v288q0 26 -13.5 37.5t-69.5 19.5l6 32l136 13q7 0 15 -20t8 -41.5t-4 -49.5l8 -3l13 29q18 40 54.5 63.5t74 23.5t69.5 -16q0 -82 -15 -164l-49 -5q-8 84 -16 95.5t-26.5 11.5t-43.5 -16.5t-41 -35t-16 -60.5v-226q0 -13 5.5 -16.5
t14.5 -4.5l91 -12l-4 -39h-268zM164 566l-118 169l35 25l115 -118l114 118l35 -25l-118 -169h-63z" />
    <glyph glyph-name="Sacute" unicode="&#x15a;" horiz-adv-x="523" 
d="M187.5 58.5q38.5 -11.5 86.5 -11.5t80 29t32 78q0 76 -86 124q-22 11 -68 30.5t-65 29t-44.5 27t-39.5 35.5q-35 43 -35 105q0 91 67.5 144t175.5 53q82 0 154 -27q3 -24 3 -63.5t-11 -105.5l-58 -7q-11 113 -27 126q-24 21 -87.5 21t-98.5 -25.5t-35 -74.5q0 -28 11 -50
t40 -41t46 -27q25 -13 70 -32t70 -33t54 -37q56 -47 56 -136t-63.5 -144t-173.5 -55q-59 0 -117.5 14.5t-85.5 28.5q-3 12 -3 57t12 109l57 3q8 -72 13.5 -93t14.5 -28q17 -12 55.5 -23.5zM428 863l-8 -21l-201 -93l-25 36l174 129z" />
    <glyph glyph-name="sacute" unicode="&#x15b;" horiz-adv-x="437" 
d="M224 435q-88 0 -88 -60q0 -24 12 -35.5t17.5 -17t21.5 -13.5t22.5 -11.5t26.5 -11.5q84 -35 118 -66t34 -88t-50.5 -99t-138.5 -42q-39 0 -81 8t-61 16q-2 13 -2 53t9 87l52 4q7 -64 10.5 -78.5t10.5 -18.5q32 -18 84 -18q81 0 81 65q0 31 -24 51q-27 22 -62 37
q-92 38 -125.5 69.5t-33.5 87.5t51 95t123 39t132 -25q1 -8 1 -45t-13 -78l-46 -5q-7 78 -22.5 89t-58.5 11zM380 735v-23l-152 -151l-35 25l107 179z" />
    <glyph glyph-name="Scircumflex" unicode="&#x15c;" horiz-adv-x="523" 
d="M187.5 58.5q38.5 -11.5 86.5 -11.5t80 29t32 78q0 76 -86 124q-22 11 -68 30.5t-65 29t-44.5 27t-39.5 35.5q-35 43 -35 105q0 91 67.5 144t175.5 53q82 0 154 -27q3 -24 3 -63.5t-11 -105.5l-58 -7q-11 113 -27 126q-24 21 -87.5 21t-98.5 -25.5t-35 -74.5q0 -28 11 -50
t40 -41t46 -27q25 -13 70 -32t70 -33t54 -37q56 -47 56 -136t-63.5 -144t-173.5 -55q-59 0 -117.5 14.5t-85.5 28.5q-3 12 -3 57t12 109l57 3q8 -72 13.5 -93t14.5 -28q17 -12 55.5 -23.5zM412 749l-139 91l-139 -91l-25 26l136 139h56l136 -139z" />
    <glyph glyph-name="scircumflex" unicode="&#x15d;" horiz-adv-x="437" 
d="M224 435q-88 0 -88 -60q0 -24 12 -35.5t17.5 -17t21.5 -13.5t22.5 -11.5t26.5 -11.5q84 -35 118 -66t34 -88t-50.5 -99t-138.5 -42q-39 0 -81 8t-61 16q-2 13 -2 53t9 87l52 4q7 -64 10.5 -78.5t10.5 -18.5q32 -18 84 -18q81 0 81 65q0 31 -24 51q-27 22 -62 37
q-92 38 -125.5 69.5t-33.5 87.5t51 95t123 39t132 -25q1 -8 1 -45t-13 -78l-46 -5q-7 78 -22.5 89t-58.5 11zM262 755l118 -169l-35 -25l-115 118l-114 -118l-35 25l118 169h63z" />
    <glyph glyph-name="Scedilla" unicode="&#x15e;" horiz-adv-x="523" 
d="M206 -217l-4 31q44 5 69.5 20.5t25.5 34.5t-12 30t-34.5 11t-40.5 -10l-9 11l24 80q-51 2 -101 15q-59 14 -86 28q-3 12 -3 57t12 109l57 3q8 -72 13.5 -93t14.5 -28q17 -12 55.5 -23.5t86.5 -11.5t80 29t32 78q0 76 -86 124q-22 11 -68 30.5t-65 29t-44.5 27t-39.5 35.5
q-35 43 -35 105q0 91 67.5 144t175.5 53q82 0 154 -27q3 -24 3 -63.5t-11 -105.5l-58 -7q-11 113 -27 126q-24 21 -87.5 21t-98.5 -25.5t-35 -74.5q0 -28 11 -50t40 -41t46 -27q25 -13 70 -32t70 -33t54 -37q56 -47 56 -136t-64 -144q-52 -45 -136 -53l-11 -41q16 3 35 3
q32 0 54.5 -17t22.5 -47q0 -42 -46.5 -73t-126.5 -35z" />
    <glyph glyph-name="scedilla" unicode="&#x15f;" horiz-adv-x="437" 
d="M224 435q-88 0 -88 -60q0 -24 12 -35.5t17.5 -17t21.5 -13.5t22.5 -11.5t26.5 -11.5q84 -35 118 -66t34 -88t-50.5 -99t-138.5 -42q-39 0 -81 8t-61 16q-2 13 -2 53t9 87l52 4q7 -64 10.5 -78.5t10.5 -18.5q32 -18 84 -18q81 0 81 65q0 31 -24 51q-27 22 -62 37
q-92 38 -125.5 69.5t-33.5 87.5t51 95t123 39t132 -25q1 -8 1 -45t-13 -78l-46 -5q-7 78 -22.5 89t-58.5 11zM160 -217l-4 31q95 13 95 58q0 16 -12 27t-34.5 11t-40.5 -10l-9 11l38 129l49 -13l-21 -75q16 3 35 3q32 0 54.5 -17t22.5 -47q0 -42 -46.5 -73t-126.5 -35z" />
    <glyph glyph-name="Scaron" unicode="&#x160;" horiz-adv-x="523" 
d="M187.5 58.5q38.5 -11.5 86.5 -11.5t80 29t32 78q0 76 -86 124q-22 11 -68 30.5t-65 29t-44.5 27t-39.5 35.5q-35 43 -35 105q0 91 67.5 144t175.5 53q82 0 154 -27q3 -24 3 -63.5t-11 -105.5l-58 -7q-11 113 -27 126q-24 21 -87.5 21t-98.5 -25.5t-35 -74.5q0 -28 11 -50
t40 -41t46 -27q25 -13 70 -32t70 -33t54 -37q56 -47 56 -136t-63.5 -144t-173.5 -55q-59 0 -117.5 14.5t-85.5 28.5q-3 12 -3 57t12 109l57 3q8 -72 13.5 -93t14.5 -28q17 -12 55.5 -23.5zM142 917l139 -91l139 91l25 -26l-136 -139h-56l-136 139z" />
    <glyph glyph-name="scaron" unicode="&#x161;" horiz-adv-x="437" 
d="M224 435q-88 0 -88 -60q0 -24 12 -35.5t17.5 -17t21.5 -13.5t22.5 -11.5t26.5 -11.5q84 -35 118 -66t34 -88t-50.5 -99t-138.5 -42q-39 0 -81 8t-61 16q-2 13 -2 53t9 87l52 4q7 -64 10.5 -78.5t10.5 -18.5q32 -18 84 -18q81 0 81 65q0 31 -24 51q-27 22 -62 37
q-92 38 -125.5 69.5t-33.5 87.5t51 95t123 39t132 -25q1 -8 1 -45t-13 -78l-46 -5q-7 78 -22.5 89t-58.5 11zM187 566l-118 169l35 25l115 -118l114 118l35 -25l-118 -169h-63z" />
    <glyph glyph-name="Tcaron" unicode="&#x164;" horiz-adv-x="577" 
d="M149 39q63 10 77 20.5t14 41.5v540q-129 -2 -138 -6t-14 -9q-12 -16 -29 -113l-51 4q-1 15 -1 58.5t9 117.5h545q9 -74 9 -117.5t-1 -58.5l-51 -4q-17 97 -30 113q-4 5 -13 9t-138 6v-564q0 -23 20 -26l77 -12l-4 -39h-275zM149 917l139 -91l139 91l25 -26l-136 -139h-56
l-136 139z" />
    <glyph glyph-name="tcaron" unicode="&#x165;" horiz-adv-x="350" 
d="M85 137v275h-65l-4 43l49 12q19 5 25.5 22.5t23.5 111.5l61 6v-134h139l-8 -47l-131 -15v-244q0 -104 64 -104q36 0 76 30l21 -29q-54 -73 -132 -73q-56 0 -87.5 39t-31.5 107zM317 774l12 -19q-9 -96 -65 -178l-42 14q14 53 14 93.5t-4 67.5z" />
    <glyph glyph-name="Tbar" unicode="&#x166;" horiz-adv-x="577" 
d="M63 344v53h177v244q-129 -2 -138 -6t-14 -9q-12 -16 -29 -113l-51 4q-1 15 -1 58.5t9 117.5h545q9 -74 9 -117.5t-1 -58.5l-51 -4q-17 97 -30 113q-4 5 -13 9t-138 6v-244h177v-53h-177v-267q0 -23 20 -26l77 -12l-4 -39h-275l-6 39q63 10 77 20.5t14 41.5v243h-177z" />
    <glyph glyph-name="tbar" unicode="&#x167;" horiz-adv-x="350" 
d="M18 252v53h67v107h-65l-4 43l49 12q19 5 25.5 22.5t23.5 111.5l61 6v-134h139l-8 -47l-131 -15v-106h136v-53h-136v-85q0 -104 64 -104q36 0 76 30l21 -29q-54 -73 -132 -73q-56 0 -87.5 39t-31.5 107v115h-67z" />
    <glyph glyph-name="Utilde" unicode="&#x168;" horiz-adv-x="736" 
d="M574 573q0 44 -16.5 59t-79.5 22l6 39h235l4 -39l-62 -12q-18 -4 -19 -14q-1 -4 -1 -12v-359q0 -123 -67 -194.5t-201 -71.5q-258 0 -258 258v343q0 31 -11.5 42t-64.5 20l6 39h245l4 -39l-62 -12q-20 -4 -20 -26v-352q0 -102 42 -154t136.5 -52t139 56t44.5 135v324z
M540 891l25 -12q-21 -46 -42.5 -73.5t-44 -27.5t-89 13.5t-90.5 13.5q-38 0 -72 -34l-23 16q32 53 55 74.5t46 21.5t87.5 -13.5t89.5 -13.5t58 35z" />
    <glyph glyph-name="utilde" unicode="&#x169;" horiz-adv-x="577" 
d="M92 124v264q0 21 -16 30.5t-60 18.5l6 32q107 14 149 14l11 -10v-306q0 -104 79 -104q51 0 106 39q13 9 17 17.5t4 28.5v240q0 21 -16 30.5t-60 18.5l6 32q107 14 149 14l11 -10v-374q0 -26 12.5 -36.5t63.5 -20.5l-6 -32l-129 -14q-7 -1 -14.5 26.5t-7.5 47.5v6l-8 3
l-12 -14q-63 -74 -154 -74q-61 0 -96 32.5t-35 100.5zM444 715l25 -13q-21 -49 -42.5 -78t-44 -29t-89 21t-90.5 21q-38 0 -72 -42l-23 17q32 56 55 79t46 23t87.5 -21t89 -21t58.5 43z" />
    <glyph glyph-name="Umacron" unicode="&#x16a;" horiz-adv-x="736" 
d="M574 573q0 44 -16.5 59t-79.5 22l6 39h235l4 -39l-62 -12q-18 -4 -19 -14q-1 -4 -1 -12v-359q0 -123 -67 -194.5t-201 -71.5q-258 0 -258 258v343q0 31 -11.5 42t-64.5 20l6 39h245l4 -39l-62 -12q-20 -4 -20 -26v-352q0 -102 42 -154t136.5 -52t139 56t44.5 135v324z
M251 776v60h249v-60h-249z" />
    <glyph glyph-name="umacron" unicode="&#x16b;" horiz-adv-x="577" 
d="M92 124v264q0 21 -16 30.5t-60 18.5l6 32q107 14 149 14l11 -10v-306q0 -104 79 -104q51 0 106 39q13 9 17 17.5t4 28.5v240q0 21 -16 30.5t-60 18.5l6 32q107 14 149 14l11 -10v-374q0 -26 12.5 -36.5t63.5 -20.5l-6 -32l-129 -14q-7 -1 -14.5 26.5t-7.5 47.5v6l-8 3
l-12 -14q-63 -74 -154 -74q-61 0 -96 32.5t-35 100.5zM152 642v60h249v-60h-249z" />
    <glyph glyph-name="Ubreve" unicode="&#x16c;" horiz-adv-x="736" 
d="M574 573q0 44 -16.5 59t-79.5 22l6 39h235l4 -39l-62 -12q-18 -4 -19 -14q-1 -4 -1 -12v-359q0 -123 -67 -194.5t-201 -71.5q-258 0 -258 258v343q0 31 -11.5 42t-64.5 20l6 39h245l4 -39l-62 -12q-20 -4 -20 -26v-352q0 -102 42 -154t136.5 -52t139 56t44.5 135v324z
M491 900h37q-4 -62 -41 -101t-108 -39t-108 39t-41 101h37q17 -72 112 -72t112 72z" />
    <glyph glyph-name="ubreve" unicode="&#x16d;" horiz-adv-x="577" 
d="M92 124v264q0 21 -16 30.5t-60 18.5l6 32q107 14 149 14l11 -10v-306q0 -104 79 -104q51 0 106 39q13 9 17 17.5t4 28.5v240q0 21 -16 30.5t-60 18.5l6 32q107 14 149 14l11 -10v-374q0 -26 12.5 -36.5t63.5 -20.5l-6 -32l-129 -14q-7 -1 -14.5 26.5t-7.5 47.5v6l-8 3
l-12 -14q-63 -74 -154 -74q-61 0 -96 32.5t-35 100.5zM390 720h37q-4 -67 -41 -110t-108 -43t-108 43t-41 110h37q17 -85 112 -85t112 85z" />
    <glyph glyph-name="Uring" unicode="&#x16e;" horiz-adv-x="736" 
d="M574 573q0 44 -16.5 59t-79.5 22l6 39h235l4 -39l-62 -12q-18 -4 -19 -14q-1 -4 -1 -12v-359q0 -123 -67 -194.5t-201 -71.5q-258 0 -258 258v343q0 31 -11.5 42t-64.5 20l6 39h245l4 -39l-62 -12q-20 -4 -20 -26v-352q0 -102 42 -154t136.5 -52t139 56t44.5 135v324z
M442.5 765q-29.5 -26 -71 -26t-69 23.5t-27.5 64.5t29.5 66.5t70.5 25.5t69 -24t28 -64t-29.5 -66zM337 794q13 -12 34.5 -12t36 14t14.5 35t-13 33t-33 12q-52 0 -52 -49q0 -21 13 -33z" />
    <glyph glyph-name="uring" unicode="&#x16f;" horiz-adv-x="577" 
d="M92 124v264q0 21 -16 30.5t-60 18.5l6 32q107 14 149 14l11 -10v-306q0 -104 79 -104q51 0 106 39q13 9 17 17.5t4 28.5v240q0 21 -16 30.5t-60 18.5l6 32q107 14 149 14l11 -10v-374q0 -26 12.5 -36.5t63.5 -20.5l-6 -32l-129 -14q-7 -1 -14.5 26.5t-7.5 47.5v6l-8 3
l-12 -14q-63 -74 -154 -74q-61 0 -96 32.5t-35 100.5zM337.5 591q-26.5 -27 -73.5 -27t-72 24.5t-25 69.5t26.5 71t73.5 26t72 -24.5t25 -68.5t-26.5 -71zM263 607q24 0 37.5 15.5t13.5 40.5q0 49 -46 49q-24 0 -38 -15t-14 -40q0 -50 47 -50z" />
    <glyph glyph-name="Uhungarumlaut" unicode="&#x170;" horiz-adv-x="736" 
d="M574 573q0 44 -16.5 59t-79.5 22l6 39h235l4 -39l-62 -12q-18 -4 -19 -14q-1 -4 -1 -12v-359q0 -123 -67 -194.5t-201 -71.5q-258 0 -258 258v343q0 31 -11.5 42t-64.5 20l6 39h245l4 -39l-62 -12q-20 -4 -20 -26v-352q0 -102 42 -154t136.5 -52t139 56t44.5 135v324z
M643 885v-23l-177 -111l-35 25l117 139zM445 885v-23l-177 -111l-35 25l117 139z" />
    <glyph glyph-name="uhungarumlaut" unicode="&#x171;" horiz-adv-x="577" 
d="M92 124v264q0 21 -16 30.5t-60 18.5l6 32q107 14 149 14l11 -10v-306q0 -104 79 -104q51 0 106 39q13 9 17 17.5t4 28.5v240q0 21 -16 30.5t-60 18.5l6 32q107 14 149 14l11 -10v-374q0 -26 12.5 -36.5t63.5 -20.5l-6 -32l-129 -14q-7 -1 -14.5 26.5t-7.5 47.5v6l-8 3
l-12 -14q-63 -74 -154 -74q-61 0 -96 32.5t-35 100.5zM506 735v-23l-167 -151l-35 25l107 179zM308 735v-23l-167 -151l-35 25l107 179z" />
    <glyph glyph-name="Uogonek" unicode="&#x172;" horiz-adv-x="736" 
d="M574 573q0 44 -16.5 59t-79.5 22l6 39h235l4 -39l-62 -12q-18 -4 -19 -14q-1 -4 -1 -12v-359q0 -123 -67 -195q-40 -43 -105 -60q-47 -16 -73 -42q-29 -28 -29 -58.5t15.5 -45.5t43 -15t56.5 10l12 -20q-51 -46 -110 -46q-39 0 -68.5 27.5t-29.5 72t46 83.5q14 13 33 23
q-250 4 -250 258v343q0 31 -11.5 42t-64.5 20l6 39h245l4 -39l-62 -12q-20 -4 -20 -26v-352q0 -102 42 -154t136.5 -52t139 56t44.5 135v324z" />
    <glyph glyph-name="uogonek" unicode="&#x173;" horiz-adv-x="577" 
d="M92 124v264q0 21 -16 30.5t-60 18.5l6 32q107 14 149 14l11 -10v-306q0 -104 79 -104q51 0 106 39q13 9 17 17.5t4 28.5v240q0 21 -16 30.5t-60 18.5l6 32q107 14 149 14l11 -10v-374q0 -26 12.5 -36.5t63.5 -20.5l-6 -32l-22 -2q-36 -7 -62 -32q-35 -33 -35 -81
q0 -26 15.5 -40t43 -14t56.5 10l12 -20q-51 -46 -110 -46q-39 0 -68.5 25.5t-29.5 64.5q0 61 54 111q7 6 14 11q-6 4 -12 25q-7 28 -7 48v6l-8 3l-12 -14q-63 -74 -154 -74q-61 0 -96 32.5t-35 100.5z" />
    <glyph glyph-name="Wcircumflex" unicode="&#x174;" horiz-adv-x="930" 
d="M591 -9l-108 364q-5 15 -5 26h-8q0 -11 -6 -26l-121 -364h-71l-209 619q-7 21 -18 27.5t-49 15.5l7 40h223l4 -41l-56 -19q-7 -1 -7 -5.5t4 -16.5l139 -449q9 -32 9 -34h10l115 364l-35 118q-3 12 -6.5 18t-12.5 11q-12 6 -41 14l7 40h211l4 -41l-71 -19q-7 -1 -7 -5.5
t4 -16.5l132 -449q9 -31 9 -34h10l140 441q11 37 11 49q0 22 -77 35l6 40h205l4 -42q-41 -9 -53 -19t-21 -37l-200 -604h-72zM604 749l-139 91l-139 -91l-25 26l136 139h56l136 -139z" />
    <glyph glyph-name="wcircumflex" unicode="&#x175;" horiz-adv-x="754" 
d="M207 -9l-145 407q-7 19 -14 24t-40 12l6 39h185l4 -39l-44 -14q-7 -1 -7 -7q0 -1 4 -13l92 -288q4 -10 4 -24v-4h8q0 11 8 30l91 227l-19 57q-6 18 -12.5 23.5t-31.5 12.5l6 39h164l4 -39l-44 -14q-7 -1 -7 -7q0 -1 4 -13l91 -288q4 -12 4 -24v-4h8q0 6 8 30l91 261
q6 16 6 21.5t-0.5 8t-2.5 5t-3.5 4t-5 3.5t-6 3.5t-7.5 3.5t-8.5 3t-9.5 3.5t-10 3.5l6 39h164l4 -39q-32 -8 -39 -10.5t-8 -6.5l-166 -426h-65l-82 252q-5 15 -5 27h-8q0 -11 -6 -26l-101 -253h-65zM411 755l118 -169l-35 -25l-115 118l-114 -118l-35 25l118 169h63z" />
    <glyph glyph-name="Ycircumflex" unicode="&#x176;" horiz-adv-x="598" 
d="M319 361l111 215q21 40 21 49t-12.5 14.5t-47.5 13.5l6 40h198l4 -42q-44 -9 -61 -19.5t-29 -34.5l-158 -310v-210q0 -23 20 -26l77 -12l-4 -39h-275l-6 39q63 10 77 20.5t14 41.5v178l-180 331q-13 22 -23.5 28.5t-45.5 14.5l7 40h235l4 -41l-67 -18q-7 -1 -7 -6t7 -17
l115 -221q10 -17 10 -29h10zM452 749l-139 91l-139 -91l-25 26l136 139h56l136 -139z" />
    <glyph glyph-name="ycircumflex" unicode="&#x177;" horiz-adv-x="500" 
d="M29 -117q24 -3 66.5 -3t67.5 10.5t60 109.5l-166 398q-8 19 -14.5 24t-38.5 12l6 39h206l4 -39l-61 -15q-7 -1 -7 -8q0 -1 4 -13l102 -267q5 -14 5 -31h8l106 275q6 16 6 26.5t-14.5 17.5t-51.5 15l6 39h178l4 -39q-44 -10 -47 -17l-158 -392q-20 -50 -32 -76.5
t-33 -59.5t-44 -51q-57 -43 -138 -57q-26 26 -26 82q0 6 2 20zM299 755l118 -169l-35 -25l-115 118l-114 -118l-35 25l118 169h63z" />
    <glyph glyph-name="Ydieresis" unicode="&#x178;" horiz-adv-x="598" 
d="M319 361l111 215q21 40 21 49t-12.5 14.5t-47.5 13.5l6 40h198l4 -42q-44 -9 -61 -19.5t-29 -34.5l-158 -310v-210q0 -23 20 -26l77 -12l-4 -39h-275l-6 39q63 10 77 20.5t14 41.5v178l-180 331q-13 22 -23.5 28.5t-45.5 14.5l7 40h235l4 -41l-67 -18q-7 -1 -7 -6t7 -17
l115 -221q10 -17 10 -29h10zM414 775q-52 0 -52 56q0 22 14.5 38t37.5 16q53 0 53 -54q0 -23 -15 -39.5t-38 -16.5zM221 775q-52 0 -52 56q0 22 14.5 38t37.5 16q53 0 53 -54q0 -23 -15 -39.5t-38 -16.5z" />
    <glyph glyph-name="Zacute" unicode="&#x179;" horiz-adv-x="607" 
d="M120 510l-63 7q-2 42 -2 84.5t9 91.5h509v-26l-382 -586q-13 -19 -22 -23l2 -6h150q106 0 130 7q16 5 56 154l55 -5q1 -17 1 -69.5t-11 -138.5h-517v26l381 586q13 19 22 23l-2 7h-96q-137 0 -179 -6q-15 -1 -41 -126zM455 863l-8 -21l-201 -93l-25 36l174 129z" />
    <glyph glyph-name="zacute" unicode="&#x17a;" horiz-adv-x="443" 
d="M28 0v26l253 366q16 20 22 23l-2 7h-114q-39 0 -66 -3q-7 -1 -12 -14.5t-19 -69.5l-46 5q-2 32 -2 64t6 69h366v-28l-250 -364q-13 -19 -22 -23l2 -7l49 1q107 2 126 6.5t41 99.5l52 -4q-2 -80 -11 -154h-373zM374 735v-23l-152 -151l-35 25l107 179z" />
    <glyph glyph-name="Zcaron" unicode="&#x17d;" horiz-adv-x="607" 
d="M120 510l-63 7q-2 42 -2 84.5t9 91.5h509v-26l-382 -586q-13 -19 -22 -23l2 -6h150q106 0 130 7q16 5 56 154l55 -5q1 -17 1 -69.5t-11 -138.5h-517v26l381 586q13 19 22 23l-2 7h-96q-137 0 -179 -6q-15 -1 -41 -126zM185 917l139 -91l139 91l25 -26l-136 -139h-56
l-136 139z" />
    <glyph glyph-name="zcaron" unicode="&#x17e;" horiz-adv-x="443" 
d="M28 0v26l253 366q16 20 22 23l-2 7h-114q-39 0 -66 -3q-7 -1 -12 -14.5t-19 -69.5l-46 5q-2 32 -2 64t6 69h366v-28l-250 -364q-13 -19 -22 -23l2 -7l49 1q107 2 126 6.5t41 99.5l52 -4q-2 -80 -11 -154h-373zM193 566l-118 169l35 25l115 -118l114 118l35 -25l-118 -169
h-63z" />
    <glyph glyph-name="longs" unicode="&#x17f;" horiz-adv-x="350" 
d="M423 749q0 -76 -13 -121l-53 -5q-16 81 -24 86q-16 10 -42 10q-86 0 -86 -253v-394q0 -10 4 -14.5t18 -6.5l75 -12l-4 -39h-247l-6 39q49 10 59.5 20.5t10.5 36.5v309h-65l-4 43l49 12q13 3 17 11t5 27t3.5 37t8.5 55t19.5 65t33.5 57q42 60 127 60q54 0 114 -23z" />
    <glyph glyph-name="florin" unicode="&#x192;" horiz-adv-x="350" 
d="M390 638l-53 -5q-11 49 -15 61t-9 15q-16 10 -37 10q-71 0 -71 -253h118l-8 -47l-110 -15v-285q0 -165 -45 -254q-17 -35 -50.5 -59.5t-83 -24.5t-109.5 23q0 71 13 111l53 5q11 -49 15 -61t9 -15q16 -10 37 -10q71 0 71 253v318h-65l-4 43l49 12q13 3 17 11t5 27.5
t3 36.5t8 54.5t17.5 65t29.5 56.5q38 61 114 61q54 0 114 -23q0 -71 -13 -111z" />
    <glyph glyph-name="Gcaron" unicode="&#x1e6;" horiz-adv-x="681" 
d="M587 37q-33 -17 -95.5 -31.5t-127.5 -14.5q-163 0 -246 96t-83 244q0 114 47 203q55 105 165 146q61 22 127 22t127 -10t80 -18q6 -37 6 -77.5t-2 -90.5l-57 -8q-22 116 -39 128q-9 7 -46.5 15t-74.5 8q-110 0 -166 -81t-56 -213q0 -156 71 -232t176 -76q55 0 97 16v139
q0 31 -11.5 42t-64.5 20l6 39h234l4 -39l-51 -12q-20 -4 -20 -26v-189zM213 917l139 -91l139 91l25 -26l-136 -139h-56l-136 139z" />
    <glyph glyph-name="gcaron" unicode="&#x1e7;" horiz-adv-x="554" 
d="M160 -24q-28 -31 -28 -67t30 -57t102.5 -21t112.5 30t40 60t-33 36.5t-104.5 7.5t-119.5 11zM74 61q0 40 30 77q21 26 48 47q-15 7 -28 17q-50 40 -50 120.5t55 123t137 42.5q73 0 121 -31q65 31 126 33q10 -17 10 -40.5t-3 -32.5q-34 8 -71 8h-27q28 -38 28 -98
q0 -80 -55 -122.5t-137 -42.5q-46 0 -81 12q-30 -36 -30 -69q0 -30 34 -36q30 -5 67.5 -5t58 -0.5t52.5 -3.5t50.5 -10t38.5 -18q37 -21 37 -74q0 -72 -72 -124.5t-194 -52.5q-164 0 -164 94q0 34 19.5 58.5t56.5 51.5q-57 18 -57 76zM265 211q93 0 93 114t-99 114
q-93 0 -93 -114t99 -114zM218 566l-118 169l35 25l115 -118l114 118l35 -25l-118 -169h-63z" />
    <glyph glyph-name="dotlessj" unicode="&#x237;" horiz-adv-x="280" 
d="M100 68v315q0 21 -16 30.5t-60 18.5l6 32q107 14 149 14l11 -10v-430q0 -94 -56 -175.5t-108 -81.5q-36 0 -76 7q-3 12 -3 33t17 49q40 -10 60.5 -10t30.5 7q21 14 33 71.5t12 129.5z" />
    <glyph glyph-name="apostrophe" unicode="&#x2bc;" horiz-adv-x="109" 
d="M24 557l-24 23q33 39 33 84q0 14 -13.5 31t-13.5 33t12.5 27t29.5 11q51 0 51 -75.5t-75 -133.5z" />
    <glyph glyph-name="circumflex" unicode="&#x2c6;" horiz-adv-x="299" 
d="M181 755l118 -169l-35 -25l-115 118l-114 -118l-35 25l118 169h63z" />
    <glyph glyph-name="caron" unicode="&#x2c7;" horiz-adv-x="299" 
d="M118 566l-118 169l35 25l115 -118l114 118l35 -25l-118 -169h-63z" />
    <glyph glyph-name="breve" unicode="&#x2d8;" horiz-adv-x="512" 
d="M351 720h37q-4 -67 -41 -110t-108 -43t-108 43t-41 110h37q17 -85 112 -85t112 85z" />
    <glyph glyph-name="dotaccent" unicode="&#x2d9;" horiz-adv-x="312" 
d="M186.5 614q-15.5 -17 -41 -17t-42 15t-16.5 41.5t15.5 42.5t42.5 16q57 0 57 -56q0 -25 -15.5 -42z" />
    <glyph glyph-name="ring" unicode="&#x2da;" horiz-adv-x="518" 
d="M303.5 591q-26.5 -27 -73.5 -27t-72 24.5t-25 69.5t26.5 71t73.5 26t72 -24.5t25 -68.5t-26.5 -71zM229 607q24 0 37.5 15.5t13.5 40.5q0 49 -46 49q-24 0 -38 -15t-14 -40q0 -50 47 -50z" />
    <glyph glyph-name="ogonek" unicode="&#x2db;" horiz-adv-x="620" 
d="M450 -169q-51 -46 -110 -46q-40 0 -69 27.5t-29 76.5t44.5 95.5t142.5 95.5l12 -22q-60 -43 -89 -79t-29 -82q0 -26 15.5 -41t43.5 -15t56 10z" />
    <glyph glyph-name="tilde" unicode="&#x2dc;" horiz-adv-x="361" 
d="M336 715l25 -13q-21 -49 -42.5 -78t-44 -29t-89 21t-90.5 21q-38 0 -72 -42l-23 17q32 56 55 79t46 23t87.5 -21t89 -21t58.5 43z" />
    <glyph glyph-name="hungarumlaut" unicode="&#x2dd;" horiz-adv-x="396" 
d="M396 735v-23l-167 -151l-35 25l107 179zM198 735v-23l-167 -151l-35 25l107 179z" />
    <glyph glyph-name="dotaccentcmb" unicode="&#x307;" horiz-adv-x="312" 
d="M186.5 614q-15.5 -17 -41 -17t-42 15t-16.5 41.5t15.5 42.5t42.5 16q57 0 57 -56q0 -25 -15.5 -42z" />
    <glyph glyph-name="dieresis.cap" unicode="&#x308;" horiz-adv-x="230" 
d="M211 775q-52 0 -52 56q0 22 14.5 38t37.5 16q53 0 53 -54q0 -23 -15 -39.5t-38 -16.5zM18 775q-52 0 -52 56q0 22 14.5 38t37.5 16q53 0 53 -54q0 -23 -15 -39.5t-38 -16.5z" />
    <glyph glyph-name="anoteleia" unicode="&#x387;" horiz-adv-x="232" 
d="M157 351.5q-16 -17.5 -41 -17.5t-41.5 15t-16.5 41t16 42.5t41 16.5q58 0 58 -56q0 -24 -16 -41.5z" />
    <glyph glyph-name="pi" unicode="&#x3c0;" horiz-adv-x="596" 
d="M498 52l5 -39q-68 -22 -103 -22q-58 0 -58 71q0 91 20 334h-137q-4 -90 -18 -216t-27 -180h-116l-6 39q41 9 54 27q32 47 46 329q-54 -2 -56 -3q-8 -2 -13.5 -15.5t-17.5 -64.5l-46 5q-2 32 -2 75.5t6 80.5h376q44 0 60 5t37 77l46 -4q1 -9 1 -30q0 -69 -16 -124h-104
q-13 -128 -13 -223t5.5 -110t31 -15t45.5 3z" />
    <glyph glyph-name="endash" unicode="&#x2013;" horiz-adv-x="500" 
d="M10 271h492l-12 -53h-492z" />
    <glyph glyph-name="emdash" unicode="&#x2014;" horiz-adv-x="1000" 
d="M10 271h992l-12 -53h-992z" />
    <glyph glyph-name="quoteleft" unicode="&#x2018;" horiz-adv-x="215" 
d="M139 766l27 -26q-47 -56 -47 -106q0 -18 16 -37.5t16 -38t-15.5 -31.5t-38.5 -13t-39 19.5t-16 60t24.5 88t72.5 84.5z" />
    <glyph glyph-name="quoteright" unicode="&#x2019;" horiz-adv-x="215" 
d="M76 514l-27 26q47 56 47 106q0 18 -16 37.5t-16 38t15.5 31.5t38.5 13t39 -19.5t16 -60t-24.5 -88t-72.5 -84.5z" />
    <glyph glyph-name="quotesinglbase" unicode="&#x201a;" horiz-adv-x="234" 
d="M82 -139l-27 26q47 56 47 106q0 18 -16 37.5t-16 38t15.5 31.5t38.5 13t39 -19.5t16 -60t-24.5 -88t-72.5 -84.5z" />
    <glyph glyph-name="quotedblleft" unicode="&#x201c;" horiz-adv-x="406" 
d="M330 766l27 -26q-47 -56 -47 -106q0 -18 16 -37.5t16 -38t-15.5 -31.5t-38.5 -13t-39 19.5t-16 60t24.5 88t72.5 84.5zM139 766l27 -26q-47 -56 -47 -106q0 -18 16 -37.5t16 -38t-15.5 -31.5t-38.5 -13t-39 19.5t-16 60t24.5 88t72.5 84.5z" />
    <glyph glyph-name="quotedblright" unicode="&#x201d;" horiz-adv-x="406" 
d="M267 514l-27 26q47 56 47 106q0 18 -16 37.5t-16 38t15.5 31.5t38.5 13t39 -19.5t16 -60t-24.5 -88t-72.5 -84.5zM76 514l-27 26q47 56 47 106q0 18 -16 37.5t-16 38t15.5 31.5t38.5 13t39 -19.5t16 -60t-24.5 -88t-72.5 -84.5z" />
    <glyph glyph-name="quotedblbase" unicode="&#x201e;" horiz-adv-x="425" 
d="M273 -139l-27 26q47 56 47 106q0 18 -16 37.5t-16 38t15.5 31.5t38.5 13t39 -19.5t16 -60t-24.5 -88t-72.5 -84.5zM82 -139l-27 26q47 56 47 106q0 18 -16 37.5t-16 38t15.5 31.5t38.5 13t39 -19.5t16 -60t-24.5 -88t-72.5 -84.5z" />
    <glyph glyph-name="dagger" unicode="&#x2020;" horiz-adv-x="508" 
d="M269 -219h-40l-30 386l24 189q5 35 13 46l-9 11q-19 -9 -46 -14l-112 -20l-34 90l18 14l126 -24q40 -8 46 -13l11 9q-11 23 -14 46l-20 173l90 34l14 -18l-24 -187q-6 -37 -13 -46l11 -12q28 12 45 15l116 20l32 -90l-17 -14l-130 24q-39 8 -46 13l-12 -11q13 -31 15 -45
l20 -175z" />
    <glyph glyph-name="daggerdbl" unicode="&#x2021;" horiz-adv-x="508" 
d="M35 92l18 14l126 -24q40 -8 46 -13l11 9q-10 19 -14 46l-21 113l22 119q8 39 13 46l-9 11q-19 -9 -46 -14l-112 -20l-34 90l18 14l126 -24q40 -8 46 -13l11 9q-11 23 -14 46l-20 173l90 34l14 -18l-24 -187q-6 -37 -13 -46l11 -12q28 12 45 15l116 20l32 -90l-17 -14
l-130 24q-39 8 -46 13l-12 -11q12 -28 15 -45l22 -104l-23 -127q-6 -37 -13 -46l11 -12q28 12 45 15l116 20l32 -90l-17 -14l-130 24q-39 8 -46 13l-12 -11q13 -31 15 -45l20 -167l-90 -32l-14 17l24 181q5 35 13 46l-9 11q-19 -10 -46 -14l-112 -20z" />
    <glyph glyph-name="bullet" unicode="&#x2022;" horiz-adv-x="343" 
d="M267 164.5q-36 -37.5 -94.5 -37.5t-95.5 32.5t-37 91t35.5 95.5t94.5 37t96 -30.5t37 -90.5t-36 -97.5z" />
    <glyph glyph-name="ellipsis" unicode="&#x2026;" horiz-adv-x="860" 
d="M748 9q-17 -18 -44 -18t-44 15.5t-17 43t16.5 45.5t43.5 18q62 0 62 -60q0 -26 -17 -44zM474 9q-17 -18 -44 -18t-44 15.5t-17 43t16.5 45.5t43.5 18q62 0 62 -60q0 -26 -17 -44zM200 9q-17 -18 -44 -18t-44 15.5t-17 43t16.5 45.5t43.5 18q62 0 62 -60q0 -26 -17 -44z
" />
    <glyph glyph-name="perthousand" unicode="&#x2030;" horiz-adv-x="1187" 
d="M589 693h65l-446 -693h-66zM1115.5 54q-46.5 -63 -123.5 -63t-120.5 58.5t-43.5 145t46.5 149.5t123.5 63t120.5 -59t43.5 -145t-46.5 -149zM1055.5 316.5q-24.5 47.5 -65.5 47.5q-80 0 -80 -157q0 -86 24.5 -129.5t66.5 -43.5q79 0 79 150q0 85 -24.5 132.5zM736.5 54
q-46.5 -63 -123.5 -63t-120.5 58.5t-43.5 145t46.5 149.5t123.5 63t120.5 -59t43.5 -145t-46.5 -149zM676.5 316.5q-24.5 47.5 -64.5 47.5q-81 0 -81 -157q0 -86 24.5 -129.5t66.5 -43.5q79 0 79 150q0 85 -24.5 132.5zM312.5 349q-46.5 -63 -123.5 -63t-120.5 58.5
t-43.5 145t46.5 149.5t123.5 63t120.5 -59t43.5 -145t-46.5 -149zM252.5 611.5q-24.5 47.5 -64.5 47.5q-81 0 -81 -157q0 -86 24.5 -129.5t66.5 -43.5q79 0 79 150q0 85 -24.5 132.5z" />
    <glyph glyph-name="guilsinglleft" unicode="&#x2039;" horiz-adv-x="284" 
d="M244 414l-105 -162l105 -174l-21 -16l-163 182v16l163 170z" />
    <glyph glyph-name="guilsinglright" unicode="&#x203a;" horiz-adv-x="284" 
d="M145 252l-105 162l21 16l163 -170v-16l-163 -182l-21 16z" />
    <glyph glyph-name="uni2042" unicode="&#x2042;" horiz-adv-x="771" 
d="M412 744l9 -12l-16 -114q-4 -24 -8 -30l7 -4q6 12 20 23l85 63l47 -40l-5 -13l-106 -44q-19 -8 -30 -8v-8q18 0 29 -5l97 -42l-11 -61l-14 -2l-91 70q-19 16 -22 22l-7 -4q9 -18 10 -29l13 -105l-59 -21l-9 11l16 114q4 24 8 30l-7 4q-6 -13 -21 -23l-84 -63l-48 40l5 13
l107 43q19 8 30 8v8q-13 0 -30 6l-97 41l11 62l14 2l91 -71q19 -16 22 -22l7 4q-8 16 -9 30l-13 105zM222 406l9 -12l-16 -114q-4 -24 -8 -30l7 -4q6 12 20 23l85 63l47 -40l-5 -13l-106 -44q-19 -8 -30 -8v-8q18 0 29 -5l97 -42l-11 -61l-14 -2l-91 70q-19 16 -22 22l-7 -4
q9 -18 10 -29l13 -105l-59 -21l-9 11l16 114q4 24 8 30l-7 4q-6 -13 -21 -23l-84 -63l-48 40l5 13l107 43q19 8 30 8v8q-13 0 -30 6l-97 41l11 62l14 2l91 -71q19 -16 22 -22l7 4q-8 16 -9 30l-13 105zM602 406l9 -12l-16 -114q-4 -24 -8 -30l7 -4q6 12 20 23l85 63l47 -40
l-5 -13l-106 -44q-19 -8 -30 -8v-8q18 0 29 -5l97 -42l-11 -61l-14 -2l-91 70q-19 16 -22 22l-7 -4q9 -18 10 -29l13 -105l-59 -21l-9 11l16 114q4 24 8 30l-7 4q-6 -13 -21 -23l-84 -63l-48 40l5 13l107 43q19 8 30 8v8q-13 0 -30 6l-97 41l11 62l14 2l91 -71
q19 -16 22 -22l7 4q-8 16 -9 30l-13 105z" />
    <glyph glyph-name="fraction" unicode="&#x2044;" horiz-adv-x="45" 
d="M211 693h65l-446 -693h-66z" />
    <glyph glyph-name="Euro" unicode="&#x20ac;" horiz-adv-x="585" 
d="M385 368h-375v51h74q19 122 88 202.5t195 80.5q45 0 95.5 -10t66.5 -18q6 -37 6 -77.5t-2 -90.5l-57 -8q-22 116 -39 128q-6 7 -33.5 15t-53.5 8q-70 0 -109.5 -62t-48.5 -168h193v-51zM10 297h375v-51h-188q18 -101 66 -150t112 -49q27 0 50.5 9t29.5 16q12 9 34 128
l55 -2q0 -76 -11 -162q-26 -17 -79 -31t-108 -14q-113 0 -178.5 70t-83.5 185h-74v51z" />
    <glyph glyph-name="afii61352" unicode="&#x2116;" horiz-adv-x="974" 
d="M21 0l-6 39q53 9 64.5 20t11.5 42v491q0 31 -11.5 42t-64.5 20l6 39h180l227 -410q17 -32 17 -37h8v326q0 45 -16.5 60t-79.5 22l6 39h228l4 -39l-62 -12q-20 -4 -20 -26v-616l-46 -9l-291 528q-16 28 -17 37h-8v-456q0 -25 9.5 -37t34.5 -15l70 -9l-4 -39h-240zM884 337
q-45 -51 -124.5 -51t-122 47t-42.5 131.5t45 135t124 50.5t122 -47.5t43 -131t-45 -134.5zM823.5 564.5q-23.5 39.5 -64 39.5t-56.5 -21q-27 -32 -27 -102t23.5 -110t64 -40t58.5 22q25 32 25 102t-23.5 109.5zM597 175v53h330v-53h-330z" />
    <glyph glyph-name="prescription" unicode="&#x211e;" horiz-adv-x="652" 
d="M50 0l-6 39q53 9 64.5 20t11.5 42v491q0 31 -11.5 42t-64.5 20l6 39h280q209 0 209 -168q0 -52 -33.5 -106.5t-91.5 -86.5l79 -120l43 55q6 5 6 11q0 11 -31 18l4 26h126l4 -26q-32 -5 -38 -11l-91 -108l64 -97q10 -20 30.5 -29t61.5 -12l-6 -39h-156l-66 101l-38 -45
q-4 -7 -4 -12q0 -11 30 -18l-4 -26h-127l-2 26q33 6 39 10l84 98l-111 170h-94v-227q0 -20 20 -26l35 -12l-4 -39h-218zM299 640h-66q-16 -2 -16 -24v-261h55q79 0 119.5 34.5t40.5 126.5q0 124 -133 124z" />
    <glyph glyph-name="trademark" unicode="&#x2122;" horiz-adv-x="1021" 
d="M702 430l4 -16h7q0 3 3 12l105 269h144l3 -32l-41 -7q-12 -2 -12 -13v-3l18 -308q2 -13 13 -15l40 -7l-3 -32h-182l-3 32q31 5 39 11.5t8 20.5v5l-7 248q0 11 2 23l-6 1l-117 -309h-58l-108 288q-3 8 -3 17h-5l-13 -265q0 -20 6.5 -26.5t16.5 -8.5l29 -5l-2 -32h-139
l-4 32q35 7 42.5 11.5t8.5 22.5l17 282q1 19 -7 25t-41 12l3 32h141zM110 310q39 6 48 12.5t9 24.5v309h-34q-31 0 -38 -2t-10 -9t-16 -50l-39 4q0 53 14 96h331q13 -39 15 -96l-38 -4q-15 43 -18 50t-9.5 9t-37.5 2h-35v-324q0 -13 13 -15l48 -7l-2 -32h-196z" />
    <glyph glyph-name="Omega" unicode="&#x2126;" horiz-adv-x="718" 
d="M632 171l51 -5q-10 -91 -44 -166h-236l-10 32q72 93 111.5 179t39.5 191.5t-50.5 176t-145.5 70.5q-63 0 -105 -37t-58 -89.5t-16 -105t7.5 -90t16 -64t28.5 -64t31 -54.5q61 -94 74 -113l-10 -32h-237q-32 75 -44 166l51 5q28 -60 37.5 -74.5t19.5 -15.5q28 -4 64 -4h26
l3 7q-16 6 -29 19q-81 81 -115 154.5t-34 154.5q0 132 81.5 211t222 79t217 -72t76.5 -195q0 -170 -146 -329q-13 -14 -31 -22l3 -7h31q36 0 64 4q10 1 19.5 16t36.5 74z" />
    <glyph glyph-name="estimated" unicode="&#x212e;" horiz-adv-x="831" 
d="M811 336h-641q-5 0 -5 -5v-193q0 -12 8 -23q105 -105 242 -105q75 0 141.5 31.5t113.5 86.5h58q-53 -63 -136 -100t-178 -37q-163 0 -278.5 104t-115.5 251t115.5 251.5t279.5 104.5t280 -104.5t116 -252.5v-9zM665 362v194q0 14 -9 23q-103 101 -240.5 101t-240.5 -103
q-10 -10 -10 -25v-190q0 -7 5 -7h491q4 0 4 7z" />
    <glyph glyph-name="arrowleft" unicode="&#x2190;" horiz-adv-x="772" 
d="M300 88l-256 257v15l256 257l40 -40l-161 -161q-27 -27 -37 -33l1 -4h585v-53h-585l-1 -4q12 -8 37 -33l161 -161z" />
    <glyph glyph-name="arrowup" unicode="&#x2191;" horiz-adv-x="620" 
d="M321 693l256 -255l-41 -38l-162 161q-21 21 -28 35l-4 -1v-595h-61v595l-4 1q-10 -17 -28 -35l-162 -161l-41 38l256 255h19z" />
    <glyph glyph-name="arrowright" unicode="&#x2192;" horiz-adv-x="772" 
d="M728 345l-256 -257l-40 40l161 161q25 25 37 33l-1 4h-585v53h585l1 4q-10 6 -37 33l-161 161l40 40l256 -257v-15z" />
    <glyph glyph-name="arrowdown" unicode="&#x2193;" horiz-adv-x="620" 
d="M574 255l-256 -255h-19l-256 255l41 38l162 -161q18 -18 28 -35l4 1v595h61v-595l4 -1q7 14 28 35l162 161z" />
    <glyph glyph-name="partialdiff" unicode="&#x2202;" horiz-adv-x="506" 
d="M32 628q67 74 173 74q128 0 201.5 -100.5t73.5 -244.5q0 -201 -118 -309q-62 -58 -148.5 -58t-139.5 53.5t-53 146.5t62.5 162t143 69t143.5 -49q0 140 -41.5 208.5t-105.5 68.5q-27 0 -51.5 -14.5t-35.5 -26.5t-30 -36q-15 4 -37.5 19.5t-36.5 36.5zM145 78
q27 -36 70.5 -36t74.5 31t46 77q28 87 28 155q-13 28 -43.5 46t-71 18t-73.5 -37q-58 -66 -58 -165q0 -53 27 -89z" />
    <glyph glyph-name="Delta" unicode="&#x2206;" horiz-adv-x="641" 
d="M287 702h69l235 -660v-42h-544v40zM298 587l-184 -534h362l-165 505q-6 18 -6 29h-7z" />
    <glyph glyph-name="product" unicode="&#x220f;" horiz-adv-x="681" 
d="M217 607v-597q0 -22 20 -26l62 -12l-4 -39h-245l-6 39q53 9 64.5 20t11.5 42v558q0 31 -11.5 42t-64.5 20l6 39h589l4 -39l-62 -12q-20 -4 -20 -26v-606q0 -22 20 -26l62 -12l-4 -39h-245l-6 39q53 9 64.5 20t11.5 42v549q0 32 -12 41t-64 9h-153q-18 0 -18 -26z" />
    <glyph glyph-name="summation" unicode="&#x2211;" horiz-adv-x="607" 
d="M486 134l52 -5q2 -32 2 -50q0 -98 -16 -146h-482v33l242 319l-242 382v26h478q9 -49 9 -91.5t-2 -84.5l-63 -7q-26 125 -41 126q-42 6 -148 6h-96l-2 -7q9 -4 22 -23l182 -287l-238 -315h218q48 0 84 4q10 1 17.5 21.5t23.5 98.5z" />
    <glyph glyph-name="minus" unicode="&#x2212;" horiz-adv-x="466" 
d="M45 244v53h376v-53h-376z" />
    <glyph glyph-name="radical" unicode="&#x221a;" horiz-adv-x="590" 
d="M379 -99l-20 -6l-236 487q-9 19 -28 21t-61 -10l-9 32q85 55 129 77l14 -5l190 -399l6 2l165 799l49 -9z" />
    <glyph glyph-name="infinity" unicode="&#x221e;" horiz-adv-x="759" 
d="M535 128q-107 0 -167 96q-65 -96 -161 -96q-63 0 -109 39.5t-46 114.5t48.5 122t123.5 47q107 0 167 -96q65 96 161 96q63 0 109 -39.5t46 -114.5t-48.5 -122t-123.5 -47zM498.5 205q25.5 -19 59.5 -19t62 30t28 76t-25.5 76.5t-69 30.5t-78.5 -25.5t-56 -63.5
q22 -40 38 -63t41.5 -42zM261 373.5q-26 19.5 -59.5 19.5t-62 -30t-28.5 -75t29 -76.5t76 -31.5q78 0 124 89q-22 40 -37.5 62.5t-41.5 42z" />
    <glyph glyph-name="integral" unicode="&#x222b;" horiz-adv-x="382" 
d="M231 588l10 -474q0 -92 -53 -171.5t-101 -79.5q-36 0 -76 7q-3 12 -3 34t17 48q39 -10 62.5 -10t38.5 7q25 27 25 178l-10 476q0 93 53 172t101 79q36 0 76 -7q3 -12 3 -34.5t-17 -47.5q-39 10 -63.5 10t-37.5 -7q-25 -30 -25 -180z" />
    <glyph glyph-name="approxequal" unicode="&#x2248;" horiz-adv-x="466" 
d="M412 424l35 -24q-28 -43 -45 -64q-29 -36 -63 -36q-18 0 -36 5.5t-69 24.5t-68 24.5t-35 5.5q-32 0 -76 -49l-35 24q33 56 56.5 78t47.5 22t40.5 -5t123.5 -45q28 -10 45.5 -10t31.5 7.5t22 15.5t25 26zM412 274l35 -24q-28 -43 -45 -64q-29 -36 -63 -36q-18 0 -36 5.5
t-69 24.5t-68 24.5t-35 5.5q-32 0 -76 -49l-35 24q33 56 56.5 78t47.5 22t40.5 -5t123.5 -45q28 -10 45.5 -10t31.5 7.5t22 15.5t25 26z" />
    <glyph glyph-name="notequal" unicode="&#x2260;" horiz-adv-x="466" 
d="M45 310v53h210l67 130l55 -20l-57 -110h101v-53h-128l-44 -84h172v-53h-199l-67 -130l-54 20l57 110h-113v53h140l43 84h-183z" />
    <glyph glyph-name="lessequal" unicode="&#x2264;" horiz-adv-x="466" 
d="M45 313v75l375 213v-69l-319 -182l319 -180v-69zM45 0v51h376v-51h-376z" />
    <glyph glyph-name="greaterequal" unicode="&#x2265;" horiz-adv-x="466" 
d="M421 388v-75l-375 -212v69l319 180l-319 182v69zM421 51v-51h-376v51h376z" />
    <glyph glyph-name="filledbox" unicode="&#x25a0;" horiz-adv-x="1000" 
d="M919 838v-838h-838v838h838z" />
    <glyph glyph-name="H22073" unicode="&#x25a1;" horiz-adv-x="1000" 
d="M919 838v-838h-838v838h838zM859 60v718h-718v-718h718z" />
    <glyph glyph-name="lozenge" unicode="&#x25ca;" horiz-adv-x="494" 
d="M202 772h86l192 -419l-192 -420h-86l-180 420zM244 -3l159 356l-159 355l-145 -355z" />
    <glyph glyph-name="uni25CC" unicode="&#x25cc;" horiz-adv-x="500" 
d="M376 401q-49 35 -107 41v43q78 -6 138 -56zM121 401l-32 28q62 50 138 56v-43q-59 -6 -106 -41zM452 265q-4 60 -45 105l30 31q51 -59 59 -136h-44zM43 265h-43q6 75 58 136l30 -32q-37 -43 -45 -104zM496 225q-6 -83 -55 -141l-31 30q38 53 42 111h44zM55 84
q-49 58 -55 141h43q4 -60 42 -110zM410 55q-65 -53 -141 -59v43q59 4 112 45zM227 -4q-77 6 -142 59l28 29q53 -41 114 -45v-43z" />
    <glyph glyph-name="zero.tabonum" 
d="M430.5 69q-63.5 -78 -175 -78t-171.5 72.5t-60 202t63.5 208t175 78.5t171.5 -73t60 -202.5t-63.5 -207.5zM269 44q58 0 86 35q18 23 30 74t12 111q0 103 -37.5 169t-110.5 66q-58 0 -86 -35q-18 -23 -30 -74t-12 -111q0 -103 37.5 -169t110.5 -66z" />
    <glyph glyph-name="one.tabonum" 
d="M104 0l-6 39q75 9 101 21t26 36v307q0 50 -4.5 60t-28 10t-93.5 -5l-8 38q35 13 104.5 26.5t108.5 14.5l11 -10v-465q0 -13 5.5 -16.5t14.5 -4.5l107 -12l-4 -39h-334z" />
    <glyph glyph-name="two.tabonum" 
d="M44 0v53q176 143 208 181q53 62 61 91t8 54q0 52 -30 86t-81 34t-70 -15q-12 -10 -23 -108l-54 6q-8 36 -8 75t1 49q58 46 159.5 46t152 -43t50.5 -116.5t-62 -147.5t-197 -167l2 -7l60 2q129 4 145.5 7.5t37.5 77.5l46 -4q1 -9 1 -30q0 -69 -16 -124h-391z" />
    <glyph glyph-name="three.tabonum" 
d="M57 15l54 5q5 -79 10 -86q10 -19 61 -19q71 0 118 43t47 113q0 129 -141 129q-27 0 -52 -4l3 48q87 14 127 55.5t40 92t-30.5 79t-77.5 28.5q-62 0 -76 -23q-12 -18 -17 -100l-53 6q-9 45 -9 79.5t1 44.5q72 46 162.5 46t142.5 -38t52 -96t-33.5 -102t-79.5 -64l1 -8
q60 -7 102.5 -49t42.5 -107q0 -88 -79 -156.5t-205 -68.5q-80 0 -128 21q6 83 17 131z" />
    <glyph glyph-name="four.tabonum" 
d="M28 45l-23 61l317 428q56 13 86 13l11 -10v-434l102 -2l-9 -57h-93v-166q-32 -6 -79 -6l-11 10v162h-300zM76 115l4 -7l249 -4v313q0 21 2 30l-6 3l-231 -313q-8 -12 -18 -22z" />
    <glyph glyph-name="five.tabonum" 
d="M40 -116q0 69 20 144l53 3q6 -68 9.5 -86t10.5 -22q17 -8 61 -8q70 0 117 47.5t47 128.5q0 61 -36 100.5t-101.5 39.5t-127.5 -23l-22 26l22 303h256q5 0 8 3q8 10 19 70l51 -7q-4 -94 -14 -147h-260l-12 -179q50 17 111 17q99 0 154.5 -49t55.5 -134q0 -110 -83.5 -179
t-203.5 -69q-84 0 -135 21z" />
    <glyph glyph-name="six.tabonum" 
d="M428 362.5q55 -58.5 55 -151t-61 -156.5t-160.5 -64t-156.5 69t-57 186q0 162 103 280t249 154l20 -41q-220 -92 -263 -281l8 -3q51 66 129.5 66t133.5 -58.5zM350 68q38 41 38 120t-29 121.5t-73 42.5q-21 0 -54.5 -7t-55.5 -22q-33 -22 -33 -69q0 -214 139 -214
q42 0 68 28z" />
    <glyph glyph-name="seven.tabonum" 
d="M132 -121q16 99 94 272t174 305l-2 7l-177 -3q-67 -2 -90 -4q-8 -1 -13.5 -14.5t-17.5 -65.5l-46 5q-2 32 -2 75.5t6 80.5h411v-60q-213 -332 -232 -611q-10 -3 -29 -3q-51 0 -76 16z" />
    <glyph glyph-name="eight.tabonum" 
d="M57 495q0 80 57 131t146 51q59 0 124 -29q34 -16 56 -49t22 -79q0 -90 -78 -148q-23 -16 -37 -16v-9q6 0 16 -5q60 -31 92 -69t32 -95q0 -83 -64.5 -135t-168.5 -52q-70 0 -138 27q-37 15 -60.5 49t-23.5 82q0 97 97 162q27 16 38 16v9q-6 0 -16 5q-94 57 -94 154z
M171 593q-27 -34 -27 -69t11.5 -56.5t36.5 -39.5q41 -29 102 -55q84 57 84 138q0 56 -34.5 86t-90 30t-82.5 -34zM361 79.5q32 33.5 32 69.5t-13 59t-41 41q-43 28 -107 53q-7 3 -10 4q-17 -6 -47 -31q-59 -51 -59 -110.5t40 -89t106.5 -29.5t98.5 33.5z" />
    <glyph glyph-name="nine.tabonum" 
d="M92 184q-56 59 -56 150t61.5 154.5t159.5 63.5t156 -70.5t58 -186.5q0 -142 -84 -270q-42 -64 -117 -108.5t-172 -53.5l-7 45q116 27 180 91.5t91 180.5l-8 3q-47 -58 -126.5 -58t-135.5 59zM241 503q-55 0 -82.5 -42t-27.5 -113.5t36.5 -112.5t85 -41t89.5 22
q24 13 29 37q6 24 6 59q0 86 -33.5 138.5t-102.5 52.5z" />
    <glyph glyph-name="dollar.tabonum" 
d="M429 524q1 -9 1 -49t-14 -90l-50 -6q-7 92 -24 104q-19 12 -59 14v-176q124 -52 150 -105q13 -27 13 -60q0 -60 -43.5 -104.5t-119.5 -56.5v-123h-57v119q-95 2 -154 27q-2 15 -2 54t9 104l57 5q9 -77 13 -93.5t13 -21.5q21 -13 64 -19v186q-115 48 -142 103
q-12 25 -12 58q0 59 41.5 100t112.5 53v121h57v-116q75 -1 146 -28zM226 496q-74 -7 -74 -67q0 -49 74 -83v150zM283 46q35 3 55.5 22t20.5 51q0 50 -76 89v-162z" />
    <glyph glyph-name="cent.tabonum" 
d="M231 668h57v-122q68 0 123 -23q1 -6 1 -42.5t-10 -69.5l-43 -5q-10 54 -14 68.5t-10 16.5q-14 4 -47 6v-300h6q62 0 117 37l26 -30q-65 -58 -149 -65v-139h-57v141q-79 12 -120 66t-41 129.5t37.5 132t123.5 72.5v127zM160 347q0 -101 71 -135v281q-20 -4 -34 -21
q-37 -45 -37 -125z" />
    <glyph glyph-name="zero.tab" 
d="M436 94.5q-69 -103.5 -181.5 -103.5t-176 96.5t-63.5 239t68.5 246.5t181 104t176.5 -97.5t64 -239.5t-69 -245.5zM359.5 541.5q-40.5 82.5 -107.5 82.5t-99.5 -73t-32.5 -213.5t40.5 -217t109.5 -76.5q130 0 130 265q0 150 -40.5 232.5z" />
    <glyph glyph-name="one.tab" 
d="M91 0l-6 39q75 9 101 21t26 36v433q0 50 -4.5 60t-28 10t-93.5 -5l-8 38q35 13 104.5 26.5t108.5 14.5l11 -10v-591q0 -12 5.5 -15.5t14.5 -5.5l107 -12l-4 -39h-334z" />
    <glyph glyph-name="two.tab" 
d="M35 0v53q189 192 222 239q59 86 68.5 124t9.5 71q0 62 -31.5 99t-89 37t-81.5 -20q-11 -9 -23 -123l-59 6q-8 36 -8 78t1 56q31 27 84 41.5t106 14.5q98 0 151.5 -46t53.5 -133.5t-69 -182t-223 -234.5l2 -7l80 3q146 5 149 6q9 2 28 78l46 -4q1 -10 1 -61.5t-10 -94.5
h-408z" />
    <glyph glyph-name="three.tab" 
d="M59 143l54 5q6 -77 10.5 -85t9.5 -10q32 -10 85.5 -10t92 38t38.5 100q0 144 -141 144q-27 0 -52 -4l3 48q87 14 127 55.5t40 92t-30.5 79t-77.5 28.5q-62 0 -76 -24q-12 -17 -17 -99l-53 6q-9 45 -9 79.5t1 44.5q72 46 162.5 46t142.5 -38t52 -96t-33.5 -102t-79.5 -64
l1 -8q60 -9 102.5 -54t42.5 -121.5t-70.5 -139.5t-183.5 -63q-46 0 -93 7t-65 14q6 83 17 131z" />
    <glyph glyph-name="four.tab" 
d="M241 0l-6 39q57 9 77 21t20 36v74h-300l-1 1l-23 61l317 428q56 13 86 13l11 -10v-434l102 -2l-9 -57h-93v-98q0 -12 5.5 -15.5t14.5 -5.5l57 -12l-4 -39h-254zM79 241l4 -7l249 -4v313q0 21 2 30l-6 3l-231 -313q-8 -12 -18 -22z" />
    <glyph glyph-name="five.tab" 
d="M158 588l-12 -179q50 17 111 17q99 0 154.5 -51.5t55.5 -141.5q0 -107 -80.5 -174.5t-196.5 -67.5q-89 0 -145 25q0 69 20 144l53 3q6 -68 9.5 -86t10.5 -22q19 -12 76.5 -12t102.5 48.5t45 117.5t-36 111.5t-101 42.5t-127 -23l-22 26l22 303h326l10 -11q0 -38 -16 -70
h-260z" />
    <glyph glyph-name="six.tab" 
d="M423 362.5q55 -58.5 55 -151t-61 -156.5t-160.5 -64t-156.5 69t-57 186q0 162 103 280t249 154l20 -41q-220 -92 -263 -281l8 -3q51 66 129.5 66t133.5 -58.5zM345 68q38 41 38 120t-29 121.5t-73 42.5q-21 0 -54.5 -7t-55.5 -22q-33 -22 -33 -69q0 -214 139 -214
q42 0 68 28z" />
    <glyph glyph-name="seven.tab" 
d="M143 7q16 99 94 273.5t174 307.5l-2 7l-177 -3q-67 -2 -90 -4q-8 -1 -13.5 -14.5t-17.5 -65.5l-46 5q-2 32 -2 75.5t6 80.5h411v-60q-213 -335 -232 -615q-11 -3 -29 -3q-51 0 -76 16z" />
    <glyph glyph-name="eight.tab" 
d="M57 495q0 80 57 131t146 51q59 0 124 -29q34 -16 56 -49t22 -79q0 -90 -78 -148q-23 -16 -37 -16v-9q6 0 16 -5q60 -31 92 -69t32 -95q0 -83 -64.5 -135t-168.5 -52q-70 0 -138 27q-37 15 -60.5 49t-23.5 82q0 97 97 162q27 16 38 16v9q-6 0 -16 5q-94 57 -94 154z
M171 593q-27 -34 -27 -69t11.5 -56.5t36.5 -39.5q41 -29 102 -55q84 57 84 138q0 56 -34.5 86t-90 30t-82.5 -34zM361 79.5q32 33.5 32 69.5t-13 59t-41 41q-43 28 -107 53q-7 3 -10 4q-17 -6 -47 -31q-59 -51 -59 -110.5t40 -89t106.5 -29.5t98.5 33.5z" />
    <glyph glyph-name="nine.tab" 
d="M97 309q-56 59 -56 150t61.5 154.5t159.5 63.5t156 -70.5t58 -186.5q0 -142 -84 -270q-42 -64 -117 -108.5t-172 -53.5l-7 45q116 27 180 91.5t91 180.5l-8 3q-47 -58 -126.5 -58t-135.5 59zM246 628q-55 0 -82.5 -42t-27.5 -113.5t36.5 -112.5t85 -41t89.5 22
q24 13 29 37q6 24 6 59q0 86 -33.5 138.5t-102.5 52.5z" />
    <glyph glyph-name="dollar.tab" 
d="M241 772h57v-852h-57v852zM195 58.5q38 -11.5 85 -11.5t80 27.5t33 75t-35 80t-84.5 52t-99 41t-84.5 62t-35 100.5q0 89 67.5 140t175.5 51q82 0 154 -27q3 -24 3 -63.5t-11 -105.5l-58 -7q-11 113 -27 126q-24 21 -87 21t-98.5 -24t-35.5 -64.5t19 -66t49.5 -41.5
t68 -30.5t74.5 -31t67.5 -37.5t49.5 -57t19 -83q0 -88 -64 -141t-172 -53q-59 0 -118 14.5t-86 28.5q-3 12 -3 57t12 109l57 3q8 -72 13.5 -93t14.5 -28q18 -12 56 -23.5z" />
    <glyph glyph-name="cent.tab" 
d="M241 668h57v-122q68 0 123 -23q1 -6 1 -42.5t-10 -69.5l-43 -5q-10 54 -14 68.5t-10 16.5q-14 4 -47 6v-300h6q61 0 117 37l26 -30q-65 -58 -149 -65v-139h-57v141q-79 12 -120 66t-41 129.5t37.5 132t123.5 72.5v127zM170 347q0 -101 71 -135v281q-20 -4 -34 -21
q-37 -45 -37 -125z" />
    <glyph glyph-name="zero.fitted" horiz-adv-x="554" 
d="M453 94.5q-69 -103.5 -181.5 -103.5t-176 96.5t-63.5 239t68.5 246.5t181 104t176.5 -97.5t64 -239.5t-69 -245.5zM376.5 541.5q-40.5 82.5 -107.5 82.5t-99.5 -73t-32.5 -213.5t40.5 -217t109.5 -76.5q130 0 130 265q0 150 -40.5 232.5z" />
    <glyph glyph-name="one.fitted" horiz-adv-x="414" 
d="M81 0l-6 39q57 9 77 21t20 36v433q0 50 -4.5 60t-27 10t-84.5 -5l-8 38q33 13 99.5 26.5t103.5 14.5l11 -10v-591q0 -12 5.5 -15.5t14.5 -5.5l77 -12l-4 -39h-274z" />
    <glyph glyph-name="two.fitted" horiz-adv-x="495" 
d="M24 0v53q189 192 222 239q59 86 68.5 124t9.5 71q0 62 -31.5 99t-89 37t-81.5 -20q-11 -9 -23 -123l-59 6q-8 36 -8 78t1 56q31 27 84 41.5t106 14.5q98 0 151.5 -46t53.5 -133.5t-69 -182t-223 -234.5l2 -7l80 3q146 5 150 6q8 2 27 78l46 -4q1 -10 1 -61.5t-10 -94.5
h-408z" />
    <glyph glyph-name="three.fitted" horiz-adv-x="469" 
d="M29 143l54 5q6 -77 10.5 -85t9.5 -10q32 -10 85.5 -10t92 38t38.5 100q0 144 -141 144q-27 0 -52 -4l3 48q87 14 127 55.5t40 92t-30.5 79t-77.5 28.5q-62 0 -76 -24q-12 -17 -17 -99l-53 6q-9 45 -9 79.5t1 44.5q72 46 162.5 46t142.5 -38t52 -96t-33.5 -102t-79.5 -64
l1 -8q60 -9 102.5 -54t42.5 -121.5t-70.5 -139.5t-183.5 -63q-46 0 -93 7t-65 14q6 83 17 131z" />
    <glyph glyph-name="four.fitted" horiz-adv-x="534" 
d="M241 0l-6 39q57 9 77 21t20 36v74h-300l-1 1l-23 61l317 428q56 13 86 13l11 -10v-434l102 -2l-9 -57h-93v-98q0 -12 5.5 -15.5t14.5 -5.5l57 -12l-4 -39h-254zM79 241l4 -7l249 -4v313q0 21 2 30l-6 3l-231 -313q-8 -12 -18 -22z" />
    <glyph glyph-name="five.fitted" horiz-adv-x="499" 
d="M145 588l-12 -179q50 17 111 17q99 0 154.5 -51.5t55.5 -141.5q0 -107 -80.5 -174.5t-196.5 -67.5q-89 0 -145 25q0 69 20 144l53 3q6 -68 9.5 -86t10.5 -22q19 -12 76.5 -12t102.5 48.5t45 117.5t-36 111.5t-101 42.5t-127 -23l-22 26l22 303h326l10 -11q0 -38 -16 -70
h-260z" />
    <glyph glyph-name="six.fitted" horiz-adv-x="515" 
d="M428 362.5q55 -58.5 55 -151t-61 -156.5t-160.5 -64t-156.5 69t-57 186q0 162 103 280t249 154l20 -41q-220 -92 -263 -281l8 -3q51 66 129.5 66t133.5 -58.5zM350 68q38 41 38 120t-29 121.5t-73 42.5q-21 0 -54.5 -7t-55.5 -22q-33 -22 -33 -69q0 -214 139 -214
q42 0 68 28z" />
    <glyph glyph-name="seven.fitted" horiz-adv-x="450" 
d="M103 7q16 99 94 273.5t174 307.5l-2 7l-177 -3q-67 -2 -90 -4q-8 -1 -13.5 -14.5t-17.5 -65.5l-46 5q-2 32 -2 75.5t6 80.5h411v-60q-213 -335 -232 -615q-11 -3 -29 -3q-51 0 -76 16z" />
    <glyph glyph-name="eight.fitted" 
d="M57 495q0 80 57 131t146 51q59 0 124 -29q34 -16 56 -49t22 -79q0 -90 -78 -148q-23 -16 -37 -16v-9q6 0 16 -5q60 -31 92 -69t32 -95q0 -83 -64.5 -135t-168.5 -52q-70 0 -138 27q-37 15 -60.5 49t-23.5 82q0 97 97 162q27 16 38 16v9q-6 0 -16 5q-94 57 -94 154z
M171 593q-27 -34 -27 -69t11.5 -56.5t36.5 -39.5q41 -29 102 -55q84 57 84 138q0 56 -34.5 86t-90 30t-82.5 -34zM361 79.5q32 33.5 32 69.5t-13 59t-41 41q-43 28 -107 53q-7 3 -10 4q-17 -6 -47 -31q-59 -51 -59 -110.5t40 -89t106.5 -29.5t98.5 33.5z" />
    <glyph glyph-name="nine.fitted" horiz-adv-x="516" 
d="M92 309q-56 59 -56 150t61.5 154.5t159.5 63.5t156 -70.5t58 -186.5q0 -142 -84 -270q-42 -64 -117 -108.5t-172 -53.5l-7 45q116 27 180 91.5t91 180.5l-8 3q-47 -58 -126.5 -58t-135.5 59zM241 628q-55 0 -82.5 -42t-27.5 -113.5t36.5 -112.5t85 -41t89.5 22
q24 13 29 37q6 24 6 59q0 86 -33.5 138.5t-102.5 52.5z" />
    <glyph glyph-name="cent.fitted" horiz-adv-x="430" 
d="M201 668h57v-122q68 0 123 -23q1 -6 1 -42.5t-10 -69.5l-43 -5q-10 54 -14 68.5t-10 16.5q-14 4 -47 6v-300h6q62 0 117 37l26 -30q-65 -58 -149 -65v-139h-57v141q-79 12 -120 66t-41 129.5t37.5 132t123.5 72.5v127zM130 347q0 -101 71 -135v281q-20 -4 -34 -21
q-37 -45 -37 -125z" />
    <glyph glyph-name="dollar.fitted" horiz-adv-x="547" 
d="M249 772h57v-852h-57v852zM203 58.5q38 -11.5 85 -11.5t80 27.5t33 75t-35 80t-84.5 52t-99 41t-84.5 62t-35 100.5q0 89 67.5 140t175.5 51q82 0 154 -27q3 -24 3 -63.5t-11 -105.5l-58 -7q-11 113 -27 126q-25 21 -87.5 21t-98 -24t-35.5 -64.5t19 -66t49.5 -41.5
t68 -30.5t74.5 -31t67.5 -37.5t49.5 -57t19 -83q0 -88 -64 -141t-172 -53q-59 0 -118 14.5t-86 28.5q-3 12 -3 57t12 109l57 3q8 -72 13.5 -93t14.5 -28q18 -12 56 -23.5z" />
    <glyph glyph-name="sterling.tab" 
d="M403 80q32 0 73 41l35 -23q-25 -46 -43 -68q-33 -39 -88 -39q-30 0 -90 21.5t-93 21.5t-54.5 -7t-32.5 -13.5t-34 -23.5l-25 33q36 40 55 75t22.5 55t3.5 55.5t-11 105.5h-83v53h74q-5 32 -5 62q0 133 65 203t171 70q54 0 122 -25q1 -8 1 -24q0 -67 -13 -99l-46 -5
q-4 47 -7 62.5t-10 21.5q-14 16 -70 16t-79 -48t-23 -162q0 -36 3 -72h173v-53h-170q1 -12 1 -34q0 -112 -55 -179l3 -5q29 20 66 20t92.5 -18t71.5 -18z" />
    <glyph glyph-name="yen.tab" 
d="M332 349l127 248q12 24 29 34.5t61 19.5l-4 42h-198l-6 -40q35 -8 47.5 -13.5t12.5 -14.5t-21 -49l-101 -195h-10q0 12 -10 29l-104 201q-7 12 -7 17t7 6l67 18l-4 41h-235l-7 -40q35 -8 45.5 -14.5t23.5 -28.5l142 -261h145zM214 215l97 2v-140q0 -23 20 -26l77 -12
l-4 -39h-275l-6 39q63 10 77 20.5t14 41.5v114zM76 314v53h376v-53h-376zM76 192v53h376v-53h-376z" />
    <glyph glyph-name="Euro.tab" 
d="M343 368h-326v51h45q16 117 76 195q32 41 81.5 64.5t103 23.5t101.5 -10t63 -18q6 -37 6 -77.5t-2 -90.5l-57 -8q-22 116 -39 128q-5 7 -30.5 15t-49.5 8q-64 0 -100.5 -62t-45.5 -168h174v-51zM17 297h326v-51h-168q16 -101 61 -150t104 -49q25 0 46.5 9t26.5 16
q12 9 34 128l55 -2q0 -76 -11 -162q-25 -17 -76 -31t-104 -14q-107 0 -169.5 70t-79.5 185h-45v51z" />
    <glyph glyph-name="zeroslash" horiz-adv-x="534" 
d="M438.5 69q-63.5 -78 -175 -78t-171.5 72.5t-60 202t63.5 208t175 78.5t171.5 -73t60 -202.5t-63.5 -207.5zM277 44q58 0 86 35q18 23 30 74t12 111q0 103 -37.5 169t-110.5 66q-58 0 -86 -35q-18 -23 -30 -74t-12 -111q0 -103 37.5 -169t110.5 -66zM312.5 223.5
q-18.5 -19.5 -47 -19.5t-46.5 16.5t-18 46t18 48.5t46.5 19t47 -15.5t18.5 -45.5t-18.5 -49.5z" />
    <glyph glyph-name="zeroslash.tabonum" 
d="M430.5 69q-63.5 -78 -175 -78t-171.5 72.5t-60 202t63.5 208t175 78.5t171.5 -73t60 -202.5t-63.5 -207.5zM269 44q58 0 86 35q18 23 30 74t12 111q0 103 -37.5 169t-110.5 66q-58 0 -86 -35q-18 -23 -30 -74t-12 -111q0 -103 37.5 -169t110.5 -66zM304.5 226.5
q-18.5 -19.5 -47 -19.5t-46.5 16.5t-18 46t18 48.5t46.5 19t47 -15.5t18.5 -45.5t-18.5 -49.5z" />
    <glyph glyph-name="zeroslash.tab" 
d="M436 94.5q-69 -103.5 -181.5 -103.5t-176 96.5t-63.5 239t68.5 246.5t181 104t176.5 -97.5t64 -239.5t-69 -245.5zM359.5 541.5q-40.5 82.5 -107.5 82.5t-99.5 -73t-32.5 -213.5t40.5 -217t109.5 -76.5q130 0 130 265q0 150 -40.5 232.5zM304.5 289.5
q-18.5 -19.5 -47 -19.5t-46.5 16.5t-18 46t18 48.5t46.5 19t47 -15.5t18.5 -45.5t-18.5 -49.5z" />
    <glyph glyph-name="zeroslash.fitted" horiz-adv-x="554" 
d="M453 94.5q-69 -103.5 -181.5 -103.5t-176 96.5t-63.5 239t68.5 246.5t181 104t176.5 -97.5t64 -239.5t-69 -245.5zM376.5 541.5q-40.5 82.5 -107.5 82.5t-99.5 -73t-32.5 -213.5t40.5 -217t109.5 -76.5q130 0 130 265q0 150 -40.5 232.5zM321.5 289.5
q-18.5 -19.5 -47 -19.5t-46.5 16.5t-18 46t18 48.5t46.5 19t47 -15.5t18.5 -45.5t-18.5 -49.5z" />
    <glyph glyph-name="A.sc" horiz-adv-x="521" 
d="M11 0l-5 37q30 7 36.5 11.5t12.5 21.5l172 474h64l178 -487q4 -12 46 -19l-3 -38h-198l-5 37q55 11 55 25q0 6 -3 16l-31 90h-186l-35 -99q-3 -8 -3 -12t4 -5l56 -15l-3 -37h-152zM159 215h156l-68 203q-5 15 -5 22h-5z" />
    <glyph glyph-name="B.sc" horiz-adv-x="520" 
d="M53 0l-5 36q41 7 50 15.5t9 32.5v369q0 24 -9 32.5t-50 15.5l5 36h215q89 0 136.5 -34t47.5 -88t-26.5 -87t-55.5 -42v-5q50 -10 83.5 -47.5t33.5 -90t-48.5 -98t-148.5 -45.5h-237zM200 300h40q112 0 112 100q0 90 -104 90h-48v-190zM270 253h-70v-172q0 -21 11 -27
q8 -8 44 -8q129 0 129 97q0 60 -34.5 85t-79.5 25z" />
    <glyph glyph-name="C.sc" horiz-adv-x="512" 
d="M38 268q0 53 15 98t45.5 86t85 66.5t133 25.5t158.5 -40q1 -9 1 -54.5t-12 -90.5l-60 -7q-9 82 -12.5 99.5t-9.5 21.5q-28 24 -76 24q-81 0 -123 -61t-42 -169t56 -167.5t129 -59.5q22 0 42.5 5.5t24.5 11.5q15 27 24 100l54 -3q9 -43 9 -78.5t-2 -53.5
q-19 -10 -72 -19.5t-86 -9.5q-156 0 -222 85q-60 77 -60 190z" />
    <glyph glyph-name="D.sc" horiz-adv-x="592" 
d="M53 0l-5 36q41 7 50 15.5t9 32.5v369q0 24 -9 32.5t-50 15.5l5 36h253q69 0 120 -21.5t79 -58.5q54 -71 54 -172q0 -88 -39 -159q-42 -78 -128 -109q-47 -17 -104 -17h-235zM200 78q0 -17 17 -21q43 -10 74 -10q82 0 124 59.5t42 159.5q0 62 -16 108t-43 70
q-50 46 -110 46h-88v-412z" />
    <glyph glyph-name="E.sc" horiz-adv-x="477" 
d="M53 0l-5 36q41 7 50 15.5t9 32.5v369q0 24 -9 32.5t-50 15.5l5 36h359q5 -32 5 -62t-2 -64l-50 -6q-11 54 -15.5 67.5t-10.5 14.5q-31 2 -48 3l-91 2v-200h93q10 0 25 55l30 -2q0 -79 11 -159l-34 -5q-12 42 -16.5 53t-9.5 11h-99v-200l59 1q80 1 106 5q14 6 39 96l43 -5
q1 -12 1 -59.5t-13 -82.5h-382z" />
    <glyph glyph-name="F.sc" horiz-adv-x="442" 
d="M53 0l-5 36q41 7 50 15.5t9 32.5v369q0 24 -9 32.5t-50 15.5l5 36h359q5 -32 5 -62t-2 -64l-50 -6q-11 54 -15.5 67.5t-10.5 14.5q-31 2 -48 3l-91 2v-207h93q10 0 25 55l30 -2q0 -79 11 -159l-34 -5q-12 42 -16.5 53t-9.5 11h-99v-173q0 -18 16 -20l79 -9l-3 -36h-239z
" />
    <glyph glyph-name="G.sc" horiz-adv-x="560" 
d="M480 15q-101 -22 -180 -22q-138 0 -202.5 79t-64.5 204q0 94 63 176q31 41 85.5 66.5t129 25.5t165.5 -32v-22q0 -75 -11 -116l-60 -7q-1 10 -7 57.5t-9 51.5q-19 21 -85 21q-82 0 -125 -59.5t-43 -170.5t56.5 -169t124.5 -58q43 0 70 9v108q0 24 -9 32.5t-50 15.5l5 30
h200l3 -30l-40 -10q-16 -3 -16 -20v-160z" />
    <glyph glyph-name="H.sc" horiz-adv-x="631" 
d="M53 0l-5 36q41 7 50 15.5t9 32.5v375q0 23 -8 29t-51 13l5 36h208l3 -36l-48 -9q-16 -3 -16 -20v-161h231v148q0 23 -8 29t-51 13l5 36h208l3 -36l-48 -9q-16 -3 -16 -20v-407q0 -17 16 -20l48 -9l-3 -36h-208l-5 36q41 7 50 15.5t9 32.5v175h-231v-194q0 -17 16 -20
l48 -9l-3 -36h-208z" />
    <glyph glyph-name="I.sc" horiz-adv-x="307" 
d="M53 0l-5 36q41 7 50 15.5t9 32.5v369q0 24 -9 32.5t-50 15.5l5 36h208l3 -36l-48 -9q-16 -3 -16 -20v-407q0 -17 16 -20l48 -9l-3 -36h-208z" />
    <glyph glyph-name="J.sc" horiz-adv-x="309" 
d="M201 477v-378q0 -74 -44 -137.5t-88 -63.5t-73 7q-2 6 -2 29t16 48q35 -9 50.5 -9t24.5 6q23 16 23 147v328q0 23 -12 32t-55 16l5 35h224l3 -35l-56 -10q-16 -3 -16 -15z" />
    <glyph glyph-name="K.sc" horiz-adv-x="546" 
d="M200 472v-192l175 185q12 12 12 18q0 15 -60 18l5 36h175l3 -38q-37 -2 -61 -26l-151 -160l170 -245q11 -16 26 -23t46 -9l-5 -36h-138l-165 245l-32 -34v-146q0 -17 16 -20l43 -9l-3 -36h-203l-5 36q41 7 50 15.5t9 32.5v369q0 24 -9 32.5t-50 15.5l5 36h208l3 -36
l-48 -9q-16 -3 -16 -20z" />
    <glyph glyph-name="L.sc" horiz-adv-x="456" 
d="M53 0l-5 36q41 7 50 15.5t9 32.5v369q0 24 -9 32.5t-50 15.5l5 36h208l3 -36l-48 -9q-16 -3 -16 -20v-427l62 1q82 1 95.5 5.5t35.5 119.5l48 -4q1 -13 1 -50t-8 -117h-381z" />
    <glyph glyph-name="M.sc" horiz-adv-x="717" 
d="M30 0l-4 36q42 8 51.5 14.5t10.5 29.5l23 373q1 25 -9 32.5t-50 15.5l4 36h162l130 -366q2 -5 6 -19h8q2 11 4 15l135 370h164l3 -36l-48 -9q-16 -2 -16 -18v-4l25 -405q0 -17 15 -20l49 -9l-3 -36h-214l-5 36q38 6 49 14.5t11 27.5v6l-12 329q0 17 3 29l-7 2l-148 -408
h-66l-137 381q-3 12 -3 22h-7l-16 -351q0 -20 5 -31t23 -14l36 -7l-3 -36h-169z" />
    <glyph glyph-name="N.sc" horiz-adv-x="577" 
d="M36 0l-5 36q41 7 50 15.5t9 32.5v369q0 24 -9 32.5t-50 15.5l5 36h155l233 -349q11 -16 13 -28h6v278q0 35 -13 46.5t-62 16.5l5 36h181l3 -36l-48 -9q-15 -3 -15 -20v-472l-53 -4l-281 416q-12 18 -13 29h-6v-358q0 -20 7 -29t27 -11l54 -7l-3 -36h-190z" />
    <glyph glyph-name="O.sc" horiz-adv-x="582" 
d="M99 65.5q-66 72.5 -66 198.5t70 203t192 77t188 -71t66 -197t-70 -204.5t-192 -78.5t-188 72.5zM177.5 101q41.5 -67 119.5 -67t113.5 67t35.5 169.5t-41.5 167.5t-119 65t-113.5 -65.5t-36 -167.5t41.5 -169z" />
    <glyph glyph-name="P.sc" horiz-adv-x="491" 
d="M48 501l5 36h234q88 0 132 -39.5t44 -113t-55.5 -126.5t-159.5 -53h-48v-140q0 -18 16 -20l79 -9l-3 -36h-239l-5 36q41 7 50 15.5t9 32.5v369q0 24 -9 32.5t-50 15.5zM264 490h-48q-16 0 -16 -18v-220h34q51 0 89 28.5t38 100.5q0 109 -97 109z" />
    <glyph glyph-name="Q.sc" horiz-adv-x="582" 
d="M33 262q0 128 70 205t192 77t188 -71t66 -193.5t-63 -199.5t-169 -82l-1 -4q110 -48 145 -48q24 0 57 36l26 -19q-27 -46 -46 -63.5t-38.5 -17.5t-54.5 13l-123 44q-22 8 -35 8t-25 -7q-15 -8 -36 -31l-26 18q26 43 51 74q-82 18 -130 86.5t-48 174.5zM177.5 101
q41.5 -67 119.5 -67t113.5 67t35.5 169.5t-41.5 167.5t-119 65t-113.5 -65.5t-36 -167.5t41.5 -169z" />
    <glyph glyph-name="R.sc" horiz-adv-x="530" 
d="M53 0l-5 36q41 7 50 15.5t9 32.5v369q0 24 -9 32.5t-50 15.5l5 36h232q166 0 166 -130q0 -41 -29 -85.5t-78 -67.5v-4q6 -1 13 -13l100 -169q11 -16 24.5 -23t42.5 -9l-5 -36h-131l-140 233h-48v-168q0 -17 16 -20l43 -9l-3 -36h-203zM200 278h34q58 0 88 25.5t30 94.5
q0 92 -98 92h-40q-12 0 -14 -16v-196z" />
    <glyph glyph-name="S.sc" horiz-adv-x="428" 
d="M214 42q87 0 87 77q0 59 -91 103q-38 19 -76 39t-64.5 54t-26.5 80q0 68 53.5 108.5t135.5 40.5t134 -30q1 -6 1 -39.5t-13 -76.5l-52 -5q-5 74 -21.5 88t-60.5 14t-67 -18q-26 -18 -26 -50.5t27.5 -56.5t66.5 -42.5t77.5 -39.5t66 -57.5t27.5 -84.5q0 -70 -52 -111.5
t-143 -41.5t-154 23q-2 10 -2 55t9 87l59 5q6 -64 10 -81t11 -21q30 -19 84 -19z" />
    <glyph glyph-name="T.sc" horiz-adv-x="467" 
d="M116 36q49 8 60 16t11 32v408h-49q-30 0 -42.5 -2t-16.5 -11.5t-20 -65.5l-45 5q0 66 19 119h401q15 -43 19 -119l-45 -5q-16 56 -20 65.5t-17 11.5t-42 2h-49v-427q0 -17 15 -20l61 -9l-4 -36h-231z" />
    <glyph glyph-name="U.sc" horiz-adv-x="603" 
d="M452 439q0 34 -13 45.5t-62 16.5l5 36h183l3 -36l-48 -9q-16 -3 -16 -20v-281q0 -91 -52 -144.5t-150 -53.5q-198 0 -198 192v268q0 24 -9 32.5t-50 15.5l5 36h208l3 -36l-48 -9q-16 -3 -16 -20v-278q0 -76 28.5 -112.5t94.5 -36.5t99 40.5t33 96.5v257z" />
    <glyph glyph-name="V.sc" horiz-adv-x="524" 
d="M230 -7l-172 474q-6 17 -14.5 22t-37.5 12l5 36h203l3 -37l-55 -15q-6 -1 -6 -4t4 -13l113 -330q7 -19 7 -27h8l115 324q11 33 11 40q0 15 -57 26l4 36h157l3 -38q-32 -6 -42 -14t-17 -29l-169 -463h-63z" />
    <glyph glyph-name="W.sc" horiz-adv-x="750" 
d="M411 480l99 -345q7 -19 7 -26h8l103 326q8 26 8 38q0 18 -58 28l5 36h164l3 -38q-33 -7 -43.5 -15t-17.5 -28l-158 -463h-66l-78 264q-3 15 -3 16h-5q0 -3 -4 -15l-92 -265h-67l-159 474q-6 16 -15 21.5t-39 12.5l5 36h194l3 -37l-42 -14q-6 -2 -6 -6l105 -345l7 -26h7
l83 245l-33 113q-1 5 -3 8.5t-3 6t-4 5t-4.5 3.5t-6.5 3t-7 3q-14 3 -20 5l6 36h184l3 -37l-54 -14q-6 -2 -6 -6z" />
    <glyph glyph-name="X.sc" horiz-adv-x="517" 
d="M15 0l-5 37q28 7 36.5 12.5t19.5 20.5l138 192l-138 205q-11 17 -19 22.5t-34 11.5l6 36h207l3 -37l-52 -14q-6 -2 -6 -6t6 -12l81 -120q8 -11 8 -24h7l82 117q20 28 20 36t-10.5 12.5t-40.5 11.5l5 36h159l3 -38q-26 -4 -35 -10.5t-10.5 -7.5t-5 -5t-4.5 -5.5t-4.5 -6.5
t-4.5 -7l-124 -167l157 -232q9 -13 47 -20l-3 -38h-203l-5 37q40 7 45 17q2 3 2 7.5t-6 13.5l-86 128q-8 12 -8 23h-8l-110 -155q-6 -11 -6 -15t7 -7l44 -12l-3 -37h-152z" />
    <glyph glyph-name="Y.sc" horiz-adv-x="511" 
d="M281 287l92 154q16 26 16 35.5t-9.5 13.5t-37.5 11l5 36h159l3 -38q-34 -7 -48 -15.5t-25 -26.5l-130 -222v-170q0 -18 16 -20l60 -9l-3 -36h-233l-4 36q49 8 60 16t11 32v141l-153 242q-10 17 -18.5 22t-35.5 12l5 36h207l3 -37l-53 -14q-5 -2 -5 -5t5 -13l98 -154
q7 -11 7 -27h8z" />
    <glyph glyph-name="Z.sc" horiz-adv-x="493" 
d="M123 390l-55 5q-2 32 -2 65t7 77h381l-1 -26l-276 -443q-10 -14 -17 -17l1 -6l36 1q149 3 169 6q14 4 34 101l56 -4q1 -8 1 -54.5t-13 -94.5h-411v26l276 443q10 14 17 18l-2 5h-60q-82 0 -109 -5q-12 0 -32 -97z" />
    <glyph glyph-name="Agrave.sc" horiz-adv-x="521" 
d="M11 0l-5 37q30 7 36.5 11.5t12.5 21.5l172 474h64l178 -487q4 -12 46 -19l-3 -38h-198l-5 37q55 11 55 25q0 6 -3 16l-31 90h-186l-35 -99q-3 -8 -3 -12t4 -5l56 -15l-3 -37h-152zM159 215h156l-68 203q-5 15 -5 22h-5zM96 693l-8 21l60 51l174 -129l-25 -36z" />
    <glyph glyph-name="Aacute.sc" horiz-adv-x="521" 
d="M11 0l-5 37q30 7 36.5 11.5t12.5 21.5l172 474h64l178 -487q4 -12 46 -19l-3 -38h-198l-5 37q55 11 55 25q0 6 -3 16l-31 90h-186l-35 -99q-3 -8 -3 -12t4 -5l56 -15l-3 -37h-152zM159 215h156l-68 203q-5 15 -5 22h-5zM394 714l-8 -21l-201 -93l-25 36l174 129z" />
    <glyph glyph-name="Acircumflex.sc" horiz-adv-x="521" 
d="M11 0l-5 37q30 7 36.5 11.5t12.5 21.5l172 474h64l178 -487q4 -12 46 -19l-3 -38h-198l-5 37q55 11 55 25q0 6 -3 16l-31 90h-186l-35 -99q-3 -8 -3 -12t4 -5l56 -15l-3 -37h-152zM159 215h156l-68 203q-5 15 -5 22h-5zM402 600l-139 91l-139 -91l-25 26l136 139h56
l136 -139z" />
    <glyph glyph-name="Atilde.sc" horiz-adv-x="521" 
d="M11 0l-5 37q30 7 36.5 11.5t12.5 21.5l172 474h64l178 -487q4 -12 46 -19l-3 -38h-198l-5 37q55 11 55 25q0 6 -3 16l-31 90h-186l-35 -99q-3 -8 -3 -12t4 -5l56 -15l-3 -37h-152zM159 215h156l-68 203q-5 15 -5 22h-5zM421 742l25 -12q-21 -46 -42.5 -73.5t-44 -27.5
t-89 13.5t-90.5 13.5q-38 0 -72 -34l-23 16q32 53 55 74.5t46 21.5t87.5 -13.5t89.5 -13.5t58 35z" />
    <glyph glyph-name="Adieresis.sc" horiz-adv-x="521" 
d="M11 0l-5 37q30 7 36.5 11.5t12.5 21.5l172 474h64l178 -487q4 -12 46 -19l-3 -38h-198l-5 37q55 11 55 25q0 6 -3 16l-31 90h-186l-35 -99q-3 -8 -3 -12t4 -5l56 -15l-3 -37h-152zM159 215h156l-68 203q-5 15 -5 22h-5zM359 626q-52 0 -52 56q0 22 14.5 38t37.5 16
q53 0 53 -54q0 -23 -15 -39.5t-38 -16.5zM166 626q-52 0 -52 56q0 22 14.5 38t37.5 16q53 0 53 -54q0 -23 -15 -39.5t-38 -16.5z" />
    <glyph glyph-name="Aring.sc" horiz-adv-x="521" 
d="M11 0l-5 37q30 7 36.5 11.5t12.5 21.5l172 474h64l178 -487q4 -12 46 -19l-3 -38h-198l-5 37q55 11 55 25q0 6 -3 16l-31 90h-186l-35 -99q-3 -8 -3 -12t4 -5l56 -15l-3 -37h-152zM159 215h156l-68 203q-5 15 -5 22h-5zM329.5 616q-29.5 -26 -71 -26t-69 23.5t-27.5 64.5
t29.5 66.5t70.5 25.5t69 -24t28 -64t-29.5 -66zM224 645q13 -12 34.5 -12t36 14t14.5 35t-13 33t-33 12q-52 0 -52 -49q0 -21 13 -33z" />
    <glyph glyph-name="Ccedilla.sc" horiz-adv-x="512" 
d="M38 268q0 -113 60 -190q66 -85 222 -85q33 0 86 9.5t72 19.5q2 18 2 53.5t-9 78.5l-54 3q-9 -73 -24 -100q-4 -6 -24.5 -11.5t-42.5 -5.5q-73 0 -129 59.5t-56 167.5t42 169t123 61q48 0 76 -24q6 -4 9.5 -21.5t12.5 -99.5l60 7q12 45 12 90.5t-1 54.5q-80 40 -158.5 40
t-133 -25.5t-85 -66.5t-45.5 -86t-15 -98zM230 -89l38 129l49 -13l-32 -113zM235 -217l-4 31q95 13 95 58q0 16 -12 27t-34.5 11t-40.5 -10l-9 11l48 37q22 7 53.5 7t54 -17t22.5 -47q0 -42 -46.5 -73t-126.5 -35z" />
    <glyph glyph-name="Egrave.sc" horiz-adv-x="477" 
d="M53 0l-5 36q41 7 50 15.5t9 32.5v369q0 24 -9 32.5t-50 15.5l5 36h359q5 -32 5 -62t-2 -64l-50 -6q-11 54 -15.5 67.5t-10.5 14.5q-31 2 -48 3l-91 2v-200h93q10 0 25 55l30 -2q0 -79 11 -159l-34 -5q-12 42 -16.5 53t-9.5 11h-99v-200l59 1q80 1 106 5q14 6 39 96l43 -5
q1 -12 1 -59.5t-13 -82.5h-382zM87 693l-8 21l60 51l174 -129l-25 -36z" />
    <glyph glyph-name="Eacute.sc" horiz-adv-x="477" 
d="M53 0l-5 36q41 7 50 15.5t9 32.5v369q0 24 -9 32.5t-50 15.5l5 36h359q5 -32 5 -62t-2 -64l-50 -6q-11 54 -15.5 67.5t-10.5 14.5q-31 2 -48 3l-91 2v-200h93q10 0 25 55l30 -2q0 -79 11 -159l-34 -5q-12 42 -16.5 53t-9.5 11h-99v-200l59 1q80 1 106 5q14 6 39 96l43 -5
q1 -12 1 -59.5t-13 -82.5h-382zM385 714l-8 -21l-201 -93l-25 36l174 129z" />
    <glyph glyph-name="Ecircumflex.sc" horiz-adv-x="477" 
d="M53 0l-5 36q41 7 50 15.5t9 32.5v369q0 24 -9 32.5t-50 15.5l5 36h359q5 -32 5 -62t-2 -64l-50 -6q-11 54 -15.5 67.5t-10.5 14.5q-31 2 -48 3l-91 2v-200h93q10 0 25 55l30 -2q0 -79 11 -159l-34 -5q-12 42 -16.5 53t-9.5 11h-99v-200l59 1q80 1 106 5q14 6 39 96l43 -5
q1 -12 1 -59.5t-13 -82.5h-382zM379 600l-139 91l-139 -91l-25 26l136 139h56l136 -139z" />
    <glyph glyph-name="Edieresis.sc" horiz-adv-x="477" 
d="M53 0l-5 36q41 7 50 15.5t9 32.5v369q0 24 -9 32.5t-50 15.5l5 36h359q5 -32 5 -62t-2 -64l-50 -6q-11 54 -15.5 67.5t-10.5 14.5q-31 2 -48 3l-91 2v-200h93q10 0 25 55l30 -2q0 -79 11 -159l-34 -5q-12 42 -16.5 53t-9.5 11h-99v-200l59 1q80 1 106 5q14 6 39 96l43 -5
q1 -12 1 -59.5t-13 -82.5h-382zM336 626q-52 0 -52 56q0 22 14.5 38t37.5 16q53 0 53 -54q0 -23 -15 -39.5t-38 -16.5zM143 626q-52 0 -52 56q0 22 14.5 38t37.5 16q53 0 53 -54q0 -23 -15 -39.5t-38 -16.5z" />
    <glyph glyph-name="Igrave.sc" horiz-adv-x="307" 
d="M53 0l-5 36q41 7 50 15.5t9 32.5v369q0 24 -9 32.5t-50 15.5l5 36h208l3 -36l-48 -9q-16 -3 -16 -20v-407q0 -17 16 -20l48 -9l-3 -36h-208zM8 693l-8 21l60 51l174 -129l-25 -36z" />
    <glyph glyph-name="Iacute.sc" horiz-adv-x="307" 
d="M53 0l-5 36q41 7 50 15.5t9 32.5v369q0 24 -9 32.5t-50 15.5l5 36h208l3 -36l-48 -9q-16 -3 -16 -20v-407q0 -17 16 -20l48 -9l-3 -36h-208zM291 714l-8 -21l-201 -93l-25 36l174 129z" />
    <glyph glyph-name="Icircumflex.sc" horiz-adv-x="307" 
d="M53 0l-5 36q41 7 50 15.5t9 32.5v369q0 24 -9 32.5t-50 15.5l5 36h208l3 -36l-48 -9q-16 -3 -16 -20v-407q0 -17 16 -20l48 -9l-3 -36h-208zM297 600l-139 91l-139 -91l-25 26l136 139h56l136 -139z" />
    <glyph glyph-name="Idieresis.sc" horiz-adv-x="307" 
d="M53 0l-5 36q41 7 50 15.5t9 32.5v369q0 24 -9 32.5t-50 15.5l5 36h208l3 -36l-48 -9q-16 -3 -16 -20v-407q0 -17 16 -20l48 -9l-3 -36h-208zM253 626q-52 0 -52 56q0 22 14.5 38t37.5 16q53 0 53 -54q0 -23 -15 -39.5t-38 -16.5zM60 626q-52 0 -52 56q0 22 14.5 38
t37.5 16q53 0 53 -54q0 -23 -15 -39.5t-38 -16.5z" />
    <glyph glyph-name="Ntilde.sc" horiz-adv-x="577" 
d="M36 0l-5 36q41 7 50 15.5t9 32.5v369q0 24 -9 32.5t-50 15.5l5 36h155l233 -349q11 -16 13 -28h6v278q0 35 -13 46.5t-62 16.5l5 36h181l3 -36l-48 -9q-15 -3 -15 -20v-472l-53 -4l-281 416q-12 18 -13 29h-6v-358q0 -20 7 -29t27 -11l54 -7l-3 -36h-190zM436 742l25 -12
q-21 -46 -42.5 -73.5t-44 -27.5t-89 13.5t-90.5 13.5q-38 0 -72 -34l-23 16q32 53 55 74.5t46 21.5t87.5 -13.5t89.5 -13.5t58 35z" />
    <glyph glyph-name="Ograve.sc" horiz-adv-x="582" 
d="M99 65.5q-66 72.5 -66 198.5t70 203t192 77t188 -71t66 -197t-70 -204.5t-192 -78.5t-188 72.5zM177.5 101q41.5 -67 119.5 -67t113.5 67t35.5 169.5t-41.5 167.5t-119 65t-113.5 -65.5t-36 -167.5t41.5 -169zM141 693l-8 21l60 51l174 -129l-25 -36z" />
    <glyph glyph-name="Oacute.sc" horiz-adv-x="582" 
d="M99 65.5q-66 72.5 -66 198.5t70 203t192 77t188 -71t66 -197t-70 -204.5t-192 -78.5t-188 72.5zM177.5 101q41.5 -67 119.5 -67t113.5 67t35.5 169.5t-41.5 167.5t-119 65t-113.5 -65.5t-36 -167.5t41.5 -169zM426 714l-8 -21l-201 -93l-25 36l174 129z" />
    <glyph glyph-name="Ocircumflex.sc" horiz-adv-x="582" 
d="M99 65.5q-66 72.5 -66 198.5t70 203t192 77t188 -71t66 -197t-70 -204.5t-192 -78.5t-188 72.5zM177.5 101q41.5 -67 119.5 -67t113.5 67t35.5 169.5t-41.5 167.5t-119 65t-113.5 -65.5t-36 -167.5t41.5 -169zM427 600l-139 91l-139 -91l-25 26l136 139h56l136 -139z" />
    <glyph glyph-name="Otilde.sc" horiz-adv-x="582" 
d="M99 65.5q-66 72.5 -66 198.5t70 203t192 77t188 -71t66 -197t-70 -204.5t-192 -78.5t-188 72.5zM177.5 101q41.5 -67 119.5 -67t113.5 67t35.5 169.5t-41.5 167.5t-119 65t-113.5 -65.5t-36 -167.5t41.5 -169zM453 742l25 -12q-21 -46 -42.5 -73.5t-44 -27.5t-89 13.5
t-90.5 13.5q-38 0 -72 -34l-23 16q32 53 55 74.5t46 21.5t87.5 -13.5t89.5 -13.5t58 35z" />
    <glyph glyph-name="Odieresis.sc" horiz-adv-x="582" 
d="M99 65.5q-66 72.5 -66 198.5t70 203t192 77t188 -71t66 -197t-70 -204.5t-192 -78.5t-188 72.5zM177.5 101q41.5 -67 119.5 -67t113.5 67t35.5 169.5t-41.5 167.5t-119 65t-113.5 -65.5t-36 -167.5t41.5 -169zM389 626q-52 0 -52 56q0 22 14.5 38t37.5 16q53 0 53 -54
q0 -23 -15 -39.5t-38 -16.5zM196 626q-52 0 -52 56q0 22 14.5 38t37.5 16q53 0 53 -54q0 -23 -15 -39.5t-38 -16.5z" />
    <glyph glyph-name="Oslash.sc" horiz-adv-x="582" 
d="M436 607l55 -20l-335 -653l-54 20zM99 65.5q-66 72.5 -66 198.5t70 203t192 77t188 -71t66 -197t-70 -204.5t-192 -78.5t-188 72.5zM177.5 101q41.5 -67 119.5 -67t113.5 67t35.5 169.5t-41.5 167.5t-119 65t-113.5 -65.5t-36 -167.5t41.5 -169z" />
    <glyph glyph-name="Ugrave.sc" horiz-adv-x="603" 
d="M452 439q0 34 -13 45.5t-62 16.5l5 36h183l3 -36l-48 -9q-16 -3 -16 -20v-281q0 -91 -52 -144.5t-150 -53.5q-198 0 -198 192v268q0 24 -9 32.5t-50 15.5l5 36h208l3 -36l-48 -9q-16 -3 -16 -20v-278q0 -76 28.5 -112.5t94.5 -36.5t99 40.5t33 96.5v257zM156 693l-8 21
l60 51l174 -129l-25 -36z" />
    <glyph glyph-name="Uacute.sc" horiz-adv-x="603" 
d="M452 439q0 34 -13 45.5t-62 16.5l5 36h183l3 -36l-48 -9q-16 -3 -16 -20v-281q0 -91 -52 -144.5t-150 -53.5q-198 0 -198 192v268q0 24 -9 32.5t-50 15.5l5 36h208l3 -36l-48 -9q-16 -3 -16 -20v-278q0 -76 28.5 -112.5t94.5 -36.5t99 40.5t33 96.5v257zM445 714l-8 -21
l-201 -93l-25 36l174 129z" />
    <glyph glyph-name="Ucircumflex.sc" horiz-adv-x="603" 
d="M452 439q0 34 -13 45.5t-62 16.5l5 36h183l3 -36l-48 -9q-16 -3 -16 -20v-281q0 -91 -52 -144.5t-150 -53.5q-198 0 -198 192v268q0 24 -9 32.5t-50 15.5l5 36h208l3 -36l-48 -9q-16 -3 -16 -20v-278q0 -76 28.5 -112.5t94.5 -36.5t99 40.5t33 96.5v257zM445 600l-139 91
l-139 -91l-25 26l136 139h56l136 -139z" />
    <glyph glyph-name="Udieresis.sc" horiz-adv-x="603" 
d="M452 439q0 34 -13 45.5t-62 16.5l5 36h183l3 -36l-48 -9q-16 -3 -16 -20v-281q0 -91 -52 -144.5t-150 -53.5q-198 0 -198 192v268q0 24 -9 32.5t-50 15.5l5 36h208l3 -36l-48 -9q-16 -3 -16 -20v-278q0 -76 28.5 -112.5t94.5 -36.5t99 40.5t33 96.5v257zM411 626
q-52 0 -52 56q0 22 14.5 38t37.5 16q53 0 53 -54q0 -23 -15 -39.5t-38 -16.5zM218 626q-52 0 -52 56q0 22 14.5 38t37.5 16q53 0 53 -54q0 -23 -15 -39.5t-38 -16.5z" />
    <glyph glyph-name="Yacute.sc" horiz-adv-x="511" 
d="M281 287l92 154q16 26 16 35.5t-9.5 13.5t-37.5 11l5 36h159l3 -38q-34 -7 -48 -15.5t-25 -26.5l-130 -222v-170q0 -18 16 -20l60 -9l-3 -36h-233l-4 36q49 8 60 16t11 32v141l-153 242q-10 17 -18.5 22t-35.5 12l5 36h207l3 -37l-53 -14q-5 -2 -5 -5t5 -13l98 -154
q7 -11 7 -27h8zM418 714l-8 -21l-201 -93l-25 36l174 129z" />
    <glyph glyph-name="Ydieresis.sc" horiz-adv-x="511" 
d="M281 287l92 154q16 26 16 35.5t-9.5 13.5t-37.5 11l5 36h159l3 -38q-34 -7 -48 -15.5t-25 -26.5l-130 -222v-170q0 -18 16 -20l60 -9l-3 -36h-233l-4 36q49 8 60 16t11 32v141l-153 242q-10 17 -18.5 22t-35.5 12l5 36h207l3 -37l-53 -14q-5 -2 -5 -5t5 -13l98 -154
q7 -11 7 -27h8zM366 626q-52 0 -52 56q0 22 14.5 38t37.5 16q53 0 53 -54q0 -23 -15 -39.5t-38 -16.5zM173 626q-52 0 -52 56q0 22 14.5 38t37.5 16q53 0 53 -54q0 -23 -15 -39.5t-38 -16.5z" />
    <glyph glyph-name="Amacron.sc" horiz-adv-x="521" 
d="M11 0l-5 37q30 7 36.5 11.5t12.5 21.5l172 474h64l178 -487q4 -12 46 -19l-3 -38h-198l-5 37q55 11 55 25q0 6 -3 16l-31 90h-186l-35 -99q-3 -8 -3 -12t4 -5l56 -15l-3 -37h-152zM159 215h156l-68 203q-5 15 -5 22h-5zM143 650v60h249v-60h-249z" />
    <glyph glyph-name="Abreve.sc" horiz-adv-x="521" 
d="M11 0l-5 37q30 7 36.5 11.5t12.5 21.5l172 474h64l178 -487q4 -12 46 -19l-3 -38h-198l-5 37q55 11 55 25q0 6 -3 16l-31 90h-186l-35 -99q-3 -8 -3 -12t4 -5l56 -15l-3 -37h-152zM159 215h156l-68 203q-5 15 -5 22h-5zM378 751h37q-4 -62 -41 -101t-108 -39t-108 39
t-41 101h37q17 -72 112 -72t112 72z" />
    <glyph glyph-name="Aogonek.sc" horiz-adv-x="521" 
d="M11 0l-5 37q30 7 36.5 11.5t12.5 21.5l172 474h64l178 -487q4 -12 46 -19l-3 -38h-198l-5 37q55 11 55 25q0 6 -3 16l-31 90h-186l-35 -99q-3 -8 -3 -12t4 -5l56 -15l-3 -37h-152zM159 215h156l-68 203q-5 15 -5 22h-5zM450 -171q-45 -41 -88 -41t-68 24.5t-25 67.5
t41 85.5t121 67.5l11 -20q-106 -52 -106 -124q0 -23 14 -37t39 -14t50 9z" />
    <glyph glyph-name="Cacute.sc" horiz-adv-x="512" 
d="M38 268q0 53 15 98t45.5 86t85 66.5t133 25.5t158.5 -40q1 -9 1 -54.5t-12 -90.5l-60 -7q-9 82 -12.5 99.5t-9.5 21.5q-28 24 -76 24q-81 0 -123 -61t-42 -169t56 -167.5t129 -59.5q22 0 42.5 5.5t24.5 11.5q15 27 24 100l54 -3q9 -43 9 -78.5t-2 -53.5
q-19 -10 -72 -19.5t-86 -9.5q-156 0 -222 85q-60 77 -60 190zM425 714l-8 -21l-201 -93l-25 36l174 129z" />
    <glyph glyph-name="Ccircumflex.sc" horiz-adv-x="512" 
d="M38 268q0 53 15 98t45.5 86t85 66.5t133 25.5t158.5 -40q1 -9 1 -54.5t-12 -90.5l-60 -7q-9 82 -12.5 99.5t-9.5 21.5q-28 24 -76 24q-81 0 -123 -61t-42 -169t56 -167.5t129 -59.5q22 0 42.5 5.5t24.5 11.5q15 27 24 100l54 -3q9 -43 9 -78.5t-2 -53.5
q-19 -10 -72 -19.5t-86 -9.5q-156 0 -222 85q-60 77 -60 190zM422 600l-139 91l-139 -91l-25 26l136 139h56l136 -139z" />
    <glyph glyph-name="Ccaron.sc" horiz-adv-x="512" 
d="M38 268q0 53 15 98t45.5 86t85 66.5t133 25.5t158.5 -40q1 -9 1 -54.5t-12 -90.5l-60 -7q-9 82 -12.5 99.5t-9.5 21.5q-28 24 -76 24q-81 0 -123 -61t-42 -169t56 -167.5t129 -59.5q22 0 42.5 5.5t24.5 11.5q15 27 24 100l54 -3q9 -43 9 -78.5t-2 -53.5
q-19 -10 -72 -19.5t-86 -9.5q-156 0 -222 85q-60 77 -60 190zM130 768l139 -91l139 91l25 -26l-136 -139h-56l-136 139z" />
    <glyph glyph-name="Dcaron.sc" horiz-adv-x="592" 
d="M53 0l-5 36q41 7 50 15.5t9 32.5v369q0 24 -9 32.5t-50 15.5l5 36h253q69 0 120 -21.5t79 -58.5q54 -71 54 -172q0 -88 -39 -159q-42 -78 -128 -109q-47 -17 -104 -17h-235zM200 78q0 -17 17 -21q43 -10 74 -10q82 0 124 59.5t42 159.5q0 62 -16 108t-43 70
q-50 46 -110 46h-88v-412zM119 768l139 -91l139 91l25 -26l-136 -139h-56l-136 139z" />
    <glyph glyph-name="Emacron.sc" horiz-adv-x="477" 
d="M53 0l-5 36q41 7 50 15.5t9 32.5v369q0 24 -9 32.5t-50 15.5l5 36h359q5 -32 5 -62t-2 -64l-50 -6q-11 54 -15.5 67.5t-10.5 14.5q-31 2 -48 3l-91 2v-200h93q10 0 25 55l30 -2q0 -79 11 -159l-34 -5q-12 42 -16.5 53t-9.5 11h-99v-200l59 1q80 1 106 5q14 6 39 96l43 -5
q1 -12 1 -59.5t-13 -82.5h-382zM115 650v60h249v-60h-249z" />
    <glyph glyph-name="Ebreve.sc" horiz-adv-x="477" 
d="M53 0l-5 36q41 7 50 15.5t9 32.5v369q0 24 -9 32.5t-50 15.5l5 36h359q5 -32 5 -62t-2 -64l-50 -6q-11 54 -15.5 67.5t-10.5 14.5q-31 2 -48 3l-91 2v-200h93q10 0 25 55l30 -2q0 -79 11 -159l-34 -5q-12 42 -16.5 53t-9.5 11h-99v-200l59 1q80 1 106 5q14 6 39 96l43 -5
q1 -12 1 -59.5t-13 -82.5h-382zM351 751h37q-4 -62 -41 -101t-108 -39t-108 39t-41 101h37q17 -72 112 -72t112 72z" />
    <glyph glyph-name="Eogonek.sc" horiz-adv-x="477" 
d="M53 0l-5 36q41 7 50 15.5t9 32.5v369q0 24 -9 32.5t-50 15.5l5 36h359q5 -32 5 -62t-2 -64l-50 -6q-11 54 -15.5 67.5t-10.5 14.5q-31 2 -48 3l-91 2v-200h93q10 0 25 55l30 -2q0 -79 11 -159l-34 -5q-12 42 -16.5 53t-9.5 11h-99v-200l59 1q80 1 106 5q14 6 39 96l43 -5
q1 -12 1 -59.5t-13 -82.5h-382zM426 -171q-45 -41 -88 -41t-68 24.5t-25 67.5t41 85.5t121 67.5l11 -20q-106 -52 -106 -124q0 -23 14 -37t39 -14t50 9z" />
    <glyph glyph-name="Ecaron.sc" horiz-adv-x="477" 
d="M53 0l-5 36q41 7 50 15.5t9 32.5v369q0 24 -9 32.5t-50 15.5l5 36h359q5 -32 5 -62t-2 -64l-50 -6q-11 54 -15.5 67.5t-10.5 14.5q-31 2 -48 3l-91 2v-200h93q10 0 25 55l30 -2q0 -79 11 -159l-34 -5q-12 42 -16.5 53t-9.5 11h-99v-200l59 1q80 1 106 5q14 6 39 96l43 -5
q1 -12 1 -59.5t-13 -82.5h-382zM110 768l139 -91l139 91l25 -26l-136 -139h-56l-136 139z" />
    <glyph glyph-name="Gcircumflex.sc" horiz-adv-x="560" 
d="M480 15q-101 -22 -180 -22q-138 0 -202.5 79t-64.5 204q0 94 63 176q31 41 85.5 66.5t129 25.5t165.5 -32v-22q0 -75 -11 -116l-60 -7q-1 10 -7 57.5t-9 51.5q-19 21 -85 21q-82 0 -125 -59.5t-43 -170.5t56.5 -169t124.5 -58q43 0 70 9v108q0 24 -9 32.5t-50 15.5l5 30
h200l3 -30l-40 -10q-16 -3 -16 -20v-160zM417 600l-139 91l-139 -91l-25 26l136 139h56l136 -139z" />
    <glyph glyph-name="Gbreve.sc" horiz-adv-x="560" 
d="M480 15q-101 -22 -180 -22q-138 0 -202.5 79t-64.5 204q0 94 63 176q31 41 85.5 66.5t129 25.5t165.5 -32v-22q0 -75 -11 -116l-60 -7q-1 10 -7 57.5t-9 51.5q-19 21 -85 21q-82 0 -125 -59.5t-43 -170.5t56.5 -169t124.5 -58q43 0 70 9v108q0 24 -9 32.5t-50 15.5l5 30
h200l3 -30l-40 -10q-16 -3 -16 -20v-160zM390 751h37q-4 -62 -41 -101t-108 -39t-108 39t-41 101h37q17 -72 112 -72t112 72z" />
    <glyph glyph-name="Hcircumflex.sc" horiz-adv-x="631" 
d="M53 0l-5 36q41 7 50 15.5t9 32.5v375q0 23 -8 29t-51 13l5 36h208l3 -36l-48 -9q-16 -3 -16 -20v-161h231v148q0 23 -8 29t-51 13l5 36h208l3 -36l-48 -9q-16 -3 -16 -20v-407q0 -17 16 -20l48 -9l-3 -36h-208l-5 36q41 7 50 15.5t9 32.5v175h-231v-194q0 -17 16 -20
l48 -9l-3 -36h-208zM447 600l-139 91l-139 -91l-25 26l136 139h56l136 -139z" />
    <glyph glyph-name="Hbar.sc" horiz-adv-x="631" 
d="M53 0l-5 36q41 7 50 15.5t9 32.5v375q0 23 -8 29t-51 13l5 36h208l3 -36l-48 -9q-16 -3 -16 -20v-161h231v148q0 23 -8 29t-51 13l5 36h208l3 -36l-48 -9q-16 -3 -16 -20v-407q0 -17 16 -20l48 -9l-3 -36h-208l-5 36q41 7 50 15.5t9 32.5v175h-231v-194q0 -17 16 -20
l48 -9l-3 -36h-208zM54 365v53h522v-53h-522z" />
    <glyph glyph-name="Itilde.sc" horiz-adv-x="307" 
d="M53 0l-5 36q41 7 50 15.5t9 32.5v369q0 24 -9 32.5t-50 15.5l5 36h208l3 -36l-48 -9q-16 -3 -16 -20v-407q0 -17 16 -20l48 -9l-3 -36h-208zM309 742l25 -12q-21 -46 -42.5 -73.5t-44 -27.5t-89 13.5t-90.5 13.5q-38 0 -72 -34l-23 16q32 53 55 74.5t46 21.5t87.5 -13.5
t89.5 -13.5t58 35z" />
    <glyph glyph-name="Imacron.sc" horiz-adv-x="307" 
d="M53 0l-5 36q41 7 50 15.5t9 32.5v369q0 24 -9 32.5t-50 15.5l5 36h208l3 -36l-48 -9q-16 -3 -16 -20v-407q0 -17 16 -20l48 -9l-3 -36h-208zM32 650v60h249v-60h-249z" />
    <glyph glyph-name="Ibreve.sc" horiz-adv-x="307" 
d="M53 0l-5 36q41 7 50 15.5t9 32.5v369q0 24 -9 32.5t-50 15.5l5 36h208l3 -36l-48 -9q-16 -3 -16 -20v-407q0 -17 16 -20l48 -9l-3 -36h-208zM264 751h37q-4 -62 -41 -101t-108 -39t-108 39t-41 101h37q17 -72 112 -72t112 72z" />
    <glyph glyph-name="Iogonek.sc" horiz-adv-x="307" 
d="M53 0l-5 36q41 7 50 15.5t9 32.5v369q0 24 -9 32.5t-50 15.5l5 36h208l3 -36l-48 -9q-16 -3 -16 -20v-407q0 -17 16 -20l48 -9l-3 -36h-208zM223 -171q-45 -41 -88 -41t-68 24.5t-25 67.5t41 85.5t121 67.5l11 -20q-106 -52 -106 -124q0 -23 13.5 -37t39 -14t50.5 9z" />
    <glyph glyph-name="Lacute.sc" horiz-adv-x="456" 
d="M53 0l-5 36q41 7 50 15.5t9 32.5v369q0 24 -9 32.5t-50 15.5l5 36h208l3 -36l-48 -9q-16 -3 -16 -20v-427l62 1q82 1 95.5 5.5t35.5 119.5l48 -4q1 -13 1 -50t-8 -117h-381zM303 714l-8 -21l-201 -93l-25 36l174 129z" />
    <glyph glyph-name="Lcaron.sc" horiz-adv-x="456" 
d="M53 0l-5 36q41 7 50 15.5t9 32.5v369q0 24 -9 32.5t-50 15.5l5 36h208l3 -36l-48 -9q-16 -3 -16 -20v-427l62 1q82 1 95.5 5.5t35.5 119.5l48 -4q1 -13 1 -50t-8 -117h-381zM49 768l139 -91l139 91l25 -26l-136 -139h-56l-136 139z" />
    <glyph glyph-name="Ldot.sc" horiz-adv-x="456" 
d="M53 0l-5 36q41 7 50 15.5t9 32.5v369q0 24 -9 32.5t-50 15.5l5 36h208l3 -36l-48 -9q-16 -3 -16 -20v-427l62 1q82 1 95.5 5.5t35.5 119.5l48 -4q1 -13 1 -50t-8 -117h-381zM386.5 281q-15.5 -17 -41 -17t-42 15t-16.5 41.5t15.5 42.5t42.5 16q57 0 57 -56
q0 -25 -15.5 -42z" />
    <glyph glyph-name="Lslash.sc" horiz-adv-x="456" 
d="M52 165l-28 43l303 200l28 -43zM53 0l-5 36q41 7 50 15.5t9 32.5v369q0 24 -9 32.5t-50 15.5l5 36h208l3 -36l-48 -9q-16 -3 -16 -20v-427l62 1q82 1 95.5 5.5t35.5 119.5l48 -4q1 -13 1 -50t-8 -117h-381z" />
    <glyph glyph-name="Nacute.sc" horiz-adv-x="577" 
d="M36 0l-5 36q41 7 50 15.5t9 32.5v369q0 24 -9 32.5t-50 15.5l5 36h155l233 -349q11 -16 13 -28h6v278q0 35 -13 46.5t-62 16.5l5 36h181l3 -36l-48 -9q-15 -3 -15 -20v-472l-53 -4l-281 416q-12 18 -13 29h-6v-358q0 -20 7 -29t27 -11l54 -7l-3 -36h-190zM421 714l-8 -21
l-201 -93l-25 36l174 129z" />
    <glyph glyph-name="Ncaron.sc" horiz-adv-x="577" 
d="M36 0l-5 36q41 7 50 15.5t9 32.5v369q0 24 -9 32.5t-50 15.5l5 36h155l233 -349q11 -16 13 -28h6v278q0 35 -13 46.5t-62 16.5l5 36h181l3 -36l-48 -9q-15 -3 -15 -20v-472l-53 -4l-281 416q-12 18 -13 29h-6v-358q0 -20 7 -29t27 -11l54 -7l-3 -36h-190zM140 768
l139 -91l139 91l25 -26l-136 -139h-56l-136 139z" />
    <glyph glyph-name="Omacron.sc" horiz-adv-x="582" 
d="M99 65.5q-66 72.5 -66 198.5t70 203t192 77t188 -71t66 -197t-70 -204.5t-192 -78.5t-188 72.5zM177.5 101q41.5 -67 119.5 -67t113.5 67t35.5 169.5t-41.5 167.5t-119 65t-113.5 -65.5t-36 -167.5t41.5 -169zM159 650v60h249v-60h-249z" />
    <glyph glyph-name="Obreve.sc" horiz-adv-x="582" 
d="M99 65.5q-66 72.5 -66 198.5t70 203t192 77t188 -71t66 -197t-70 -204.5t-192 -78.5t-188 72.5zM177.5 101q41.5 -67 119.5 -67t113.5 67t35.5 169.5t-41.5 167.5t-119 65t-113.5 -65.5t-36 -167.5t41.5 -169zM401 751h37q-4 -62 -41 -101t-108 -39t-108 39t-41 101h37
q17 -72 112 -72t112 72z" />
    <glyph glyph-name="Ohungarumlaut.sc" horiz-adv-x="582" 
d="M99 65.5q-66 72.5 -66 198.5t70 203t192 77t188 -71t66 -197t-70 -204.5t-192 -78.5t-188 72.5zM177.5 101q41.5 -67 119.5 -67t113.5 67t35.5 169.5t-41.5 167.5t-119 65t-113.5 -65.5t-36 -167.5t41.5 -169zM481 736v-23l-177 -111l-35 25l117 139zM283 736v-23
l-177 -111l-35 25l117 139z" />
    <glyph glyph-name="Racute.sc" horiz-adv-x="530" 
d="M53 0l-5 36q41 7 50 15.5t9 32.5v369q0 24 -9 32.5t-50 15.5l5 36h232q166 0 166 -130q0 -41 -29 -85.5t-78 -67.5v-4q6 -1 13 -13l100 -169q11 -16 24.5 -23t42.5 -9l-5 -36h-131l-140 233h-48v-168q0 -17 16 -20l43 -9l-3 -36h-203zM200 278h34q58 0 88 25.5t30 94.5
q0 92 -98 92h-40q-12 0 -14 -16v-196zM407 714l-8 -21l-201 -93l-25 36l174 129z" />
    <glyph glyph-name="Rcaron.sc" horiz-adv-x="530" 
d="M53 0l-5 36q41 7 50 15.5t9 32.5v369q0 24 -9 32.5t-50 15.5l5 36h232q166 0 166 -130q0 -41 -29 -85.5t-78 -67.5v-4q6 -1 13 -13l100 -169q11 -16 24.5 -23t42.5 -9l-5 -36h-131l-140 233h-48v-168q0 -17 16 -20l43 -9l-3 -36h-203zM200 278h34q58 0 88 25.5t30 94.5
q0 92 -98 92h-40q-12 0 -14 -16v-196zM108 768l139 -91l139 91l25 -26l-136 -139h-56l-136 139z" />
    <glyph glyph-name="Sacute.sc" horiz-adv-x="428" 
d="M214 42q87 0 87 77q0 59 -91 103q-38 19 -76 39t-64.5 54t-26.5 80q0 68 53.5 108.5t135.5 40.5t134 -30q1 -6 1 -39.5t-13 -76.5l-52 -5q-5 74 -21.5 88t-60.5 14t-67 -18q-26 -18 -26 -50.5t27.5 -56.5t66.5 -42.5t77.5 -39.5t66 -57.5t27.5 -84.5q0 -70 -52 -111.5
t-143 -41.5t-154 23q-2 10 -2 55t9 87l59 5q6 -64 10 -81t11 -21q30 -19 84 -19zM342 714l-8 -21l-201 -93l-25 36l174 129z" />
    <glyph glyph-name="Scircumflex.sc" horiz-adv-x="428" 
d="M214 42q87 0 87 77q0 59 -91 103q-38 19 -76 39t-64.5 54t-26.5 80q0 68 53.5 108.5t135.5 40.5t134 -30q1 -6 1 -39.5t-13 -76.5l-52 -5q-5 74 -21.5 88t-60.5 14t-67 -18q-26 -18 -26 -50.5t27.5 -56.5t66.5 -42.5t77.5 -39.5t66 -57.5t27.5 -84.5q0 -70 -52 -111.5
t-143 -41.5t-154 23q-2 10 -2 55t9 87l59 5q6 -64 10 -81t11 -21q30 -19 84 -19zM351 600l-139 91l-139 -91l-25 26l136 139h56l136 -139z" />
    <glyph glyph-name="Scedilla.sc" horiz-adv-x="428" 
d="M214 42q87 0 87 77q0 59 -91 103q-38 19 -76 39t-64.5 54t-26.5 80q0 68 53.5 108.5t135.5 40.5t134 -30q1 -6 1 -39.5t-13 -76.5l-52 -5q-5 74 -21.5 88t-60.5 14t-67 -18q-26 -18 -26 -50.5t27.5 -56.5t66.5 -42.5t77.5 -39.5t66 -57.5t27.5 -84.5q0 -70 -52 -111.5
t-143 -41.5t-154 23q-2 10 -2 55t9 87l59 5q6 -64 10 -81t11 -21q30 -19 84 -19zM148 -89l38 129l49 -13l-32 -113zM153 -217l-4 31q95 13 95 58q0 16 -12 27t-34.5 11t-40.5 -10l-9 11l48 37q22 7 53.5 7t54 -17t22.5 -47q0 -42 -46.5 -73t-126.5 -35z" />
    <glyph glyph-name="Scaron.sc" horiz-adv-x="428" 
d="M214 42q87 0 87 77q0 59 -91 103q-38 19 -76 39t-64.5 54t-26.5 80q0 68 53.5 108.5t135.5 40.5t134 -30q1 -6 1 -39.5t-13 -76.5l-52 -5q-5 74 -21.5 88t-60.5 14t-67 -18q-26 -18 -26 -50.5t27.5 -56.5t66.5 -42.5t77.5 -39.5t66 -57.5t27.5 -84.5q0 -70 -52 -111.5
t-143 -41.5t-154 23q-2 10 -2 55t9 87l59 5q6 -64 10 -81t11 -21q30 -19 84 -19zM73 768l139 -91l139 91l25 -26l-136 -139h-56l-136 139z" />
    <glyph glyph-name="Tcaron.sc" horiz-adv-x="467" 
d="M116 36q49 8 60 16t11 32v408h-49q-30 0 -42.5 -2t-16.5 -11.5t-20 -65.5l-45 5q0 66 19 119h401q15 -43 19 -119l-45 -5q-16 56 -20 65.5t-17 11.5t-42 2h-49v-427q0 -17 15 -20l61 -9l-4 -36h-231zM94 768l139 -91l139 91l25 -26l-136 -139h-56l-136 139z" />
    <glyph glyph-name="Tbar.sc" horiz-adv-x="467" 
d="M116 36q49 8 60 16t11 32v408h-49q-30 0 -42.5 -2t-16.5 -11.5t-20 -65.5l-45 5q0 66 19 119h401q15 -43 19 -119l-45 -5q-16 56 -20 65.5t-17 11.5t-42 2h-49v-427q0 -17 15 -20l61 -9l-4 -36h-231zM24 237v53h414v-53h-414z" />
    <glyph glyph-name="Utilde.sc" horiz-adv-x="603" 
d="M452 439q0 34 -13 45.5t-62 16.5l5 36h183l3 -36l-48 -9q-16 -3 -16 -20v-281q0 -91 -52 -144.5t-150 -53.5q-198 0 -198 192v268q0 24 -9 32.5t-50 15.5l5 36h208l3 -36l-48 -9q-16 -3 -16 -20v-278q0 -76 28.5 -112.5t94.5 -36.5t99 40.5t33 96.5v257zM459 742l25 -12
q-21 -46 -42.5 -73.5t-44 -27.5t-89 13.5t-90.5 13.5q-38 0 -72 -34l-23 16q32 53 55 74.5t46 21.5t87.5 -13.5t89.5 -13.5t58 35z" />
    <glyph glyph-name="Umacron.sc" horiz-adv-x="603" 
d="M452 439q0 34 -13 45.5t-62 16.5l5 36h183l3 -36l-48 -9q-16 -3 -16 -20v-281q0 -91 -52 -144.5t-150 -53.5q-198 0 -198 192v268q0 24 -9 32.5t-50 15.5l5 36h208l3 -36l-48 -9q-16 -3 -16 -20v-278q0 -76 28.5 -112.5t94.5 -36.5t99 40.5t33 96.5v257zM182 650v60h249
v-60h-249z" />
    <glyph glyph-name="Ubreve.sc" horiz-adv-x="603" 
d="M452 439q0 34 -13 45.5t-62 16.5l5 36h183l3 -36l-48 -9q-16 -3 -16 -20v-281q0 -91 -52 -144.5t-150 -53.5q-198 0 -198 192v268q0 24 -9 32.5t-50 15.5l5 36h208l3 -36l-48 -9q-16 -3 -16 -20v-278q0 -76 28.5 -112.5t94.5 -36.5t99 40.5t33 96.5v257zM408 751h37
q-4 -62 -41 -101t-108 -39t-108 39t-41 101h37q17 -72 112 -72t112 72z" />
    <glyph glyph-name="Uring.sc" horiz-adv-x="603" 
d="M452 439q0 34 -13 45.5t-62 16.5l5 36h183l3 -36l-48 -9q-16 -3 -16 -20v-281q0 -91 -52 -144.5t-150 -53.5q-198 0 -198 192v268q0 24 -9 32.5t-50 15.5l5 36h208l3 -36l-48 -9q-16 -3 -16 -20v-278q0 -76 28.5 -112.5t94.5 -36.5t99 40.5t33 96.5v257zM382.5 616
q-29.5 -26 -71 -26t-69 23.5t-27.5 64.5t29.5 66.5t70.5 25.5t69 -24t28 -64t-29.5 -66zM277 645q13 -12 34.5 -12t36 14t14.5 35t-13 33t-33 12q-52 0 -52 -49q0 -21 13 -33z" />
    <glyph glyph-name="Uhungarumlaut.sc" horiz-adv-x="603" 
d="M452 439q0 34 -13 45.5t-62 16.5l5 36h183l3 -36l-48 -9q-16 -3 -16 -20v-281q0 -91 -52 -144.5t-150 -53.5q-198 0 -198 192v268q0 24 -9 32.5t-50 15.5l5 36h208l3 -36l-48 -9q-16 -3 -16 -20v-278q0 -76 28.5 -112.5t94.5 -36.5t99 40.5t33 96.5v257zM517 736v-23
l-177 -111l-35 25l117 139zM319 736v-23l-177 -111l-35 25l117 139z" />
    <glyph glyph-name="Uogonek.sc" horiz-adv-x="603" 
d="M452 439q0 34 -13 45.5t-62 16.5l5 36h183l3 -36l-48 -9q-16 -3 -16 -20v-281q0 -91 -52 -144.5t-150 -53.5q-198 0 -198 192v268q0 24 -9 32.5t-50 15.5l5 36h208l3 -36l-48 -9q-16 -3 -16 -20v-278q0 -76 28.5 -112.5t94.5 -36.5t99 40.5t33 96.5v257zM413 -171
q-45 -41 -88 -41t-68 24.5t-25 67.5t41 85.5t121 67.5l11 -20q-106 -52 -106 -124q0 -23 13.5 -37t39 -14t50.5 9z" />
    <glyph glyph-name="Wcircumflex.sc" horiz-adv-x="750" 
d="M411 480l99 -345q7 -19 7 -26h8l103 326q8 26 8 38q0 18 -58 28l5 36h164l3 -38q-33 -7 -43.5 -15t-17.5 -28l-158 -463h-66l-78 264q-3 15 -3 16h-5q0 -3 -4 -15l-92 -265h-67l-159 474q-6 16 -15 21.5t-39 12.5l5 36h194l3 -37l-42 -14q-6 -2 -6 -6l105 -345l7 -26h7
l83 245l-33 113q-1 5 -3 8.5t-3 6t-4 5t-4.5 3.5t-6.5 3t-7 3q-14 3 -20 5l6 36h184l3 -37l-54 -14q-6 -2 -6 -6zM510 600l-139 91l-139 -91l-25 26l136 139h56l136 -139z" />
    <glyph glyph-name="Ycircumflex.sc" horiz-adv-x="511" 
d="M281 287l92 154q16 26 16 35.5t-9.5 13.5t-37.5 11l5 36h159l3 -38q-34 -7 -48 -15.5t-25 -26.5l-130 -222v-170q0 -18 16 -20l60 -9l-3 -36h-233l-4 36q49 8 60 16t11 32v141l-153 242q-10 17 -18.5 22t-35.5 12l5 36h207l3 -37l-53 -14q-5 -2 -5 -5t5 -13l98 -154
q7 -11 7 -27h8zM399 600l-139 91l-139 -91l-25 26l136 139h56l136 -139z" />
    <glyph glyph-name="Zacute.sc" horiz-adv-x="493" 
d="M123 390l-55 5q-2 32 -2 65t7 77h381l-1 -26l-276 -443q-10 -14 -17 -17l1 -6l36 1q149 3 169 6q14 4 34 101l56 -4q1 -8 1 -54.5t-13 -94.5h-411v26l276 443q10 14 17 18l-2 5h-60q-82 0 -109 -5q-12 0 -32 -97zM406 714l-8 -21l-201 -93l-25 36l174 129z" />
    <glyph glyph-name="Zcaron.sc" horiz-adv-x="493" 
d="M123 390l-55 5q-2 32 -2 65t7 77h381l-1 -26l-276 -443q-10 -14 -17 -17l1 -6l36 1q149 3 169 6q14 4 34 101l56 -4q1 -8 1 -54.5t-13 -94.5h-411v26l276 443q10 14 17 18l-2 5h-60q-82 0 -109 -5q-12 0 -32 -97zM112 768l139 -91l139 91l25 -26l-136 -139h-56l-136 139z
" />
    <glyph glyph-name="zero.sup" horiz-adv-x="382" 
d="M314.5 494q-49.5 -65 -127 -65t-123.5 60.5t-46 148t49 153t126.5 65.5t124 -61t46.5 -148.5t-49.5 -152.5zM183 817q-76 0 -76 -167q0 -89 24.5 -135t65.5 -46q78 0 78 158q0 90 -24.5 140t-67.5 50z" />
    <glyph glyph-name="four.sup" horiz-adv-x="355" 
d="M152 435l-4 31q38 6 50.5 13t12.5 22v43h-191l-15 46l202 258q46 8 70 8l7 -6v-255l67 -1l-6 -50h-61v-57q0 -11 13 -13l37 -8l-2 -31h-180zM64 602l2 -4l145 -3v170q0 13 2 19l-4 2l-134 -170q-6 -9 -11 -14z" />
    <glyph glyph-name="five.sup" horiz-adv-x="333" 
d="M72 538q5 -52 11.5 -60.5t46.5 -8.5t66.5 27.5t26.5 67.5t-21 64.5t-62.5 24.5t-80.5 -15l-24 24l14 188h234l7 -7q0 -28 -11 -50h-180l-8 -104q37 10 90.5 10t92 -32.5t38.5 -93t-54.5 -102.5t-126 -42t-113.5 16q2 43 12 90z" />
    <glyph glyph-name="six.sup" horiz-adv-x="343" 
d="M291 660.5q39 -35.5 39 -94t-43.5 -98t-114 -39.5t-111 43t-40.5 116q0 103 74.5 175.5t181.5 94.5l14 -34q-151 -52 -178 -153l5 -2q32 27 83 27t90 -35.5zM225 483q22 25 22 72t-16.5 72t-49 25t-59.5 -16q-14 -7 -16 -24q-3 -10 -3 -18q0 -127 82 -127q24 0 40 16z
" />
    <glyph glyph-name="seven.sup" horiz-adv-x="300" 
d="M59 439q11 61 63.5 166.5t117.5 187.5l-1 4l-114 -2q-46 -2 -51.5 -2.5t-9 -8.5t-11.5 -41l-40 3q-1 10 -1 45.5t4 58.5h283v-44q-139 -206 -151 -375q-10 -2 -36 -2t-53 10z" />
    <glyph glyph-name="eight.sup" horiz-adv-x="343" 
d="M90 643q-60 32 -60 90t41.5 90.5t103.5 32.5q74 0 115 -38q26 -24 26 -61q0 -55 -51 -87q-9 -9 -22 -12v-5q3 0 11 -4q78 -39 78 -102q0 -52 -45 -85t-119 -33q-51 0 -86 13q-68 25 -68 85.5t67 100.5q12 6 19 6v7q-5 0 -10 2zM121 801q-17 -18 -17 -45.5t22.5 -44.5
t71.5 -37q46 31 46 79q0 31 -20 48.5t-53 17.5t-50 -18zM143 617q-57 -34 -57 -83q0 -31 24 -48.5t64.5 -17.5t60 19t19.5 44q0 18 -6.5 26.5t-10 13t-12 9.5t-13.5 8.5t-16.5 8t-16 6.5t-18.5 7t-18 7z" />
    <glyph glyph-name="nine.sup" horiz-adv-x="344" 
d="M53 627q-39 37 -39 93.5t43 96t112.5 39.5t112 -43.5t42.5 -115.5t-38 -137q-45 -74 -128 -108q-46 -20 -102 -24l-5 34q144 30 178 148l-5 2q-30 -22 -81 -22t-90 37zM222.5 788q-19.5 31 -56 31t-53 -25t-16.5 -68t21.5 -67.5t50 -24.5t52.5 13q14 9 17.5 23.5
t3.5 35.5q0 51 -19.5 82z" />
    <glyph glyph-name="zero.inf" horiz-adv-x="382" 
d="M314.5 -104q-49.5 -65 -127 -65t-123.5 60.5t-46 148t49 153t126.5 65.5t124 -61t46.5 -148.5t-49.5 -152.5zM183 219q-76 0 -76 -167q0 -89 24.5 -135t65.5 -46q78 0 78 158q0 90 -24.5 140t-67.5 50z" />
    <glyph glyph-name="one.inf" horiz-adv-x="267" 
d="M41 -163l-4 31q38 6 51 13.5t13 21.5v258q0 31 -3 37t-22.5 6t-37.5 -3l-5 31q75 26 133 26l8 -7v-367q0 -5 4.5 -6t8.5 -2l50 -8l-3 -31h-193z" />
    <glyph glyph-name="two.inf" horiz-adv-x="330" 
d="M8 -163v42q103 82 153.5 145t50.5 115q0 33 -21 55.5t-60.5 22.5t-53.5 -16q-11 -11 -15 -68l-44 4q-6 29 -6 54t1 32q21 16 59 25.5t70 9.5q78 0 119.5 -33.5t41.5 -89.5t-50 -112t-167 -139l1 -5l61 2q82 2 86 4q12 2 26 61l40 -2v-19q0 -54 -10 -88h-282z" />
    <glyph glyph-name="three.inf" horiz-adv-x="313" 
d="M12 -67l44 3q3 -56 13 -59q18 -6 52 -6t57.5 21.5t23.5 56.5q0 86 -86 86q-10 0 -34 -2l2 36q54 8 79 33.5t25 54.5t-18.5 45.5t-48.5 16.5t-42 -8.5t-17 -68.5l-43 4q-6 32 -6 54t1 30q50 28 115 28t103 -23.5t38 -60t-23 -64t-54 -39.5l1 -5q40 -6 69 -34t29 -75
t-50.5 -86.5t-124.5 -39.5t-116 13q7 64 11 89z" />
    <glyph glyph-name="four.inf" horiz-adv-x="355" 
d="M152 -163l-4 31q38 6 50.5 13t12.5 22v43h-191l-15 46l202 258q46 8 70 8l7 -6v-255l67 -1l-6 -50h-61v-57q0 -11 13 -13l37 -8l-2 -31h-180zM64 4l2 -4l145 -3v170q0 13 2 19l-4 2l-134 -170q-6 -9 -11 -14z" />
    <glyph glyph-name="five.inf" horiz-adv-x="333" 
d="M72 -60q5 -52 11.5 -60.5t46.5 -8.5t66.5 27.5t26.5 67.5t-21 64.5t-62.5 24.5t-80.5 -15l-24 24l14 188h234l7 -7q0 -28 -11 -50h-180l-8 -104q37 10 90.5 10t92 -32.5t38.5 -93t-54.5 -102.5t-126 -42t-113.5 16q2 43 12 90z" />
    <glyph glyph-name="six.inf" horiz-adv-x="343" 
d="M291 62.5q39 -35.5 39 -94t-43.5 -98t-114 -39.5t-111 43t-40.5 116q0 103 74.5 175.5t181.5 94.5l14 -34q-151 -52 -178 -153l5 -2q32 27 83 27t90 -35.5zM225 -115q22 25 22 72t-16.5 72t-49 25t-59.5 -16q-14 -7 -16 -24q-3 -10 -3 -18q0 -127 82 -127q24 0 40 16z
" />
    <glyph glyph-name="seven.inf" horiz-adv-x="300" 
d="M59 -159q11 61 63.5 166.5t117.5 187.5l-1 4l-114 -2q-46 -2 -51.5 -2.5t-9 -8.5t-11.5 -41l-40 3q-1 10 -1 45.5t4 58.5h283v-44q-139 -206 -151 -375q-10 -2 -36 -2t-53 10z" />
    <glyph glyph-name="eight.inf" horiz-adv-x="343" 
d="M90 45q-60 32 -60 90t41.5 90.5t103.5 32.5q74 0 115 -38q26 -24 26 -61q0 -55 -51 -87q-9 -9 -22 -12v-5q3 0 11 -4q78 -39 78 -102q0 -52 -45 -85t-119 -33q-51 0 -86 13q-68 25 -68 85.5t67 100.5q12 6 19 6v7q-5 0 -10 2zM121 203q-17 -18 -17 -45.5t22.5 -44.5
t71.5 -37q46 31 46 79q0 31 -20 48.5t-53 17.5t-50 -18zM143 19q-57 -34 -57 -83q0 -31 24 -48.5t64.5 -17.5t60 19t19.5 44q0 18 -6.5 26.5t-10 13t-12 9.5t-13.5 8.5t-16.5 8t-16 6.5t-18.5 7t-18 7z" />
    <glyph glyph-name="nine.inf" horiz-adv-x="344" 
d="M53 29q-39 37 -39 93.5t43 96t112.5 39.5t112 -43.5t42.5 -115.5t-38 -137q-45 -74 -128 -108q-46 -20 -102 -24l-5 34q144 30 178 148l-5 2q-30 -22 -81 -22t-90 37zM222.5 190q-19.5 31 -56 31t-53 -25t-16.5 -68t21.5 -67.5t50 -24.5t52.5 13q14 9 17.5 23.5t3.5 35.5
q0 51 -19.5 82z" />
  </font>
</defs>
</svg>
